<?xml version="1.0" encoding="utf-8"?>
<!-- Generator: Adobe Illustrator 18.1.1, SVG Export Plug-In . SVG Version: 6.00 Build 0)  -->
<svg version="1.1" id="rainbow_trout" xmlns="http://www.w3.org/2000/svg" xmlns:xlink="http://www.w3.org/1999/xlink" x="0px"
	 y="0px" viewBox="-0.1 116.4 360 127.2" enable-background="new -0.1 116.4 360 127.2" xml:space="preserve">
<path fill="#504E3C" d="M351.1,186.5c0,0,2-0.8,3-0.6s4.1,0.9,4.8-0.1c0.6-0.9,2.3-9.6-25.1-19.1c-27.4-9.5-59.3-19-115.1-20.2
	c0,0-15-21.4-31.8-30.2c0,0-14,12.4-40.6,31.8c0,0,0.9,3.2,5.8,6.7c0,0-36.8,6.8-46.6,8.3c-9.8,1.5-16.5,0.6-19.4-0.6
	s-7.9-3.2-11.3-2.3s-5.1,3.2-4.8,3.5c0.4,0.4,5.5,2.2,5.6,3.4c0.2,1.3-2.5,6.4-18.9,0.1c-16.4-6.3-39.6-20.1-54.8-25
	c0,0-2.5,19,8.4,35.4c0,0-10.5,19.6-10.5,32.3c0,0,4.3,3.5,17.9,1.2c13.6-2.3,33.1-9.1,45.8-9.3s16.2,0.6,27.3,4.2
	c0,0-9.8,2.5-13.9,2.3c0,0-0.1,7.6,6.2,16.5c0,0,8,2,23.7-1c15.7-2.9,17.2-8.6,33.1-8.9s32.6,1.6,32.6,1.6s0.1,7.9-0.6,11.1
	c-0.8,3.2-4.1,14.5-3,15.6s13.4,0.3,32.8-20.9c0,0,8.6,4.1,29,2.8s27.8-2.2,35.6-7c0,0,1.3,4.4,0.5,7.7s-2.2,5.1-1.4,5.1
	s7.6-1.5,18.8-15.1c0,0,19.4-3.7,21-4.2c0,0,6,0.6,7.9,0.1s25.7-8.8,28.5-10.5c2.8-1.6,18.4-9.6,18.3-10.5
	C359.9,190,351.9,188.5,351.1,186.5z"/>
<path fill="#FFFFFF" d="M350.4,183c0,0-11.5-10.2-38.4-16.4s-57.4-10.8-91.4-10.5s-59.1,5.7-82.7,9.6s-55.8,11.4-59.3,11
	c-3.5-0.4-37-8.6-39-7.6c-2,1-3.9,5,0.6,14.3c0,0-4.9,11.5,5.1,18.4c0,0,19.1-3.4,28-1.8c8.9,1.6,29.2,8.6,35.1,11.5
	c5.9,2.9,17.2,3.5,24.2,2.4c7-1.1,31-0.3,40.3,2c0,0,2.6-1.6,3.3-1.5s6.2,1.8,10.9,2.6c4.7,0.8,13.7,1,14.9,1.3s1.9,0.7,0.6,2.9
	c0,0,3,2.2,20,1.9s31.1,0.3,43.5-6.2c0,0-1.4-6.7,1.6-12.1c0,0,8.3-2.2,13.2-5.7c0,0,0.3-4.8,2-7c0,0-1.6,5.1-0.1,7.6
	c1.6,2.5,5.1,5.8,11.8,8.8l-4.7-1l-4.4,6.9l16.1-3.5c0,0-16-10.5-15.3-18.4c0.7-8,8.7-19.1,9.9-20.3c1.1-1.2,4.2-2.4,4.2-2.4
	s-3.4,2.3-3.9,3.1c-0.4,0.8-9.8,15.3-8.9,20.2c0.9,4.8,7.7,14.8,17.2,17.2c9.4,2.3,34.7-8.6,34.7-8.6s-6,1.3-8.6,0.6
	c-2.7-0.8-5-0.8-5.8-0.8c-0.8,0-11.5,3.7-24.1-12c0,0,13.6,11,19.5,10.9c5.9-0.1,5.8-0.6,7.1-0.3c1.3,0.3,4.3,0.6,5.7,0.6
	s19-4.8,24.7-9.4c0,0-4.4-0.6-8-3.7c0,0-9.1,5.1-11.5,5.4c-2.4,0.3-6.3-0.3-5.8-1.8s14.5-6.4,14.5-6.4s-13.6,5.8-13.6,6.5
	s3.9,1.1,5.1,0.8c1.2-0.4,8.3-4.4,10-5.1S352.7,184.8,350.4,183z"/>
<path fill="#504E3C" d="M319.1,172.8c0,0-2.3,0.8-3.2,1.5s-6.6,8.2-5.7,11.1c0.9,2.9,2.2,7.5,13.2,10.9c0,0-11.4-5.2-12.4-11.2
	c-0.4-2.7,3.7-9.1,5.1-10.1C317.6,174,319.1,172.8,319.1,172.8z"/>
<g>
	<path d="M287.7,191.7l-0.4-1.1h0.6c3.6,3.3,12.6,6,12.6,6l0,0c-2.1-2.3-3.1-4.2-3.9-4.7c-2-1.3-7-6-7-6l0.3-0.6
		c1.3,1.8,7.1,6,7.7,6.7c0.6,0.6,4.9,5,7.5,7.7c2.5,2.7,11.8,5.6,11.8,5.6c-1.4-0.3-2.7-0.7-3.9-1.1l0.3,0.1
		c-3.2,5.3-6.3,6.1-6.3,6.1c4.9-3.6,5.6-6.4,5.6-6.4l0.2,0.1c-1.6-0.5-3-1.1-4.3-1.7h0.1c-7.2,4.2-10.6,4.3-10.6,4.3
		c3-0.9,10.1-4.6,10.1-4.6l0.4,0.2c-0.6-0.3-1.1-0.6-1.6-0.9l0.2,0.1c-9.4,0.7-15.6-1.4-15.6-1.4l-0.8-0.4v-0.6
		c6.1,2.3,15.8,2.2,15.8,2.2l0.1,0.1c-2.2-1.3-3.8-2.7-5.1-3.9l0,0C293,195.5,287.7,191.7,287.7,191.7z"/>
	<path d="M311.1,203.6c-5.3,4.6-9.4,5.5-9.4,5.5c4.1-2,8.8-5.7,8.8-5.7L311.1,203.6z"/>
	<path d="M315.9,205.1c-2.5,4.6-3.9,5.1-3.9,5.1c2.4-2.7,3.4-5.3,3.4-5.3L315.9,205.1z"/>
</g>
<path fill="#504E3C" d="M289.5,175.1c0,0-2.5,0.3-5.3,0c-2.7-0.3-20.4-3.5-21.4-3.3c-1,0.2-5.8,1.4-8.2,1.7c-2.4,0.3-7.6-3-9.8-3.2
	c-2.2-0.2-24.7,0-39.2,1c-14.5,1-48.8,6.2-55.7,7c-6.8,0.8-31.2,3.7-36.6,4.6c-5.5,0.9-33.7,3.7-57.1,2.5c0,0,27.1,4.8,51.5,5.2
	c24.4,0.5,54.2-1.3,70.9-1s33.9-1.8,44.7,2c0,0,18.3-2.9,54.6,0c0,0-32.8-4.4-54.5-1.1c0,0-6-2.3-11.3-2.3c-5.3,0-67.8,1.3-77.3,1.5
	c-9.5,0.2-42-0.5-63.5-3c0,0,14.9-0.1,36.3-2.2s85.1-10.6,99.4-11.8c14.3-1.1,36.5-1.8,38-1.3c1.6,0.5,6.5,3,8.1,3s8.4-1.9,10-1.8
	C264.7,172.8,287.1,178,289.5,175.1z"/>
<path fill="#504E3C" d="M262.4,210.2c0,0-6.3,2-10.6,1.8c-4.3-0.2-44.7-2-61.4-3.7c-16.7-1.6-31.2-2.6-38-1.6
	c-6.8,1-20.3,4.2-39.6,0c-19.3-4.2-26.6-6.1-29.9-6.3c0,0,24.2,6.1,29.9,7.2s12.2,2.9,20,2.7s21-3.1,24.1-2.9
	c3,0.1,48.5,3.9,65.6,4.8C239.6,212.8,253.6,215.7,262.4,210.2z"/>
<path fill="#FFFFFF" d="M75.4,170.3c0,0,10.6-1.1,9.7-2.9c-0.8-1.8-8.4-5.6-9.7-5.5c-1.4,0.1-4.8,1.1-4.2,1.4
	C71.8,163.6,79.2,165.2,75.4,170.3z"/>
<path fill="#FFFFFF" d="M186.8,117.5c18.2,11.7,29.6,29.2,29.6,29.2c-1.2,0-2.4,0-3.6,0c-2.5-3.3-14.6-19-26.5-26.4
	c0,0,13.6,9.9,24.7,26.4c-0.9,0-1.8,0.1-2.7,0.1c-4.4-5.6-14.6-17.7-24.7-24c0,0,12.4,8.9,23,24.1c-1,0.1-2.1,0.1-3.1,0.2
	c-5.1-6.1-13.9-16.1-22.7-21.6c0,0,11,8,21.2,21.7c-1,0.1-2,0.1-3,0.3c-5.2-6.1-13.1-14.6-21-19.5c0,0,10,7.2,19.7,19.7
	c-1,0.1-1.9,0.2-2.9,0.3c-5.2-6-12.4-13.4-19.6-17.9c0,0,9.1,6.6,18.4,18.1c-1.1,0.1-2.3,0.3-3.4,0.4c-5-5.5-11.4-11.9-17.7-15.8
	c0,0,8,5.8,16.7,16c-1.1,0.1-2.2,0.3-3.2,0.4c-4.8-5.1-10.5-10.6-16.3-14.2c0,0,7.2,5.2,15.3,14.3c-1.1,0.1-2.2,0.3-3.2,0.4
	c-4.4-4.6-9.6-9.4-14.8-12.7c0,0,6.3,4.6,13.9,12.8c-1.3,0.2-2.5,0.4-3.8,0.6c-4-4-8.4-7.9-12.9-10.7c0,0,5.3,3.9,12,10.8
	c-1.1,0.2-2.1,0.3-3.1,0.5c-3.7-3.5-7.7-7-11.7-9.4c0,0,4.7,3.4,10.8,9.6c-1,0.2-2,0.3-3,0.5c-3.4-3.2-7-6.2-10.6-8.5
	c0,0,4.2,3,9.8,8.6c-1.1,0.2-2.1,0.4-3,0.6c-3-2.9-6.3-5.5-9.6-7.5c0,0,3.7,2.7,8.8,7.6c-1.1,0.2-2.2,0.4-3.2,0.6
	c-2.7-2.4-5.6-4.7-8.4-6.5c0,0,3.2,2.3,7.7,6.6c-1.2,0.3-2.3,0.4-3.2,0.6c-2.3-2-4.8-3.9-7.2-5.5c0,0,2.7,2,6.7,5.6
	c-2.6,0.5-4.1,0.9-4.1,0.9c-5.2-4.1-5.9-6.2-5.9-6.2C164.9,137.8,186.8,117.5,186.8,117.5z"/>
<path fill="#FFFFFF" d="M91.5,206.4c0,0,0.5,0.3,1.4,0.6c-8.4,3-14.4,4.1-14.4,4.1c4.9-0.5,10.2-2,15.3-3.6c0.9,0.4,1.9,0.9,3.1,1.4
	c-10,3.9-17.4,5.2-17.4,5.2c5.9-0.6,12.5-2.6,18.4-4.8c0.8,0.3,1.6,0.7,2.4,1c-11.2,4.6-19.8,6.1-19.8,6.1
	c6.7-0.7,14.3-3.2,20.9-5.7c0.8,0.3,1.6,0.6,2.5,1c-12.1,5.2-21.7,6.9-21.7,6.9c7.4-0.8,16-3.7,22.9-6.5c1.5,0.6,2.9,1.1,4.2,1.5
	c-13.2,6-24,8-24,8c8.4-0.9,18.2-4.4,25.5-7.5c0.2,0.1,0.3,0.1,0.5,0.1c0.7,0.2,1.4,0.4,2.2,0.5c-13.8,6.5-25.2,8.6-25.2,8.6
	c9-1,19.6-5,26.9-8.2c1.4,0.3,2.7,0.4,4,0.6c-12.9,5.8-23.3,7.6-23.3,7.6c8.3-0.9,18-4.4,25.2-7.5c3.2,0.3,5.3,0.2,5.3,0.2
	s-14.1,5.6-18.9,6.7s-20,1.9-23.6,1.3c0,0-4.9-6.6-5.9-14.9C77.8,209.1,85.9,208.3,91.5,206.4z"/>
<path fill="#FFFFFF" d="M171.8,231.9c1.1-4.4,2.3-8.2,1.8-15.4l2.7-1.6c0,0,2.6,1,6.5,2c-4.6,2.1-7.6,3-7.6,3
	c2.7-0.7,5.6-1.6,8.4-2.9c1,0.3,2.1,0.5,3.2,0.7c0.3,0.1,0.7,0.1,1,0.2c-8.1,4.2-14,6.1-14,6.1c4.9-1.2,10.3-3.5,15.2-6
	c1.2,0.1,2.4,0.3,3.6,0.3c-9.8,5.5-17.4,8-17.4,8c6.2-1.6,13-4.8,18.9-7.9c0.4,0,0.8,0.1,1.2,0.1c-11.9,9.3-22.5,13.7-22.5,13.7
	c8.4-2.9,17.6-8.9,24-13.6c1.5,0.1,2.8,0.1,3.7,0.3c-14.3,13.2-29.4,19.5-29.4,19.5c12.1-4.1,25.9-14.9,30.7-18.8
	c-0.5,2-6.3,9.6-15.3,15.7c-9.9,6.6-16,7.7-16.3,7C169.9,241.6,170.6,236.4,171.8,231.9z"/>
<path fill="#FFFFFF" d="M268.5,224.2c0.1-2-1.1-6.7-1.1-10.1c-0.1-3.4,1-8.8,1-8.8c4,0.1,13.1-5.1,13.1-5.1c0.1,0.6,0.4,1.2,1,1.8
	c-8.1,4.8-14.1,7.1-14.1,7.1c4.8-1.5,9.9-3.9,14.6-6.6c0.3,0.3,0.6,0.6,1,0.9c-8.6,7.9-15.7,12.2-15.7,12.2
	c5.6-2.9,11.3-7.3,16.2-11.7c0.4,0.4,1,0.7,1.4,1.1c-8.6,10.1-16.5,15.8-16.5,15.8c6.1-3.9,12.3-9.9,17.2-15.3
	c0.3,0.2,0.4,0.3,0.7,0.4c-8.9,11.4-17.5,18.1-17.5,18.1c6.7-4.4,13.4-11.6,18.3-17.6c0.8,0.5,1.4,0.8,1.4,0.8
	c-8.4,14.1-22.4,22.2-22.4,22.2S268.3,226.2,268.5,224.2z"/>
<path fill="#FFFFFF" d="M11.7,177.7c0,0-7.3-7.3-8.6-33.7c0,0,22.4,8.4,37.2,17.6c0,0-0.3,0.4-0.6,1.1c-4.1-2.5-20.6-12.1-34-14.6
	c0,0,16.7,4.2,33.2,15.9h0.1c-0.3,0.4-0.5,1-0.8,1.5c-6.7-3.2-20.7-9.4-32.1-10.6c0,0,15.2,2.7,31.6,11.9c-0.1,0.3-0.2,0.5-0.3,0.8
	c-7.4-2.8-20.4-7-31-7.4c0,0,14.3,1.5,30.6,8.6c-0.3,0.8-0.5,1.7-0.6,2.6c-7.7-2.5-19.3-5.6-28.8-5.7c0,0,13.1,0.9,28.7,6.8
	c0,0.4-0.1,0.7,0,1c0,0.4,0.1,0.7,0.1,1.1c-7.6-2.2-17.9-4.7-26.5-4.6c0,0,12,0.7,26.6,5.7c0.1,0.9,0.3,1.7,0.5,2.5
	c-7.5-2.3-17.7-4.7-26.2-4.6c0,0,11.9,0.8,26.6,5.8c0.4,1.6,1,2.9,1.3,3.5c-7.5-2.3-17.4-4.8-25.7-4.9c0,0,11.6,0.9,25.9,6
	c-0.1,0.4-0.2,1-0.3,1.8c-7.9-1.2-19.2-2.3-28.1-0.9c0,0,12.4-1.1,28,1.9c-0.1,0.6-0.2,1.3-0.3,1.9c-8-0.3-21.2-0.3-31.1,2.6
	c0,0,13.6-3,30.9-1.5c0,0.6-0.1,1.1-0.1,1.7c-7.9-0.1-21.9,0.4-32.1,3.9c0,0,14.2-3.7,32.1-2.6c0.1,0.8,0.2,1.5,0.4,2.1
	c-7.7,0.3-22.2,1.2-32.5,5.1c0,0,14.5-4.4,33-3.8c0.4,0.8,0.9,1.5,1.5,2.3c-6.3,0.4-23.5,1.8-35.1,6.8c0,0,16.2-5.7,36.3-5.3
	c0.3,0.3,0.6,0.6,0.8,0.9c-5.6,0.6-23.6,3-35.3,9c0,0,15.8-6.7,36.1-7.5l0.5-0.2c1,1,1.7,1.5,1.7,1.5s-26.3,7.2-32.1,7.3
	s-12.2-1.4-12.2-1.4S2.2,196.6,11.7,177.7z"/>
<g>
	<ellipse fill="#504E3C" cx="330.9" cy="176.4" rx="8.7" ry="5"/>
	<path fill="#FFFFFF" d="M324.8,175.8c0,2.9,2.7,5.3,6,5.3c3.3,0,6-2.3,6-5.3c0-2.9-2.7-5.3-6-5.3
		C327.4,170.6,324.8,173,324.8,175.8z"/>
	<path fill="#504E3C" d="M324.2,175.8c0-3.2,2.9-5.8,6.5-5.8c3.6,0,6.5,2.6,6.5,5.8s-2.9,5.8-6.5,5.8
		C327.1,181.6,324.2,179,324.2,175.8z M324.8,175.8c0,2.9,2.7,5.3,6,5.3c3.3,0,6-2.3,6-5.3c0-2.9-2.7-5.3-6-5.3
		C327.4,170.6,324.8,173,324.8,175.8z"/>
	<path fill="#504E3C" d="M329.3,174.5c0.8,0,1.5-0.7,1.5-1.5v-0.1l0,0c1.6,0,3,1.3,3,3s-1.3,3-3,3c-1.6,0-3-1.3-3-3
		c0-0.6,0.2-1.2,0.5-1.6C328.6,174.4,328.9,174.5,329.3,174.5z"/>
</g>
<ellipse transform="matrix(0.3385 0.941 -0.941 0.3385 398.3052 -208.8488)" fill="#504E3C" cx="347.7" cy="178.9" rx="1.3" ry="1"/>
<ellipse transform="matrix(0.3385 0.941 -0.941 0.3385 394.7733 -205.0929)" fill="#504E3C" cx="343.3" cy="178.2" rx="1.3" ry="1"/>
<ellipse transform="matrix(0.3385 0.941 -0.941 0.3385 371.149 -190.5068)" fill="#504E3C" cx="321.1" cy="168.7" rx="1.3" ry="1"/>
<ellipse transform="matrix(0.3385 0.941 -0.941 0.3385 364.0851 -182.9949)" fill="#504E3C" cx="312.2" cy="167.5" rx="1.3" ry="1"/>
<ellipse transform="matrix(0.3385 0.941 -0.941 0.3385 360.3109 -177.6267)" fill="#504E3C" cx="306.5" cy="167.4" rx="1.3" ry="1"/>
<ellipse transform="matrix(0.3385 0.941 -0.941 0.3385 365.2312 -188.4283)" fill="#504E3C" cx="316.6" cy="165.5" rx="1.3" ry="1"/>
<ellipse transform="matrix(0.3385 0.941 -0.941 0.3385 355.297 -179.3693)" fill="#504E3C" cx="305.2" cy="163" rx="1.3" ry="1"/>
<ellipse transform="matrix(0.3385 0.941 -0.941 0.3385 355.9402 -172.6779)" fill="#504E3C" cx="300.8" cy="166.8" rx="1.3" ry="1"/>
<ellipse transform="matrix(0.3385 0.941 -0.941 0.3385 357.4223 -167.1794)" fill="#504E3C" cx="297.6" cy="170.6" rx="1.3" ry="1"/>
<ellipse transform="matrix(0.3385 0.941 -0.941 0.3385 351.3925 -168.7448)" fill="#504E3C" cx="295.7" cy="165.5" rx="1.3" ry="1"/>
<ellipse transform="matrix(0.3385 0.941 -0.941 0.3385 344.4589 -166.4893)" fill="#504E3C" cx="290.6" cy="161.7" rx="1.3" ry="1"/>
<ellipse transform="matrix(0.3385 0.941 -0.941 0.3385 344.748 -161.8295)" fill="#504E3C" cx="287.5" cy="164.3" rx="1.3" ry="1"/>
<ellipse transform="matrix(0.3385 0.941 -0.941 0.3385 342.5861 -156.2191)" fill="#504E3C" cx="282.4" cy="165.5" rx="1.3" ry="1"/>
<ellipse transform="matrix(0.3385 0.941 -0.941 0.3385 347.0036 -154.8959)" fill="#504E3C" cx="283.7" cy="169.4" rx="1.3" ry="1"/>
<ellipse transform="matrix(0.3385 0.941 -0.941 0.3385 348.0845 -157.7011)" fill="#504E3C" cx="286.2" cy="168.7" rx="1.3" ry="1"/>
<ellipse transform="matrix(0.3385 0.941 -0.941 0.3385 340.6847 -161.121)" fill="#504E3C" cx="284.9" cy="161.7" rx="1.3" ry="1"/>
<ellipse transform="matrix(0.3385 0.941 -0.941 0.3385 340.992 -165.3614)" fill="#504E3C" cx="288.1" cy="159.8" rx="1.3" ry="1"/>
<ellipse transform="matrix(0.3385 0.941 -0.941 0.3385 339.0074 -158.7352)" fill="#504E3C" cx="282.4" cy="161.7" rx="1.3" ry="1"/>
<ellipse transform="matrix(0.3385 0.941 -0.941 0.3385 334.7018 -156.4144)" fill="#504E3C" cx="278.6" cy="159.8" rx="1.3" ry="1"/>
<ellipse transform="matrix(0.3385 0.941 -0.941 0.3385 343.4716 -151.1399)" fill="#504E3C" cx="279.2" cy="168.7" rx="1.3" ry="1"/>
<ellipse transform="matrix(0.3385 0.941 -0.941 0.3385 338.6999 -154.4948)" fill="#504E3C" cx="279.2" cy="163.6" rx="1.3" ry="1"/>
<ellipse transform="matrix(0.3385 0.941 -0.941 0.3385 334.3944 -152.174)" fill="#504E3C" cx="275.4" cy="161.7" rx="1.3" ry="1"/>
<ellipse transform="matrix(0.3385 0.941 -0.941 0.3385 329.9769 -153.4972)" fill="#504E3C" cx="274.2" cy="157.9" rx="1.3" ry="1"/>
<ellipse transform="matrix(0.3385 0.941 -0.941 0.3385 332.4748 -148.1759)" fill="#504E3C" cx="271.6" cy="162.4" rx="1.3" ry="1"/>
<ellipse transform="matrix(0.3385 0.941 -0.941 0.3385 324.5253 -145.7431)" fill="#504E3C" cx="265.9" cy="157.9" rx="1.3" ry="1"/>
<ellipse transform="matrix(0.3385 0.941 -0.941 0.3385 329.3622 -145.0164)" fill="#504E3C" cx="267.8" cy="161.7" rx="1.3" ry="1"/>
<ellipse transform="matrix(0.3385 0.941 -0.941 0.3385 325.2338 -141.6798)" fill="#504E3C" cx="263.4" cy="160.5" rx="1.3" ry="1"/>
<ellipse transform="matrix(0.3385 0.941 -0.941 0.3385 320.7512 -140.3749)" fill="#504E3C" cx="260.2" cy="157.9" rx="1.3" ry="1"/>
<ellipse transform="matrix(0.3385 0.941 -0.941 0.3385 318.6544 -137.3926)" fill="#504E3C" cx="257" cy="157.9" rx="1.3" ry="1"/>
<ellipse transform="matrix(0.3385 0.941 -0.941 0.3385 312.6714 -132.686)" fill="#504E3C" cx="250.7" cy="156" rx="1.3" ry="1"/>
<ellipse transform="matrix(0.3385 0.941 -0.941 0.3385 316.9118 -132.3786)" fill="#504E3C" cx="252.6" cy="159.2" rx="1.3" ry="1"/>
<ellipse transform="matrix(0.3385 0.941 -0.941 0.3385 321.3944 -133.6835)" fill="#504E3C" cx="255.8" cy="161.7" rx="1.3" ry="1"/>
<ellipse transform="matrix(0.3385 0.941 -0.941 0.3385 324.507 -136.8429)" fill="#504E3C" cx="259.6" cy="162.4" rx="1.3" ry="1"/>
<ellipse transform="matrix(0.3385 0.941 -0.941 0.3385 316.1851 -127.5418)" fill="#504E3C" cx="248.8" cy="161.1" rx="1.3" ry="1"/>
<ellipse transform="matrix(0.3385 0.941 -0.941 0.3385 312.5412 -127.4298)" fill="#504E3C" cx="246.9" cy="158.6" rx="1.3" ry="1"/>
<ellipse transform="matrix(0.3385 0.941 -0.941 0.3385 308.7202 -128.3336)" fill="#504E3C" cx="245.6" cy="155.4" rx="1.3" ry="1"/>
<ellipse transform="matrix(0.3385 0.941 -0.941 0.3385 306.2041 -124.7548)" fill="#504E3C" cx="241.8" cy="155.4" rx="1.3" ry="1"/>
<ellipse transform="matrix(0.3385 0.941 -0.941 0.3385 310.2022 -122.8351)" fill="#504E3C" cx="242.5" cy="159.2" rx="1.3" ry="1"/>
<ellipse transform="matrix(0.3385 0.941 -0.941 0.3385 313.781 -120.319)" fill="#504E3C" cx="242.5" cy="163" rx="1.3" ry="1"/>
<ellipse transform="matrix(0.3385 0.941 -0.941 0.3385 310.072 -117.5789)" fill="#504E3C" cx="238.7" cy="161.7" rx="1.3" ry="1"/>
<ellipse transform="matrix(0.3385 0.941 -0.941 0.3385 304.8158 -117.7092)" fill="#504E3C" cx="236.1" cy="157.9" rx="1.3" ry="1"/>
<ellipse transform="matrix(0.3385 0.941 -0.941 0.3385 303.5108 -122.1918)" fill="#504E3C" cx="238.7" cy="154.8" rx="1.3" ry="1"/>
<ellipse transform="matrix(0.3385 0.941 -0.941 0.3385 297.4628 -114.8571)" fill="#504E3C" cx="230.4" cy="154.1" rx="1.3" ry="1"/>
<ellipse transform="matrix(0.3385 0.941 -0.941 0.3385 295.366 -111.8747)" fill="#504E3C" cx="227.3" cy="154.1" rx="1.3" ry="1"/>
<ellipse transform="matrix(0.3385 0.941 -0.941 0.3385 302.0574 -112.518)" fill="#504E3C" cx="231.1" cy="158.6" rx="1.3" ry="1"/>
<ellipse transform="matrix(0.3385 0.941 -0.941 0.3385 302.943 -107.439)" fill="#504E3C" cx="227.9" cy="161.7" rx="1.3" ry="1"/>
<ellipse transform="matrix(0.3385 0.941 -0.941 0.3385 308.9727 -105.8735)" fill="#504E3C" cx="229.8" cy="166.8" rx="1.3" ry="1"/>
<ellipse transform="matrix(0.3385 0.941 -0.941 0.3385 318.5059 -123.2363)" fill="#504E3C" cx="246.9" cy="164.9" rx="1.3" ry="1"/>
<ellipse transform="matrix(0.3385 0.941 -0.941 0.3385 322.0378 -126.9921)" fill="#504E3C" cx="251.3" cy="165.5" rx="1.3" ry="1"/>
<ellipse transform="matrix(0.3385 0.941 -0.941 0.3385 325.1504 -130.1516)" fill="#504E3C" cx="255.1" cy="166.2" rx="1.3" ry="1"/>
<ellipse transform="matrix(0.3385 0.941 -0.941 0.3385 296.8481 -106.3763)" fill="#504E3C" cx="224.1" cy="157.9" rx="1.3" ry="1"/>
<ellipse transform="matrix(0.3385 0.941 -0.941 0.3385 301.2004 -102.425)" fill="#504E3C" cx="223.4" cy="163" rx="1.3" ry="1"/>
<ellipse transform="matrix(0.3385 0.941 -0.941 0.3385 295.1055 -101.3623)" fill="#504E3C" cx="219.6" cy="159.2" rx="1.3" ry="1"/>
<ellipse transform="matrix(0.3385 0.941 -0.941 0.3385 291.2193 -99.638)" fill="#504E3C" cx="216.5" cy="157.3" rx="1.3" ry="1"/>
<ellipse transform="matrix(0.3385 0.941 -0.941 0.3385 285.8979 -97.1401)" fill="#504E3C" cx="212" cy="154.8" rx="1.3" ry="1"/>
<ellipse transform="matrix(0.3385 0.941 -0.941 0.3385 282.9625 -92.9649)" fill="#504E3C" cx="207.6" cy="154.8" rx="1.3" ry="1"/>
<ellipse transform="matrix(0.3385 0.941 -0.941 0.3385 308.1809 -98.4085)" fill="#504E3C" cx="224.1" cy="170" rx="1.3" ry="1"/>
<ellipse transform="matrix(0.3385 0.941 -0.941 0.3385 303.2138 -93.8791)" fill="#504E3C" cx="218.4" cy="168.7" rx="1.3" ry="1"/>
<ellipse transform="matrix(0.3385 0.941 -0.941 0.3385 308.0872 -110.9526)" fill="#504E3C" cx="233" cy="163.6" rx="1.3" ry="1"/>
<ellipse transform="matrix(0.3385 0.941 -0.941 0.3385 299.8772 -98.0075)" fill="#504E3C" cx="219.6" cy="164.3" rx="1.3" ry="1"/>
<ellipse transform="matrix(0.3385 0.941 -0.941 0.3385 295.7488 -94.6709)" fill="#504E3C" cx="215.2" cy="163" rx="1.3" ry="1"/>
<ellipse transform="matrix(0.3385 0.941 -0.941 0.3385 289.8961 -95.2205)" fill="#504E3C" cx="212.7" cy="158.6" rx="1.3" ry="1"/>
<ellipse transform="matrix(0.3385 0.941 -0.941 0.3385 296.0379 -90.0111)" fill="#504E3C" cx="212" cy="165.5" rx="1.3" ry="1"/>
<ellipse transform="matrix(0.3385 0.941 -0.941 0.3385 300.8748 -89.2844)" fill="#504E3C" cx="213.9" cy="169.3" rx="1.3" ry="1"/>
<ellipse transform="matrix(0.3385 0.941 -0.941 0.3385 292.6831 -85.2394)" fill="#504E3C" cx="207" cy="165.5" rx="1.3" ry="1"/>
<ellipse transform="matrix(0.3385 0.941 -0.941 0.3385 293.9229 -78.1287)" fill="#504E3C" cx="202.5" cy="170" rx="1.3" ry="1"/>
<ellipse transform="matrix(0.3385 0.941 -0.941 0.3385 285.6844 -80.3557)" fill="#504E3C" cx="200" cy="163" rx="1.3" ry="1"/>
<ellipse transform="matrix(0.3385 0.941 -0.941 0.3385 285.1348 -74.503)" fill="#504E3C" cx="195.6" cy="165.5" rx="1.3" ry="1"/>
<ellipse transform="matrix(0.3385 0.941 -0.941 0.3385 279.7014 -75.6491)" fill="#504E3C" cx="193.7" cy="161.1" rx="1.3" ry="1"/>
<ellipse transform="matrix(0.3385 0.941 -0.941 0.3385 276.9613 -79.3581)" fill="#504E3C" cx="194.9" cy="157.3" rx="1.3" ry="1"/>
<ellipse transform="matrix(0.3384 0.941 -0.941 0.3384 272.0111 -74.8321)" fill="#504E3C" cx="189.2" cy="156" rx="1.3" ry="1"/>
<ellipse transform="matrix(0.3384 0.941 -0.941 0.3384 272.3003 -70.172)" fill="#504E3C" cx="186.1" cy="158.6" rx="1.3" ry="1"/>
<ellipse transform="matrix(0.3384 0.941 -0.941 0.3384 276.9604 -70.4612)" fill="#504E3C" cx="188.6" cy="161.7" rx="1.3" ry="1"/>
<ellipse transform="matrix(0.3384 0.941 -0.941 0.3384 281.9748 -68.7185)" fill="#504E3C" cx="189.9" cy="166.2" rx="1.3" ry="1"/>
<ellipse transform="matrix(0.3384 0.941 -0.941 0.3384 286.5699 -66.3793)" fill="#504E3C" cx="190.5" cy="170.6" rx="1.3" ry="1"/>
<ellipse transform="matrix(0.3384 0.941 -0.941 0.3384 282.1989 -61.43)" fill="#504E3C" cx="184.8" cy="170" rx="1.3" ry="1"/>
<ellipse transform="matrix(0.3384 0.941 -0.941 0.3384 275.6841 -59.7706)" fill="#504E3C" cx="180.3" cy="166.2" rx="1.3" ry="1"/>
<ellipse transform="matrix(0.3384 0.941 -0.941 0.3384 273.7824 -64.6731)" fill="#504E3C" cx="182.9" cy="162.4" rx="1.3" ry="1"/>
<ellipse transform="matrix(0.3384 0.941 -0.941 0.3384 268.5258 -64.8033)" fill="#504E3C" cx="180.3" cy="158.6" rx="1.3" ry="1"/>
<ellipse transform="matrix(0.3384 0.941 -0.941 0.3384 263.1389 -59.6769)" fill="#504E3C" cx="174" cy="157.3" rx="1.3" ry="1"/>
<ellipse transform="matrix(0.3384 0.941 -0.941 0.3384 269.4115 -59.7237)" fill="#504E3C" cx="177.2" cy="161.7" rx="1.3" ry="1"/>
<ellipse transform="matrix(0.3384 0.941 -0.941 0.3384 272.9255 -54.5791)" fill="#504E3C" cx="175.3" cy="166.8" rx="1.3" ry="1"/>
<ellipse transform="matrix(0.3384 0.941 -0.941 0.3384 278.3593 -53.433)" fill="#504E3C" cx="177.2" cy="171.2" rx="1.3" ry="1"/>
<ellipse transform="matrix(0.3384 0.941 -0.941 0.3384 273.746 -46.8713)" fill="#504E3C" cx="170.2" cy="171.2" rx="1.3" ry="1"/>
<ellipse transform="matrix(0.3384 0.941 -0.941 0.3384 265.749 -50.7109)" fill="#504E3C" cx="168.9" cy="163.6" rx="1.3" ry="1"/>
<ellipse transform="matrix(0.3384 0.941 -0.941 0.3384 267.6688 -54.7094)" fill="#504E3C" cx="172.7" cy="163" rx="1.3" ry="1"/>
<ellipse transform="matrix(0.3384 0.941 -0.941 0.3384 260.1382 -52.8729)" fill="#504E3C" cx="167.7" cy="158.6" rx="1.3" ry="1"/>
<ellipse transform="matrix(0.3384 0.941 -0.941 0.3384 262.8134 -46.5353)" fill="#504E3C" cx="164.5" cy="163.6" rx="1.3" ry="1"/>
<ellipse transform="matrix(0.3384 0.941 -0.941 0.3384 263.699 -41.4557)" fill="#504E3C" cx="161.3" cy="166.8" rx="1.3" ry="1"/>
<ellipse transform="matrix(0.3384 0.941 -0.941 0.3384 267.6975 -39.536)" fill="#504E3C" cx="162" cy="170.6" rx="1.3" ry="1"/>
<ellipse transform="matrix(0.3384 0.941 -0.941 0.3384 256.1214 -45.8919)" fill="#504E3C" cx="160.7" cy="159.2" rx="1.3" ry="1"/>
<ellipse transform="matrix(0.3384 0.941 -0.941 0.3384 255.3296 -38.4263)" fill="#504E3C" cx="155" cy="162.4" rx="1.3" ry="1"/>
<ellipse transform="matrix(0.3384 0.941 -0.941 0.3384 251.2008 -35.0894)" fill="#504E3C" cx="150.6" cy="161.1" rx="1.3" ry="1"/>
<ellipse transform="matrix(0.3384 0.941 -0.941 0.3384 248.6845 -31.5103)" fill="#504E3C" cx="146.8" cy="161.1" rx="1.3" ry="1"/>
<ellipse transform="matrix(0.3384 0.941 -0.941 0.3384 250.7632 -25.592)" fill="#504E3C" cx="143.6" cy="165.5" rx="1.3" ry="1"/>
<ellipse transform="matrix(0.3384 0.941 -0.941 0.3384 256.197 -24.4458)" fill="#504E3C" cx="145.5" cy="170" rx="1.3" ry="1"/>
<ellipse transform="matrix(0.3384 0.941 -0.941 0.3384 260.8102 -31.0076)" fill="#504E3C" cx="152.5" cy="170" rx="1.3" ry="1"/>
<ellipse transform="matrix(0.3384 0.941 -0.941 0.3384 263.3266 -34.5867)" fill="#504E3C" cx="156.3" cy="170" rx="1.3" ry="1"/>
<ellipse transform="matrix(0.3384 0.941 -0.941 0.3384 248.0046 -20.4004)" fill="#504E3C" cx="138.5" cy="166.2" rx="1.3" ry="1"/>
<ellipse transform="matrix(0.3384 0.941 -0.941 0.3384 245.0871 -25.1257)" fill="#504E3C" cx="140.4" cy="161.7" rx="1.3" ry="1"/>
<ellipse transform="matrix(0.3384 0.941 -0.941 0.3384 243.3262 -11.2104)" fill="#504E3C" cx="129.6" cy="167.4" rx="1.3" ry="1"/>
<ellipse transform="matrix(0.3384 0.941 -0.941 0.3384 238.713 -4.6487)" fill="#504E3C" cx="122.7" cy="167.4" rx="1.3" ry="1"/>
<ellipse transform="matrix(0.3384 0.941 -0.941 0.3384 245.8243 -5.8887)" fill="#504E3C" cx="127.1" cy="171.9" rx="1.3" ry="1"/>
<ellipse transform="matrix(0.3384 0.941 -0.941 0.3384 250.7919 -10.4185)" fill="#504E3C" cx="132.8" cy="173.1" rx="1.3" ry="1"/>
<ellipse transform="matrix(0.3384 0.941 -0.941 0.3384 253.9698 -16.2066)" fill="#504E3C" cx="138.5" cy="172.5" rx="1.3" ry="1"/>
<ellipse transform="matrix(0.3384 0.941 -0.941 0.3384 240.7917 1.2696)" fill="#504E3C" cx="119.5" cy="171.9" rx="1.3" ry="1"/>
<ellipse transform="matrix(0.3384 0.941 -0.941 0.3384 235.7591 8.4278)" fill="#504E3C" cx="111.9" cy="171.9" rx="1.3" ry="1"/>
<ellipse transform="matrix(0.3384 0.941 -0.941 0.3384 233.149 -0.5382)" fill="#504E3C" cx="117" cy="165.5" rx="1.3" ry="1"/>
<ellipse transform="matrix(0.3384 0.941 -0.941 0.3384 228.1632 12.8926)" fill="#504E3C" cx="104.9" cy="168.7" rx="1.3" ry="1"/>
<ellipse transform="matrix(0.3384 0.941 -0.941 0.3384 226.0481 24.7761)" fill="#504E3C" cx="95.4" cy="173.1" rx="1.3" ry="1"/>
<ellipse transform="matrix(0.3384 0.941 -0.941 0.3384 228.3691 29.082)" fill="#504E3C" cx="93.5" cy="176.9" rx="1.3" ry="1"/>
<ellipse transform="matrix(0.3384 0.941 -0.941 0.3384 233.5137 25.568)" fill="#504E3C" cx="98.6" cy="178.8" rx="1.3" ry="1"/>
<ellipse transform="matrix(0.3384 0.941 -0.941 0.3384 229.9997 20.4233)" fill="#504E3C" cx="100.5" cy="173.8" rx="1.3" ry="1"/>
<ellipse transform="matrix(0.3384 0.941 -0.941 0.3384 233.7742 15.0547)" fill="#504E3C" cx="106.2" cy="173.8" rx="1.3" ry="1"/>
<ellipse transform="matrix(0.3384 0.941 -0.941 0.3384 236.6917 19.7799)" fill="#504E3C" cx="104.3" cy="178.2" rx="1.3" ry="1"/>
<ellipse transform="matrix(0.3384 0.941 -0.941 0.3384 238.0149 15.3621)" fill="#504E3C" cx="108.1" cy="176.9" rx="1.3" ry="1"/>
<ellipse transform="matrix(0.3384 0.941 -0.941 0.3384 239.3382 10.9442)" fill="#504E3C" cx="111.9" cy="175.7" rx="1.3" ry="1"/>
<ellipse transform="matrix(0.3384 0.941 -0.941 0.3384 242.2739 6.7686)" fill="#504E3C" cx="116.3" cy="175.7" rx="1.3" ry="1"/>
<ellipse transform="matrix(0.3384 0.941 -0.941 0.3384 248.919 -0.1474)" fill="#504E3C" cx="124.6" cy="176.9" rx="1.3" ry="1"/>
<ellipse transform="matrix(0.3384 0.941 -0.941 0.3384 260.3726 -21.5101)" fill="#504E3C" cx="145.5" cy="174.4" rx="1.3" ry="1"/>
<ellipse transform="matrix(0.3384 0.941 -0.941 0.3384 223.2895 29.9677)" fill="#504E3C" cx="90.3" cy="173.8" rx="1.3" ry="1"/>
<ellipse transform="matrix(0.3384 0.941 -0.941 0.3384 226.8035 35.1123)" fill="#504E3C" cx="88.4" cy="178.8" rx="1.3" ry="1"/>
<ellipse transform="matrix(0.3384 0.941 -0.941 0.3384 224.0449 40.3039)" fill="#504E3C" cx="83.4" cy="179.5" rx="1.3" ry="1"/>
<ellipse transform="matrix(0.3384 0.941 -0.941 0.3384 220.9321 43.4636)" fill="#504E3C" cx="79.6" cy="178.8" rx="1.3" ry="1"/>
<ellipse transform="matrix(0.3384 0.941 -0.941 0.3384 218.5278 50.687)" fill="#504E3C" cx="73.2" cy="180.8" rx="1.3" ry="1"/>
<ellipse transform="matrix(0.3384 0.941 -0.941 0.3384 212.4324 51.7498)" fill="#504E3C" cx="69.4" cy="176.9" rx="1.3" ry="1"/>
<ellipse transform="matrix(0.3384 0.941 -0.941 0.3384 216.6913 43.1562)" fill="#504E3C" cx="77.7" cy="175.7" rx="1.3" ry="1"/>
<ellipse transform="matrix(0.3384 0.941 -0.941 0.3384 211.3696 45.6543)" fill="#504E3C" cx="73.2" cy="173.1" rx="1.3" ry="1"/>
<ellipse transform="matrix(0.3384 0.941 -0.941 0.3384 220.7081 36.1751)" fill="#504E3C" cx="84.6" cy="175" rx="1.3" ry="1"/>
<ellipse transform="matrix(0.3384 0.941 -0.941 0.3384 206.0947 54.425)" fill="#504E3C" cx="64.3" cy="173.8" rx="1.3" ry="1"/>
<ellipse transform="matrix(0.3384 0.941 -0.941 0.3384 202.4973 60.8096)" fill="#504E3C" cx="58" cy="174.4" rx="1.3" ry="1"/>
<ellipse transform="matrix(0.3385 0.941 -0.941 0.3385 287.2498 -86.3855)" fill="#504E3C" cx="205.1" cy="161.1" rx="1.3" ry="1"/>
<ellipse transform="matrix(0.3385 0.941 -0.941 0.3385 286.1871 -92.4804)" fill="#504E3C" cx="208.9" cy="157.3" rx="1.3" ry="1"/>
<ellipse transform="matrix(0.3385 0.941 -0.941 0.3385 280.9126 -83.7105)" fill="#504E3C" cx="200" cy="157.9" rx="1.3" ry="1"/>
<ellipse transform="matrix(0.3385 0.941 -0.941 0.3385 347.6366 -172.2768)" fill="#504E3C" cx="296.3" cy="161.1" rx="1.3" ry="1"/>
<ellipse transform="matrix(0.3385 0.941 -0.941 0.3385 370.5994 -184.6541)" fill="#504E3C" cx="316.6" cy="171.3" rx="1.3" ry="1"/>
</svg>
