<?xml version="1.0" encoding="utf-8"?>
<!-- Generator: Adobe Illustrator 18.1.1, SVG Export Plug-In . SVG Version: 6.00 Build 0)  -->
<svg version="1.1" id="pink_salmon" xmlns="http://www.w3.org/2000/svg" xmlns:xlink="http://www.w3.org/1999/xlink" x="0px"
	 y="0px" viewBox="-0.1 128.6 359.9 102.9" enable-background="new -0.1 128.6 359.9 102.9" xml:space="preserve">
<path fill="#504E3C" d="M346.6,192c0,0-0.2-1.2,0.5-1.8c0.8-0.5,6.2-6.3,7.5-6.9s2.4-1.3,2.4-1.8c0-0.5,1.1-1.2,1.2-1.8
	c0.1-0.5,1-2.1-1.6-3.6c-2.6-1.5-7.7-3.9-11.7-5.6c-4.1-1.6-15.5-3.9-20.1-5.7s-13.5-4.7-17.5-6.2s-10.6-3.7-13.1-4.9
	c-2.5-1.2-13.3-6.7-20.9-9.5c-7.7-2.7-19.3-5.2-29.6-5.9c-10.3-0.7-26.4-1.5-32.6-1.5s-12.1-0.3-13.2-0.5c-1.1-0.2-19.1-2.5-25-2.5
	c-5.9,0-20.6,1.8-25.7,4.1c0,0,3.1,0.2,5.4,1c0,0-5.9,1.8-8.3,4.1c0,0,3.5,0.7,3.5,1c0,0-6.7,1.2-7.9,1.8c0,0,1.3,0.2,1.8,1.2
	c0,0-6,1.5-7.7,2.9c0,0,3.1-0.5,4.7-0.3c0,0-4.3,2-6,2.5s-7.2,1.2-10.9,1.2c-3.7,0-11.1,0.8-15.4,1.3s-8.7,1.4-10.9,1.4
	c-2.2,0-4.9,0.2-6.4-0.1c-1.5-0.3-3.9-1.4-5.7-1.4c-1.8,0-3.1,0.5-3.1,0.5s-0.2,1.1-0.7,1.6s-3.4,3.7-2.3,5.1c0,0,1.8,0.5,2.2,1.1
	l-21.4,0.7c0,0-0.9-1.5-2.5-2.5c-1.6-1-11.1-8.1-15.3-12.5s-17.7-19.5-23.7-20c0,0,5.7,6.4,4.8,15.2c-0.9,8.7-4.7,15.9-5.1,21.8
	c-0.5,5.9,3.7,13.6,3.7,13.6s-5.8,7.7-6.3,11.1c-0.5,3.4,0.1,5.6-1.1,7.7C11.3,200,3,213.5-0.1,216.1c0,0,1,2.1,4.8,2.1
	S24,215.6,38.3,205c14.3-10.6,17.2-15.1,17.2-15.1s19.1,1.8,27.4,7.2c0,0,0.8,1.8,2.9,3.4l-2.3-0.5c0,0,1.1,1.4,2,2.1
	c0.9,0.7,2,1.4,1.8,1.8c-0.1,0.5-0.5,0.3-1.6-0.5c0,0,1,2.9,2.4,3.9c1.4,1,1.4,1,1.4,1l-0.5,0.2c0,0,4.1,2.8,0.8,2.4
	c0,0-0.1,1.8,5.6,4.7c0,0-1.6-0.1-3.6-0.2c0,0,3.6,3.1,9,3.6s10.3,0.2,13.4-0.1c3.1-0.3,5.1-0.2,7,0.1c1.8,0.3,20.4,3.4,21.6,3.8
	c1.2,0.5,11,2.3,19.2,3.3c8.2,1,13.4,2.4,15.3,2.7c1.8,0.3,11,2.5,23.4,2.5c12.4,0,59.9-0.3,81.2-4.5c21.3-4.1,51.5-16.7,53.5-17.9
	c2-1.2,10.3-4.7,12.1-5.4c1.8-0.8,7.3-6.2,8.2-7c0.9-0.8,4.5-5,4.1-5.4c-0.3-0.3-5.1-0.2-6.4-0.1C352.3,191.3,346.6,192,346.6,192z"
	/>
<path fill="#FFFFFF" d="M340.5,189.3c0,0-9.3,3.3-10.1,4.3c-0.9,1-2.1,4.4-1.4,4.7s5.8,1.4,7.9,0.8s8.3-6.1,8.3-6.1s6.7,0.8,9.6,0.1
	c2.9-0.7,3.4-0.8,3.4-0.8s-1.5,1.5-1.8,2.5c-0.3,1-7.2,7-8.3,7.5c-1.1,0.5-20,6-26.5,9c-6.5,3.1-23.2,11.8-36.9,14.3
	s-39.9,3.3-52.2,3.8c-12.2,0.5-36.2,1.3-42.3,0.7c-6.2-0.7-15.6-4.1-21.1-5c-5.4-0.9-11.3-1.6-11.3-2.3c0-0.7,0.7-1.2,9.4-2.4
	c0,0-5.7-0.3-12.6,0.2s-12.6,0.8-12.1,1.5c0,0-13.6-2.3-19.2-3.6c-5.6-1.3-18.5-6.1-31.6-14.1c0,0,1.8,2.3,3.1,2.9l-2.8-1.1
	c0,0,0.7,1.4,1.2,1.6c0.5,0.2,1.2,1.6,3.5,2.2s10.3,4.9,10.3,4.9s-12.3-3.4-13.1-3.9c0,0,6,2.9,11.5,4.7c5.4,1.8,6.9,2.5,6.9,2.5
	s-7.7,0.7-9.9,0.5s-6-1.2-8.3-2.5l2.7-0.3c0,0-3.8-2.4-5.6-4.1c0,0,1.4-0.5,1-1.1c-0.5-0.5-1.6-1.6-1.6-1.6l1.3,0.5
	c0,0-3.5-2.3-4.6-4.7c0,0,3.4,0.1-1.8-3.6h1.6c0,0-1.3-1.2-2.3-2.7c-1-1.5-1.6-1.8-2.9-2.6c-1.3-0.8-8.8-4.5-14.9-5.2
	c-6.1-0.8-18.5-2.6-22.1-4.1c-3.7-1.4-8.8-4.8-9.3-6.5c-0.5-1.8-0.2-5-0.1-6.3c0,0,2.8-5.2,5.8-6.7c2.9-1.4,2.2-1.4,3.5-1.4
	s7.5,1.4,10.1,1.5c2.6,0.1,11.8-1.2,15.3-1.3c3.5-0.1,10.5-1.4,14.6-2.1c4.1-0.7,28.6-6.3,34.6-6.2c6,0.1,34.4-0.3,50.2-1.3
	s41.4-2.5,48.9-2.2c7.4,0.3,29.7,0.7,48.4,3.4c0,0-1.1-2.3-2.4-2.9c-1.3-0.7-3.6-1.5-4.7-1.8c-1.1-0.2-2.3-1.5-2.5-1.8
	s-0.2-1.1-0.2-1.1s8.6,1.1,12,2.7c3.4,1.6,13.6,6.9,17.1,9c3.5,2.1,7.9,4.4,8.2,4.6s7.3,1.8,6.7,4.6c0,0,1.5-0.3,2.8-0.5
	c1.3-0.2,2.6-1.1,3.3-1.1s7.2,2.1,6.9,3.4c0,0-0.1,0.3,1.1,0c1.2-0.3,2-1.1,2.5-1.1c0.5,0,7.9,1.8,9.4,2.5c1.5,0.8,4.7,1.8,5.2,3.3
	s1.3,5.2,1.2,6.5c-0.1,1.3-1.2,2.6-1.2,2.6s1.8,1.6,3.1,1.8c1.4,0.1,3.8,0.9,6.2,0s6.4-5.7,7.5-6.5s3.8-1.3,3.9-0.5
	c0.1,0.9-0.3,3.1-1.4,4.4c-1.1,1.2-7.1,7-9.2,9c-2.1,2-4.7,3.8-7.3,4.1c-2.6,0.2-5.7,0-5.7-0.7c0-0.7,1.3-3.3,1.8-3.7
	C331.4,193.3,340.5,189.3,340.5,189.3z"/>
<path fill="#FFFFFF" d="M351.3,174.7c0,0-7.3-2.4-9-2.6s-9.7-0.1-11.3-0.7S308.5,160,308.5,160s16.9,6,18.5,6.4
	c1.5,0.5,16,4.1,17.5,4.8C345.8,171.9,351.3,174.7,351.3,174.7z"/>
<path fill="#FFFFFF" d="M182.4,135.9c0,0,9,1.8,7.9,3.4c-1.2,1.6-17.9,3.5-19.5,4.1c0,0,3.1,0.5,3.7,1.1l-13.1,1.8l6.7,0.3l-13,0.9
	l5.4,1.4l-11.1,0.9l4.1,0.5l-10.3,0.8l9,1.1l-22.9,1.5c0,0,7-1.6,8.4-2.5c1.4-0.9,2.2-1.8,2.2-1.8s-1.7-0.6-2.2-0.6l5.1-1.5
	c0,0-0.5-1.3-1.2-1.6l7.2-1.3c0,0-0.9-1.5-3.1-1.8c0,0,7-3.5,9.2-3.4c0,0-2.9-1.5-5.4-1.5C149.4,137.7,164.8,133.1,182.4,135.9z"/>
<path fill="#FFFFFF" d="M54.1,189.9c0,0-9.2-2.2-11.9-3.4c-2.7-1.2-7.7-5.2-7.7-6.1c-0.1-0.9-0.5-6.7-0.2-7.5c0.2-0.8,3.7-6.1,7-7.1
	c0,0-12.6-14.7-18.5-17.1l-1-0.2c0,0-3.4,10.6-4.1,14.3c-0.8,3.7-0.3,8.5,2.9,16.5c0,0-5.8,8.8-6.1,10.6s-0.1,5.8-0.5,7.1
	c-0.5,1.3-9.3,16.2-13.1,19.2c0,0,1.5,1.6,5.4,1.2S33.4,212.9,54.1,189.9z"/>
<path d="M50.5,190.4c0,0-0.5,0.5-1.2,1.4c-0.4,0.4-0.9,0.9-1.5,1.5s-1.3,1.2-2,1.9c-0.7,0.7-1.6,1.4-2.5,2.2
	c-0.9,0.7-1.8,1.5-2.8,2.3c-0.5,0.4-1,0.8-1.5,1.2c-0.5,0.4-1,0.8-1.6,1.2c-1,0.8-2.2,1.5-3.3,2.3c-1.1,0.8-2.3,1.4-3.4,2.2
	s-2.3,1.3-3.4,2c-1.1,0.6-2.2,1.2-3.2,1.7c-1,0.6-2,1-2.9,1.4c-0.9,0.4-1.8,0.9-2.5,1.2c-0.8,0.3-1.4,0.6-2,0.9
	c-1.1,0.5-1.7,0.7-1.7,0.7s0.7-0.2,1.8-0.6c0.6-0.2,1.2-0.5,2-0.7c0.8-0.3,1.6-0.7,2.6-1c0.9-0.4,2-0.8,3-1.4c1-0.5,2.2-1,3.3-1.6
	c1.1-0.7,2.3-1.2,3.4-1.9c1.1-0.7,2.3-1.4,3.5-2.2c1.1-0.8,2.2-1.5,3.3-2.4c0.5-0.4,1-0.8,1.6-1.2s1-0.8,1.5-1.2
	c1-0.8,1.9-1.6,2.8-2.4c0.9-0.8,1.7-1.5,2.4-2.2c0.7-0.7,1.4-1.4,2-2c0.6-0.6,1-1.1,1.4-1.6C50.1,190.9,50.5,190.4,50.5,190.4z"/>
<path d="M45.7,190.7c0,0-0.5,0.4-1.5,1.2c-1,0.7-2.4,1.8-4,3c-0.9,0.6-1.8,1.2-2.7,2c-1,0.7-2,1.4-3.1,2.1c-1,0.7-2.2,1.4-3.3,2.2
	c-1.2,0.7-2.3,1.4-3.5,2.2s-2.4,1.4-3.5,2.1s-2.4,1.4-3.5,1.9c-1.2,0.6-2.2,1.2-3.3,1.7c-1,0.5-2,1-3,1.4c-0.9,0.4-1.8,0.8-2.6,1.2
	c-0.8,0.3-1.4,0.6-2,0.8c-1.1,0.5-1.8,0.7-1.8,0.7s0.7-0.2,1.8-0.6c0.6-0.2,1.3-0.4,2.1-0.7c0.8-0.3,1.7-0.7,2.6-1
	c1-0.4,2-0.9,3.1-1.4c1.1-0.5,2.2-1,3.3-1.6c1.2-0.6,2.4-1.2,3.5-1.9s2.4-1.4,3.6-2.1c1.2-0.7,2.4-1.5,3.5-2.2
	c1.1-0.8,2.2-1.5,3.3-2.2c2.2-1.5,4.1-2.9,5.7-4.3c1.6-1.3,2.9-2.4,3.9-3.2C45.2,191.2,45.7,190.7,45.7,190.7z"/>
<path d="M43.5,189c0,0-0.5,0.3-1.4,0.9c-0.9,0.6-2.1,1.3-3.6,2.3c-1.5,0.9-3.2,2-5.1,3.1c-1.9,1.1-3.9,2.3-6,3.4
	c-1,0.5-2,1.1-3.1,1.6c-1,0.5-2,1-3,1.5c-1,0.5-1.9,1-2.8,1.4c-0.9,0.4-1.8,0.9-2.6,1.2c-0.8,0.3-1.5,0.7-2.2,1
	c-0.7,0.3-1.2,0.5-1.7,0.7c-0.9,0.4-1.5,0.6-1.5,0.6s0.5-0.2,1.5-0.5c0.5-0.1,1-0.3,1.8-0.6c0.7-0.3,1.4-0.5,2.2-0.9
	c0.9-0.3,1.7-0.7,2.6-1.1s1.9-0.9,2.9-1.3c1-0.5,2-1,3-1.5s2-1.1,3.1-1.6c2-1.2,4.1-2.4,5.9-3.5c1.8-1.2,3.5-2.3,5-3.3
	c1.4-1,2.6-1.8,3.5-2.5C43.1,189.4,43.5,189,43.5,189z"/>
<path d="M39.9,187.5c0,0-0.4,0.2-1.2,0.6c-0.7,0.4-1.8,0.9-3,1.6c-2.5,1.3-5.8,3.1-9.2,4.9c-1.6,0.9-3.3,1.8-4.9,2.6
	c-1.6,0.8-3,1.6-4.3,2.2c-0.7,0.3-1.2,0.6-1.7,0.9c-0.5,0.3-1,0.5-1.4,0.7c-0.7,0.3-1.2,0.6-1.2,0.6s0.5-0.1,1.2-0.5
	c0.4-0.1,0.9-0.3,1.4-0.5c0.5-0.2,1.1-0.5,1.8-0.7c0.7-0.3,1.4-0.6,2.1-0.9c0.7-0.3,1.5-0.7,2.3-1.1c1.6-0.8,3.3-1.6,5-2.6
	c1.6-0.9,3.3-1.8,4.8-2.7c1.6-0.9,2.9-1.7,4.2-2.4s2.2-1.4,2.9-1.8C39.5,187.7,39.9,187.5,39.9,187.5z"/>
<path d="M36.9,186c0,0-0.3,0.1-0.9,0.3c-0.6,0.3-1.4,0.5-2.4,0.9c-1,0.4-2.2,0.9-3.3,1.3c-1.2,0.5-2.6,1-3.9,1.6
	c-2.6,1-5.2,2.2-7.2,2.9c-2,0.8-3.3,1.3-3.3,1.3s1.4-0.3,3.4-1c1-0.3,2.2-0.7,3.4-1.2c1.2-0.5,2.6-1,3.9-1.5
	c1.3-0.5,2.6-1.1,3.8-1.6c1.2-0.5,2.3-1,3.3-1.5c1-0.5,1.8-0.9,2.3-1.2C36.6,186.1,36.9,186,36.9,186z"/>
<path d="M34.5,183.4c0,0-0.3,0.1-0.7,0.2c-0.5,0.1-1.2,0.3-2,0.5c-0.8,0.2-1.8,0.5-2.7,0.8c-1,0.3-2.1,0.6-3.1,0.9
	c-1,0.3-2.1,0.7-3.1,1c-1,0.3-1.9,0.7-2.7,0.9c-1.6,0.5-2.6,0.9-2.6,0.9s0.3-0.1,0.8-0.1c0.5-0.1,1.2-0.2,2-0.4
	c0.8-0.2,1.8-0.4,2.7-0.7c1-0.3,2.1-0.6,3.1-0.9s2.1-0.7,3.1-1c1-0.3,1.9-0.7,2.7-1c0.8-0.3,1.4-0.6,1.9-0.7
	C34.2,183.5,34.5,183.4,34.5,183.4z"/>
<path d="M32.9,180.7c0,0-0.2,0-0.6,0.1c-0.3,0.1-0.9,0.1-1.5,0.2c-1.2,0.1-2.9,0.4-4.5,0.7c-1.6,0.3-3.2,0.7-4.5,0.9
	c-0.6,0.1-1.1,0.3-1.4,0.3c-0.3,0.1-0.6,0.1-0.6,0.1s0.1,0,0.1,0s0.3,0,0.4,0c0.4,0,0.9,0,1.5-0.1c1.2-0.1,2.9-0.3,4.5-0.7
	s3.2-0.7,4.5-1c0.6-0.1,1.1-0.3,1.4-0.4C32.7,180.8,32.9,180.7,32.9,180.7z"/>
<path d="M32.3,177c0,0-0.2-0.1-0.5-0.1c-0.3-0.1-0.8-0.2-1.3-0.3c-1.1-0.2-2.6-0.5-4.1-0.6c-1.5-0.1-2.9-0.1-4.1-0.1
	c-0.3,0-0.5,0.1-0.8,0.1c-0.2,0.1-0.4,0.1-0.6,0.1c-0.3,0.1-0.5,0.1-0.5,0.1s0.2,0,0.5,0c0.3,0,0.8,0.1,1.3,0.1
	c1.1,0.1,2.6,0.2,4.1,0.3c1.4,0.1,2.9,0.2,4.1,0.3c0.5,0,1,0,1.4,0.1C32.1,177,32.3,177,32.3,177z"/>
<path d="M33.1,172.7c0,0-0.2-0.1-0.6-0.3c-0.4-0.1-0.9-0.4-1.6-0.6c-0.7-0.3-1.4-0.5-2.2-0.7c-0.9-0.3-1.7-0.5-2.6-0.7
	s-1.8-0.3-2.7-0.5c-0.9-0.1-1.6-0.2-2.4-0.2c-0.7,0-1.2,0-1.7,0.1c-0.4,0.1-0.7,0.1-0.7,0.1s0.3,0,0.7,0.1c0.4,0,1,0.1,1.6,0.2
	c0.3,0.1,0.7,0.1,1.1,0.2c0.4,0.1,0.8,0.1,1.2,0.2c0.9,0.2,1.7,0.3,2.6,0.5s1.8,0.4,2.6,0.6s1.6,0.4,2.3,0.5
	C32.1,172.5,33.1,172.7,33.1,172.7z"/>
<path d="M34.8,168.8c0,0-0.2-0.1-0.6-0.4c-0.4-0.3-0.9-0.6-1.6-1c-0.7-0.4-1.4-0.8-2.4-1.2c-0.9-0.5-1.8-0.9-2.7-1.2
	c-0.5-0.2-1-0.4-1.4-0.6c-0.5-0.2-0.9-0.3-1.4-0.5c-0.5-0.2-0.9-0.3-1.3-0.5c-0.4-0.1-0.9-0.3-1.2-0.3c-0.7-0.2-1.4-0.3-1.8-0.5
	s-0.7-0.1-0.7-0.1s0.3,0.1,0.7,0.3c0.4,0.2,1,0.4,1.8,0.7c0.7,0.3,1.6,0.7,2.4,1c0.9,0.4,1.8,0.7,2.8,1.1c1,0.4,1.9,0.8,2.7,1.2
	c0.9,0.4,1.7,0.7,2.4,1C33.8,168.4,34.8,168.8,34.8,168.8z"/>
<path d="M36.7,166.6c0,0-0.2-0.2-0.6-0.5s-1-0.8-1.6-1.2c-0.7-0.5-1.5-1.1-2.4-1.7c-0.9-0.6-1.8-1.2-2.7-1.9c-1-0.6-1.9-1.2-2.8-1.8
	c-0.9-0.5-1.8-1-2.6-1.4c-1.5-0.8-2.6-1.2-2.6-1.2s0.3,0.1,0.7,0.4c0.5,0.3,1,0.7,1.7,1.1c1.4,0.9,3.3,2.2,5.2,3.5
	c1,0.6,1.9,1.2,2.8,1.8c0.9,0.6,1.8,1.1,2.5,1.6c0.7,0.5,1.4,0.8,1.8,1C36.4,166.5,36.7,166.6,36.7,166.6z"/>
<path d="M336.4,201.2c0,0.1-0.1,0.1-0.1,0.2c-0.1,0.1-0.1,0.1-0.1,0.2l0,0c-0.4,0.2-0.8,0.3-1.2,0.4c-0.4,0.1-0.9,0.1-1.2,0.1
	c-0.9,0-1.7-0.1-2.6,0c-0.1,0-0.2,0.1-0.3,0.1h-0.1c-0.1,0-0.1,0-0.1,0c-0.1,0-0.1,0-0.1,0.1c-0.3,0.1-0.4,0.2-0.6,0.3
	c-0.4,0.2-0.7,0.4-1.1,0.6c-0.2,0.1-0.4,0.1-0.5,0.2c-0.2,0.1-0.4,0.1-0.5,0.1s-0.1-0.1-0.1-0.1c0-0.1-0.1-0.1-0.1-0.1
	c-0.1-0.1-0.1-0.3-0.1-0.5v-0.3l-0.3-0.1c-0.4-0.1-0.7,0-1,0.1c-0.3,0.1-0.6,0.2-0.9,0.3c-0.6,0.2-1.1,0.5-1.6,0.7
	c-0.1,0.1-0.3,0.1-0.5,0.1c-0.1,0-0.1,0.1-0.2,0.1c-0.1,0.1-0.1,0.1-0.1,0.1l-0.1,0.2c-0.2,0.2-0.4,0.5-0.6,0.7
	c-0.2,0.3-0.3,0.5-0.5,0.7c-0.2,0.2-0.4,0.4-0.7,0.5c-0.5,0.3-0.9,0.7-1.4,0.9c-0.3,0.1-0.5,0.1-0.8,0.1c-0.3,0-0.5-0.1-0.8-0.3
	c-0.3-0.1-0.5-0.3-0.8-0.4c-0.3-0.1-0.6-0.1-0.9-0.1c-0.6-0.1-1.2,0-1.8,0.1c0.6,0.1,1.2,0.1,1.8,0.1c0.3,0.1,0.6,0.1,0.9,0.2
	c0.3,0.1,0.5,0.3,0.7,0.5c0.1,0.1,0.3,0.1,0.4,0.2c0.1,0.1,0.3,0.1,0.5,0.1c0.3,0.1,0.7,0,1-0.1c0.6-0.2,1.2-0.5,1.6-0.9
	c0.3-0.2,0.5-0.3,0.7-0.6c0.2-0.2,0.4-0.5,0.6-0.7c0.2-0.3,0.3-0.4,0.6-0.7c0.1-0.1,0.3-0.3,0.2-0.3c0.1,0,0.3-0.1,0.4-0.1
	c0.6-0.2,1.1-0.5,1.6-0.7c0.5-0.2,1.1-0.4,1.6-0.3l-0.3-0.3c0,0.3,0,0.5,0.1,0.8c0.1,0.1,0.1,0.3,0.3,0.4c0.1,0.1,0.3,0.2,0.5,0.2
	c0.3,0.1,0.5,0,0.8-0.1c0.2-0.1,0.5-0.2,0.7-0.3c0.4-0.2,0.8-0.5,1.1-0.7c0.2-0.1,0.4-0.3,0.5-0.3c0.1,0,0.1-0.1,0.1-0.1h0.1h0.1
	c0.1,0,0.2-0.1,0.3-0.1c0.8-0.2,1.6-0.1,2.5-0.1c0.5,0,0.9-0.1,1.3-0.2c0.2-0.1,0.4-0.1,0.6-0.2c0.2-0.1,0.4-0.2,0.6-0.3l0,0l0,0
	c0-0.1,0-0.1,0-0.2C336.4,201.3,336.4,201.3,336.4,201.2z"/>
<path d="M316.1,208.1c0,0-0.1,0-0.3-0.1c-0.2-0.1-0.5-0.2-0.9-0.4s-0.9-0.5-1.3-0.8c-0.5-0.3-1-0.7-1.7-1.1
	c-0.6-0.4-1.2-0.9-1.8-1.4c-0.3-0.3-0.5-0.6-0.7-1c-0.3-0.4-0.5-0.7-0.7-1.1c-0.5-0.8-0.9-1.6-1.3-2.5s-0.8-1.8-1-2.7
	c-0.3-0.9-0.6-1.8-0.8-2.7c-0.2-0.9-0.4-1.8-0.5-2.7c-0.1-0.9-0.2-1.8-0.2-2.6c0-0.9,0.1-1.6,0.2-2.3c0.1-0.7,0.5-1.2,0.8-1.7
	s0.7-0.9,1-1.1c0.6-0.6,1-0.9,1-0.9s-0.1,0.1-0.3,0.2c-0.2,0.1-0.5,0.3-0.9,0.5c-0.3,0.3-0.8,0.6-1.2,1c-0.5,0.5-0.9,1-1.1,1.8
	c-0.3,0.7-0.4,1.6-0.5,2.4s-0.1,1.8,0,2.7c0.1,0.9,0.2,1.9,0.5,2.9c0.2,1,0.5,2,0.8,2.9c0.3,1,0.7,1.9,1.2,2.8
	c0.5,0.9,0.9,1.8,1.4,2.6c0.3,0.4,0.5,0.8,0.8,1.1c0.3,0.4,0.6,0.7,0.9,1c0.7,0.7,1.4,1,2.1,1.4c0.7,0.3,1.2,0.6,1.8,0.9
	c0.5,0.3,1,0.5,1.4,0.6c0.4,0.1,0.8,0.2,1,0.2C316,208.1,316.1,208.1,316.1,208.1z"/>
<path d="M297.7,173.7c0,0-0.3,0.1-0.8,0.3c-0.5,0.2-1.2,0.5-2.2,0.8c-0.9,0.3-2,0.5-3.1,0.9c-0.6,0.2-1.4,0.4-1.9,1.2
	c-0.3,0.4-0.3,0.8-0.4,1.2c-0.1,0.4-0.1,0.7-0.1,1c0,0.7,0.1,1.3,0.1,1.9s0.1,1.2,0.1,1.8c0,0.6,0,1.2,0.1,1.7c0,0.5,0,1,0.1,1.5
	c0,0.9,0,1.7-0.1,2.2c-0.1,0.3-0.1,0.5-0.2,0.6c-0.1,0.1-0.1,0.2-0.1,0.2s0.1-0.1,0.1-0.2s0.3-0.3,0.3-0.6c0.3-0.5,0.5-1.3,0.7-2.3
	c0.1-0.5,0.1-1,0.2-1.6c0.1-0.5,0.1-1.1,0.1-1.7c0-0.6,0-1.2-0.1-1.9c-0.1-0.7-0.1-1.2-0.1-1.8c0-0.6,0-1.2,0.2-1.4
	c0.1-0.1,0.3-0.3,0.5-0.5c0.1-0.1,0.2-0.1,0.3-0.2s0.3-0.1,0.4-0.1c1.1-0.4,2.2-0.8,3-1.2c0.9-0.5,1.6-0.9,2-1.2
	C297.5,173.9,297.7,173.7,297.7,173.7z"/>
<path d="M305.8,214.2c0,0-0.1-0.1-0.3-0.2s-0.5-0.3-0.8-0.4s-0.8-0.3-1.3-0.5c-0.3-0.1-0.5-0.2-0.8-0.3c-0.3-0.1-0.5-0.3-0.8-0.4
	c-0.5-0.3-1.1-0.7-1.7-1s-1.2-0.9-1.7-1.4c-0.6-0.5-1.1-1.1-1.7-1.7c-0.6-0.6-1.2-1.2-1.7-1.8l-0.9-0.9c-0.3-0.3-0.6-0.7-0.9-1
	c-0.6-0.6-1.1-1.2-1.6-1.8c-0.5-0.6-0.9-1.2-1.1-1.8c-0.1-0.1-0.1-0.3-0.2-0.5c-0.1-0.1-0.1-0.3-0.1-0.5c-0.1-0.3-0.1-0.7-0.2-0.9
	c-0.2-1.2-0.2-2.3-0.3-3.1c-0.1-0.7-0.1-1.2-0.1-1.2s-0.1,0.4-0.1,1.2c-0.1,0.7-0.3,1.8-0.2,3.1c0,0.3,0,0.7,0.1,1
	c0,0.2,0.1,0.4,0.1,0.6c0.1,0.2,0.1,0.3,0.1,0.5c0.3,0.8,0.6,1.5,1.1,2.2c0.5,0.7,1,1.3,1.6,2c0.3,0.3,0.5,0.6,0.9,0.9l0.9,1
	c0.6,0.7,1.2,1.2,1.8,1.8c0.6,0.6,1.2,1.2,1.8,1.7c0.6,0.5,1.3,1,2,1.4s1.3,0.7,1.9,0.9c0.3,0.1,0.6,0.3,0.9,0.3
	c0.3,0.1,0.6,0.1,0.9,0.2c0.5,0.1,1,0.1,1.3,0.2c0.4,0.1,0.7,0.1,0.9,0.2C305.7,214.2,305.8,214.2,305.8,214.2z"/>
<path d="M283.6,182.9c0,0-0.2,0.4-0.6,1c-0.2,0.3-0.5,0.7-0.8,1c-0.3,0.4-0.6,0.9-0.9,1.5c-0.5,1.2-0.9,2.6-1.3,4.1
	c-0.2,0.7-0.5,1.5-0.7,2.4c-0.2,0.9-0.3,1.8-0.1,2.7c0.1,0.9,0.5,1.7,0.8,2.5s0.8,1.5,1.2,2.2c0.5,0.7,0.9,1.2,1.4,1.8
	c0.5,0.5,0.9,1,1.4,1.4c0.9,0.9,1.6,1.7,2.2,2.1c0.3,0.2,0.5,0.4,0.7,0.5c0.2,0.1,0.3,0.1,0.3,0.1s-0.3-0.3-0.8-0.8
	c-0.5-0.5-1-1.4-1.8-2.4c-0.3-0.5-0.7-1.1-1.2-1.6c-0.4-0.5-0.8-1.2-1.2-1.8c-0.4-0.7-0.7-1.3-1-2c-0.3-0.7-0.5-1.4-0.7-2.2
	c-0.1-0.7-0.1-1.4,0.1-2.2c0.1-0.7,0.3-1.5,0.5-2.3s0.3-1.5,0.5-2.2c0.1-0.7,0.3-1.3,0.5-1.9c0.2-0.6,0.4-1,0.6-1.5
	c0.2-0.5,0.4-0.9,0.5-1.2C283.5,183.3,283.6,182.9,283.6,182.9z"/>
<path d="M283.6,174.6c0,0-0.2,0-0.6-0.1c-0.4-0.1-1-0.1-1.8-0.3c-0.7-0.2-1.6-0.6-2.7-1c-1-0.5-2.2-1-3.6-1.6
	c-1.4-0.5-3-0.8-4.7-0.9c-1.8-0.2-3.7-0.2-5.7-0.2c-2,0.1-4.2,0.1-6.5,0.1c-2.3,0-4.6,0-7.2,0.1c-5,0.1-10.4,0.3-16.1,0.4
	c-5.7,0.2-11.8,0.3-18,0.3c-3.1,0-6.3-0.1-9.5-0.2c-3.2-0.1-6.5-0.4-9.8-0.6c-6.5-0.4-13.2-0.9-19.8-1.4c-6.6-0.5-13.2-1.2-19.8-2
	c-6.5-0.7-13-1-19.2-1.1c-6.2-0.1-12.3,0-18,0.1c-5.7,0.1-11.1,0.3-16.1,0.3c-1.3-0.1-2.5,0.3-3.7,0.5c-1.2,0.2-2.4,0.3-3.5,0.3
	s-2.2-0.1-3.3-0.1c-1.1,0-2.2,0-3.1,0c-4.1,0-7.6-0.1-10.5-0.1c-1.4,0.1-2.7,0.1-3.9,0.3c-1.1,0.1-2.1,0.3-2.9,0.4
	c-0.8,0.1-1.4,0.1-1.8,0.1c-0.4,0-0.6,0-0.6,0s0.2,0,0.6,0c0.4,0,1-0.1,1.8-0.1c0.8-0.1,1.7-0.2,2.9-0.3c1.1-0.1,2.4-0.2,3.9-0.2
	c2.9-0.1,6.5,0.1,10.5,0.2c1,0,2.1,0,3.1,0.1c1,0.1,2.2,0.1,3.3,0.1c1.1,0,2.3,0,3.5-0.3c1.2-0.3,2.4-0.6,3.6-0.5
	c5,0,10.4-0.1,16.2-0.2c5.7-0.1,11.8-0.1,18,0c6.2,0.1,12.7,0.5,19.2,1.2c6.5,0.8,13.2,1.6,19.8,2.1c6.7,0.5,13.3,1,19.8,1.4
	c3.3,0.2,6.5,0.4,9.8,0.5c3.2,0.1,6.4,0.2,9.5,0.2c6.3,0,12.3-0.2,18-0.4s11.1-0.4,16.1-0.5c2.5,0,4.9-0.1,7.2-0.1
	c2.3-0.1,4.5-0.1,6.5-0.3c2-0.1,3.9-0.1,5.7,0.1c1.8,0.1,3.3,0.5,4.7,0.9c1.4,0.5,2.6,1,3.6,1.5s2,0.8,2.7,1
	c0.8,0.2,1.4,0.3,1.8,0.3C283.4,174.6,283.6,174.6,283.6,174.6z"/>
<path d="M273.3,177.5c0,0-0.2,0-0.7,0c-0.4,0-1,0-1.8,0c-1.6,0.1-3.9,0.2-6.9,0.5c-2.9,0.3-6.5,0.9-10.6,1.4c-2,0.3-4.3,0.5-6.5,0.8
	c-2.3,0.3-4.7,0.6-7.3,0.9c-2.5,0.3-5.2,0.6-7.9,0.6c-2.7,0-5.6,0-8.4-0.1c-2.9-0.1-5.9-0.2-8.9-0.5c-3-0.3-6.2-0.4-9.4-0.3
	c-3.2,0.1-6.4,0.2-9.7,0.1c-1.6-0.1-3.3-0.1-4.9-0.3c-1.6-0.2-3.3-0.5-4.9-0.7c-3.3-0.5-6.6-1-10-1.2c-3.4-0.3-6.8-0.2-10.1-0.3
	c-6.8,0-13.5,0-20.2,0s-13.2,0-19.6-0.1c-6.3-0.1-12.4-0.6-18.3-1.1c-2.9-0.3-5.7-0.5-8.4-0.7c-2.7-0.2-5.4-0.5-7.9-0.7
	c-5-0.5-9.7-1-13.7-2.2c-2-0.5-3.8-1.2-5.5-1.8c-1.7-0.6-3.3-1.1-4.6-1.6c-1.4-0.5-2.7-0.9-3.7-1.2c-1.1-0.4-2-0.7-2.8-0.9
	c-0.8-0.1-1.4-0.2-1.8-0.2c-0.4,0-0.6,0-0.6,0s0.2,0,0.6,0s1,0.1,1.8,0.2c0.8,0.1,1.7,0.5,2.8,0.9c1.1,0.4,2.4,0.8,3.7,1.3
	c1.4,0.5,2.9,1,4.6,1.6c1.7,0.6,3.5,1.2,5.5,1.8c4,1.1,8.6,1.8,13.7,2.3c2.6,0.2,5.2,0.5,7.9,0.7c2.7,0.3,5.6,0.5,8.4,0.8
	c5.8,0.5,11.9,1,18.3,1.2c6.3,0.1,12.9,0.1,19.6,0.1s13.4,0.1,20.2,0.1c3.4,0,6.8-0.1,10.1,0.2c3.3,0.3,6.7,0.7,9.9,1.2
	c1.6,0.3,3.3,0.5,4.9,0.7s3.3,0.3,5,0.3c3.3,0.1,6.5-0.1,9.7-0.1c3.2-0.1,6.3,0,9.3,0.3c3.1,0.3,6,0.3,9,0.4c2.9,0.1,5.8,0.1,8.5,0
	c2.7,0,5.4-0.3,7.9-0.7c2.6-0.3,4.9-0.7,7.2-1c2.3-0.3,4.5-0.6,6.5-0.9c4.1-0.6,7.7-1.2,10.6-1.5c2.9-0.3,5.2-0.5,6.9-0.6
	c0.8-0.1,1.4-0.1,1.8-0.1C273.1,177.5,273.3,177.5,273.3,177.5z"/>
<path d="M274.1,191.9c0,0-0.3,0-0.7,0c-0.5,0-1.1-0.1-2-0.1c-1.8,0-4.3,0-7.5,0.2c-3.3,0.1-7.2,0.5-11.7,0.6
	c-2.3,0.1-4.6,0.1-7.2,0.1c-2.6,0-5.2,0.1-8,0.1c-5.6,0.1-11.6,0.3-18,0.3c-3.2,0-6.5,0-9.8-0.1c-3.3-0.1-6.7-0.5-10.2-0.9
	c-3.5-0.4-7-0.9-10.5-1.1c-3.6-0.3-7.2-0.3-10.9-0.3c-7.3,0-14.7,0.1-22.1-0.6c-3.7-0.3-7.4-0.5-11.1-0.8c-0.9-0.1-1.8-0.1-2.7-0.2
	c-0.9-0.1-1.8-0.3-2.7-0.4c-1.8-0.3-3.6-0.7-5.4-0.9c-3.7-0.5-7.3-0.3-10.9-0.5c-3.5-0.2-7-1.1-10.4-1.8c-6.9-1.4-13.5-2.2-19.8-3.1
	c-1.6-0.2-3.1-0.5-4.7-0.6c-1.6-0.2-3.1-0.3-4.6-0.4c-3-0.2-5.9-0.4-8.6-0.7c-5.6-0.5-10.5-1.8-14.9-2.9c-2.2-0.6-4.3-1.1-6.2-1.5
	s-3.7-0.7-5.3-1c-1.6-0.3-3-0.5-4.3-0.9s-2.2-0.7-3.1-1c-0.9-0.3-1.5-0.4-2-0.4c-0.5,0-0.7,0.1-0.7,0.1s0.3-0.1,0.7-0.1
	c0.5,0,1.1,0.1,2,0.4c0.9,0.3,1.8,0.7,3.1,1s2.6,0.6,4.3,0.9c1.6,0.3,3.4,0.6,5.3,1c1.9,0.5,3.9,1,6.2,1.6c2.2,0.6,4.5,1.2,7,1.8
	c2.5,0.6,5.1,1,7.9,1.2c2.7,0.3,5.7,0.5,8.7,0.7c1.5,0.1,3,0.3,4.6,0.5c1.5,0.2,3.1,0.4,4.6,0.7c6.3,0.9,13,1.8,19.8,3.1
	c3.4,0.7,6.9,1.6,10.5,1.8c3.6,0.2,7.3-0.1,10.8,0.5c1.8,0.3,3.6,0.7,5.4,1c0.9,0.1,1.8,0.3,2.7,0.4c0.9,0.1,1.8,0.1,2.7,0.2
	c3.7,0.3,7.4,0.5,11.1,0.8c7.4,0.7,14.9,0.5,22.2,0.5c3.7,0,7.3,0,10.9,0.3c3.6,0.3,7.1,0.7,10.5,1c3.5,0.4,6.9,0.7,10.3,0.9
	c3.3,0.1,6.6,0.1,9.8,0.1c6.4-0.1,12.4-0.2,18-0.3c2.8-0.1,5.4-0.1,8-0.1c2.6,0,5-0.1,7.2-0.2c4.5-0.2,8.4-0.5,11.7-0.7
	c3.3-0.2,5.8-0.3,7.5-0.3c0.9,0,1.6,0,2,0C273.9,191.9,274.1,191.9,274.1,191.9z"/>
<path fill="#504E3C" d="M288,206.6c0,0-7,0.3-9.2,1s-17.5,5.6-17.5,5.6l2.5,0.5l-7.7,1.8l12.1-0.5l-10.3,2.2c0,0,10.8-0.1,14.7-0.9
	c0,0-6.7,2.7-14.7,2.7c0,0,7.5,1.2,20.8-1.8c13.3-3.1,16.8-3.1,16.8-3.1s-8.3,2.3-10.1,2.8c-1.8,0.5-12.6,6-24.3,4.7
	c-11.8-1.3-18.5-5.2-15.8-6.4c2.7-1.2,13.2-2.8,15.9-3.5C263.8,211,278.4,205.3,288,206.6z"/>
<ellipse fill="#504E3C" cx="338.5" cy="182.7" rx="4.8" ry="4.6"/>
<path fill="#FFFFFF" d="M335.1,182.2c0,2.7,1.4,4.9,3.3,4.9c1.8,0,3.3-2.2,3.3-4.9c0-2.7-1.4-4.9-3.3-4.9
	C336.6,177.3,335.1,179.5,335.1,182.2z"/>
<path fill="#504E3C" d="M334.9,182.2c0-3,1.6-5.4,3.5-5.4c2,0,3.5,2.4,3.5,5.4s-1.6,5.4-3.5,5.4
	C336.4,187.7,334.9,185.2,334.9,182.2z M335.1,182.2c0,2.7,1.4,4.9,3.3,4.9c1.8,0,3.3-2.2,3.3-4.9c0-2.7-1.4-4.9-3.3-4.9
	C336.6,177.3,335.1,179.5,335.1,182.2z"/>
<path fill="#504E3C" d="M337.6,181c0.5,0,0.9-0.7,0.9-1.4c0,0,0,0,0-0.1l0,0c0.9,0,1.6,1.2,1.6,2.7c0,1.5-0.7,2.7-1.6,2.7
	c-0.9,0-1.6-1.2-1.6-2.7c0-0.6,0.1-1.1,0.3-1.6C337.3,180.9,337.4,181,337.6,181z"/>
</svg>
