<?xml version="1.0" encoding="utf-8"?>
<!-- Generator: Adobe Illustrator 18.1.1, SVG Export Plug-In . SVG Version: 6.00 Build 0)  -->
<svg version="1.1" id="arctic_char" xmlns="http://www.w3.org/2000/svg" xmlns:xlink="http://www.w3.org/1999/xlink" x="0px"
	 y="0px" viewBox="0 0 571.7 204.5" enable-background="new 0 0 571.7 204.5" xml:space="preserve">
<path d="M549.3,119.5c0,0,17.2-5.2,15.5-8.5s-10.2-11.8-38.2-22.5c-28-10.8-90.5-32-138-36.5s-68-3.5-69.6-5.8S301.3,22.8,254.8,0
	c0,0-2.2,7.5-4.2,10s-11.8,11.5-13.5,14s-4.2,9.2-5.2,10s-7.5,1.8-8.5,2.2s-9.2,8.8-9.2,9.5s8.2,11,7.8,12.8s-62.8,11.5-70,11.8
	s-10.2-2.5-12.8-2.5s-19.3,1-18,2.8s8,4.8,6.8,6.5c-1.2,1.8-32.8,8-36.2,7.2s-52.5-25.8-62-31S5.8,39.5,5.1,41.2S4.6,48.8,3.6,51
	s-5.2,18.8-2.9,29s13.9,32.8,13.9,32.8s-5.5,6.5-7.2,11.8s-5.8,16-6.6,25.2s2.9,25.8,5.9,25.5s23-5,45-18.5s36.7-26.2,39.2-27.2
	s57.3,4.8,57.3,4.8s2,21.2-2.2,30.8c0,0,24.8-4.2,48.8-18c0,0,27,8.5,31.2,9.2c0,0-12.8,10-19.2,19c-6.5,9-21.8,25.7-21.5,26.7
	s34.5,5,48.5,0s36.9-30,36.9-30s30.1,9.2,80.9,7.8s90.8-6.8,131-16.8s61.5-15,64.3-16s8-6.5,12-11.5s3.8-5.2,4.5-6.8
	s9.8-7.5,8.5-8.8s-7.2-2-19.8,1.8L549.3,119.5z"/>
<path fill="#FFFFFF" d="M398.6,130.5c0.7,2,2.6,3.1,4.1,2.6c1.6-0.6,2.3-2.6,1.5-4.6c-0.7-2-2.6-3.1-4.1-2.6
	C398.5,126.5,397.8,128.5,398.6,130.5z"/>
<path fill="#FFFFFF" d="M375.6,128.5c0.7,2,2.6,3.1,4.1,2.6c1.6-0.6,2.3-2.6,1.5-4.6c-0.7-2-2.6-3.1-4.1-2.6
	C375.5,124.5,374.8,126.5,375.6,128.5z"/>
<path fill="#FFFFFF" d="M309.6,117.5c0.7,2,2.6,3.1,4.1,2.6c1.6-0.6,2.3-2.6,1.5-4.6c-0.7-2-2.6-3.1-4.1-2.6
	C309.5,113.5,308.8,115.5,309.6,117.5z"/>
<path fill="#FFFFFF" d="M267.6,115.5c0.7,2,2.6,3.1,4.1,2.6c1.6-0.6,2.3-2.6,1.5-4.6c-0.7-2-2.6-3.1-4.1-2.6
	C267.5,111.5,266.8,113.5,267.6,115.5z"/>
<path fill="#FFFFFF" d="M231.6,113.5c0.7,2,2.6,3.1,4.1,2.6c1.6-0.6,2.3-2.6,1.5-4.6c-0.7-2-2.6-3.1-4.1-2.6
	C231.5,109.5,230.8,111.5,231.6,113.5z"/>
<path fill="#FFFFFF" d="M234.6,104.5c0.7,2,2.6,3.1,4.1,2.6c1.6-0.6,2.3-2.6,1.5-4.6c-0.7-2-2.6-3.1-4.1-2.6
	C234.5,100.5,233.8,102.5,234.6,104.5z"/>
<path fill="#FFFFFF" d="M174.6,112.5c0.7,2,2.6,3.1,4.1,2.6c1.6-0.6,2.3-2.6,1.5-4.6c-0.7-2-2.6-3.1-4.1-2.6
	C174.5,108.5,173.8,110.5,174.6,112.5z"/>
<path fill="#FFFFFF" d="M136.6,108.5c0.7,2,2.6,3.1,4.1,2.6c1.6-0.6,2.3-2.6,1.5-4.6c-0.7-2-2.6-3.1-4.1-2.6
	C136.5,104.5,135.8,106.5,136.6,108.5z"/>
<path fill="#FFFFFF" d="M345.6,119.5c0.7,2,2.6,3.1,4.1,2.6c1.6-0.6,2.3-2.6,1.5-4.6c-0.7-2-2.6-3.1-4.1-2.6
	C345.5,115.5,344.8,117.5,345.6,119.5z"/>
<path fill="#FFFFFF" d="M350.6,108.5c0.7,2,2.6,3.1,4.1,2.6c1.6-0.6,2.3-2.6,1.5-4.6c-0.7-2-2.6-3.1-4.1-2.6
	C350.5,104.5,349.8,106.5,350.6,108.5z"/>
<path fill="#FFFFFF" d="M383,117.8c0.6,1.6,2,2.5,3.3,2c1.2-0.4,1.8-2.1,1.2-3.7c-0.6-1.6-2-2.5-3.3-2
	C383,114.6,382.5,116.3,383,117.8z"/>
<path fill="#FFFFFF" d="M286,103.8c0.6,1.6,2,2.5,3.3,2c1.2-0.4,1.8-2.1,1.2-3.7c-0.6-1.6-2-2.5-3.3-2
	C286,100.6,285.5,102.3,286,103.8z"/>
<path fill="#FFFFFF" d="M174,104.8c0.6,1.6,2,2.5,3.3,2c1.2-0.4,1.8-2.1,1.2-3.7c-0.6-1.6-2-2.5-3.3-2
	C174,101.6,173.5,103.3,174,104.8z"/>
<path fill="#FFFFFF" d="M120,104.8c0.6,1.6,2,2.5,3.3,2c1.2-0.4,1.8-2.1,1.2-3.7c-0.6-1.6-2-2.5-3.3-2
	C120,101.6,119.5,103.3,120,104.8z"/>
<ellipse transform="matrix(-0.9409 0.3387 -0.3387 -0.9409 233.6272 155.2929)" fill="#FFFFFF" cx="103.3" cy="98" rx="2.4" ry="3"/>
<ellipse transform="matrix(-0.9411 0.3383 -0.3383 -0.9411 286.3567 169.0748)" fill="#FFFFFF" cx="128.4" cy="109.5" rx="1.7" ry="2.1"/>
<ellipse transform="matrix(-0.9411 0.3383 -0.3383 -0.9411 319.1048 173.3678)" fill="#FFFFFF" cx="144.4" cy="114.5" rx="1.7" ry="2.1"/>
<ellipse transform="matrix(-0.9411 0.3383 -0.3383 -0.9411 349.7349 154.03)" fill="#FFFFFF" cx="161.4" cy="107.5" rx="1.7" ry="2.1"/>
<ellipse transform="matrix(-0.9411 0.3383 -0.3383 -0.9411 230.3159 168.8409)" fill="#FFFFFF" cx="100.4" cy="104.5" rx="1.7" ry="2.1"/>
<ellipse transform="matrix(-0.9411 0.3383 -0.3383 -0.9411 552.2808 122.7328)" fill="#FFFFFF" cx="265.4" cy="109.5" rx="1.7" ry="2.1"/>
<ellipse transform="matrix(-0.9411 0.3383 -0.3383 -0.9411 710.1824 99.2156)" fill="#FFFFFF" cx="346.4" cy="111.5" rx="1.7" ry="2.1"/>
<path fill="#FFFFFF" d="M269,170.2c0,0-27.2,26.2-34.9,29.2s-26.2,2-26.2,2s29.8-7.5,51.5-33c0,0-15.5,4.8-19.2,7.8
	s-38.5,20.5-42.5,20.8s-3.8-1.8-3.5-3s13.8-16.8,14.5-18.2s13.2-14.2,19.8-20c0,0-41.8-13.5-44.2-15.2c0,0,3.2,2.5,7.5,5.5
	c0,0-19.2,9.8-42,15.2c0,0,1.8-19.2,0-28.2c0,0-53.3-5.5-59.3-5.2c0,0-22,16.2-36.2,25S8.8,176,6.8,173s-2-3-2-3s17.2-6.5,29.8-13.5
	s30.7-15.2,32.7-17.5s3-3.5,3-3.5s5-4.5,7.2-5.5s3.8-2.3,3.8-2.3h-4c0,0,5.5-3,10.2-3.2s16.2,0,16.2,0l-2.8-2.5c0,0,1.5-2.8,3-2.8
	s6-1.8,8.5,0s17.7,3.2,24.3,3c6.7-0.2,56.4,0,78.9-1s71.2,0.2,85.2,1.2s33.2,5.5,47,9.2s27.2,6.5,28,6.8s-17.8,1.5-24,4
	c0,0,52-6.8,100.8,9.8c0,0,8.8,8.5,17.5,11.8c0,0-72,15.8-124.5,13.5S269,170.2,269,170.2z"/>
<ellipse transform="matrix(-0.9984 -5.700254e-02 5.700254e-02 -0.9984 793.2803 330.6787)" cx="401.4" cy="154" rx="40.5" ry="7.6"/>
<path fill="#FFFFFF" d="M487.1,143.5c0,0-12.5-8.5-14-19.2s-1-22-1-22s-2.8-3.5-4.8-4.5s-8.8-3.5-10-3.5s-4,1.2-4,1.2
	s-3.5,9.8-4.2,11.2s-4.8,11.2-4.8,12.1s0.5,30.4,28,44.4c0,0,22.8-5.4,36-9.2c13.3-3.8,34-7.8,37.5-9.5s15-13.8,14.5-14.5
	s0-3.8,1.8-4.2s8-4.2,6.5-4.8s-16.8,2.2-16.8,2.2s-5.8-3.5-7.5-3.5c0,0,6-2,5.2-2.5s-3-1-4-1s-11,2.2-11,2.2s4-2.5,2.2-4.2
	s-13-1.8-16.5-1.8s-7.5-1.8-13.8-8l-9,0.5c0,0,9,5.5,9,7.2c0,1.8-3.7,5.4-2.5,6.2c1.2,0.8,8.3-0.2,12.3,5c0,0,11-1.5,16.8,0
	c0,0-28.3,5.8-33.5,15.2c0,0-0.5-1.2-0.2-3c0,0-10.8,5-19.5-4.5C479.8,131.2,482.6,139.5,487.1,143.5z"/>
<path d="M452.1,114c0,0,11.2,15.8,23,20.2C475.1,134.2,455.1,129.5,452.1,114z"/>
<path d="M452.1,131c0,0,7.8,16.3,36.8,23C488.8,154,459.1,151.2,452.1,131z"/>
<path fill="#FFFFFF" d="M255.6,1.6c0,0-2,8-3.7,9.7s-12.3,12-13.7,14.2s-4.7,8.8-5.5,9.5s-7.7,2-9.3,3.2s-7.7,7.7-7.7,7.7
	s7.7,9.8,8.2,11.7s0,2.3,1.7,2.3c1.7,0,7.5,0.2,8.2-1s1.2-1.3,1.2-2.2s-3.3-7.8-3.3-7.8l4.1,1.8l-2.4-3.7c0,0,9.5,2.3,11.2,3.8
	c0,0-7.2-8.2-12.2-11.2c0,0,13.8,3.3,21.7,11c0,0,4.3,2.5,2.8-1c-1.5-3.5-19.2-15.5-19.2-15.5s13.8,2.7,25.8,12.5
	c0,0-10.8-13-15-15.9c0,0,8.6,0.7,24.6,11.6c0,0-13.1-15.6-20.5-21.2c0,0,17.1,5.3,32.1,18.8c0,0-4.9-12.5-21.9-27.3
	c0,0,8.5,2.3,19.8,12.7c11.3,10.3,19,19.5,22.2,20.2c3.2,0.7,6.2-0.7,5.2-2.7S293.3,18.9,255.6,1.6z"/>
<path fill="#FFFFFF" d="M64.9,114c0,0-3.5-6.6-44.4-1.6C20.5,112.4,49.9,116.6,64.9,114z"/>
<path fill="#FFFFFF" d="M69.5,101.8c0,0-2.3-7.5-52.9-17.5C16.6,84.3,50.8,98.9,69.5,101.8z"/>
<path fill="#FFFFFF" d="M65.9,124c0,0-5.6-5.5-54.7,10.4C11.2,134.4,48.1,130.6,65.9,124z"/>
<path fill="#FFFFFF" d="M63.5,134.3c0,0-6.3-4.8-53.1,16.9C10.5,151.2,46.6,142.9,63.5,134.3z"/>
<path d="M186.8,145.2c0,0-3.6-1.2-33.8,13.8C153.1,159,175.9,151,186.8,145.2z"/>
<path d="M182.5,142.5c0,0-3.3-1.4-29.3,11.9C153.2,154.4,173,147.7,182.5,142.5z"/>
<path d="M178.9,140.2c0,0-3.1-1.4-26.8,10.8C152.1,151,170.3,144.9,178.9,140.2z"/>
<path d="M175.4,137.6c0,0-2.8-1.6-23.2,9.3C152.2,146.9,168,141.9,175.4,137.6z"/>
<path d="M170,135.5c0,0-2.4-1.7-17.9,7C152.1,142.5,164.4,139,170,135.5z"/>
<path fill="#FFFFFF" d="M72.2,89.9c0,0-1.6-7.7-51.1-22.2C21.1,67.8,53.8,85.4,72.2,89.9z"/>
<g>
	<ellipse cx="521.8" cy="106.5" rx="13.8" ry="7.9"/>
	<path fill="#FFFFFF" d="M512,105.6c0,4.6,4.2,8.3,9.4,8.3c5.2,0,9.4-3.7,9.4-8.3c0-4.6-4.2-8.3-9.4-8.3
		C516.3,97.4,512,101.1,512,105.6z"/>
	<path d="M511.2,105.6c0-5,4.6-9.1,10.3-9.1c5.7,0,10.3,4.1,10.3,9.1c0,5-4.6,9.1-10.3,9.1C515.8,114.8,511.2,110.7,511.2,105.6z
		 M512,105.6c0,4.6,4.2,8.3,9.4,8.3c5.2,0,9.4-3.7,9.4-8.3c0-4.6-4.2-8.3-9.4-8.3C516.3,97.4,512,101.1,512,105.6z"/>
	<path d="M519.2,103.5c1.3,0,2.4-1.1,2.4-2.4c0,0,0-0.1,0-0.1c0,0,0,0,0,0c2.6,0,4.7,2.1,4.7,4.7s-2.1,4.7-4.7,4.7
		c-2.6,0-4.7-2.1-4.7-4.7c0-1,0.3-1.9,0.8-2.6C518.1,103.3,518.6,103.5,519.2,103.5z"/>
</g>
</svg>
