<?xml version="1.0" encoding="utf-8"?>
<!-- Generator: Adobe Illustrator 18.1.1, SVG Export Plug-In . SVG Version: 6.00 Build 0)  -->
<svg version="1.1" id="northern_pike" xmlns="http://www.w3.org/2000/svg" xmlns:xlink="http://www.w3.org/1999/xlink" x="0px"
	 y="0px" viewBox="0 0 555.6 146.6" enable-background="new 0 0 555.6 146.6" xml:space="preserve">
<g>
	<path d="M537.2,86.6c0,0,15.2-4.8,13.2-7.5c-2-2.7-7.8-2.3-17.5-6c-9.7-3.7-36.8-15.8-65-27.5s-59.3-24-92.2-25.5
		S238,21.2,209.4,23.4c0,0-25.2-22-60.3-23.3s-43.2,15.7-45.7,20.3s4.3,8.2,8.7,17s5.7,10.8,7.2,11s7.3-1.5,9.5,3.7
		c0,0-3.8,3-11,1.3S96,46.1,70.4,36.2C44.7,26.4,1.2,19.7,0,22.1s19.5,32.2,25,41.8s5,15.7,1.5,18.8c-3.5,3.2-24.8,21-23.8,25.2
		s8.5,10.8,47.8-2.7s50.3-18.5,65.2-18.5c0,0-2.2,13.2-3.8,18.8c-1.7,5.7-2.8,22.8,5.3,23.3s51-5.8,69.3-29.3c0,0,32.7-2.5,49.5-2.2
		c16.8,0.3,39.2,2,39.2,2s0.3,3-5.6,6.5c-5.8,3.5-11,6.2-12,7.7s-5.2,24.3-1.7,26.8s10.7,6.2,13.3,6.2c2.7,0,15.2-2.2,22-11
		s16.2-35,16.2-35s30.5,3,51.8,1c0,0-8.8,9-8,14.5s10,10.8,27.5,9c17.5-1.8,23.3-3.8,26-8.3c2.7-4.5,4.5-9.8,8.8-12
		c0,0,12.2,1.7,21.7,2c9.5,0.3,23-2.2,35-2.8c12-0.7,61.8-2.8,70.8-5c9-2.2,10.8-4.5,12.7-6.5c1.8-2,2.7-6.8,0-6.5
		C551.2,86.2,546.4,88.9,537.2,86.6z"/>
	<path fill="#FFFFFF" d="M485,91.9c0,0,5.3,3.8,7.8,3.8s22.5-4.3,35.2-8.3c12.7-4,22.2-6.7,20.3-7.8c-1.8-1.2-14.5-4.8-18.7-5.3
		s-15.8,0-20.3-1.8c-4.5-1.8-21.3-9.7-23.7-9.8s-4.3,0.3-4.7,2.2c0,0-4.2-9.7-29-16.3c0,0,24.3,6.5,23.2,5s-26.3-14.5-47.8-20.5
		s-50.5-13.3-133-9.5s-110.3,6-124.8,11.5s-41.7,19.8-44.8,20.2c-3.2,0.3-7.3,3.5-44-13.2c0,0-11.3,15.2-11.3,24.5
		s16.8,20,24.3,22.5c0,0,21.7-6,36.3-4.8c14.7,1.2,35.7,7.2,43.8,11c8.2,3.8,12.2,3.2,13.5,3.2c1.3,0,19.2-3,46.7-2.8
		c27.5,0.2,47.7,1.7,65.5,2.8c17.8,1.2,36.5,2.7,61.2,2c0,0,7.8-7.8,17.8-10.2c10-2.3,19.5-2.3,37.3,1.2c0,0-19.3-1.7-25.8-1.5
		c-6.5,0.2-21.2,2.8-29,12.7s-9.5,12.7-6.5,16.8c3,4.2,21.5,5.8,33.7,3c12.2-2.8,14.2-4,15.8-6.8s10.5-19.5,16-16.7
		c0,0-3.5,0.3-6,4.5c0,0,16.5,3,20.8,1.8c0,0-7-2.3-9-4.2s-1.8-5.8-2.8-6.8s-14.2-13.7-18.8-18.5c-4.7-4.8-10.5-10.5,3.2-17.8
		c0,0-7.7,5.8-7.3,9.2c0.3,3.3,23.2,24.5,24.2,26.3c1,1.8,2.2,5.7,3,6.3c0.8,0.7,8.5,5,10.5,5s21-1.2,29.3-1.8
		c8.3-0.7,37.3-3,48.2-3.2c10.8-0.2,29.2-1.5,33.5-4.5s6.7-7.7,5.5-7.8c-1.2-0.2-12,5-24.2,1c0,0-28.3,8.2-33.8,8.5
		C490.7,97.1,489.9,96.6,485,91.9z"/>
	<path d="M509.7,86.7c0,0-3.8-0.7-5-0.5s-4,0.7-5.3,0.5c-1.3-0.2-9.5-2.2-10.3-1.5s-5.5,4.8-5.5,4.8s3.8-4.7,5.8-5.5s8.3,1,10,1.2
		c1.7,0.2,4.7-0.5,5.5-0.5S508.5,86.4,509.7,86.7z"/>
	<path fill="#FFFFFF" d="M523.4,70.9c0,0-8.2,1.7-12,0.5c-3.8-1.2-11.8-4.7-12.3-5.3s-2.8-5.7-2.8-5.7S513.7,67.6,523.4,70.9z"/>
	<path d="M459.7,100.1c0,0-9.7-4.7-11.5-6.5s-0.8-5.8-2-7.3s-6-13.2-4.5-15.5c1.5-2.3,4.7-6.2,4.7-6.2s-3.3,6.2-3.3,7
		c0,0.8,1.3,8.5,3,11.5s2.3,4.5,2.3,5.7c0,1.2,0.2,3,0.8,3.7C449.9,93.1,459.7,100.1,459.7,100.1z"/>
	<path d="M459,103.2c0,0-7.2-1.5-9.2-5.3c0,0,1.5,3.8,5.8,6L459,103.2z"/>
	<path d="M441.9,47.2c0,0-12.8-1-17,0.7s-9.8,7.2-9.8,7.2s4.2-6.8,8-8.3S435.9,45.4,441.9,47.2z"/>
	<path d="M417.7,56.6c0,0-3.3,1.3-4.3,2.5s-2.7,7.5-1.7,9.8c1,2.3,6,9.2,8.3,12.3c2.3,3.2,6.7,9.5,8.5,10.5s10.3,4.5,16.5,5
		c0,0-15.5-4.8-17-6.7s-5.5-7.5-8.3-11.5s-7-9.2-7.2-10.7s1.2-6.8,2.3-8.5C416,57.7,417.7,56.6,417.7,56.6z"/>
	<g>
		<path d="M374.2,59.4c0.5-0.2,1.1-0.3,1.7-0.3c0.6-0.1,1.2-0.1,1.7-0.1c0.6,0,1.2,0,1.7,0.1c0.6,0.1,1.2,0.2,1.6,0.7
			c0.4,0.5,0.6,1.1,0.4,1.7c-0.2,0.6-0.5,1.1-0.9,1.5c-0.4,0.4-0.9,0.8-1.4,1c-0.5,0.3-1.1,0.5-1.6,0.7c-2.2,0.8-4.6,1-6.9,0.6
			c-0.6-0.1-1.1-0.3-1.7-0.5c-0.5-0.2-1.1-0.5-1.6-0.8c-1-0.6-1.9-1.4-2.9-1.9l-0.1,0l0-0.1c-0.1-0.2-0.2-0.5-0.1-0.8
			c0.1-0.3,0.3-0.5,0.5-0.6c0.4-0.3,0.8-0.4,1.2-0.6c0.8-0.3,1.7-0.4,2.5-0.5c1.7-0.2,3.4-0.3,5.1-0.2l0,0c-0.8,0-1.7,0.1-2.5,0.2
			c-0.8,0.1-1.7,0.2-2.5,0.3c-0.8,0.1-1.7,0.3-2.4,0.6c-0.4,0.1-0.8,0.3-1.1,0.5c-0.1,0.1-0.3,0.3-0.3,0.4c0,0.1,0,0.3,0.1,0.4
			l-0.1-0.1c1,0.6,1.9,1.3,2.9,1.9c0.5,0.3,1,0.6,1.5,0.8c0.5,0.2,1.1,0.4,1.6,0.5c2.2,0.5,4.6,0.3,6.7-0.5c0.5-0.2,1.1-0.4,1.6-0.7
			c0.5-0.2,1-0.5,1.4-0.9c0.4-0.4,0.7-0.9,0.9-1.4c0.2-0.5,0.1-1.1-0.3-1.5c-0.3-0.5-0.9-0.6-1.5-0.7c-0.6-0.1-1.1-0.1-1.7-0.1
			c-0.6,0-1.2,0-1.7,0.1C375.3,59.2,374.8,59.3,374.2,59.4L374.2,59.4z"/>
	</g>
	<g>
		<path d="M351.2,62.1c0.1-0.1,0.3-0.1,0.3-0.1c0.1-0.1,0-0.2,0-0.3l0,0c-0.7-0.5-1.5-0.7-2.3-0.8c-0.8-0.1-1.7-0.1-2.5-0.1
			c-1.7,0.1-3.3,0.1-5,0.1l-2.5,0c-0.8,0-1.7,0.1-2.5,0c-0.4,0-0.8-0.1-1.2-0.1c-0.4,0-0.8,0-1.1,0.2c-0.3,0.2-0.3,0.6-0.1,0.8
			c0.2,0.3,0.6,0.5,0.9,0.8c0.7,0.5,1.4,0.8,2.2,1.2c0.8,0.4,1.5,0.8,2.2,1.2c0.7,0.4,1.5,0.7,2.2,1c0.8,0.3,1.6,0.4,2.4,0.4
			c0.4,0,0.8,0,1.2-0.1c0.4-0.1,0.8-0.2,1.2-0.3c0.8-0.2,1.6-0.5,2.3-0.9c0.7-0.3,1.5-0.8,2.1-1.3c0.6-0.5,1.1-1.3,0.8-2.1l0,0
			c0.2,0.4,0.2,0.8,0,1.2c-0.1,0.2-0.2,0.4-0.3,0.6c-0.1,0.2-0.3,0.3-0.4,0.5c-0.6,0.6-1.3,1-2.1,1.4c-0.7,0.4-1.5,0.7-2.3,1
			c-0.4,0.1-0.8,0.2-1.2,0.3c-0.4,0.1-0.9,0.1-1.3,0.1c-0.9,0-1.7-0.2-2.5-0.4c-0.8-0.3-1.6-0.6-2.3-1c-0.7-0.4-1.5-0.8-2.2-1.2
			c-0.7-0.4-1.5-0.8-2.2-1.2c-0.3-0.2-0.7-0.5-1-0.9c-0.1-0.1-0.1-0.2-0.2-0.3c-0.1-0.2,0-0.2,0-0.4c0-0.3,0.2-0.5,0.4-0.6
			c0.4-0.2,0.9-0.2,1.3-0.3c0.4,0,0.8,0,1.3,0.1c0.8,0.1,1.7,0,2.5,0.1l2.5,0c1.7,0,3.3,0,5,0c0.8,0,1.7,0,2.5,0.1
			c0.8,0.1,1.7,0.3,2.4,0.8l0,0l0,0c0,0.1,0.1,0.2,0,0.4C351.4,62,351.3,62,351.2,62.1L351.2,62.1z"/>
	</g>
	<g>
		<path d="M323.9,50.5c0,0,0.2,0,0.4,0c0.3,0,0.7,0,1.2,0.1c0.3,0,0.6,0.1,0.9,0.2c0.3,0.1,0.6,0.4,0.7,0.8c0,0.4-0.3,0.8-0.6,1.1
			c-0.3,0.3-0.7,0.5-1.1,0.8c-0.8,0.4-1.7,0.9-2.6,1.3c-1,0.4-2,0.8-3.2,1c-2.3,0.4-4.8,0.4-7.2-0.2c-1.2-0.3-2.3-0.8-3.4-1.5
			c-0.2-0.2-0.5-0.4-0.7-0.7c-0.1-0.2-0.1-0.4-0.1-0.6c0.1-0.2,0.2-0.4,0.3-0.5c0.6-0.4,1.1-0.5,1.7-0.7c2.3-0.5,4.4-0.6,6.2-0.7
			c1.8,0,3.4,0,4.4,0c1.1,0,1.7,0.1,1.7,0.1v0c0,0-0.6,0-1.7,0.1c-1.1,0-2.6,0.1-4.4,0.2c-1.8,0.1-3.9,0.3-6.1,0.8
			c-0.5,0.1-1.1,0.3-1.5,0.6c-0.2,0.2-0.2,0.3-0.1,0.5c0.1,0.2,0.3,0.4,0.5,0.6c0.9,0.7,2.1,1.2,3.2,1.5c2.3,0.7,4.8,0.7,7,0.3
			c1.1-0.2,2.2-0.5,3.1-0.9c0.9-0.4,1.8-0.9,2.6-1.3c0.4-0.2,0.8-0.4,1.1-0.7c0.3-0.3,0.6-0.6,0.5-0.9c0-0.3-0.3-0.6-0.6-0.7
			c-0.3-0.1-0.6-0.2-0.8-0.2c-0.5-0.1-0.9-0.1-1.2-0.1C324,50.6,323.9,50.6,323.9,50.5L323.9,50.5z"/>
	</g>
	<g>
		<path d="M380.1,79.9c0,0-0.1,0.1-0.3,0.1c-0.2,0.1-0.5,0.2-0.8,0.2c-0.8,0.1-1.8,0.1-3.1-0.1c-1.3-0.1-2.8-0.4-4.4-0.5
			c-0.8,0-1.6,0-2.4,0.3c-0.8,0.3-1.3,0.9-1.4,1.7c-0.1,0.8,0,1.6,0.4,2.4c0.3,0.7,0.9,1.4,1.5,1.8c0.6,0.4,1.4,0.4,2.1,0.5
			c0.7,0.1,1.4,0.1,2.1,0.1c1.3,0.1,2.4,0,3.1-0.1c0.4,0,0.7-0.1,0.8-0.2c0.2-0.1,0.2-0.2,0.3-0.2l0,0c0,0-0.1,0.1-0.3,0.2
			c-0.2,0.1-0.5,0.2-0.8,0.3c-0.7,0.2-1.8,0.3-3.1,0.3c-0.7,0-1.4,0-2.1-0.1c-0.7-0.1-1.6-0.1-2.3-0.6c-0.7-0.5-1.3-1.2-1.7-2
			c-0.4-0.8-0.5-1.8-0.4-2.6c0.1-0.4,0.2-0.9,0.6-1.3c0.3-0.4,0.7-0.6,1.1-0.7c0.8-0.3,1.7-0.3,2.5-0.2c1.6,0.1,3.1,0.4,4.4,0.6
			c1.3,0.2,2.4,0.3,3.1,0.2c0.4,0,0.6-0.1,0.8-0.2C379.9,79.9,380,79.9,380.1,79.9L380.1,79.9z"/>
	</g>
	<g>
		<path d="M357.9,79.4c0,0,0.1-0.1,0.3-0.3c0.1-0.2,0.2-0.7-0.2-1c-0.4-0.3-1-0.1-1.6,0.3c-0.2,0.1-0.3,0.2-0.5,0.2
			c-0.2,0-0.4,0.1-0.5,0.1c-0.2,0-0.4,0.1-0.6,0.1c-0.2,0-0.5-0.1-0.6-0.3c-0.1-0.2-0.2-0.4-0.2-0.6c0-0.2-0.1-0.4-0.1-0.7
			c0-0.3,0.2-0.5,0.3-0.7c0.1-0.2,0-0.4-0.2-0.5c-0.3-0.4-0.8-0.4-1.3-0.4c-0.5,0-1,0-1.6-0.1c-1.1-0.1-2.1-0.4-3.2-0.4
			c-0.5,0-1.1,0.1-1.5,0.4c-0.5,0.2-1,0.5-1.2,1c-0.2,0.4,0,1,0.3,1.4c0.3,0.5,0.7,0.9,1.1,1.2c0.4,0.4,0.8,0.8,1.2,1.3
			c0.2,0.2,0.3,0.5,0.3,0.9c0,0.3,0,0.6,0,0.8c0,0.2,0.1,0.5,0.2,0.5l0.2,0.1l0.1,0c0.1,0,0.2,0,0.3,0.1c0.5,0.1,1,0,1.4-0.1
			c0.9-0.1,1.8-0.3,2.6-0.6c0.8-0.2,1.5-0.5,2.2-0.7c0.6-0.3,1.1-0.6,1.6-0.8c0.8-0.5,1.3-0.9,1.3-0.9l0,0c0,0-0.4,0.4-1.2,1
			c-0.8,0.6-2.1,1.3-3.7,1.8c-0.8,0.3-1.7,0.5-2.7,0.7c-0.5,0.1-1,0.1-1.6,0.1c-0.1,0-0.3,0-0.4-0.1l-0.2-0.1l-0.2-0.1
			c-0.3-0.3-0.4-0.6-0.4-0.9c0-0.3,0-0.6,0-0.8c0-0.2-0.1-0.4-0.3-0.6c-0.3-0.4-0.7-0.8-1.1-1.2c-0.4-0.4-0.8-0.8-1.1-1.3
			c-0.3-0.5-0.6-1.2-0.2-1.8c0.3-0.6,0.9-0.9,1.4-1.1c0.5-0.3,1.1-0.4,1.7-0.4c1.2,0,2.2,0.3,3.3,0.4c0.5,0.1,1,0,1.6,0.1
			c0.3,0,0.5,0.1,0.8,0.1c0.3,0.1,0.5,0.2,0.7,0.4c0.2,0.2,0.4,0.5,0.2,0.8c-0.1,0.2-0.2,0.4-0.3,0.6c0,0.4,0.1,0.9,0.3,1.2
			c0.2,0.4,0.7,0.2,1,0.2c0.4-0.1,0.7-0.1,1-0.3c0.6-0.3,1.3-0.6,1.7-0.3c0.5,0.3,0.4,0.9,0.2,1.1C358,79.4,357.9,79.4,357.9,79.4
			L357.9,79.4z"/>
	</g>
	<g>
		<path d="M324.2,87.1c0.3,0.1,0.7,0,0.9-0.3c0.2-0.2,0.4-0.6,0.4-0.9c0-0.3-0.1-0.7-0.4-0.9c-0.2-0.2-0.5-0.4-0.9-0.5
			c-0.6-0.2-1.3-0.2-2-0.3c-0.7,0-1.4-0.2-2-0.3c-1.4-0.2-2.7-0.4-4.1-0.5c-0.7,0-1.4-0.1-2,0c-0.7,0.1-1.4,0.2-1.8,0.6l0-0.3
			c0.1,0.2,0.3,0.4,0.5,0.6c0.2,0.2,0.4,0.3,0.6,0.4c0.5,0.2,1,0.4,1.5,0.5c0.5,0.1,1.1,0.2,1.6,0.3c0.5,0.1,1.1,0.2,1.6,0.4
			c1,0.4,2,0.9,3,1.2c0.5,0.1,1,0.2,1.6,0.3c0.5,0,1.1,0,1.6-0.2l0,0c-0.5,0.2-1.1,0.3-1.6,0.4c-0.6,0-1.1,0-1.7-0.2
			c-1.1-0.2-2.1-0.7-3.1-1c-0.5-0.2-1-0.3-1.5-0.4c-0.5-0.1-1.1-0.2-1.6-0.3c-0.5-0.1-1.1-0.3-1.6-0.5c-0.3-0.1-0.5-0.3-0.7-0.5
			c-0.2-0.2-0.4-0.4-0.6-0.7l-0.1-0.2l0.1-0.1c0.6-0.5,1.4-0.6,2.1-0.6c0.7,0,1.4,0,2.1,0c1.4,0.1,2.7,0.3,4.1,0.6
			c0.7,0.1,1.3,0.3,2,0.3c0.7,0.1,1.4,0.1,2,0.3c0.3,0.1,0.7,0.3,0.9,0.5c0.2,0.3,0.4,0.6,0.4,1c0,0.4-0.2,0.7-0.4,0.9
			C324.9,87.1,324.6,87.2,324.2,87.1L324.2,87.1z"/>
	</g>
	<g>
		<path d="M311.2,67.9c0.3-0.4,0.6-0.8,0.8-1.3c0.2-0.4,0.3-1,0.1-1.4c-0.2-0.4-0.7-0.7-1.2-0.9c-0.5-0.2-1-0.3-1.5-0.3
			c-1-0.1-2-0.2-3-0.2l-1.5-0.1c-0.5,0-1-0.1-1.5-0.2c-1-0.2-2-0.5-3-0.6c-1-0.2-2-0.2-3-0.2c-2,0.1-4,0.4-6,0.7l0.2-0.2
			c-0.1,0.4,0,0.8,0.3,1.1c0.3,0.3,0.7,0.5,1.1,0.7c0.8,0.3,1.7,0.5,2.6,0.7c0.9,0.2,1.8,0.3,2.7,0.5c0.9,0.2,1.8,0.3,2.7,0.6
			c0.4,0.2,0.8,0.5,1.2,0.7c0.4,0.2,0.8,0.4,1.2,0.6c0.8,0.3,1.7,0.6,2.6,0.6c0.9,0.1,1.8,0.2,2.7,0.1c0.4,0,0.9-0.1,1.3-0.4
			C310.4,68.3,310.8,68,311.2,67.9L311.2,67.9c-0.4,0.2-0.8,0.5-1.1,0.7c-0.4,0.2-0.9,0.4-1.3,0.5c-0.9,0.1-1.8,0.1-2.8,0
			c-0.9-0.1-1.8-0.3-2.7-0.6c-0.4-0.2-0.9-0.4-1.3-0.6c-0.4-0.2-0.8-0.4-1.2-0.6c-0.8-0.3-1.7-0.4-2.6-0.6c-0.9-0.1-1.8-0.3-2.7-0.5
			c-0.9-0.2-1.8-0.4-2.7-0.8c-0.4-0.2-0.9-0.4-1.2-0.8c-0.4-0.4-0.5-1-0.4-1.5l0-0.1l0.1,0c2-0.3,4-0.6,6.1-0.6c1,0,2.1,0,3.1,0.2
			c1,0.2,2,0.5,3,0.7c1,0.2,2,0.2,3,0.3c1,0.1,2,0.1,3,0.3c0.5,0.1,1,0.2,1.5,0.4c0.5,0.2,1,0.5,1.2,0.9c0.2,0.5,0.1,1.1-0.1,1.5
			C311.9,67.1,311.6,67.5,311.2,67.9L311.2,67.9z"/>
	</g>
	<g>
		<path d="M278.1,77.5c0,0,0.2,0,0.5,0c0.2,0,0.4,0,0.5-0.2c0.2-0.2,0.2-0.4,0.1-0.7c-0.2-0.6-0.6-1.2-1.3-1.7
			c-0.7-0.5-1.7-0.5-2.7-0.6c-1,0-2.2-0.1-3.4-0.3c-1.2-0.2-2.4-0.4-3.7-0.4c-1.3-0.1-2.7-0.1-4-0.1c-1.4,0-2.8,0.1-4.1,0.4
			c-0.3,0.1-0.7,0.2-0.9,0.4c-0.3,0.2-0.4,0.4-0.4,0.6c0.2,0.6,0.9,0.8,1.5,1.1c0.6,0.2,1.3,0.4,1.9,0.7c0.3,0.1,0.6,0.2,1,0.4
			c0.3,0.2,0.6,0.3,0.8,0.5c0.6,0.3,1.1,0.6,1.7,0.7c0.6,0.1,1.2,0.1,1.8,0.1c1.2,0.1,2.3,0.1,3.4,0.2c1,0,2,0.1,2.9,0
			c0.8-0.1,1.6-0.2,2.2-0.3c0.6-0.1,1-0.3,1.3-0.4c0.3-0.1,0.4-0.2,0.4-0.2l0,0c0,0-0.2,0.1-0.4,0.3c-0.3,0.2-0.7,0.4-1.3,0.5
			c-1.2,0.4-3,0.5-5.1,0.5c-1.1,0-2.2,0-3.4-0.1c-0.6,0-1.2,0-1.9-0.1c-0.7-0.1-1.3-0.4-1.8-0.8c-0.3-0.2-0.6-0.3-0.8-0.5
			c-0.2-0.1-0.6-0.3-0.9-0.4c-0.6-0.2-1.3-0.4-1.9-0.7c-0.3-0.1-0.6-0.3-1-0.5c-0.2-0.1-0.3-0.2-0.4-0.4c-0.1-0.1-0.1-0.2-0.2-0.3
			c-0.1-0.1-0.1-0.2-0.1-0.3c-0.1-0.5,0.3-0.9,0.6-1.1c0.3-0.2,0.7-0.3,1-0.4c1.4-0.3,2.8-0.4,4.2-0.4c1.4,0,2.7,0,4.1,0.1
			c1.3,0.1,2.6,0.2,3.8,0.5c1.2,0.2,2.3,0.3,3.4,0.4c1,0.1,2.1,0.1,2.8,0.6c0.7,0.5,1.1,1.2,1.3,1.8c0.1,0.3,0,0.6-0.2,0.8
			c-0.2,0.2-0.4,0.2-0.6,0.2C278.2,77.6,278,77.6,278.1,77.5L278.1,77.5z"/>
	</g>
	<g>
		<path d="M276.4,55.7c0,0,0.6-0.2,1.5-0.7c0.5-0.2,1-0.5,1.6-1c0.3-0.2,0.5-0.6,0.4-1c-0.1-0.3-0.5-0.6-0.9-0.7
			c-0.8-0.3-1.8-0.4-2.8-0.5c-1-0.1-2.1-0.2-3.2-0.3c-1.1,0-2.3,0-3.4,0.2c-1.1,0.2-2.2,0.7-3.4,1c-1.2,0.3-2.5,0.2-3.3,0.9
			c-0.2,0.2-0.3,0.4-0.3,0.6c0,0.2,0.1,0.4,0.3,0.6c0.3,0.4,0.7,0.8,1.2,0.9c1,0.3,2.1,0.2,3.1,0.3c1,0.1,2,0.1,2.9,0.1
			c1.8,0,3.3-0.2,4.3-0.4c1-0.2,1.6-0.4,1.6-0.4l0,0c0,0-0.5,0.3-1.6,0.5c-1,0.3-2.5,0.5-4.3,0.6c-0.9,0-1.9,0-2.9,0
			c-0.5,0-1-0.1-1.6-0.1c-0.5,0-1.1-0.1-1.7-0.3c-0.6-0.2-1.1-0.6-1.5-1.1c-0.2-0.2-0.4-0.5-0.4-0.9c0-0.4,0.2-0.7,0.5-1
			c0.5-0.4,1.1-0.6,1.7-0.7c0.6-0.1,1.2-0.1,1.8-0.2c1.1-0.3,2.3-0.7,3.4-0.9c1.2-0.2,2.3-0.2,3.5-0.1c1.1,0.1,2.2,0.2,3.2,0.3
			c1,0.1,2,0.2,2.9,0.5c0.4,0.2,0.8,0.4,1,0.8c0.1,0.4-0.2,0.8-0.4,1.1c-0.6,0.5-1.1,0.8-1.6,1C277,55.6,276.4,55.8,276.4,55.7
			L276.4,55.7z"/>
	</g>
	<g>
		<path d="M242.5,50.8c0,0-0.3,0-0.7,0c-0.5,0-1.1-0.1-2-0.1c-0.8,0-1.8,0-2.7,0.2c-0.5,0.1-1,0.2-1.4,0.5c-0.4,0.3-0.6,0.8-0.4,1.2
			c0,0.1,0.1,0.2,0.1,0.4c0,0,0.1,0.2,0.2,0.3c0.1,0.1,0.1,0.1,0.2,0.2c0.1,0,0.2,0.1,0.3,0.1c0.5,0.2,1,0.2,1.5,0.2
			c1,0,1.9,0,2.7-0.1c1.6-0.2,2.7-0.3,2.7-0.3l0,0c0,0-0.3,0.1-0.7,0.2c-0.5,0.1-1.1,0.3-1.9,0.5c-0.8,0.1-1.8,0.3-2.8,0.2
			c-0.5,0-1.1-0.1-1.6-0.3c-0.3-0.1-0.5-0.3-0.8-0.5c-0.1-0.1-0.1-0.2-0.2-0.4c0-0.1-0.1-0.3-0.1-0.4c-0.2-0.6,0.1-1.3,0.6-1.6
			c0.5-0.3,1-0.4,1.5-0.5c1-0.2,2-0.1,2.8-0.1c0.8,0,1.5,0.1,2,0.2C242.3,50.7,242.5,50.7,242.5,50.8L242.5,50.8z"/>
	</g>
	<g>
		<path d="M240.7,65.4c0,0,0-0.2-0.2-0.4c-0.2-0.2-0.5-0.5-1-0.7c-1-0.4-2.5-0.5-4.3-0.5c-1.8,0-3.9,0.2-6.2,0.5
			c-1.1,0.2-2.2,0.5-3.3,1.1c-0.5,0.3-1,0.6-1.4,1c-0.4,0.4-0.6,1-0.4,1.5c0.1,0.2,0.2,0.5,0.4,0.7c0.1,0.1,0.2,0.2,0.3,0.3
			c0.1,0.1,0.2,0.2,0.4,0.3c0.4,0.3,1,0.5,1.6,0.6c1.1,0.2,2.3,0.3,3.4,0.3c1.1,0,2.2-0.1,3.3-0.2c1-0.1,2-0.1,2.9-0.3
			c0.9-0.2,1.7-0.4,2.3-0.8c0.6-0.4,1-0.9,1.2-1.4c0.2-0.5,0.2-0.9,0.3-1.2c0-0.3,0-0.4,0-0.4l0,0c0,0,0,0.2,0,0.4
			c0,0.3,0,0.7-0.2,1.2c-0.2,0.5-0.6,1.1-1.2,1.6c-0.6,0.4-1.4,0.8-2.3,1c-0.9,0.2-1.9,0.2-2.9,0.4c-1,0.1-2.1,0.2-3.3,0.2
			c-1.1,0-2.3,0-3.5-0.3c-0.6-0.2-1.2-0.3-1.7-0.7c-0.5-0.3-1-0.9-1.2-1.5c-0.2-0.7,0.1-1.4,0.5-1.8c0.4-0.5,1-0.8,1.5-1.1
			c1.1-0.5,2.2-0.9,3.4-1c2.3-0.3,4.4-0.4,6.2-0.4c1.8,0,3.3,0.2,4.3,0.6c0.5,0.2,0.8,0.5,1,0.7C240.7,65.2,240.7,65.4,240.7,65.4
			L240.7,65.4z"/>
	</g>
	<g>
		<path d="M220.2,73.6c0,0,0,0.1,0,0.3c0,0.2,0,0.5-0.2,0.8c-0.4,0.6-1.3,1.2-2.4,1.5c-1.1,0.4-2.5,0.6-4,0.7c-0.7,0-1.5,0.1-2.3,0
			c-0.8-0.1-1.6-0.1-2.4-0.4c-0.4-0.1-0.8-0.3-1.1-0.6c-0.2-0.2-0.3-0.4-0.3-0.6c0-0.2,0-0.5,0-0.7c0.1-0.5,0.5-0.8,0.8-1
			c0.3-0.2,0.7-0.4,1-0.6c1.4-0.6,2.8-0.8,4-0.9c1.2-0.1,2.2-0.2,2.9-0.2c0.7,0,1.1,0,1.1,0l0,0c0,0-0.4,0.1-1.1,0.1
			c-0.7,0.1-1.7,0.2-2.8,0.4c-0.6,0.1-1.2,0.2-1.9,0.4c-0.7,0.2-1.3,0.3-2,0.6c-0.6,0.3-1.4,0.6-1.6,1.3c-0.1,0.1-0.1,0.3,0,0.5
			c0,0.1,0.1,0.3,0.2,0.4c0.2,0.2,0.6,0.4,0.9,0.5c0.7,0.3,1.5,0.4,2.3,0.4c0.8,0.1,1.5,0.1,2.3,0c1.5-0.1,2.8-0.3,4-0.6
			c1.1-0.3,2-0.8,2.4-1.4c0.2-0.3,0.2-0.6,0.2-0.7C220.2,73.7,220.2,73.6,220.2,73.6L220.2,73.6z"/>
	</g>
	<g>
		<path d="M215.6,81.2c0.4,0,0.8,0.1,1.2,0.3c0.4,0.3,0.4,0.8,0.3,1.2c-0.2,0.4-0.5,0.7-0.9,0.9c-0.4,0.2-0.8,0.3-1.2,0.4
			c-0.8,0.2-1.6,0.3-2.4,0.4c-0.8,0.1-1.6,0.2-2.4,0.3c-1.6,0.2-3.3,0.4-4.9,0.3c-0.4,0-0.8-0.1-1.2-0.1c-0.4-0.1-0.8-0.2-1.2-0.3
			l-0.6-0.3c-0.2-0.1-0.4-0.2-0.6-0.4c-0.2-0.1-0.3-0.3-0.5-0.5c-0.1-0.2-0.2-0.4-0.3-0.6l-0.1-0.2l0.2-0.1c1.5-0.6,3-1.1,4.6-1.5
			c1.6-0.3,3.2-0.4,4.8-0.3v0.1c-1.6,0.1-3.1,0.3-4.7,0.7c-0.8,0.2-1.5,0.4-2.2,0.7c-0.7,0.3-1.5,0.5-2.2,0.8l0.1-0.3
			c0.1,0.2,0.2,0.3,0.3,0.5c0.1,0.1,0.2,0.3,0.4,0.4c0.2,0.1,0.3,0.2,0.5,0.3l0.5,0.2c0.4,0.1,0.7,0.2,1.1,0.3
			c0.4,0.1,0.8,0.1,1.2,0.2c1.6,0.1,3.2,0,4.9-0.2c0.8-0.1,1.6-0.2,2.4-0.2c0.8-0.1,1.6-0.1,2.4-0.3c0.4-0.1,0.8-0.2,1.1-0.4
			c0.4-0.2,0.7-0.4,0.8-0.8c0.1-0.4,0.1-0.8-0.2-1.1C216.4,81.4,215.9,81.3,215.6,81.2L215.6,81.2z"/>
	</g>
	<g>
		<path d="M195.2,61.6c0,0,0.5,0,1.3,0.1c0.4,0,0.9,0.1,1.4,0.3c0.5,0.2,1.2,0.4,1.6,1c0.4,0.6,0.3,1.6-0.3,2.2
			c-0.6,0.6-1.4,0.9-2.3,1.1c-1.7,0.4-3.6,0.4-5.4,0.4c-0.9,0-1.9,0-2.8-0.3c-0.4-0.1-0.9-0.3-1.3-0.5c-0.4-0.2-0.9-0.5-1-1.1
			c0-0.2,0.1-0.3,0.1-0.5c0.1-0.1,0.2-0.2,0.3-0.3c0.2-0.1,0.4-0.3,0.6-0.3c0.4-0.2,0.8-0.3,1.2-0.4c0.8-0.2,1.5-0.4,2.1-0.5
			c1.3-0.3,2.5-0.6,3.3-0.7c0.8-0.1,1.3-0.1,1.3-0.1l0,0c0,0-0.5,0.1-1.2,0.2c-0.8,0.2-1.9,0.5-3.2,0.9c-0.7,0.2-1.4,0.4-2.1,0.6
			c-0.4,0.1-0.8,0.2-1.1,0.4c-0.3,0.1-0.7,0.4-0.7,0.6c0,0.2,0.4,0.5,0.7,0.7c0.4,0.2,0.8,0.4,1.2,0.5c0.8,0.3,1.7,0.3,2.6,0.4
			c1.8,0.1,3.7,0.1,5.3-0.3c0.8-0.2,1.6-0.5,2.1-1c0.5-0.5,0.7-1.4,0.3-1.9c-0.4-0.5-1-0.8-1.5-0.9c-0.5-0.2-1-0.2-1.4-0.3
			C195.7,61.6,195.2,61.6,195.2,61.6L195.2,61.6z"/>
	</g>
	<g>
		<path d="M185.5,54.9c0.4,0,0.7,0,1.1,0c0.4,0,0.7,0.1,1,0.3c0.2,0.1,0.3,0.3,0.3,0.5c0,0.2-0.2,0.4-0.3,0.5
			c-0.2,0.3-0.5,0.5-0.8,0.7c-1.2,0.8-2.5,1.3-3.9,1.7c-2.7,0.8-5.5,1.4-8.4,1.1l-0.2,0l0-0.2c-0.1-0.6-0.2-1.3,0.1-1.9
			c0.3-0.6,0.9-1,1.4-1.3c1.1-0.5,2.2-0.9,3.3-1.2c2.3-0.6,4.7-0.9,7-0.8l0,0.1c-1.2,0.1-2.3,0.2-3.5,0.4c-1.1,0.2-2.3,0.5-3.4,0.8
			c-1.1,0.3-2.2,0.7-3.3,1.2c-0.5,0.3-1,0.6-1.2,1c-0.2,0.5-0.2,1-0.1,1.6l-0.2-0.2c2.8,0.4,5.6-0.1,8.3-0.9
			c1.4-0.4,2.7-0.8,3.9-1.6c0.3-0.2,0.6-0.4,0.8-0.6c0.1-0.1,0.2-0.3,0.3-0.4c0-0.2-0.1-0.3-0.2-0.4c-0.3-0.2-0.6-0.2-1-0.3
			C186.3,55,185.9,54.9,185.5,54.9L185.5,54.9z"/>
	</g>
	<g>
		<path d="M168.9,70.9c0,0,0.5,0.1,1.3,0.3c0.4,0.1,0.9,0.2,1.5,0.4c0.5,0.2,1.2,0.4,1.7,1.1c0.1,0.2,0.2,0.3,0.2,0.6
			c0,0.2,0,0.4-0.1,0.6c-0.2,0.4-0.6,0.6-0.9,0.8c-0.8,0.4-1.6,0.6-2.5,0.7c-1.8,0.3-3.7,0.3-5.7,0.2c-1,0-2-0.2-2.9-0.5
			c-0.5-0.2-0.9-0.4-1.3-0.6c-0.4-0.3-0.8-0.7-0.8-1.3c0.1-0.6,0.5-0.9,0.8-1.3c0.3-0.3,0.8-0.5,1.2-0.6c0.8-0.3,1.6-0.4,2.3-0.5
			c1.5-0.1,2.7-0.1,3.5,0c0.8,0.1,1.3,0.1,1.3,0.1l0,0c0,0-0.5,0-1.3,0c-0.8,0-2,0.1-3.5,0.3c-0.7,0.1-1.5,0.2-2.2,0.5
			c-0.7,0.3-1.6,0.8-1.7,1.4c0,0.3,0.2,0.6,0.6,0.9c0.4,0.2,0.8,0.4,1.2,0.6c0.9,0.3,1.8,0.5,2.7,0.6c1.9,0.1,3.8,0.1,5.6-0.1
			c0.9-0.1,1.7-0.3,2.5-0.6c0.4-0.2,0.7-0.4,0.9-0.7c0.1-0.2,0.1-0.3,0.1-0.5c0-0.2-0.1-0.3-0.1-0.5c-0.4-0.6-1-0.8-1.6-1.1
			c-0.5-0.2-1-0.3-1.4-0.4C169.3,71.1,168.9,70.9,168.9,70.9L168.9,70.9z"/>
	</g>
	<path fill="#FFFFFF" d="M78.4,41.4c0,0-12,16.2-11.2,24.3s3.5,13.5,23.5,23.8c0,0-41.5,14.2-52.3,17.5s-18.3,4.3-23.5,4.3
		s-11.3-1.8-10.5-4.2c0.8-2.3,15.2-16.5,21.7-22.5s6.7-8.8,1.2-20.8S2.4,25.6,2,24.6s-1.5-3,12.3-0.7S63,35.2,78.4,41.4z"/>
	<path fill="#FFFFFF" d="M207,23.9c0,0-30.6-1-76.8,27.1c0,0-1.5-2.9-4.1-3.5s-6.6,0.1-7.2-0.6s-5.1-10.6-7.5-13.9s-8-10-7.4-11.1
		s6.1-11,12.8-14s22.4-9.5,47.4-4.4S207,23.9,207,23.9z"/>
	<path fill="#FFFFFF" d="M184.4,99.6c0,0-2.8-0.2-7.4-2.1S134.8,82,116.9,86.6c0,0-1.1,9.4-2.4,14.5s-3.4,11.8-2.2,17.4
		s2.4,8.5,4.6,8.8s16.5,0.2,37.2-7.9S184.4,99.6,184.4,99.6z"/>
	<path fill="#FFFFFF" d="M305.9,100.7c0,0-20.9-2-29.4-1.4c0,0,0,3.5-4.2,6.4s-13.8,7.5-14,8.9s-3.6,21.9-2.1,23.8
		s10.6,6.9,13.1,6.9s13.8-2.1,18.5-7.5S305.9,100.7,305.9,100.7z"/>
	<g>
		<path d="M414,94.7c0,0-0.9,0.2-2.6,0.7c-1.6,0.4-3.9,1.1-6.7,1.9c-1.4,0.4-2.9,0.9-4.4,1.4c-1.6,0.5-3.2,1.1-4.9,1.7
			c-1.7,0.6-3.5,1.2-5.2,1.9c-1.8,0.7-3.6,1.4-5.3,2.1c-0.9,0.4-1.8,0.7-2.7,1.1c-0.9,0.4-1.8,0.8-2.6,1.1c-0.9,0.4-1.7,0.8-2.6,1.1
			c-0.8,0.4-1.7,0.8-2.5,1.2c-0.8,0.4-1.6,0.8-2.4,1.1c-0.8,0.4-1.5,0.8-2.3,1.1c-1.5,0.7-2.9,1.4-4.1,2.2c-1.3,0.7-2.4,1.3-3.4,1.9
			c-1,0.6-1.9,1.1-2.6,1.6c-1.5,0.9-2.3,1.4-2.3,1.4s0.8-0.6,2.2-1.5c0.7-0.5,1.5-1.1,2.5-1.7c1-0.6,2.1-1.3,3.4-2.1
			c1.2-0.8,2.6-1.5,4.1-2.3c0.7-0.4,1.5-0.8,2.2-1.2c0.8-0.4,1.6-0.8,2.4-1.2c0.8-0.4,1.6-0.8,2.5-1.2c0.8-0.4,1.7-0.8,2.6-1.2
			c0.9-0.4,1.7-0.8,2.6-1.2c0.9-0.4,1.8-0.7,2.7-1.1c1.8-0.7,3.6-1.4,5.4-2.1c1.8-0.7,3.6-1.2,5.3-1.8c1.7-0.6,3.4-1.1,5-1.5
			c1.6-0.5,3.1-0.9,4.5-1.2c2.8-0.8,5.2-1.2,6.8-1.6C413.1,94.9,414,94.7,414,94.7z"/>
	</g>
	<g>
		<path d="M412.3,92.6c0,0-0.9,0.2-2.5,0.5c-1.6,0.3-3.9,0.8-6.6,1.4c-1.4,0.3-2.9,0.6-4.4,1c-1.6,0.4-3.2,0.8-4.9,1.2
			c-1.7,0.4-3.4,0.9-5.2,1.4c-1.8,0.5-3.5,1.1-5.3,1.7c-1.8,0.6-3.6,1.1-5.3,1.8c-1.7,0.7-3.4,1.2-5,1.9c-1.6,0.7-3.2,1.3-4.6,2
			c-1.4,0.7-2.9,1.3-4.1,1.9c-1.2,0.6-2.4,1.2-3.4,1.8c-1,0.5-1.8,1.1-2.6,1.5c-1.4,0.8-2.2,1.3-2.2,1.3s0.8-0.5,2.1-1.5
			c0.7-0.5,1.5-1,2.5-1.6c1-0.6,2.1-1.2,3.3-1.9c1.2-0.7,2.6-1.3,4-2.1c1.4-0.8,3-1.4,4.6-2.1c1.6-0.7,3.3-1.3,5-2
			c1.7-0.7,3.5-1.2,5.3-1.9c1.8-0.6,3.6-1.1,5.4-1.6c1.8-0.5,3.5-1,5.3-1.4c1.7-0.4,3.4-0.8,5-1.1c1.6-0.3,3.1-0.6,4.5-0.9
			c2.8-0.5,5.1-0.8,6.7-1C411.4,92.7,412.3,92.6,412.3,92.6z"/>
	</g>
	<g>
		<path d="M403.5,91.6c0,0-0.7,0.1-1.9,0.4c-1.2,0.2-2.9,0.7-5,1.1c-2.1,0.5-4.5,1.1-7.1,1.7c-2.6,0.6-5.3,1.4-8,2.2
			c-1.4,0.4-2.7,0.8-4,1.2c-1.3,0.4-2.6,0.9-3.9,1.3c-1.2,0.5-2.4,0.9-3.6,1.3c-1.1,0.5-2.2,0.9-3.2,1.3c-1,0.5-1.8,0.9-2.6,1.3
			c-0.8,0.4-1.4,0.7-2,1.1c-1.1,0.6-1.7,1-1.7,1s0.6-0.4,1.6-1.1c0.5-0.3,1.1-0.8,1.9-1.2c0.8-0.4,1.6-0.9,2.5-1.4
			c1-0.5,2-1,3.1-1.5c1.1-0.5,2.3-1,3.6-1.5c1.3-0.4,2.6-0.9,3.9-1.4c1.3-0.4,2.7-0.9,4.1-1.3c2.7-0.8,5.5-1.5,8.1-2.1
			c1.3-0.3,2.6-0.5,3.8-0.8c1.2-0.2,2.3-0.4,3.4-0.6c2.1-0.4,3.9-0.6,5.1-0.7C402.8,91.7,403.5,91.6,403.5,91.6z"/>
	</g>
	<g>
		<path d="M394.3,90.7c0,0-2,0.4-4.9,1.2c-1.5,0.4-3.2,0.8-5,1.4c-1.8,0.5-3.8,1.1-5.7,1.8c-1.9,0.6-3.8,1.3-5.6,2
			c-0.9,0.3-1.7,0.7-2.5,1c-0.8,0.3-1.6,0.6-2.3,1c-0.7,0.3-1.3,0.6-1.9,0.8c-0.6,0.3-1,0.5-1.4,0.7c-0.8,0.4-1.3,0.6-1.3,0.6
			s0.4-0.3,1.2-0.8c0.8-0.5,1.8-1.2,3.2-1.9c0.7-0.4,1.4-0.7,2.2-1.1c0.8-0.4,1.6-0.8,2.5-1.2c0.9-0.4,1.8-0.8,2.7-1.1
			c0.9-0.4,1.9-0.7,2.9-1c1-0.3,1.9-0.6,2.9-0.9c1-0.3,1.9-0.5,2.8-0.8c1.9-0.5,3.6-0.8,5.1-1.1c1.5-0.3,2.8-0.4,3.7-0.5
			C393.8,90.8,394.3,90.7,394.3,90.7z"/>
	</g>
	<g>
		<path d="M415,96.6c0,0-0.8,0.3-2.2,0.9c-1.4,0.6-3.5,1.4-5.9,2.4c-2.4,1-5.2,2.3-8.3,3.6c-3,1.3-6.2,2.8-9.4,4.3
			c-3.2,1.5-6.3,3-9.3,4.5c-1.5,0.8-2.9,1.5-4.2,2.2c-1.4,0.7-2.6,1.4-3.8,2c-1.2,0.6-2.2,1.2-3.2,1.7c-0.9,0.5-1.8,1-2.4,1.3
			c-1.4,0.7-2.1,1.1-2.1,1.1s0.7-0.5,2-1.3c1.3-0.8,3.1-2,5.4-3.3c1.1-0.7,2.4-1.4,3.7-2.1c1.3-0.7,2.7-1.5,4.2-2.3
			c1.5-0.8,3-1.6,4.5-2.3c1.6-0.8,3.1-1.6,4.7-2.3c3.2-1.5,6.4-2.9,9.4-4.2c1.5-0.7,3-1.2,4.4-1.8c1.4-0.5,2.7-1.1,4-1.5
			c2.5-0.9,4.6-1.6,6-2.1C414.2,96.9,415,96.6,415,96.6z"/>
	</g>
	<g>
		<path d="M411.9,100.4c0,0-0.6,0.3-1.5,0.9c-1,0.6-2.4,1.4-4,2.4c-1.7,1-3.6,2.1-5.7,3.3c-2.1,1.2-4.4,2.5-6.6,3.7
			c-4.5,2.5-9,5-12.4,6.9c-1.7,1-3.1,1.7-4.1,2.3c-1,0.6-1.5,0.9-1.5,0.9s0.5-0.4,1.4-1.1c0.5-0.3,1-0.7,1.7-1.2
			c0.6-0.4,1.4-0.9,2.2-1.5c1.6-1,3.6-2.3,5.6-3.5c2.1-1.2,4.3-2.5,6.6-3.8c2.3-1.3,4.5-2.5,6.7-3.6c2.1-1.1,4.2-2.1,5.9-3
			c1.7-0.9,3.2-1.6,4.2-2.1C411.3,100.6,411.9,100.4,411.9,100.4z"/>
	</g>
	<g>
		<path d="M407.8,105.2c0,0-1.2,0.9-2.9,2.2c-1.7,1.3-4.1,3.1-6.4,4.9c-2.3,1.8-4.5,3.6-6.2,5.1c-0.8,0.7-1.5,1.3-2,1.7
			c-0.5,0.4-0.8,0.7-0.8,0.7s0.2-0.3,0.6-0.8c0.4-0.5,1-1.2,1.7-2c0.8-0.8,1.7-1.7,2.7-2.7c1-0.9,2.2-1.9,3.3-2.8
			c1.2-0.9,2.3-1.8,3.5-2.6c1.1-0.8,2.2-1.5,3.2-2c0.9-0.6,1.8-1,2.3-1.3C407.5,105.4,407.8,105.2,407.8,105.2z"/>
	</g>
	<g>
		<path d="M301.5,103c0,0-0.3,0.6-0.7,1.6c-0.5,1-1.2,2.5-2,4.3c-0.9,1.8-1.8,3.8-3,6c-1.1,2.2-2.3,4.5-3.5,6.8
			c-1.2,2.3-2.5,4.6-3.7,6.7c-1.2,2.1-2.4,4.1-3.4,5.8c-1,1.7-1.9,3-2.5,4c-0.3,0.5-0.6,0.8-0.8,1.1c-0.2,0.2-0.3,0.4-0.3,0.4
			s0.3-0.6,0.9-1.6c0.6-1,1.3-2.5,2.2-4.2c0.9-1.7,2-3.8,3.1-5.9c1.1-2.2,2.4-4.5,3.6-6.8c1.2-2.3,2.5-4.6,3.6-6.8
			c1.2-2.1,2.3-4.1,3.2-5.9c0.9-1.7,1.8-3.1,2.3-4.1C301.2,103.6,301.5,103,301.5,103z"/>
	</g>
	<g>
		<path d="M295.9,103.4c0,0-0.3,0.6-0.7,1.6c-0.5,1-1.2,2.5-2,4.3c-0.9,1.8-1.8,3.8-3,6c-1.1,2.2-2.3,4.5-3.5,6.8
			c-1.2,2.3-2.5,4.6-3.7,6.7c-1.2,2.1-2.4,4.1-3.4,5.8c-1,1.7-1.9,3-2.5,4c-0.3,0.5-0.6,0.8-0.8,1.1c-0.2,0.2-0.3,0.4-0.3,0.4
			s0.3-0.6,0.9-1.6c0.6-1,1.3-2.5,2.2-4.2c0.9-1.7,2-3.8,3.1-5.9c1.1-2.2,2.4-4.5,3.6-6.8c1.2-2.3,2.5-4.6,3.6-6.8
			c1.2-2.1,2.3-4.1,3.2-5.9c0.9-1.7,1.8-3.1,2.3-4.1C295.6,103.9,295.9,103.4,295.9,103.4z"/>
	</g>
	<g>
		<path d="M290.7,103.9c0,0-0.3,0.6-0.7,1.6c-0.5,1-1.2,2.5-2,4.3c-0.9,1.8-1.8,3.8-3,6c-1.1,2.2-2.3,4.5-3.5,6.8
			c-1.2,2.3-2.5,4.6-3.7,6.7c-1.2,2.1-2.4,4.1-3.4,5.8c-1,1.7-1.9,3-2.5,4c-0.3,0.5-0.6,0.8-0.8,1.1c-0.2,0.2-0.3,0.4-0.3,0.4
			s0.3-0.6,0.9-1.6c0.6-1,1.3-2.5,2.2-4.2c0.9-1.7,2-3.8,3.1-5.9c1.1-2.2,2.4-4.5,3.6-6.8c1.2-2.3,2.5-4.6,3.6-6.8
			c1.2-2.1,2.3-4.1,3.2-5.9c0.9-1.7,1.8-3.1,2.3-4.1C290.3,104.4,290.7,103.9,290.7,103.9z"/>
	</g>
	<g>
		<path d="M285.2,103c0,0-0.3,0.6-0.7,1.6c-0.5,1-1.2,2.5-2,4.3c-0.9,1.8-1.8,3.8-3,6c-1.1,2.2-2.3,4.5-3.5,6.8
			c-1.2,2.3-2.5,4.6-3.7,6.7c-1.2,2.1-2.4,4.1-3.4,5.8c-1,1.7-1.9,3-2.5,4c-0.3,0.5-0.6,0.8-0.8,1.1c-0.2,0.2-0.3,0.4-0.3,0.4
			s0.3-0.6,0.9-1.6c0.6-1,1.3-2.5,2.2-4.2c0.9-1.7,2-3.8,3.1-5.9c1.1-2.2,2.4-4.5,3.6-6.8c1.2-2.3,2.5-4.6,3.6-6.8
			c1.2-2.1,2.3-4.1,3.2-5.9c0.9-1.7,1.8-3.1,2.3-4.1C284.8,103.6,285.2,103,285.2,103z"/>
	</g>
	<g>
		<path d="M279.3,102.6c0,0-0.3,0.6-0.7,1.6c-0.5,1-1.2,2.5-2,4.3c-0.9,1.8-1.8,3.8-3,6c-1.1,2.2-2.3,4.5-3.5,6.8
			c-1.2,2.3-2.5,4.6-3.7,6.7c-1.2,2.1-2.4,4.1-3.4,5.8c-1,1.7-1.9,3-2.5,4c-0.3,0.5-0.6,0.8-0.8,1.1c-0.2,0.2-0.3,0.4-0.3,0.4
			s0.3-0.6,0.9-1.6c0.6-1,1.3-2.5,2.2-4.2c0.9-1.7,2-3.8,3.1-5.9c1.1-2.2,2.4-4.5,3.6-6.8c1.2-2.3,2.5-4.6,3.6-6.8
			c1.2-2.1,2.3-4.1,3.2-5.9c0.9-1.7,1.8-3.1,2.3-4.1C279,103.2,279.3,102.6,279.3,102.6z"/>
	</g>
	<g>
		<path d="M269.2,109.8c0,0-0.1,0.4-0.4,1.1c-0.3,0.7-0.7,1.6-1.2,2.8c-0.5,1.1-1.1,2.5-1.8,3.8c-0.7,1.4-1.4,2.9-2.2,4.3
			c-0.8,1.5-1.5,2.9-2.3,4.3c-0.7,1.4-1.5,2.6-2.1,3.7c-0.6,1.1-1.2,1.9-1.6,2.5c-0.4,0.6-0.7,0.9-0.7,0.9s0.2-0.4,0.5-1
			c0.3-0.6,0.8-1.6,1.3-2.7c0.5-1.1,1.2-2.4,1.8-3.8c0.7-1.4,1.4-2.9,2.2-4.3c0.8-1.5,1.5-2.9,2.3-4.3c0.7-1.4,1.5-2.6,2-3.7
			c0.6-1.1,1.1-2,1.5-2.6C269,110.2,269.2,109.8,269.2,109.8z"/>
	</g>
	<g>
		<path d="M197.3,22.5c0,0-0.5-0.3-1.5-0.8c-0.9-0.5-2.2-1.2-3.8-2.1c-3.1-1.7-7.3-4-11.5-6.3c-1-0.6-2.1-1.1-3.1-1.7
			c-1-0.6-2-1.1-3-1.6c-2-1.1-3.8-2.1-5.4-2.8c-0.8-0.4-1.5-0.8-2.2-1.1c-0.7-0.3-1.2-0.6-1.7-0.8c-1-0.4-1.5-0.7-1.5-0.7
			s0.6,0.2,1.6,0.5c0.5,0.1,1.1,0.4,1.8,0.6c0.7,0.2,1.5,0.5,2.3,0.9c0.8,0.3,1.7,0.7,2.7,1.2c0.9,0.4,1.9,0.9,2.9,1.4
			c2,1,4.1,2.1,6.2,3.3c2.1,1.2,4.2,2.4,6.1,3.5c1.9,1.1,3.7,2.3,5.2,3.2c1.5,1,2.8,1.8,3.6,2.4C196.8,22.1,197.3,22.5,197.3,22.5z"
			/>
	</g>
	<g>
		<path d="M188.7,23.5c0,0-3-1.3-7.5-3.3c-2.2-1-4.9-2.1-7.7-3.4c-2.8-1.3-5.8-2.6-8.8-3.9c-3-1.3-6-2.6-8.8-3.8
			c-1.4-0.6-2.8-1.1-4.1-1.7c-1.3-0.5-2.5-1-3.7-1.4C147,5.7,146,5.2,145,4.9c-0.9-0.3-1.8-0.6-2.4-0.8c-1.4-0.4-2.2-0.6-2.2-0.6
			s0.8,0.2,2.2,0.4c0.7,0.1,1.5,0.4,2.5,0.6c1,0.2,2,0.6,3.2,1c1.2,0.4,2.4,0.8,3.7,1.3c1.3,0.5,2.7,1,4.1,1.6
			c2.9,1.1,5.9,2.4,8.9,3.7c3,1.3,6,2.7,8.7,4c2.8,1.3,5.3,2.6,7.5,3.7c2.2,1.1,4,2.1,5.3,2.7C188,23.1,188.7,23.5,188.7,23.5z"/>
	</g>
	<g>
		<path d="M176.4,25.4c0,0-0.8-0.4-2.1-1c-1.4-0.6-3.3-1.5-5.7-2.5c-1.2-0.5-2.5-1.1-3.8-1.6c-1.4-0.6-2.8-1.2-4.3-1.8
			c-1.5-0.6-3-1.2-4.6-1.8c-1.6-0.6-3.2-1.2-4.8-1.8c-1.6-0.6-3.2-1.2-4.8-1.7c-1.6-0.6-3.2-1.1-4.7-1.5c-1.5-0.5-3-0.9-4.4-1.3
			c-1.4-0.4-2.8-0.8-4-1.1c-1.2-0.3-2.4-0.6-3.4-0.9c-1-0.2-1.9-0.4-2.6-0.6c-1.5-0.4-2.3-0.6-2.3-0.6s0.9,0.1,2.3,0.4
			c0.7,0.1,1.6,0.3,2.7,0.4c1,0.2,2.2,0.4,3.5,0.7c1.3,0.3,2.6,0.6,4.1,1c0.7,0.2,1.5,0.4,2.2,0.5c0.8,0.2,1.5,0.4,2.3,0.7
			c1.6,0.4,3.2,0.9,4.8,1.5c1.6,0.5,3.3,1.1,4.9,1.6c1.6,0.6,3.2,1.2,4.8,1.8c1.6,0.6,3.1,1.3,4.6,1.9c3,1.3,5.7,2.6,8,3.7
			c2.3,1.1,4.2,2.2,5.5,2.9C175.7,24.9,176.4,25.4,176.4,25.4z"/>
	</g>
	<g>
		<path d="M168.8,28.4c0,0-3.4-1.1-8.4-2.7c-2.5-0.8-5.5-1.7-8.6-2.6c-3.2-1-6.5-1.9-9.9-2.8c-1.7-0.5-3.4-0.9-5.1-1.4
			c-1.7-0.4-3.3-0.8-4.9-1.2c-1.6-0.4-3.2-0.7-4.6-1.1c-1.5-0.3-2.9-0.6-4.2-0.8c-1.3-0.2-2.5-0.4-3.5-0.6c-1.1-0.2-2-0.3-2.7-0.4
			c-1.5-0.2-2.4-0.3-2.4-0.3s0.9,0,2.4,0.1c0.8,0.1,1.7,0.1,2.8,0.2c1.1,0.1,2.3,0.2,3.6,0.4c1.3,0.2,2.7,0.4,4.2,0.7
			c1.5,0.3,3.1,0.6,4.7,0.9c1.6,0.4,3.3,0.8,5,1.2c1.7,0.4,3.4,0.8,5.1,1.3c3.4,1,6.8,2,9.9,3c3.2,1,6.1,2.1,8.6,2.9
			c2.5,0.9,4.5,1.7,6,2.3C168,28,168.8,28.4,168.8,28.4z"/>
	</g>
	<g>
		<path d="M160.5,31.4c0,0-3.2-0.7-7.9-1.7c-2.4-0.5-5.1-1.1-8.1-1.7c-3-0.6-6.1-1.3-9.3-1.9c-3.2-0.7-6.3-1.2-9.3-1.7
			c-1.5-0.2-2.9-0.5-4.3-0.7c-1.4-0.2-2.7-0.4-3.9-0.6c-1.2-0.2-2.3-0.3-3.3-0.4c-1-0.1-1.8-0.2-2.5-0.2c-1.4-0.1-2.2-0.2-2.2-0.2
			s0.8,0,2.2,0c0.7,0,1.6,0,2.6,0.1c1,0,2.1,0.1,3.3,0.2c1.2,0.1,2.5,0.2,3.9,0.4c1.4,0.2,2.8,0.3,4.3,0.6c3,0.5,6.2,1,9.4,1.6
			c3.2,0.6,6.3,1.3,9.3,2c3,0.7,5.7,1.4,8.1,2c2.4,0.6,4.3,1.2,5.7,1.6C159.8,31.1,160.5,31.4,160.5,31.4z"/>
	</g>
	<g>
		<path d="M151.2,35.9c0,0-0.6-0.1-1.5-0.2c-1-0.1-2.3-0.3-4-0.5c-1.6-0.2-3.6-0.4-5.6-0.7c-2.1-0.3-4.3-0.5-6.5-0.8
			c-2.2-0.3-4.4-0.5-6.5-0.7c-1-0.1-2-0.2-3-0.3c-0.9-0.1-1.8-0.1-2.7-0.2c-0.8,0-1.6-0.1-2.3-0.1c-0.7-0.1-1.3-0.1-1.7-0.1
			c-1,0-1.5-0.1-1.5-0.1s0.6,0,1.5-0.1c1-0.1,2.4-0.1,4-0.2c1.7,0,3.6,0,5.7,0.2c2.1,0.1,4.3,0.3,6.5,0.6c2.2,0.3,4.4,0.6,6.5,0.9
			c2.1,0.3,4,0.7,5.6,1C149,35.3,151.2,35.9,151.2,35.9z"/>
	</g>
	<g>
		<path d="M142.3,40c0,0-0.4,0-1,0c-0.7,0-1.6-0.1-2.8-0.1c-2.3-0.1-5.3-0.3-8.3-0.4c-1.5-0.1-3-0.2-4.4-0.2
			c-1.4-0.1-2.7-0.1-3.9-0.2c-1.1,0-2.1-0.1-2.8-0.1c-0.7,0-1-0.1-1-0.1s0.4-0.1,1-0.1c0.7-0.1,1.6-0.2,2.8-0.3
			c2.3-0.2,5.3-0.2,8.4,0c1.5,0.1,3,0.2,4.5,0.4c1.4,0.1,2.7,0.3,3.9,0.5c1.1,0.2,2.1,0.4,2.7,0.5C141.9,39.9,142.3,40,142.3,40z"/>
	</g>
	<g>
		<path d="M136,44.2c0,0-0.2,0-0.7,0c-0.4,0-1,0-1.7,0.1c-1.4,0-3.3,0-5.1,0c-1.9,0-3.7-0.1-5.1-0.1c-0.7,0-1.3,0-1.7-0.1
			c-0.4,0-0.7,0-0.7,0s0.9-0.3,2.3-0.5c1.4-0.2,3.3-0.3,5.2-0.3c1.9,0,3.8,0.2,5.2,0.4c0.7,0.1,1.3,0.2,1.7,0.3
			C135.8,44.2,136,44.2,136,44.2z"/>
	</g>
	<g>
		<path d="M175.9,100.1c0,0-0.2,0.4-0.7,0.9c-0.5,0.6-1.1,1.4-2,2.3c-0.9,0.9-1.9,2-3.1,3c-1.2,1.1-2.5,2.1-3.8,3.2
			c-1.3,1-2.7,2-4,2.9c-1.3,0.9-2.5,1.7-3.6,2.4c-1.1,0.7-2,1.2-2.6,1.6c-0.6,0.4-1,0.6-1,0.6s0.3-0.3,0.9-0.7
			c0.6-0.5,1.4-1.1,2.4-1.9c1-0.8,2.2-1.7,3.4-2.6c1.2-1,2.6-2,3.9-3c1.3-1,2.6-2.1,3.9-3.1c1.2-1,2.4-1.9,3.3-2.7
			c0.9-0.8,1.7-1.5,2.3-2C175.6,100.4,175.9,100.1,175.9,100.1z"/>
	</g>
	<g>
		<path d="M169.4,97.1c0,0-0.4,0.5-1,1.3c-0.7,0.8-1.7,2-2.9,3.3c-1.3,1.3-2.8,2.9-4.5,4.4c-1.7,1.6-3.5,3.2-5.4,4.7
			c-1.9,1.5-3.8,3-5.7,4.4c-1.9,1.3-3.6,2.5-5.2,3.5c-1.5,1-2.9,1.8-3.8,2.3c-0.9,0.5-1.5,0.8-1.5,0.8s0.5-0.4,1.3-1
			c0.9-0.6,2.1-1.5,3.6-2.6c0.7-0.5,1.5-1.1,2.4-1.8c0.8-0.6,1.7-1.3,2.6-2c1.8-1.4,3.7-2.9,5.6-4.5c0.9-0.8,1.9-1.6,2.8-2.3
			c0.9-0.8,1.8-1.5,2.7-2.3c1.7-1.5,3.3-2.9,4.7-4.2c1.3-1.3,2.5-2.3,3.2-3.1C169,97.5,169.4,97.1,169.4,97.1z"/>
	</g>
	<g>
		<path d="M160.7,95.5c0,0-0.5,0.6-1.3,1.5c-0.9,0.9-2.1,2.2-3.7,3.7c-1.6,1.5-3.4,3.3-5.5,5c-1,0.9-2.1,1.8-3.2,2.7
			c-1.1,0.9-2.2,1.8-3.4,2.7c-2.3,1.8-4.6,3.5-6.9,5c-1.1,0.8-2.2,1.5-3.3,2.2c-1,0.7-2,1.3-3,1.9c-1.8,1.2-3.4,2-4.6,2.6
			c-1.1,0.6-1.8,0.9-1.8,0.9s0.6-0.4,1.7-1.1c0.5-0.3,1.2-0.8,1.9-1.3c0.7-0.5,1.5-1.1,2.4-1.7c1.8-1.2,3.8-2.7,6-4.3
			c2.2-1.6,4.5-3.3,6.8-5.1c1.2-0.9,2.3-1.8,3.4-2.7c1.1-0.9,2.2-1.8,3.2-2.6c2.1-1.7,4-3.4,5.6-4.8
			C158.5,97.5,160.7,95.5,160.7,95.5z"/>
	</g>
	<g>
		<path d="M151.8,94.2c0,0-0.5,0.5-1.3,1.4c-0.9,0.9-2.1,2.2-3.6,3.7c-1.5,1.5-3.3,3.2-5.3,5c-1,0.9-2.1,1.8-3.1,2.7
			c-1.1,0.9-2.2,1.8-3.3,2.7c-2.2,1.7-4.5,3.4-6.7,5c-1.1,0.8-2.2,1.5-3.2,2.1c-1,0.7-2,1.3-2.9,1.8c-1.8,1.1-3.4,1.9-4.5,2.5
			c-1.1,0.6-1.7,0.9-1.7,0.9s0.6-0.4,1.6-1.1c0.5-0.3,1.2-0.7,1.9-1.2c0.7-0.5,1.5-1,2.4-1.6c0.9-0.6,1.8-1.3,2.8-1.9
			c1-0.7,2-1.5,3.1-2.2c2.2-1.5,4.4-3.3,6.6-5c1.1-0.9,2.2-1.8,3.3-2.6c1.1-0.9,2.1-1.8,3.2-2.6c1-0.9,2-1.7,2.9-2.5
			c0.9-0.8,1.8-1.5,2.6-2.2C149.7,96.2,151.8,94.2,151.8,94.2z"/>
	</g>
	<g>
		<path d="M144.2,91.6c0,0-1.5,1.9-3.9,4.6c-1.2,1.3-2.6,2.9-4.2,4.5c-1.6,1.6-3.3,3.3-5.1,5c-0.9,0.8-1.8,1.6-2.7,2.4
			c-0.9,0.8-1.8,1.5-2.7,2.2c-1.8,1.4-3.5,2.7-5,3.7c-0.8,0.5-1.5,1-2.1,1.3c-0.6,0.4-1.2,0.7-1.6,1c-0.9,0.5-1.5,0.8-1.5,0.8
			s0.5-0.4,1.3-1c0.4-0.3,1-0.7,1.5-1.1c0.6-0.5,1.2-1,2-1.5c0.7-0.6,1.5-1.2,2.3-1.8c0.8-0.7,1.6-1.4,2.5-2.1
			c0.8-0.7,1.7-1.5,2.6-2.3c0.9-0.8,1.8-1.6,2.7-2.4c0.9-0.8,1.8-1.6,2.6-2.4c0.9-0.8,1.7-1.6,2.5-2.4c1.6-1.6,3.2-3,4.4-4.3
			C142.5,93.3,144.2,91.6,144.2,91.6z"/>
	</g>
	<g>
		<path d="M137.3,90.1c0,0-0.3,0.4-0.8,1c-0.5,0.6-1.3,1.5-2.2,2.6c-1,1-2.1,2.2-3.3,3.5c-1.2,1.3-2.6,2.6-3.9,3.8
			c-1.4,1.3-2.8,2.5-4.1,3.7c-1.3,1.2-2.6,2.2-3.7,3c-1.1,0.9-2.1,1.5-2.7,2c-0.7,0.5-1.1,0.7-1.1,0.7s0.3-0.3,0.9-0.9
			c0.6-0.6,1.5-1.4,2.5-2.3c1-0.9,2.2-2.1,3.5-3.3c1.3-1.2,2.6-2.5,4-3.7c2.7-2.5,5.5-5.1,7.5-7c1-1,1.9-1.7,2.5-2.3
			C137,90.4,137.3,90.1,137.3,90.1z"/>
	</g>
	<g>
		<path d="M129,89.2c0,0-0.2,0.2-0.4,0.6c-0.3,0.4-0.7,0.9-1.2,1.5c-1,1.2-2.4,2.8-3.9,4.3c-1.5,1.5-3.1,2.9-4.3,3.9
			c-0.6,0.5-1.2,0.9-1.6,1.1c-0.2,0.1-0.4,0.2-0.5,0.3c-0.1,0.1-0.2,0.1-0.2,0.1s0.2-0.2,0.5-0.5c0.3-0.3,0.8-0.8,1.3-1.4
			c1.1-1.2,2.5-2.7,4-4.2c1.5-1.5,3-2.9,4.2-4c0.6-0.5,1.1-0.9,1.5-1.2C128.8,89.4,129,89.2,129,89.2z"/>
	</g>
	<g>
		<path d="M74.3,42.9c0,0-1-0.3-2.7-0.8c-1.7-0.5-4.2-1.2-7.2-2c-3-0.8-6.5-1.7-10.2-2.7c-3.7-1-7.8-2-11.8-2.9c-2-0.5-4-1-6-1.4
			c-2-0.4-3.9-0.9-5.8-1.2c-1.9-0.3-3.7-0.8-5.5-1.1c-1.7-0.3-3.4-0.6-4.9-0.9c-1.5-0.2-2.9-0.5-4.2-0.7c-1.2-0.2-2.3-0.3-3.2-0.5
			c-1.8-0.3-2.8-0.4-2.8-0.4s1,0.1,2.8,0.2c0.9,0.1,2,0.1,3.3,0.3c1.3,0.1,2.7,0.3,4.2,0.5c1.5,0.2,3.2,0.5,5,0.7
			c1.8,0.2,3.6,0.6,5.5,0.9c1.9,0.3,3.9,0.8,5.9,1.2c2,0.4,4,0.9,6,1.3c4,1,8,2,11.8,3c3.7,1,7.2,2.1,10.2,3c3,0.9,5.4,1.8,7.1,2.4
			C73.3,42.5,74.3,42.9,74.3,42.9z"/>
	</g>
	<g>
		<path d="M70.8,46.9c0,0-3.7-1-9.1-2.4c-1.4-0.3-2.9-0.7-4.4-1.1c-1.6-0.4-3.2-0.8-5-1.2c-3.4-0.8-7.1-1.6-10.8-2.4
			c-1.8-0.4-3.7-0.8-5.5-1.2c-1.8-0.4-3.6-0.7-5.4-1c-1.7-0.3-3.4-0.6-5-0.9c-1.6-0.3-3.1-0.6-4.5-0.8c-1.4-0.2-2.7-0.4-3.8-0.6
			c-1.1-0.2-2.1-0.3-3-0.4c-1.6-0.2-2.6-0.4-2.6-0.4s0.9,0.1,2.6,0.2c0.8,0.1,1.8,0.1,3,0.2c1.1,0.1,2.4,0.3,3.9,0.4
			c1.4,0.1,2.9,0.4,4.5,0.6c1.6,0.2,3.3,0.5,5.1,0.8c1.8,0.3,3.6,0.6,5.4,1c1.8,0.3,3.7,0.7,5.5,1.1c3.7,0.8,7.4,1.7,10.8,2.5
			c3.4,0.9,6.6,1.8,9.3,2.6c2.7,0.8,5,1.5,6.5,2.1C69.9,46.5,70.8,46.9,70.8,46.9z"/>
	</g>
	<g>
		<path d="M68.8,51.5c0,0-0.8-0.1-2.1-0.3c-1.4-0.2-3.3-0.4-5.6-0.7c-4.6-0.6-10.8-1.5-17-2.4c-3.1-0.5-6.2-0.9-9.1-1.3
			c-2.9-0.4-5.6-0.7-7.9-1c-1.2-0.1-2.2-0.3-3.2-0.4c-0.9-0.1-1.8-0.2-2.4-0.3c-1.4-0.2-2.1-0.2-2.1-0.2s0.8,0,2.1,0.1
			c0.7,0,1.5,0,2.5,0.1c0.9,0.1,2,0.1,3.2,0.2c2.3,0.2,5.1,0.4,8,0.7c2.9,0.3,6,0.7,9.1,1.1c3.1,0.5,6.2,1,9,1.4
			c2.9,0.5,5.6,1,7.9,1.4c2.3,0.4,4.2,0.8,5.5,1.1C68,51.3,68.8,51.5,68.8,51.5z"/>
	</g>
	<g>
		<path d="M66.4,56.2c0,0-2.7-0.4-6.6-0.9c-2-0.3-4.3-0.6-6.8-0.8c-2.5-0.3-5.1-0.6-7.8-0.8c-1.3-0.1-2.7-0.3-4-0.3
			c-1.3-0.1-2.6-0.2-3.9-0.3c-1.3-0.1-2.5-0.2-3.6-0.2c-1.1,0-2.2-0.1-3.2-0.1c-1,0-1.9,0-2.7,0c-0.8,0-1.5,0-2.1,0
			c-1.2,0-1.8,0-1.8,0s0.7-0.1,1.8-0.2c1.2-0.1,2.8-0.3,4.9-0.3c1-0.1,2.1,0,3.3-0.1c1.2,0,2.4,0,3.6,0c1.3,0,2.6,0.1,3.9,0.2
			c1.3,0.1,2.7,0.2,4,0.3c2.7,0.3,5.3,0.6,7.8,0.9c2.5,0.4,4.8,0.8,6.8,1.2c2,0.4,3.6,0.8,4.8,1C65.8,56.1,66.4,56.2,66.4,56.2z"/>
	</g>
	<g>
		<path d="M64.8,61.1c0,0-2.3-0.2-5.7-0.6c-1.7-0.2-3.7-0.4-5.9-0.6c-2.1-0.2-4.4-0.4-6.7-0.6c-1.1-0.1-2.3-0.2-3.4-0.3
			c-1.1-0.1-2.2-0.2-3.3-0.2c-1.1-0.1-2.1-0.1-3.1-0.2c-1,0-1.9-0.1-2.8-0.1c-0.9,0-1.7,0-2.4-0.1c-0.7,0-1.3,0-1.8,0
			c-1,0-1.6,0-1.6,0s0.6-0.1,1.6-0.2c1-0.1,2.4-0.2,4.2-0.3c1.7,0,3.8-0.1,5.9,0c2.2,0.1,4.5,0.2,6.8,0.4c2.3,0.2,4.6,0.4,6.8,0.7
			c2.2,0.3,4.1,0.6,5.9,0.9c1.7,0.3,3.1,0.6,4.1,0.8C64.2,61,64.8,61.1,64.8,61.1z"/>
	</g>
	<g>
		<path d="M63.3,66.7c0,0-0.5,0-1.4,0c-0.9,0-2.1,0-3.6-0.1c-1.5,0-3.3-0.1-5.1-0.1c-1.9-0.1-3.9-0.1-5.9-0.2c-2-0.1-4-0.2-5.9-0.2
			c-1.9-0.1-3.6-0.2-5.1-0.2c-1.5,0-2.8-0.1-3.6-0.1c-0.9,0-1.4,0-1.4,0s0.5-0.1,1.4-0.2c0.9-0.1,2.1-0.2,3.6-0.3
			c1.5-0.1,3.3-0.1,5.2-0.1c1.9,0,3.9,0.1,5.9,0.1c2,0.1,4,0.2,5.9,0.3c1.9,0.1,3.6,0.3,5.1,0.5c1.5,0.1,2.7,0.3,3.6,0.4
			C62.8,66.7,63.3,66.7,63.3,66.7z"/>
	</g>
	<g>
		<path d="M63.8,71.4c0,0-0.5,0.1-1.3,0.2c-0.8,0.1-2,0.3-3.5,0.4c-1.5,0.1-3.1,0.3-5,0.5c-1.8,0.2-3.8,0.3-5.7,0.5
			c-1.9,0.1-3.9,0.2-5.7,0.3c-1.8,0.1-3.5,0.1-5,0.2c-1.5,0.1-2.7,0-3.5,0.1c-0.9,0-1.3,0-1.3,0s0.5-0.1,1.3-0.2
			c0.8-0.1,2-0.3,3.5-0.4c1.5-0.1,3.1-0.3,5-0.5c1.8-0.2,3.8-0.3,5.7-0.4c1.9-0.1,3.9-0.2,5.7-0.3c1.8-0.1,3.5-0.1,5-0.2
			c1.5-0.1,2.7,0,3.5-0.1C63.3,71.4,63.8,71.4,63.8,71.4z"/>
	</g>
	<g>
		<path d="M66.3,75.5c0,0-0.5,0.1-1.4,0.3c-0.9,0.2-2.2,0.5-3.7,0.8c-1.5,0.3-3.3,0.7-5.3,1c-1.9,0.3-4,0.6-6.1,0.9
			c-2.1,0.3-4.2,0.5-6.1,0.7c-2,0.2-3.8,0.3-5.4,0.4c-1.6,0.1-2.9,0.1-3.8,0.1c-0.9,0-1.4,0-1.4,0s0.5-0.1,1.4-0.2
			c0.9-0.1,2.2-0.3,3.8-0.4c1.6-0.2,3.4-0.4,5.3-0.7c1.9-0.3,4-0.5,6.1-0.8c2.1-0.3,4.2-0.5,6.1-0.8c1.9-0.2,3.8-0.5,5.3-0.7
			c1.6-0.2,2.9-0.3,3.8-0.4C65.8,75.5,66.3,75.5,66.3,75.5z"/>
	</g>
	<g>
		<path d="M68.7,79.5c0,0-0.6,0.2-1.7,0.5c-1.1,0.3-2.6,0.8-4.5,1.2c-1.9,0.5-4,1-6.4,1.5c-2.3,0.5-4.9,1.1-7.4,1.5
			c-2.5,0.5-5,0.9-7.4,1.3c-1.2,0.2-2.3,0.4-3.4,0.5c-1.1,0.1-2.1,0.3-3.1,0.4c-1.9,0.2-3.5,0.4-4.6,0.5c-1.1,0.1-1.8,0.1-1.8,0.1
			s0.6-0.1,1.7-0.3c1.1-0.2,2.7-0.5,4.6-0.8c1.9-0.3,4.1-0.8,6.4-1.2c2.4-0.5,4.9-0.9,7.4-1.4c5-1,10.1-1.9,13.8-2.7
			c1.9-0.4,3.5-0.7,4.6-0.9C68,79.6,68.7,79.5,68.7,79.5z"/>
	</g>
	<g>
		<path d="M70.9,83.1c0,0-0.7,0.3-2,0.8c-1.3,0.5-3.2,1.2-5.5,1.9c-2.3,0.7-4.9,1.6-7.8,2.4c-2.9,0.8-6,1.6-9.1,2.4
			c-3.1,0.7-6.2,1.4-9.2,2c-1.5,0.3-2.9,0.6-4.2,0.8c-1.3,0.3-2.6,0.5-3.8,0.7C27,94.5,25,94.8,23.6,95c-1.4,0.2-2.2,0.3-2.2,0.3
			s3.1-0.7,7.8-1.7c2.3-0.5,5.1-1.1,8-1.8c2.9-0.7,6-1.4,9.1-2.2c3.1-0.7,6.2-1.5,9.1-2.3c2.9-0.8,5.6-1.4,7.9-2.1
			c2.3-0.6,4.2-1.2,5.6-1.5C70.2,83.3,70.9,83.1,70.9,83.1z"/>
	</g>
	<g>
		<path d="M74.7,86.4c0,0-0.9,0.4-2.6,1c-1.7,0.6-4,1.5-6.9,2.5c-2.9,1-6.2,2.1-9.9,3.2c-3.6,1.1-7.5,2.3-11.4,3.4
			c-3.9,1.1-7.8,2.1-11.5,3c-1.8,0.5-3.6,0.9-5.3,1.2c-1.7,0.4-3.3,0.7-4.8,1c-3,0.6-5.5,1.1-7.2,1.4c-1.7,0.3-2.7,0.5-2.7,0.5
			s3.9-1,9.8-2.4c3-0.7,6.4-1.6,10.1-2.6c3.7-0.9,7.6-2,11.5-3.1c3.9-1,7.8-2.2,11.5-3.2c3.6-1.1,7.1-2,10-2.9
			C70.8,87.6,74.7,86.4,74.7,86.4z"/>
	</g>
	<g>
		<path d="M79.5,89c0,0-1,0.5-2.8,1.3c-1.8,0.8-4.4,1.9-7.6,3.1c-3.2,1.2-6.9,2.6-10.9,4c-2,0.7-4.1,1.3-6.2,2
			c-2.1,0.6-4.3,1.4-6.5,2c-2.2,0.6-4.4,1.2-6.6,1.8c-2.2,0.6-4.3,1.1-6.4,1.5c-2.1,0.5-4.1,0.9-6,1.3c-1.9,0.3-3.7,0.7-5.4,1
			c-1.7,0.3-3.2,0.5-4.6,0.7c-1.4,0.2-2.6,0.3-3.6,0.4c-2,0.2-3.1,0.3-3.1,0.3s1.1-0.2,3.1-0.5c1-0.2,2.2-0.4,3.5-0.6
			c1.4-0.3,2.9-0.6,4.6-0.9c1.7-0.3,3.5-0.7,5.4-1.1c1.9-0.4,3.9-0.9,6-1.4c2.1-0.5,4.2-1,6.3-1.6c2.2-0.5,4.3-1.2,6.5-1.8
			c2.2-0.6,4.3-1.3,6.5-1.9c2.1-0.7,4.2-1.3,6.2-2c2-0.7,4-1.3,5.8-1.9c1.8-0.6,3.6-1.2,5.2-1.8c3.2-1.1,5.9-2.1,7.7-2.8
			C78.5,89.4,79.5,89,79.5,89z"/>
	</g>
	<g>
		<ellipse cx="488.7" cy="66.2" rx="12.5" ry="7.1"/>
		<path fill="#FFFFFF" d="M479.8,65.4c0,4.1,3.9,7.5,8.6,7.5c4.7,0,8.6-3.4,8.6-7.5s-3.9-7.5-8.6-7.5
			C483.6,57.9,479.8,61.3,479.8,65.4z"/>
		<path d="M479,65.4c0-4.6,4.2-8.3,9.4-8.3c5.2,0,9.4,3.7,9.4,8.3s-4.2,8.3-9.4,8.3C483.2,73.7,479,70,479,65.4z M479.8,65.4
			c0,4.1,3.9,7.5,8.6,7.5c4.7,0,8.6-3.4,8.6-7.5s-3.9-7.5-8.6-7.5C483.6,57.9,479.8,61.3,479.8,65.4z"/>
		<path d="M486.3,63.5c1.2,0,2.2-1,2.2-2.2c0,0,0,0,0-0.1c0,0,0,0,0,0c2.3,0,4.2,1.9,4.2,4.2c0,2.3-1.9,4.2-4.2,4.2
			c-2.3,0-4.2-1.9-4.2-4.2c0-0.9,0.3-1.7,0.7-2.4C485.3,63.3,485.8,63.5,486.3,63.5z"/>
	</g>
</g>
</svg>
