<?xml version="1.0" encoding="utf-8"?>
<!-- Generator: Adobe Illustrator 18.1.1, SVG Export Plug-In . SVG Version: 6.00 Build 0)  -->
<svg version="1.1" id="king_salmon" xmlns="http://www.w3.org/2000/svg" xmlns:xlink="http://www.w3.org/1999/xlink" x="0px"
	 y="0px" viewBox="0 0 558.7 163.2" enable-background="new 0 0 558.7 163.2" xml:space="preserve">
<g>
	<path d="M238.7,149c0,0-31.7-4.7-39.3-5.7c-7.7-1-29.7,0.2-36.2-0.3s-17.3-5-17.2-5.5c0.2-0.5,1.5-0.8,1.5-0.8l-3.8-1.8l-0.7-1.7
		l-4.3-2.5l0.3-1.5l-3.5-1.8l0.7-1.3l-3.3-1.5l-0.3-2.2l-2.5-0.8l1.8-1.5l-4.2-2.5l-0.2-2.2l-4.3-1.8l-0.5-1.2l-3.3-3
		c0,0-3.7-1.5-5.2-1.5s-24,3.8-34.3,6.7s-18.2,6.5-32,14.5s-22.2,13.5-34,14.7c-11.8,1.2-15.5,2.7-13.2-2.2
		C3,136.7,21.5,113,24.2,95c2.7-18,4.2-34.5,0.3-47.7s-10-27.8-15.3-35S4.3,6.2,14.3,9S44,23.7,56.8,34.7S90.7,60.5,97,61.2
		c6.3,0.7,36.5-6.3,36.5-6.3s4.8-7.3,4.8-8.7s0.2-4.3,0.2-4.3s8,0.2,13.2,1.7c5.2,1.5,12.5,1.8,19,1.3s72.2-16.7,73.2-17.8
		s3.7-2.8,3.7-2.8l-1-1.5c0,0,3.5-1,3.7-1.5c0.2-0.5-1.3-1.8-1.3-1.8l3.5-2l-1.3-1.2l6-1.8l-1.5-1.5l1-1.2v-1.5l2.2-0.3l0.5-2.7
		l0.8-0.7l-1.5-1l5.8-0.7l-1-1.5l1.7-1L262.2,1l2.5-1c0,0,16.8,0.7,53.2,12.5c0,0,27.8,0.2,70.2,9.8s71.3,17.2,106.7,31.5
		s41.5,16,45,16s6.8-0.2,7.8,0.7s2.3,2.5-0.3,9.2c-2.7,6.7-5.3,11-10.2,16.7c-4.8,5.7-9.5,8.5-9.2,9.7c0.3,1.2,1.3,1.7,2,1.7
		s19.8,0.8,23.7,1.3s5.2,0.8,5.2,2.2c0,1.3-2.7,2.8-7.7,4.7c-5,1.8-15.3,5.8-19.7,7.3s-30.8,9.2-33.2,10.5c-2.3,1.3-11.8,4.8-15,5.7
		c-3.2,0.8-10.2,1.7-15.8,3.5c-5.7,1.8-23.3,6.8-56,11.5c-32.7,4.7-32.5,5.2-73.2,3.7s-60.2-3.7-60.2-3.7s-9.8,3.2-20.3,5.7
		c-10.5,2.5-27.7,4-29.8,2.7c-2.2-1.3,13.8-6.2,13.8-6.2s-9.7,0.2-13-0.3c-3.3-0.5-9.7-0.8-8.2-1.8S238.7,149,238.7,149z"/>
	<path fill="#FFFFFF" d="M436.7,77.7c0,0-29.5-0.5-38.2-0.2s-26.8,0.5-30.5,0.5s-32-1-40.5-0.5s-58,3.5-83.7,5.8s-65.5,5.8-84.5,6
		s-29.5,0.2-34.5,0.2c-5,0-51.8-1-53.2-1s-4.8,1-5,2.8s-1.2,8.5,10.5,22.5c0,0,33.8-7.2,38.2-6.8s22,6,27.5,8.5s32.5,23.8,35.8,24
		s28,4,49.8,6.8s53,8.5,76.2,8.8s51.8,4,78.2,1.5s94.5-17,94.5-17s-6.2-1-9-4.8c0,0,7.2,4,11.8,3.8s15.2-5,15.2-5s-5.2,0-8.2-3.8
		c0,0,3.5,2.2,10.2,1.5s24.8-6,28.5-7.5s16.8-6.8,17.2-7.8s-0.8-1.5-2-1.8s-13.2-5-13.8-6s-0.6-2.6,2-5.2s15.6-16.9,13.8-18.4
		s-2.5-1.8-3.4-1.5s-2.6,0.9-3.6,0.5s-1.5-1.5-2.8-1.5s-1.5,1.1-2.2,1s-2.8-3.9-3.5-4.9s-2.6-3.9-4-4.1s-2.4-0.4-2.9-0.1
		s-0.4,1-2,1.1s-5,0.5-5,0.5s-0.8,0.1-1.8,0.6s-1.1,0.8-2.2,1s-0.9-0.1-1.9,0.4s-0.8,0.6-1.9,0.9s-1.5,0.5-1.6-0.1s0.8-2.5-0.2-3.1
		s-2.1-0.2-3-0.8s-6.2-3.4-8-4.1s-7.1-3.5-7.6-3.5s-3.5,1-3.9,0.5s0.1-3.2-1.1-4c-1.2-0.8-9.5-3.8-13-3.8s-9.5,2-10.9,2.1
		s-2.8,0.5-3,0.1s-0.2-4.4,0.9-6.5s3.8-3.9,3.9-4.9s0.5-1.5-0.2-1.9s-6.9-4-24.5-8.5s-25.5-6.6-27-7.4s-12.4-3.6-15-4
		s-11.9-2.8-13-2.9s-10.8-1-13.9-1.4s-11.9-2.5-15.9-2.8s-18.4-2.8-21.2-2.8s-10.9-0.6-11.8-0.6s-9.1,2-14.8,3.1s-20.5,4.5-24.1,4.8
		s-15,1.4-16.9,2.1s-4.5,2.1-7.7,3.2s-7.6,2.8-9.5,4s-2.6,2.9-8.8,3.6s-13,1.8-15.1,2.6s-3,2-4.2,2.4s-3.9,0.5-5.5,1.1
		s-9.8,3.6-12.4,4.6s-8.4,1.2-9.6,1.8s-2.9,1.1-4.5,1.8s-6.5,3.1-10.2,4.5s-8,2.8-9.9,3.8s0.4,0.2-5.6,2.9c-6,2.6-10.6,3.2-11.2,4.5
		s-1.6,1.8-5.2,3.1s-15,4.9-16,4.9s0-0.1-3.4-0.1s-14.2,0.5-16.1,0.4s-1,0-3.1-0.4s-2.6-0.4-3.8-0.4s-0.6,0.5-1.8-0.6
		s-2.1-1.4-3.5-1.4s-2.5-1-3.1-1.5s-1.1-0.4-2.9-1s-7.6-2.2-11.5-2.5s-6.1,0.6-7.4-0.4S44.2,26.3,18.7,12.8c0,0-8.6-3.5-11-4.1
		c0,0,11,11.2,16.6,31.4s3.5,49.1,2,55.7s-8,20.4-15.9,32.4s-9.1,14.5-8.5,14.8s10.9,2.6,27.1-5.5s32.5-17.8,46.4-23.5
		c0,0-6.8-8.2-8.9-14.2s-1.6-9.9,0.5-11.1s2.1-1.2,2.1-1.2s-10.6-1-8.9-20.6c0,0,0.9,14.4,4.7,16.9s5.4,3,6.4,3.4s56.5,1.1,71.6,0.8
		s42.2-1.4,61.1-2.8s57.1-4.8,69.1-5.5s23.6-1.4,39-2.4s27.9-0.6,49.9-0.9S436.7,77.7,436.7,77.7z"/>
	<g>
		<path fill="#C6C6C6" d="M164,48.4c0,0-0.4,0.1-1.2,0.4c-0.7,0.2-1.8,0.6-3.1,0.9c-1.3,0.4-2.8,0.8-4.4,1.2
			c-1.6,0.4-3.3,0.8-5.1,1.3c-1.7,0.4-3.5,0.8-5.1,1.2c-1.6,0.4-3.2,0.6-4.5,0.9c-1.3,0.3-2.4,0.4-3.2,0.6c-0.8,0.1-1.2,0.2-1.2,0.2
			s0.4-0.1,1.2-0.4c0.7-0.2,1.8-0.6,3.1-0.9c1.3-0.4,2.8-0.8,4.4-1.2c1.6-0.4,3.3-0.8,5.1-1.3c1.7-0.4,3.5-0.8,5.1-1.1
			c1.6-0.4,3.2-0.6,4.5-0.9c1.3-0.3,2.4-0.4,3.2-0.6C163.6,48.5,164,48.4,164,48.4z"/>
	</g>
	<g>
		<path d="M536.8,87c0,0-2.3,2-5.7,5c-1.7,1.5-3.7,3.3-5.8,5.2c-2.1,1.9-4.3,3.9-6.4,6.1c-1.1,1.1-2.1,2.1-3.1,3.2
			c-1,1.1-1.9,2.2-2.6,3.4c-0.3,0.6-0.6,1.2-0.6,1.7c0,0.5,0.4,0.7,1,0.8c1.2,0.1,2.4-0.1,3.5-0.4c2.2-0.5,4-1.1,5.2-1.5
			c1.3-0.4,2-0.6,2-0.6s-0.7,0.3-1.9,0.8c-1.2,0.5-3,1.2-5.2,1.9c-1.1,0.3-2.3,0.6-3.7,0.5c-0.4,0-0.7-0.1-1.1-0.3
			c-0.4-0.2-0.7-0.7-0.7-1.1c0-0.9,0.3-1.5,0.7-2.2c0.7-1.3,1.7-2.4,2.6-3.6c1-1.1,2-2.2,3.1-3.3c2.2-2.1,4.4-4.2,6.5-6
			c2.1-1.9,4.2-3.5,6-4.9c1.8-1.4,3.3-2.5,4.3-3.3C536.2,87.4,536.8,87,536.8,87z"/>
	</g>
	<g>
		<path d="M517.7,88.8c0,0-0.4,0-1.2-0.1c-0.8-0.1-1.9-0.2-3.2-0.5c-0.7-0.1-1.4-0.3-2.1-0.5c-0.7-0.2-1.5-0.4-2.3-0.7
			c-0.8-0.3-1.6-0.6-2.4-0.9c-0.8-0.4-1.6-0.8-2.4-1.2c-3.2-1.7-6.1-3.7-8.6-4.6c-0.6-0.2-1.2-0.4-1.7-0.5c-0.5-0.1-1-0.2-1.4-0.2
			c-0.4-0.1-0.7-0.1-0.9-0.1c-0.2,0-0.3,0-0.3,0s0.1,0,0.3,0c0.2,0,0.5-0.1,0.9-0.1c0.4,0,0.9,0,1.4,0.1c0.5,0.1,1.2,0.2,1.8,0.4
			c1.3,0.4,2.8,1,4.3,1.7c1.5,0.8,3.1,1.7,4.6,2.5c0.8,0.4,1.6,0.8,2.3,1.2c0.8,0.3,1.6,0.7,2.3,1c1.5,0.6,3,1.1,4.3,1.4
			c1.3,0.4,2.4,0.7,3.1,0.8C517.2,88.7,517.7,88.8,517.7,88.8z"/>
	</g>
	<g>
		<path d="M489,83.8c0,0-0.1,0.5-0.1,1.5c-0.1,0.9-0.2,2.3-0.3,3.9c0,0.4,0,0.8,0,1.2c0,0.2,0,0.4,0.1,0.6c0.1,0.2,0.1,0.4,0.2,0.7
			c0.2,0.9,0.5,1.8,0.7,2.8c0.2,1,0.5,2,0.7,3.1c0.2,1,0.3,2.2,0.3,3.3c0,1.1,0,2.1,0.4,3l0.3,0.7l0.1,0.3l0.2,0.4
			c0.2,0.4,0.5,0.8,0.7,1.3c1.1,1.7,2.1,3.3,3.1,4.6c1.9,2.7,3.1,4.4,3.1,4.4s-0.4-0.4-1-1.1c-0.6-0.7-1.5-1.7-2.5-3
			c-1-1.3-2.2-2.7-3.4-4.4c-0.3-0.4-0.6-0.9-0.8-1.4l-0.2-0.4l-0.2-0.4l-0.3-0.8c-0.2-0.5-0.3-1.1-0.4-1.7c-0.1-0.6-0.1-1.1-0.1-1.7
			c0-1.1-0.1-2.1-0.3-3.1c-0.2-1-0.4-2.1-0.6-3.1c-0.2-1-0.4-2-0.6-2.9c0-0.2-0.1-0.5-0.1-0.7c0-0.3,0-0.5,0-0.7
			c0-0.5,0-0.9,0.1-1.3c0.2-1.6,0.5-3,0.6-3.9C488.9,84.4,489,83.8,489,83.8z"/>
	</g>
	<g>
		<path d="M480.2,84.5c0,0,0,2.4-0.3,6c-0.1,1.8-0.4,3.9-0.6,6c-0.1,1.1-0.2,2.2-0.2,3.4c-0.1,1.1-0.1,2.3-0.1,3.5
			c0,1.2,0.1,2.3,0.2,3.4l0.1,0.4l0,0.2l0,0.2c0.1,0.3,0.1,0.6,0.2,0.8c0.1,0.5,0.3,1,0.5,1.5c0.7,2,1.6,3.9,2.4,5.5
			c0.8,1.6,1.4,2.9,1.9,3.9c0.5,0.9,0.7,1.5,0.7,1.5s-1.6-1.8-3.6-4.8c-0.5-0.7-1-1.6-1.5-2.5c-0.5-0.9-1-1.9-1.5-2.9
			c-0.2-0.5-0.4-1.1-0.6-1.7c-0.1-0.3-0.2-0.6-0.2-0.8l-0.1-0.2c0-0.1,0-0.2-0.1-0.3l-0.1-0.5c-0.2-1.2-0.3-2.5-0.3-3.7
			c0-1.2,0.1-2.4,0.2-3.6c0.1-1.2,0.3-2.3,0.4-3.5c0.3-2.2,0.8-4.3,1.2-6C479.5,86.8,480.2,84.5,480.2,84.5z"/>
	</g>
	<g>
		<path d="M468.5,67.7c0,0-1.1,0.5-2.8,1.4c-0.9,0.5-1.9,1.1-2.9,2c-1,0.9-2.1,2.1-3.2,3.3c-1.1,1.3-2.3,2.7-3.4,4.3
			c-0.6,0.8-1.1,1.6-1.6,2.5c-0.4,0.8-0.9,1.8-1,2.5c-0.2,1.1-0.3,2-0.3,3.1c-0.1,1.1-0.1,2.2-0.2,3.3c-0.1,2.2-0.1,4.5-0.1,6.8
			c0,2.3,0,4.6,0.2,6.8c0.2,2.2,0.3,4.4,0.7,6.5c0.1,0.5,0.2,1,0.3,1.5c0.2,0.4,0.3,0.9,0.4,1.3c0.4,1,0.8,1.8,1.3,2.6
			c1,1.7,2,3.2,3,4.6c2,2.8,3.7,5.1,4.9,6.7c1.2,1.6,1.9,2.5,1.9,2.5s-0.9-0.7-2.4-2.1c-1.5-1.4-3.5-3.4-5.8-6.1
			c-1.2-1.3-2.4-2.8-3.5-4.5c-0.6-0.8-1.2-1.8-1.6-2.7c-0.3-0.6-0.5-1.1-0.7-1.7c-0.2-0.5-0.3-1.1-0.5-1.7c-0.5-2.2-0.8-4.5-1-6.8
			c-0.2-2.3-0.3-4.6-0.3-7c0-2.3,0.1-4.7,0.2-7c0.1-1.2,0.2-2.3,0.3-3.4c0.1-1.1,0.3-2.4,0.5-3.4c0.3-1.4,0.9-2.3,1.5-3.3
			c0.6-0.9,1.3-1.8,1.9-2.6c1.3-1.6,2.7-2.9,4-4.1c1.3-1.2,2.5-2.2,3.8-3c1.2-0.8,2.4-1.3,3.4-1.6c1-0.4,1.7-0.6,2.3-0.7
			C468.2,67.7,468.5,67.7,468.5,67.7z"/>
	</g>
	<path d="M457.7,127.2c0,0-38.2-7.7-60.2-4.2S355,134.7,358,136.8s13.8,12.8,68.8,8.2c0,0,9.7-11.2,31.2-12.8c0,0-12-4.2-32.5,11.3
		c0,0-20.3,1.3-25.2,0.3s-17.7-5.7-23.7-14.8C376.7,129,400.5,119.8,457.7,127.2z"/>
	<g>
		<path d="M484,128.3c0,0-1.1-0.1-2.6-0.1c-0.8,0-1.7-0.1-2.7-0.1c-1,0-2-0.1-3-0.1c-2.1,0-4.1,0-5.7,0.1c-0.8,0-1.4,0-1.9,0
			c-0.5,0-0.7,0-0.7,0s0.3-0.1,0.7-0.2c0.4-0.1,1.1-0.3,1.9-0.4c0.8-0.2,1.7-0.3,2.7-0.4c1-0.1,2-0.1,3.1-0.1c1.1,0,2.1,0.1,3.1,0.2
			c1,0.1,1.9,0.2,2.7,0.4c0.8,0.2,1.4,0.4,1.9,0.5C483.8,128.2,484,128.3,484,128.3z"/>
	</g>
	<g>
		<path d="M485.7,131.3c0,0-1.1-0.1-2.6-0.1c-0.8,0-1.7-0.1-2.7-0.1c-1,0-2-0.1-3-0.1c-2.1,0-4.1,0-5.7,0.1c-0.8,0-1.4,0-1.9,0
			c-0.5,0-0.7,0-0.7,0s0.3-0.1,0.7-0.2c0.4-0.1,1.1-0.3,1.9-0.4c0.8-0.2,1.7-0.3,2.7-0.4c1-0.1,2-0.1,3.1-0.1c1.1,0,2.1,0.1,3.1,0.2
			c1,0.1,1.9,0.2,2.7,0.4c0.8,0.2,1.4,0.4,1.9,0.5C485.4,131.2,485.7,131.3,485.7,131.3z"/>
	</g>
	<g>
		<path d="M487.7,132.8c0,0-1.1,0-2.6,0.1c-0.8,0-1.7,0.1-2.7,0.1c-1,0-2,0.1-3,0.2c-2.1,0.1-4.1,0.4-5.7,0.5
			c-0.8,0.1-1.4,0.1-1.9,0.2c-0.5,0-0.7,0.1-0.7,0.1s0.2-0.1,0.7-0.3c0.4-0.1,1.1-0.4,1.8-0.6c0.8-0.2,1.7-0.4,2.6-0.6
			c1-0.2,2-0.3,3.1-0.4c1.1-0.1,2.1-0.1,3.1-0.1c1,0,1.9,0.1,2.7,0.2c0.8,0.1,1.4,0.2,1.9,0.3C487.4,132.7,487.7,132.8,487.7,132.8z
			"/>
	</g>
	<g>
		<path d="M490.9,134c0,0-1.1,0.1-2.6,0.3c-0.8,0.1-1.7,0.2-2.6,0.4c-1,0.1-2,0.3-3,0.5c-2,0.3-4.1,0.8-5.6,1.1
			c-0.8,0.2-1.4,0.3-1.9,0.4c-0.5,0.1-0.7,0.1-0.7,0.1s0.2-0.1,0.7-0.3c0.4-0.2,1-0.5,1.8-0.8c0.7-0.3,1.6-0.6,2.6-0.8
			c1-0.3,2-0.5,3-0.7c1-0.2,2.1-0.3,3.1-0.4c1-0.1,1.9-0.1,2.7-0.1c0.8,0,1.5,0.1,1.9,0.1C490.7,133.9,490.9,134,490.9,134z"/>
	</g>
	<g>
		<path d="M53.2,50.5c0,0-0.5-0.5-1.3-1.3c-0.4-0.4-0.9-0.9-1.5-1.5c-0.6-0.6-1.3-1.2-2-1.9c-0.7-0.7-1.5-1.4-2.4-2.2
			c-0.9-0.8-1.8-1.6-2.7-2.4c-0.9-0.8-2-1.6-3-2.5c-1-0.8-2.1-1.7-3.1-2.5c-1.1-0.8-2.1-1.7-3.2-2.5c-1.1-0.8-2.1-1.6-3.1-2.4
			c-1-0.7-2-1.5-2.9-2.2c-0.9-0.7-1.8-1.3-2.7-1.9c-1.6-1.2-3-2.1-4-2.8c-1-0.7-1.5-1.1-1.5-1.1s0.6,0.3,1.6,0.9
			c1,0.6,2.5,1.4,4.2,2.5c1.7,1.1,3.7,2.4,5.8,3.8c2.1,1.5,4.2,3.1,6.4,4.8c1,0.9,2.1,1.7,3.1,2.6c1,0.9,2,1.7,2.9,2.6
			c1.9,1.7,3.5,3.4,4.9,4.9c1.4,1.5,2.5,2.8,3.2,3.7C52.8,49.9,53.2,50.5,53.2,50.5z"/>
	</g>
	<g>
		<path d="M58.5,61.3c0,0-0.4-0.4-1.2-1.1c-0.7-0.7-1.9-1.7-3.2-2.8c-1.3-1.1-3-2.4-4.7-3.8c-0.9-0.7-1.8-1.3-2.7-2
			c-0.9-0.7-1.9-1.3-2.9-2c-1-0.7-2-1.3-3-1.9c-1-0.6-2-1.2-2.9-1.8c-1-0.5-1.9-1.1-2.8-1.6c-0.9-0.5-1.7-0.9-2.5-1.3
			c-0.8-0.4-1.5-0.8-2.1-1.1c-0.6-0.3-1.2-0.6-1.7-0.8c-0.9-0.5-1.5-0.7-1.5-0.7s0.6,0.2,1.5,0.6c0.5,0.2,1.1,0.4,1.8,0.7
			c0.7,0.2,1.4,0.6,2.2,1c0.8,0.4,1.7,0.7,2.6,1.2c0.9,0.5,1.9,0.9,2.9,1.5c1,0.6,2,1.1,3,1.7c1,0.6,2,1.2,3,1.9c1,0.7,2,1.3,2.9,2
			c0.9,0.7,1.9,1.4,2.7,2.1c0.9,0.7,1.7,1.4,2.5,2.1c0.8,0.7,1.5,1.3,2.1,2c1.3,1.2,2.3,2.4,3,3.1C58.1,60.9,58.5,61.3,58.5,61.3z"
			/>
	</g>
	<g>
		<path d="M57,66.7c0,0-0.4-0.2-1.1-0.5c-0.7-0.3-1.7-0.8-2.9-1.4c-1.2-0.6-2.6-1.2-4.2-1.8c-0.8-0.3-1.6-0.6-2.4-1
			c-0.8-0.3-1.6-0.6-2.5-0.9c-1.7-0.6-3.3-1.2-4.9-1.7c-1.6-0.5-3-1-4.3-1.4c-0.6-0.2-1.2-0.4-1.7-0.5c-0.5-0.1-1-0.3-1.3-0.4
			c-0.7-0.2-1.2-0.4-1.2-0.4s0.4,0.1,1.2,0.2c0.8,0.1,1.9,0.3,3.2,0.6c0.7,0.1,1.4,0.3,2.1,0.5c0.7,0.2,1.5,0.4,2.3,0.6
			c0.8,0.2,1.6,0.5,2.5,0.8c0.8,0.3,1.7,0.6,2.5,0.9c1.7,0.6,3.3,1.3,4.8,2c1.5,0.7,2.9,1.5,4.1,2.1c1.2,0.6,2.1,1.3,2.8,1.7
			C56.6,66.4,57,66.7,57,66.7z"/>
	</g>
	<g>
		<path d="M57.3,73.8c0,0-0.4-0.1-1.1-0.3c-0.7-0.2-1.7-0.5-2.9-0.9c-1.2-0.4-2.6-0.8-4.2-1.2c-1.5-0.5-3.1-0.9-4.8-1.4
			c-0.8-0.2-1.6-0.4-2.4-0.7c-0.8-0.2-1.6-0.4-2.4-0.6c-0.8-0.2-1.5-0.4-2.2-0.5c-0.7-0.2-1.4-0.3-2-0.4c-0.6-0.1-1.2-0.2-1.7-0.3
			c-0.5-0.1-1-0.2-1.3-0.2c-0.7-0.1-1.2-0.2-1.2-0.2s0.4,0,1.2,0c0.4,0,0.8,0,1.3,0c0.5,0,1.1,0.1,1.7,0.1c1.3,0.2,2.8,0.3,4.3,0.7
			c1.6,0.3,3.2,0.7,4.9,1.2c1.6,0.5,3.3,1,4.8,1.5c1.5,0.5,2.9,1.1,4.1,1.6c1.2,0.5,2.1,0.9,2.8,1.2C57,73.6,57.3,73.8,57.3,73.8z"
			/>
	</g>
	<g>
		<path d="M58.8,82.3c0,0-0.4,0-1.2,0c-0.8,0-1.8,0.1-3.1,0.1c-1.3,0-2.8,0-4.4,0.1c-1.6,0-3.3,0-5.1,0c-3.5,0-6.9,0.1-9.5,0.1
			c-1.3,0-2.4,0-3.1,0c-0.8,0-1.2,0-1.2,0s0.4-0.1,1.2-0.2c0.8-0.1,1.8-0.3,3.1-0.4c1.3-0.1,2.8-0.3,4.4-0.4
			c1.6-0.1,3.4-0.1,5.1-0.2c1.7,0,3.5,0,5.1,0.1c1.6,0.1,3.1,0.2,4.4,0.3c1.3,0.1,2.4,0.2,3.1,0.3C58.4,82.3,58.8,82.3,58.8,82.3z"
			/>
	</g>
	<g>
		<path d="M61.8,87.8c0,0-0.5,0-1.3,0.1c-0.8,0.1-2,0.2-3.4,0.3c-2.8,0.2-6.5,0.5-10.3,0.8c-1.9,0.2-3.7,0.3-5.5,0.5
			c-0.9,0.1-1.7,0.2-2.5,0.2c-0.8,0.1-1.6,0.2-2.3,0.3c-1.4,0.2-2.6,0.3-3.4,0.4c-0.8,0.1-1.3,0.2-1.3,0.2s0.5-0.1,1.2-0.4
			c0.8-0.2,1.9-0.5,3.3-0.8c1.4-0.3,3-0.6,4.8-0.8c1.7-0.2,3.6-0.4,5.5-0.6c1.9-0.1,3.8-0.3,5.5-0.3c1.8-0.1,3.4-0.1,4.8-0.1
			c1.4,0,2.6,0.1,3.4,0.1C61.4,87.8,61.8,87.8,61.8,87.8z"/>
	</g>
	<g>
		<path d="M61.8,93c0,0-0.5,0.2-1.4,0.6c-0.9,0.4-2.1,0.9-3.7,1.4c-1.5,0.5-3.3,1.2-5.3,1.8c-2,0.6-4.1,1.2-6.2,1.7
			c-1.1,0.3-2.1,0.5-3.2,0.7c-1,0.2-2.1,0.4-3.1,0.6c-1,0.2-2,0.3-2.9,0.5c-0.9,0.2-1.8,0.3-2.6,0.4c-1.6,0.2-3,0.3-3.9,0.5
			c-0.9,0.1-1.5,0.1-1.5,0.1s0.5-0.1,1.5-0.3c0.9-0.2,2.3-0.5,3.9-0.8c1.6-0.3,3.4-0.8,5.4-1.2c2-0.5,4.1-0.9,6.2-1.5
			c2.1-0.5,4.2-1.1,6.2-1.6c2-0.5,3.8-1,5.4-1.5c1.6-0.4,2.9-0.8,3.8-1.1C61.3,93.2,61.8,93,61.8,93z"/>
	</g>
	<g>
		<path d="M62.8,100.3c0,0-0.6,0.3-1.7,0.7c-1.1,0.5-2.6,1.1-4.4,1.9c-1.8,0.7-4,1.6-6.3,2.4c-2.3,0.9-4.8,1.7-7.3,2.5
			c-2.5,0.8-5,1.6-7.4,2.2c-1.2,0.3-2.3,0.6-3.5,0.9c-1.1,0.3-2.1,0.5-3.1,0.7c-1.9,0.4-3.6,0.7-4.7,1c-1.1,0.2-1.8,0.3-1.8,0.3
			s2.5-0.7,6.3-1.8c1.9-0.5,4.1-1.2,6.5-1.9c1.2-0.4,2.4-0.7,3.6-1.1c1.2-0.4,2.5-0.8,3.7-1.2c2.5-0.8,5-1.6,7.3-2.4
			c2.3-0.8,4.5-1.5,6.4-2.1C60.3,101.2,62.8,100.3,62.8,100.3z"/>
	</g>
	<g>
		<path d="M65,106.2c0,0-0.7,0.4-2,1.1c-1.3,0.7-3.2,1.7-5.5,2.9c-2.3,1.1-4.9,2.5-7.8,3.9c-2.9,1.4-6,2.8-9,4.2
			c-3.1,1.4-6.2,2.7-9.2,3.9c-2.9,1.2-5.7,2.3-8.1,3.2c-2.4,0.9-4.4,1.6-5.8,2c-1.4,0.4-2.2,0.7-2.2,0.7s0.8-0.3,2.2-0.9
			c0.7-0.3,1.5-0.6,2.5-1c1-0.4,2-0.9,3.2-1.3c2.3-1,5.1-2.2,8-3.4c2.9-1.3,6-2.6,9.1-4c3.1-1.4,6.2-2.8,9.1-4.1
			c2.9-1.3,5.6-2.5,7.9-3.6C61.9,107.6,65,106.2,65,106.2z"/>
	</g>
	<g>
		<path d="M67,111.3c0,0-3.2,2.3-8.3,5.3c-1.3,0.8-2.6,1.6-4.1,2.4c-1.5,0.9-3,1.7-4.7,2.6c-1.6,0.9-3.3,1.8-5.1,2.7
			c-1.7,0.9-3.5,1.7-5.3,2.6c-1.8,0.8-3.6,1.6-5.4,2.4c-1.8,0.7-3.5,1.5-5.3,2.2c-1.7,0.7-3.4,1.3-5,1.9c-1.6,0.5-3.1,1.1-4.5,1.5
			c-1.4,0.4-2.7,0.8-3.9,1.1c-1.2,0.3-2.2,0.5-3,0.7c-1.7,0.4-2.7,0.6-2.7,0.6s0.9-0.3,2.6-0.8c0.8-0.3,1.8-0.5,3-0.9
			c1.1-0.4,2.4-0.8,3.8-1.3c1.4-0.5,2.9-1.1,4.5-1.6c1.6-0.6,3.2-1.3,4.9-2c1.7-0.7,3.4-1.5,5.2-2.2c1.8-0.8,3.5-1.6,5.3-2.5
			c1.8-0.9,3.6-1.7,5.3-2.6c1.7-0.9,3.4-1.7,5.1-2.6c1.6-0.9,3.2-1.7,4.7-2.5c1.5-0.8,2.9-1.6,4.2-2.3c2.6-1.4,4.7-2.6,6.2-3.5
			C66.1,111.8,67,111.3,67,111.3z"/>
	</g>
	<path fill="#FFFFFF" d="M309.2,13.7c0,0-28.3-9-42.8-11"/>
	<path fill="#FFFFFF" d="M300.8,15c0,0-20-6.7-34.7-9.5"/>
	<path fill="#FFFFFF" d="M291.7,16.5c0,0-15.2-6.3-30.3-8.8"/>
	<path fill="#FFFFFF" d="M284.5,18.5c0,0-17.2-6.3-24-6.5"/>
	<path fill="#FFFFFF" d="M277.7,20c0,0-12.8-3.8-19.3-4.7"/>
	<path fill="#FFFFFF" d="M268.8,21.5c0,0-10.3-2.7-14.2-3.3"/>
	<path fill="#FFFFFF" d="M258.5,23.5c0,0-3.7-1.5-6.5-2.3"/>
	<g>
		<path d="M421.7,128c0,0-2.9,0.1-7.3,0.2c-4.4,0.2-10.2,0.4-15.9,0.8c-2.9,0.2-5.8,0.5-8.5,0.7c-2.7,0.2-5.2,0.4-7.4,0.6
			c-2.2,0.2-4,0.4-5.2,0.5c-1.3,0.1-2,0.2-2,0.2l0-0.1c0,0,0.7-0.2,2-0.4c0.6-0.1,1.4-0.3,2.3-0.5c0.9-0.1,1.9-0.3,2.9-0.5
			c1.1-0.1,2.3-0.3,3.5-0.5c1.2-0.1,2.6-0.3,3.9-0.4c2.7-0.2,5.6-0.3,8.5-0.4c5.8-0.2,11.6-0.4,16-0.4c4.4,0,7.3,0,7.3,0L421.7,128z
			"/>
	</g>
	<g>
		<path d="M421.8,131.9c0,0-2.7,0-6.8,0.2c-4.1,0.1-9.6,0.4-15,0.8c-2.7,0.2-5.4,0.4-8,0.6c-1.3,0.1-2.5,0.2-3.7,0.2
			c-1.2,0.1-2.3,0.1-3.3,0.2c-1,0.1-2,0.1-2.8,0.1c-0.8,0.1-1.6,0.1-2.2,0.1c-1.2,0-1.9,0.1-1.9,0.1l0-0.1c0,0,2.7-0.5,6.8-1
			c2-0.2,4.4-0.5,7-0.7c2.6-0.2,5.3-0.3,8-0.4c5.5-0.2,10.9-0.3,15-0.3c4.1,0,6.8,0.1,6.8,0.1L421.8,131.9z"/>
	</g>
	<g>
		<path d="M422.2,135.9c0,0-11.1,0.3-22.3,0.7c-2.8,0.1-5.6,0.3-8.2,0.4c-2.6,0.1-5,0.2-7.1,0.2c-1,0-2,0.1-2.8,0.1
			c-0.8,0-1.6,0.1-2.2,0.1c-1.2,0.1-1.9,0.1-1.9,0.1l0-0.1c0,0,0.7-0.1,1.9-0.3c0.6-0.1,1.3-0.2,2.2-0.3c0.8-0.1,1.8-0.2,2.8-0.3
			c1-0.1,2.2-0.2,3.4-0.3c1.2-0.1,2.5-0.1,3.8-0.2c2.6-0.1,5.4-0.1,8.2-0.2c11.1-0.2,22.3,0,22.3,0L422.2,135.9z"/>
	</g>
	<g>
		<path d="M418,139.4c0,0-9.3,0-18.6,0.1c-2.3,0-4.6,0.1-6.8,0.1c-1.1,0-2.1,0-3.1,0c-1,0-1.9,0-2.8,0c-3.5,0-5.8-0.1-5.8-0.1l0-0.1
			c0,0,0.6-0.1,1.6-0.2c0.5-0.1,1.1-0.1,1.8-0.2c0.7-0.1,1.5-0.1,2.4-0.2c0.9,0,1.8-0.1,2.8-0.1c1-0.1,2.1-0.1,3.1-0.1
			c2.2,0,4.5,0.1,6.8,0.1C408.7,138.8,418,139.3,418,139.4L418,139.4z"/>
	</g>
	<path fill="#FFFFFF" d="M174.3,138.8c0,0-0.4,0-1.1-0.1c-0.7,0-1.6-0.1-2.8-0.2c-2.3-0.1-5.4-0.2-8.4-0.3c-3.1-0.1-6.1-0.1-8.4-0.1
		c-1.1,0-2.1,0-2.8-0.1c-0.7,0-1.1,0-1.1,0s0.4,0.1,1,0.2c0.7,0.1,1.6,0.3,2.8,0.4c1.1,0.1,2.5,0.3,3.9,0.4c1.4,0.1,3,0.2,4.5,0.2
		c3.1,0.1,6.1,0,8.4-0.1c1.2-0.1,2.1-0.1,2.8-0.2C173.9,138.9,174.3,138.8,174.3,138.8z"/>
	<path fill="#FFFFFF" d="M167.7,134.7c0,0-0.3,0-0.9,0c-0.6,0-1.5-0.1-2.5-0.1c-2.1-0.1-4.8-0.1-7.6-0.2c-2.7-0.1-5.5-0.1-7.6-0.1
		c-1,0-1.9,0-2.5,0c-0.6,0-1,0-1,0s1.4,0.3,3.4,0.6c1,0.1,2.2,0.3,3.5,0.4c1.3,0.1,2.7,0.2,4.1,0.2c2.8,0.1,5.5,0,7.6-0.2
		c1-0.1,1.9-0.2,2.5-0.3C167.3,134.7,167.7,134.7,167.7,134.7z"/>
	<path fill="#FFFFFF" d="M163.5,131.8c0,0-0.3,0-0.9-0.1c-0.6,0-1.4-0.1-2.5-0.2c-2-0.1-4.7-0.2-7.4-0.3c-2.7-0.1-5.4-0.1-7.4-0.1
		c-1,0-1.9,0-2.5-0.1c-0.6,0-0.9,0-0.9,0s1.3,0.4,3.3,0.7c2,0.3,4.7,0.5,7.5,0.6c2.7,0.1,5.4,0,7.5-0.1c1-0.1,1.9-0.1,2.5-0.2
		C163.2,131.9,163.5,131.8,163.5,131.8z"/>
	<path fill="#FFFFFF" d="M158.3,128c0,0-0.3,0-0.9,0c-0.5,0-1.3-0.1-2.3-0.1c-1.9-0.1-4.3-0.1-6.8-0.2c-2.5-0.1-4.9-0.2-6.8-0.3
		c-0.9-0.1-1.7-0.1-2.2-0.2c-0.5,0-0.9-0.1-0.9-0.1s1.2,0.4,3,0.8c0.9,0.2,2,0.3,3.2,0.5c1.2,0.1,2.4,0.2,3.7,0.3c1.2,0,2.5,0,3.7,0
		c1.2,0,2.3-0.1,3.2-0.2c0.9-0.1,1.7-0.2,2.2-0.3C158,128.1,158.3,128,158.3,128z"/>
	<path fill="#FFFFFF" d="M152.2,123.7c0,0-1.2,0-2.9,0c-0.9,0-1.8-0.1-2.9-0.1c-1.1,0-2.2-0.1-3.3-0.2c-2.3-0.1-4.5-0.3-6.2-0.5
		c-0.9-0.1-1.6-0.1-2.1-0.2c-0.5,0-0.8-0.1-0.8-0.1s0.3,0.1,0.8,0.2c0.5,0.1,1.2,0.4,2,0.6c0.8,0.2,1.8,0.4,2.9,0.6
		c0.5,0.1,1.1,0.2,1.7,0.2c0.6,0,1.1,0.1,1.7,0.1c1.1,0.1,2.3,0.1,3.4,0c1.1,0,2.1-0.1,2.9-0.2c0.9-0.1,1.6-0.3,2.1-0.3
		C151.9,123.7,152.2,123.7,152.2,123.7z"/>
	<path fill="#FFFFFF" d="M145.3,118.8c0,0-0.8-0.1-2.1-0.1c-1.2,0-2.9-0.1-4.5-0.2c-1.6,0-3.3-0.1-4.5-0.2c-0.6,0-1.1,0-1.5-0.1
		c-0.4,0-0.6,0-0.6,0s0.2,0.1,0.5,0.2c0.3,0.1,0.8,0.3,1.5,0.4c0.6,0.2,1.3,0.3,2.1,0.4c0.8,0.1,1.6,0.2,2.4,0.2
		c1.7,0.1,3.3-0.1,4.6-0.3C144.5,119.1,145.3,118.8,145.3,118.8z"/>
	<path fill="#FFFFFF" d="M138.2,114.3c0,0-0.8-0.1-1.9-0.2c-1.2-0.1-2.7-0.1-4.2-0.2c-1.5,0-3.1,0-4.2,0c-1.1,0-1.9,0-1.9,0
		s0.7,0.4,1.9,0.6c1.2,0.2,2.7,0.4,4.3,0.4c1.6,0,3.1-0.1,4.3-0.3C137.4,114.5,138.2,114.3,138.2,114.3z"/>
	<g>
		<ellipse cx="520.8" cy="79.5" rx="9.9" ry="6.3"/>
		<path fill="#FFFFFF" d="M513.8,78.9c0,3.6,3,6.6,6.8,6.6c3.7,0,6.8-3,6.8-6.6s-3-6.6-6.8-6.6C516.8,72.3,513.8,75.2,513.8,78.9z"
			/>
		<path d="M513.2,78.9c0-4,3.3-7.3,7.4-7.3c4.1,0,7.4,3.3,7.4,7.3c0,4-3.3,7.3-7.4,7.3C516.5,86.2,513.2,82.9,513.2,78.9z
			 M513.8,78.9c0,3.6,3,6.6,6.8,6.6c3.7,0,6.8-3,6.8-6.6s-3-6.6-6.8-6.6C516.8,72.3,513.8,75.2,513.8,78.9z"/>
		<path d="M518.9,77.1c1,0,1.7-0.9,1.7-1.9c0,0,0,0,0-0.1c0,0,0,0,0,0c1.8,0,3.3,1.7,3.3,3.7c0,2.1-1.5,3.7-3.3,3.7
			c-1.8,0-3.3-1.7-3.3-3.7c0-0.8,0.2-1.5,0.6-2.1C518.2,77,518.5,77.1,518.9,77.1z"/>
	</g>
</g>
</svg>
