<?xml version="1.0" encoding="utf-8"?>
<!-- Generator: Adobe Illustrator 18.1.1, SVG Export Plug-In . SVG Version: 6.00 Build 0)  -->
<svg version="1.1" id="arctic_grayling" xmlns="http://www.w3.org/2000/svg" xmlns:xlink="http://www.w3.org/1999/xlink" x="0px"
	 y="0px" viewBox="0 0 526.9 220.8" enable-background="new 0 0 526.9 220.8" xml:space="preserve">
<path d="M514.9,130.8c0,0,9.8-4.2,10.5-6s1.8-3.8,1.2-4.5s-2.8-2.2-4-3.5s-3.2-4.5-5.8-6s-91.5-36.2-140-40.2
	c0,0-22.2-35.5-29.2-40.5s-16.5-10-23.4-12.2C317.4,15.5,263.9,0,255.9,0s-44.2-0.5-69,2.5s-49,7-49,7L141,11c0,0-20.2,2.5-25.2,6.8
	c0,0,3.3,3.2,4.3,6.8c0,0-13.5,4.2-19.5,8.8c0,0,3.3,2.8,3.6,3.8L92.6,44l-0.5,0.3c0,0,1.5,3.8,2,5.2s-0.2,4-0.2,4
	c0,3-1.5,5.8-1.8,6.2s2,0.8,2,1.8s-4.8,3.9-4.8,3.9l2.8,1.6l-2.8,1.2l5.2,1l-1.8,1l6.5,2c0,0,1.9,1.8,2.5,2.2c0.6,0.5,0,4.5,0,4.5
	s12.1,0,15.8,0.8s53.2,8.2,53,9.8s-13.1,0.8-15.7,0.2c-2.6-0.5-22.6-1-27.1-1.2s-7.1,0.8-8.9,2.5c-1.8,1.8-1.7,1.8,0,3.5
	c1.7,1.8,1.4,4.2-1.1,5.5s-31,5-32.6,4.8c-1.6-0.2-31.9-15.8-43.9-20.5S3.4,71.5,1.9,73s-4.5,9,3,28.5s26.8,45.8,27.2,49
	s-3,26.8-2.5,39.5s2.2,30.2,6.8,30.8s22.2-18.8,34-35s28.2-37.8,34.2-40c0,0,11.5,45.5,13,46s8.2,1.8,54.8-30.8
	c0,0,40,0.8,80.8,11.5c0,0-29.8,11.5-52.8,43.8c0,0,19-6.2,19.5-4.8s-2.8,7.2-2.8,7.2s20.2-9.8,21.2-9.5s1,6,1,6
	s26.2-13.5,37.5-38.5c0,0,32.5,15,126.2,9c0,0,3.5,5.2,7.8,8s33.8,11.8,42,27c0,0,9.8-29.5,1.2-45.5c0,0,20.5-8.8,27.8-9.8
	s14.8-4.8,16-5.5s5.8-5.5,8-6.8s6.2-4.8,9.8-5.5s7.5-3.5,7.5-3.5s0.2-1.8,1.8-3.5s2.3-3.8,1.9-4.5c-0.4-0.8-6.6-2-8.4-3
	S514.9,130.8,514.9,130.8z"/>
<path fill="#FFFFFF" d="M502.6,133.5c0,0,12.5-4.8,16.8-7s5.7-4.1,4.6-5.9s-3.2-3.2-3.7-4.2s-3.5-4.2-4.3-4.8S411.3,72.1,377.3,71.8
	l-8.2,4.2c0,0,22-2.7,69.2,12.2s73.3,22.3,75.2,24.2s2.7,3.5,3.7,4.8s2.2,3.3,2,4.5s-1.3,2.3-2.2,2.7s-13.5,5.7-13.5,5.7
	s7.7-7.7,4-12.2s-11-6.2-13.3-6.5s-23.5,0.3-27.7,1.8s-11.5,11-12.2,14.3c-0.7,3.3-2,17,23.3,23.2c0,0-14.5-1.8-18.8-6.2
	c-4.3-4.3-8.7-10-7.5-14.3c1.2-4.3,4.7-11,4-12.8s-5.3-6-11.2-6.2s-16.2,0.5-17.7,2s-6,10.7-5.5,13c0.5,2.3,11.5,17.5,16.3,22.3
	c4.8,4.8,15.7,13.5,15.7,13.5s-7-2.8-10.7-6.2s-18.5-21.2-20.3-23.7c-1.8-2.5-4.2-5.5-3.8-7.3s1.8-7.3,7.3-13.7c0,0,4.2-6.7-3.3-9.7
	S358,83.1,289.3,86.6s-103.5,7.2-144,17s-48.5,13.5-49,13.3s-1.5-3-3.2-3.8S71.6,100.6,53,92.3C34.3,83.9,3.8,73.6,2.8,74.4
	s-3,11.8,4.7,29s25.8,44.2,26,46.3c0.2,2.2-3.5,35.2-2.2,44.8c1.3,9.7,3,24.2,5.2,24.2s9.5-6,16.7-14.5c7.2-8.5,23.8-31.3,31.3-40.2
	c7.5-8.8,18.2-21.8,23-22.8s23,0.3,34.2,4.3c11.2,4,14.2,5.5,16.2,5.7c2,0.2,34-2.8,68.5,8.7c0,0-24.7-3.8-35.3-5.2
	c-10.7-1.3-23.7-2-28-1.5c-4.3,0.5-7.2,0.8-8.2,0.3s-25.8-9.5-34.8-10.5s-11.2-0.7-12.2-0.3s-2,2-2,2s11.2,43.5,12.5,44.3
	c1.3,0.8,12.5-1.8,52.7-28.8c0,0,2-1,3.7-1c1.7,0,45.7,1.7,80.3,12.7c0,0-0.2,1-0.7,1.2c-0.5,0.2-23.8,8.7-50.8,40.8
	c0,0,15.8-4.7,17.2-3.3c1.3,1.3-1,5.5-1,5.5s18.5-9,19.7-8.2c1.2,0.8,1.2,5,1.2,5s25.8-15.3,35.7-37.7c0,0,27.7,9.5,70,9.8
	c42.3,0.3,82.8-4.7,82.8-4.7s-13.5,3.8-23.8,5.2c0,0,2.8,5.3,10.5,8.5c7.7,3.2,25.3,9.3,36.7,22.7c0,0,8.2-22.3,0.7-41.2l-3.3,1
	c0,0,1.7-2,7.5-4.2c5.8-2.2,22-8.3,24.2-8.7c2.2-0.3,10.7-2.2,12.8-3.5c2.2-1.3,6.3-4.5,8-5.8c1.7-1.3,5-3.8,7.2-5
	c2.2-1.2,4.5-2.5,6.8-3.3c2.3-0.8,4.7-2,5.5-2.7c0.8-0.7,2-3,2.5-3.7c0.5-0.7,2-2.5,1.3-3c-0.7-0.5-4-1.5-6.2-2.2s-4.2-3-5.3-3
	C512.8,131.6,506.8,135.1,502.6,133.5z"/>
<path d="M493.8,151.6c0,0-8.5,3.3-8,3.3s6,0.7,9.5-1.7l-3.5,0.2L493.8,151.6z"/>
<path d="M439.1,162.6c0,0-17-10.5-19-10.2c-2,0.3-22.5,7-29.7,26.2c0,0,14.3,1,24.7,0c0,0-6.3-4.2-5-6.8c1.3-2.7,10.8-13,12.7-13
	S439.1,162.6,439.1,162.6z"/>
<path d="M283.1,165.8c0,0,46.3,9.3,112.8,3.8l6.5-6C402.5,163.6,320.5,166.1,283.1,165.8z"/>
<path fill="#FFFFFF" d="M220.1,77.3c0,0-29.2-40-69.5-58c0,0,21.2-0.8,81,53.5C231.6,72.8,235.6,86.5,220.1,77.3z"/>
<path fill="#FFFFFF" d="M243.3,75.6c0,0-23.7-41.9-60.6-63.8c0,0,20.6,1.7,72.2,60.8C254.9,72.5,257.2,86.3,243.3,75.6z"/>
<path fill="#FFFFFF" d="M260.7,74.3c0,0-21.6-43.1-57.3-66.8c0,0,20.5,2.7,69,64.3C272.5,71.9,274.1,85.7,260.7,74.3z"/>
<path fill="#FFFFFF" d="M279.9,72.4c0,0-16.2-41.2-46.9-65.9c0,0,18.5,4.2,57.9,64.6C290.9,71.1,291.2,83.9,279.9,72.4z"/>
<path fill="#FFFFFF" d="M297.7,72.1c0,0-10.8-38.3-36-63.2c0,0,16.2,5.4,46,63C307.6,72,306.8,83.4,297.7,72.1z"/>
<path fill="#FFFFFF" d="M315.5,69.7c0,0-7.5-35.6-29.1-59.8c0,0,14.5,5.9,38.1,60.2C324.5,70.1,323.1,80.5,315.5,69.7z"/>
<path fill="#FFFFFF" d="M331.6,72.3c0,0-4.8-30-21.7-51c0,0,11.8,5.5,29.2,51.8C339.1,73.1,337.4,81.7,331.6,72.3z"/>
<path d="M76.2,137.6c0,0-20.5-0.4-37.2,8.6c0,0,5.7-7.3,39.1-13.6C78,132.6,83.3,134.8,76.2,137.6z"/>
<path d="M75.8,146.9c0,0-20.3,2.8-35.5,14.1c0,0,4.5-8.1,36.5-19.4C76.8,141.6,82.5,143,75.8,146.9z"/>
<path d="M78,155.7c0,0-22.3,6-37.7,20.9c0,0,3.9-9.7,38.1-26.9C78.4,149.7,84.9,150.4,78,155.7z"/>
<path d="M79.9,166c0,0-25.2,15-39,38.6c0,0,1.4-13.3,37.4-46.1C78.3,158.5,86.5,157.1,79.9,166z"/>
<path d="M74.9,129.8c0,0-20-4.3-38.2,1.2c0,0,7-6.1,41-5.8C77.6,125.3,82.4,128.4,74.9,129.8z"/>
<path d="M71.1,122.3c0,0-25.3-13-51.8-12.1c0,0,11.6-5.7,57.1,7C76.4,117.1,81.8,123.1,71.1,122.3z"/>
<path d="M71.4,113.8c0,0-25.1-18.5-56.2-23.5c0,0,15.5-3,64.2,19.6C79.3,109.9,83.5,117,71.4,113.8z"/>
<path fill="#FFFFFF" d="M346.3,73.6c0,0-4.8-30-21.7-51c0,0,11.8,5.5,29.2,51.8C353.9,74.3,352.2,82.9,346.3,73.6z"/>
<path fill="#FFFFFF" d="M359.5,73.9c0,0-3.2-25-16.7-42.8c0,0,9.6,4.9,22.9,43.7C365.7,74.7,364.1,81.8,359.5,73.9z"/>
<path fill="#FFFFFF" d="M199.7,82c0,0-35.4-34.7-78-45.9c0,0,20.8-4.2,88.6,39.6C210.3,75.7,216.5,88.6,199.7,82z"/>
<path fill="#FFFFFF" d="M179.7,86c0,0-38.5-27.7-80.5-32.1c0,0,19.1-7,89.6,24.5C188.8,78.4,196.5,89.8,179.7,86z"/>
<polygon points="440.9,179.8 454.9,210.7 439.4,179.8 "/>
<polygon points="444.9,177.7 456.5,201.5 443.6,178.2 "/>
<polygon points="448.6,177.2 456.7,190.6 447.1,177.7 "/>
<polygon points="435,180.8 447.1,212.8 433.4,180.8 "/>
<polygon points="427.6,182.1 435.9,204.5 426.1,182.7 "/>
<polygon points="420.7,184.4 425.9,199.5 419.2,184.4 "/>
<polygon points="413.1,184.8 417.9,196 411.7,185.1 "/>
<polygon points="167.8,154.2 131.9,177 166.2,154.2 "/>
<polygon points="161.4,154.1 129.8,174.2 159.8,154.1 "/>
<polygon points="154.9,154 126.2,172.1 153.3,154 "/>
<polygon points="150.7,152.7 124.4,169.4 149.2,152.7 "/>
<polygon points="146.6,151.2 123.6,165.7 145.1,151.2 "/>
<polygon points="142.6,149.8 121.1,163.2 141,149.8 "/>
<polygon points="137.6,148.2 118.2,160.3 136,148.2 "/>
<polygon points="132.7,146.5 116.2,156.7 131.1,146.5 "/>
<polygon points="128.4,145.4 114.4,154 126.9,145.4 "/>
<polygon points="123.6,144.2 110.9,151.8 122.1,144.2 "/>
<polygon points="119.5,143.6 109.8,149 117.9,143.6 "/>
<g>
	<ellipse cx="483.8" cy="117" rx="13.8" ry="7.9"/>
	<path fill="#FFFFFF" d="M474.1,116.2c0,4.6,4.2,8.3,9.4,8.3c5.2,0,9.4-3.7,9.4-8.3c0-4.6-4.2-8.3-9.4-8.3
		C478.3,107.9,474.1,111.6,474.1,116.2z"/>
	<path d="M473.2,116.2c0-5,4.6-9.1,10.3-9.1c5.7,0,10.3,4.1,10.3,9.1c0,5-4.6,9.1-10.3,9.1C477.8,125.3,473.2,121.2,473.2,116.2z
		 M474.1,116.2c0,4.6,4.2,8.3,9.4,8.3c5.2,0,9.4-3.7,9.4-8.3c0-4.6-4.2-8.3-9.4-8.3C478.3,107.9,474.1,111.6,474.1,116.2z"/>
	<path d="M481.2,114c1.3,0,2.4-1.1,2.4-2.4c0,0,0-0.1,0-0.1c0,0,0,0,0,0c2.6,0,4.7,2.1,4.7,4.7s-2.1,4.7-4.7,4.7s-4.7-2.1-4.7-4.7
		c0-1,0.3-1.9,0.8-2.6C480.2,113.8,480.7,114,481.2,114z"/>
</g>
</svg>
