<?xml version="1.0" encoding="utf-8"?>
<!-- Generator: Adobe Illustrator 18.1.1, SVG Export Plug-In . SVG Version: 6.00 Build 0)  -->
<svg version="1.1" id="chum_salmon" xmlns="http://www.w3.org/2000/svg" xmlns:xlink="http://www.w3.org/1999/xlink" x="0px"
	 y="0px" viewBox="0 0 521.5 203.5" enable-background="new 0 0 521.5 203.5" xml:space="preserve">
<g>
	<path d="M487,127c0,0,11.8-6.2,15.2-8s6.8-3.5,8-3.5s4,1.8,5.2,1.2s4.8-5,4.8-7.2s-8-6-16-7.5s-32-8-46.8-14s-50.2-18.5-69-23.8
		S301.2,46,272.2,46.8c0,0-1.2-6-5.8-11S235.2,0.3,234,0s-3,2-3.8,1.8s-2.2-1.8-2.5-1s-1,3.5-1.8,4.8s-8.5,12.5-9.5,16.8
		s-8.8,15.3-9.2,17s-6,14-7,17s0.2,3.8,1,3.8s12.2,5.2,11.8,6.5s-16.2,2.8-27,4.2S134.7,82,129,83.5s-7.5,2.5-12.2,2.2
		c-4.8-0.2-7.5-1.8-11-1.8s-5.2,1.8-6.5,2s-2,0-2.5,1.2s-1,2.8-1.2,3.5s2.8,3.2,2.8,3.2s-6.5,1.8-11.2,0.5S62.5,79.5,47,69
		S10.7,46.3,5.2,45.5s-6.5,0.8-3.8,4.2S27.2,91.5,25,101S9.2,172.5,8,176.3s1.2,3.8,4.5,2.5s33-19.5,47.7-29.2S79.5,136.3,85,136
		s18,1,18,1s3.5,10.5,15.2,21.8s22.2,16,25.2,17s5.5,4.2,7.8,3.8s17.5-9.8,26-22.2c0,0,26.5,11.5,39.2,8c0,0-5,2.5-5.2,4
		s-3.8,11.8-3,13.8s13,20.5,16,20.5s18.2-14,19-16s3.8-17.5,5.5-18s16.3-1,30.8-0.2s52,0.2,73-1s63-8,74.5-8.5s39.5-9.5,55-14.8
		s26.8-8.5,30.2-9.5s9.5-5.8,9.2-8s-3.2-3.5-4.5-3.5s-10.8,3-11.8,3.8s-13,4.2-13,4.2L487,127z"/>
	<path fill="#FFFFFF" d="M506.2,113.5c0,0,2-2,0.8-3s-17.5-7.5-20.2-7s-11.2,5.5-13,5.2s-4.8-3-6-3.8s-6.5-6.5-9.2-6.8
		s-8.2-0.5-9.2-1.5s-5-3.8-7-4.2s-7.5-2.5-10.8-2.5s-13.2,1.5-13.2,1.5s-0.8-1.2-2.2-1.8s-3-2-4.2-2s-12.5,8-12.5,8s5-10.2,2.8-12
		s-5-4.8-7-5.5s-4.8-1.2-6-1.5s-4.2-0.8-6.8-1s-6.5-3.2-8.5-3.8s-21.5-8-22.2-7.2s-0.5,4.8,0.8,6.8s6,6.2,7.8,8.5s2,5,3.2,6.2
		s13.8,9,13.8,12.5s-3,16-5.2,18s-5.2,4-8,3.8s-6.2-2.5-9-5s-6.2-7.2-6.2-11.2s2-8.2,2.2-12.2S348,79.3,346,75.8s-4.8-11.2-7-11.8
		c-2.2-0.5-6.8-2-7-0.5c-0.2,1.5-0.2,6.2-0.2,8.5s5,20.5,6.2,23.2s3.2,13.8,4.5,16s5.5,6.8,4.5,8.5s-2,2.8-3.5,1.2s-6-5.8-6.8-4.5
		s-3.2,5.5-5,5.5s-3-1.2-3-3.5s2-16,1.8-21.2s-6.2-25.5-7.8-29s-2.8-7.2-5.2-6.7s-7,5.2-6.8,10.5s2.5,12,6,15.5s4.2,2.8,4.8,5
		s0.2,3.2,1,7.2s-0.8,18.2-2,19.5s-6,0.8-9.2-1s-8.2-4.8-8.8-9s1.2-20,2.8-21.8s2.2-3.5,2.2-5.8s-2.8-8.2-4-12s-4-5.8-5.8-7
		c-1.8-1.2-13-2.8-16.8-2.2s-11,1.2-12.5,3.5c-1.5,2.2-2.5,2.8-1.8,6.2s3.2,6.5,3.2,11.5s2.8,14.8,3.8,19.8s2,11.8,0.2,17
		s-2.8,11.5-4.8,14s-2.2,4.8-4.5,2.5s-4.5-5.8-3.8-7.8c0.8-2,3.5-10,2.5-14.8s-2.3-12.2-2.3-16.2s-2-15.8-2.2-18s-1-4.5-3-5.2
		s-3.5,1.2-3.5,3.8s3,11.5,3.5,15.8s2.8,13.8,2.5,18.2s-1,12-1,17s0.2,7-1.5,9s-2.5,3.5-3.8,0.8s-1.8-4.8-2-6s-0.5-0.5-0.5-4.2
		s1.8-20.8,0.8-26.8s-4.2-17.5-5-21.8s2.2-10-1.5-10.2s-6.5-1.8-9.2,1.2s-4.5,5.5-6,6.5s-2.8,1-3,3.2s0.5,3,1.8,4.5
		s7.5,13.8,7.2,19.2s-2.2,9.5-3.2,14.8s0.5,12,0.2,17.8s-0.8,9-5,9s-6.8-0.8-6.8-3.5s1.2-5.2,0.8-7.5s-3.2-2.5-3.2-6.2s2.2-7,3-9
		s-0.8-1.8-1.8-4s0.2-4,1.2-5.5s2.2-1.5,3-2.8s0.8,1.5,0.8-2.5s-1.8-6-2.2-7.5s-4-10-4.2-12.8s0.2-3.8-3-3s-2.2,1.2-3.5,2.8
		s-1.8,1.2-1.8,4s1.2,0.5,1.5,5.2s-2,6-0.8,10.2s4.8,8.2,2.8,11.8s-7,14.2-6.5,18.8s-0.8,6.8-1.8,6.8s-25.2-7.2-30.8-9.5
		s-33.2-4.8-39-4.8s-4.2-0.2-4.8-2.2s-2.2-4.2-2.2-5.8s-1-6.2-1.2-7.8s-1.2-4-2.2-2.5s-1,3.5-1.2,6s0.8,7.5-1,8.5s-3.5,2.8-3.5,0.2
		s0.5-6.5,0-7.5c-0.5-1,0.5-5-1-7c-1.5-2-1.8-2-3.2-3.5s-2.2-2.8-3.2-0.5s-0.2,2.2-1.8,3.8s-1,4.5-4,3.2s-3.8-2.5-3.8-3.8
		s2.2-2.2-0.5-2.5s-4.8,0.5-5,1.2s-0.8,3.8-3.2,3s-2-2.5-4.2-2S84,109,82.7,109s-3.5,0.8-3.5-1.8s1-3.5,0.5-6s-0.5-3-1.5-4.5
		s-2.8-3-5.8-4.5s-2.8-1.8-5.5-2s-2.8-0.5-4.3-0.8c-1.5-0.2-0.8-1-3-0.5S55,95,55,95s-1.2,2.5-4,3.2s-4.2,6-4.2,6l1,2.8l9.2-1.5
		c0,0,10.3,8,14,8.2c0,0-18.5,4.8-19.3,7.5s-1.5,6.2,1.8,9s12.5,9.8,13.3,10s7.8-2.5,10-3.5s1.8-5.2,33.5-1.5s63.7,19.2,76.5,23
		s34.8,5.2,34.8,5.2s-8,4.5-8.8,6.5s-3.2,11.8-2.5,13.5s11.8,17.8,14.8,17.8s16.2-12.8,16.8-14.8s5.2-20,6.8-20.2
		c0,0,21.8,0.2,28.3,0.5s68.8-0.8,84.2-1.8s61.8-7.8,69.2-8.2s49.8-13.2,59.8-16s23.2-6.5,26.8-9.5s3.5-4.8,2-5.2s-5.2-0.8-7,0.2
		s-21.5,9.5-37.2,9.2c0,0-4.2,3.8-6.5,4.2s-6.2,1.2-10.2,3s-12,3.2-12.2,1.8s7.2-15.2,22.5-21c0,0-10,7-12.2,9.2s-9,9.8-8,10.2
		s7-1.2,9.8-1.8s7.2-2,8.8-2.5s4.2-2,5.5-3s17.5-11.8,25.2-16S506.2,113.5,506.2,113.5z"/>
	<path fill="#FFFFFF" d="M490.5,132l-4.2-4l-9.2,6.2C477,134.3,485.5,133.3,490.5,132z"/>
	<path d="M390.2,138.5c0,0-21-3-37-1.2s-32.2,6.2-29.8,8.8s8.2,6.8,11,8.5s9.5,6,32.2,5.8c0,0-19.8-3.8-18.8-9.2
		S390.2,138.5,390.2,138.5z"/>
	<path fill="#FFFFFF" d="M361.5,101.8c0,0,2.8,2,2.8,3.5s-0.5,2.5-1.8,2.5s-4.2,0-4-1.8s1-3,1-3S359.7,101.3,361.5,101.8z"/>
	<path fill="#FFFFFF" d="M315,97.5c2.8,1.8,3.2,1.2,3.8,3.2s0.5,7.2-0.8,8s-1.8,2.8-3.5,0.8s-2.8-2-2.5-5S315,97.5,315,97.5z"/>
	<path d="M244,99.8c1,2.2,2.2,6.8,1.2,8s-1.5,3.2-3,2.8s-2.8-1-3-2.8s-2.5-1.8-0.2-4s3.2-2,3.5-3.2S244,99.8,244,99.8z"/>
	<path d="M485.7,109.3c0,0,1,0.2,0.8,1.2s-2.5,2.5-3,1.5S485.7,109.3,485.7,109.3z"/>
	<path fill="#FFFFFF" d="M197.7,78c1,0.2,1.8,2,2,3.8s0,9,0,11s0.8,7.2,1.2,9.2s4,5.8,2.8,11.5s-3,6.2-3.5,8.5s-1.5,5.5-2.5,6.5
		s-2.2,2.8-2,1.2s2-6,2-8s-1.5-0.8-1.5-0.8s0.8-2.2,1-5.2s1.5-5.2,1.5-8s-0.2-9.2-1-13s-2.2-8.2-2.8-10.5S194.5,77.3,197.7,78z"/>
	<path fill="#FFFFFF" d="M184,81c0.8,0,4,1.5,4,2.8s-0.5,3.2-0.2,6.5s0.2,8.5,1.8,10.8s3.8,9.5,3.8,12.5s1.2,6.8-0.2,9.2
		s-2.5,2.5-2.8,3.5s0.8,1.2-1.5,1.2s-3,0.8-3-1.2s-0.2-3.2,0-5.8s1.5-6.5,1.2-10.8s-2.8-10-2.8-12.5s0-8.2-0.8-10.2S182.7,81,184,81
		z"/>
	<path fill="#FFFFFF" d="M175,87c0,0,0.8,3.5,2.2,5.8S182,103,182,106s2,9,1.8,11s-2.2,2.8-2.5,4.5s0.8,3.5-1.2,4.2s-3.5,1-3.8-0.5
		s-0.8-4.8-0.8-7.5s0.5-5-0.8-7.8s-2.8-2-2.5-6s1.2-4,0.5-6s-2-4.2-1-6.2s1.5-2,2-4S175,87,175,87z"/>
	<path fill="#FFFFFF" d="M163.5,88c0.5,0.8,2.5,2.8,2.2,3.8s-1.8,1.8-2,3.2s-0.2,4-0.2,6.2s-1,9-1,11.5s0.2,3,0.2,5s3,2.8,0,2
		s-3.5-2-3.5-2s-2.2-1.2-2.5-4s0-1.5,0.8-4.8s2.2-6.2,2.2-9.2s0.8-3.5,0.8-5.8s0-2.8-0.2-4s0-2.8,1-2.8S163.5,88,163.5,88z"/>
	<path fill="#FFFFFF" d="M150,89.8c1.2,0.5,1.2,0.8,1.2,2s-0.8,3,0,5.2s1.8,6.8,1.8,10s0.8,5.2,0.8,7.5s1.8,3.5-1,3s-3.8-1.5-4-3.2
		s-0.2-1,0-3.2s-0.2-6.2,0.2-8.2s1.2-3.2,0-6s-2.5-5-2.5-6S148,88,148,88L150,89.8z"/>
	<path fill="#FFFFFF" d="M139.2,85.5c0.5,0.8,0.2,2.2,1.2,3.2s3.2,2.2,3.2,4.8s-0.2,4.2-0.2,7s1.5,5.5,1.8,8.2s2,5,0,5s-2.8,1-4-0.5
		s-2-1-2-3.2s0.5-0.8,0.5-4.2s0-3.5-0.8-5s-1.2-1-1.5-3.8s0.2-1.5,0-5s0-4.5-0.2-5.2S137,86,137,86L139.2,85.5z"/>
	<path fill="#FFFFFF" d="M129.5,91c0.2,1-0.2,1.8,1,3s3,1.8,3.2,3s0.5,3.2,0.5,5.2s0.8,3.2,1.2,5s4.2,8,4.2,9.8s1,3.5-2,2.8
		s-5.5-3.8-5.8-4.5s-1.2-1.8-1.2-4.2s0.5-2.5,0-5.2s-1-2-1.8-5s-0.5-6-0.8-7.5s-0.5-2.8-0.5-2.8L129.5,91z"/>
	<path d="M399,100.3c0,0-0.2,0.1-0.6,0.5c-0.4,0.3-1,0.8-1.5,1.6c-0.6,0.8-1.2,1.7-2,2.8c-0.7,1.1-1.5,2.3-2.6,3.4
		c-1.1,1.1-2.6,2.2-3.6,4c-0.5,0.9-0.8,2-0.7,3.1c0,1.1,0.2,2.1,0.5,3.1c0.5,2,1.2,4,1.6,6c0.2,1,0.2,1.9,0.3,3.1
		c0.1,1.1,0.2,2.2,0.4,3.3c0.4,2.2,1,4.4,2.1,6.4c1,2,2.4,3.8,4.1,5.1c1.6,1.4,3.5,2.3,5.3,3c0.5,0.1,0.9,0.3,1.4,0.4
		c0.4,0.1,0.9,0.2,1.3,0.3c0.9,0.2,1.7,0.4,2.5,0.6c3.2,0.8,5.9,1.1,7.8,1.2c0.9,0.1,1.7,0,2.2,0c0.5,0,0.8-0.1,0.8-0.1
		s-0.3,0-0.8-0.1c-0.5,0-1.2-0.1-2.2-0.3c-1.9-0.3-4.5-1-7.5-1.9c-0.8-0.3-1.6-0.5-2.4-0.8c-0.4-0.1-0.8-0.3-1.3-0.4
		c-0.4-0.2-0.8-0.3-1.2-0.5c-1.6-0.7-3.3-1.7-4.7-2.9c-1.4-1.3-2.6-2.9-3.5-4.7c-0.9-1.8-1.5-3.8-1.8-5.9c-0.2-1-0.3-2-0.4-3.1
		c-0.1-1-0.1-2.2-0.4-3.3c-0.5-2.2-1.3-4.1-1.8-6c-0.3-0.9-0.5-1.9-0.5-2.7c-0.1-0.8,0.1-1.7,0.4-2.4c0.7-1.5,2.1-2.7,3.1-3.9
		c0.3-0.3,0.5-0.7,0.8-1c0.2-0.3,0.4-0.7,0.6-1c0.4-0.7,0.7-1.3,1-1.9c0.6-1.2,1.1-2.2,1.6-3c0.5-0.8,0.9-1.4,1.3-1.7
		C398.8,100.4,399,100.3,399,100.3z"/>
	<path fill="#FFFFFF" d="M266,46c0,0-0.5-0.7-1.4-1.8c-0.9-1.1-2.1-2.8-3.7-4.7c-1.6-1.9-3.5-4.1-5.6-6.4c-2.1-2.3-4.4-4.7-6.7-7.1
		c-1.2-1.2-2.4-2.3-3.6-3.4c-1.2-1.1-2.4-2.2-3.5-3.2c-1.2-1-2.3-2-3.4-2.9c-1.1-0.9-2.1-1.8-3.1-2.5c-2-1.5-3.7-2.7-4.9-3.5
		c-1.2-0.8-1.9-1.3-1.9-1.3s0.6,0.5,1.8,1.4c0.6,0.5,1.3,1,2,1.6c0.8,0.7,1.6,1.4,2.6,2.2c1,0.8,1.9,1.7,3,2.6c1.1,0.9,2.1,2,3.3,3
		c1.2,1,2.3,2.2,3.5,3.3c1.2,1.1,2.3,2.3,3.5,3.5c2.4,2.3,4.7,4.7,6.8,7c2.1,2.3,4.1,4.4,5.8,6.2c1.7,1.8,3.1,3.4,4,4.5
		C265.4,45.4,266,46,266,46z"/>
	<path fill="#FFFFFF" d="M257.5,46.5c0,0-0.4-0.5-1.2-1.5c-0.8-0.9-1.9-2.2-3.4-3.7c-1.4-1.5-3.1-3.3-5-5.1c-1-0.9-1.9-1.8-2.9-2.8
		c-1-0.9-2-1.9-3.1-2.8c-2.1-1.8-4.2-3.6-6.3-5.2c-1-0.8-2-1.6-3-2.3c-1-0.7-1.9-1.4-2.7-2c-1.7-1.2-3.2-2.1-4.2-2.8
		c-1-0.6-1.6-1-1.6-1s0.6,0.4,1.5,1.2c0.5,0.4,1.1,0.8,1.7,1.3c0.7,0.5,1.4,1.1,2.2,1.8c1.6,1.3,3.5,2.8,5.5,4.5
		c1,0.8,2,1.7,3.1,2.6c1,0.9,2.1,1.8,3.1,2.7c2.1,1.8,4.1,3.7,6.1,5.4c1.9,1.8,3.7,3.4,5.2,4.8C255.5,44.6,257.5,46.5,257.5,46.5z"
		/>
	<path fill="#FFFFFF" d="M250.7,48.8c0,0-0.4-0.4-1.1-1.2c-0.7-0.7-1.8-1.8-3.1-3c-1.3-1.2-2.8-2.6-4.5-4.1c-1.7-1.5-3.5-3-5.4-4.5
		c-1.9-1.5-3.8-2.9-5.6-4.2c-1.8-1.3-3.6-2.5-5.1-3.4c-1.5-1-2.8-1.7-3.7-2.2c-0.9-0.5-1.4-0.8-1.4-0.8s0.5,0.3,1.3,1
		c0.4,0.3,1,0.7,1.5,1.1c0.6,0.4,1.2,0.9,2,1.4c0.7,0.5,1.5,1.1,2.3,1.7c0.8,0.6,1.7,1.3,2.6,2c0.9,0.7,1.8,1.4,2.7,2.1
		c0.9,0.7,1.9,1.5,2.8,2.2c1.9,1.5,3.7,3,5.4,4.4c1.7,1.4,3.3,2.7,4.7,3.9C248.9,47.3,250.7,48.8,250.7,48.8z"/>
	<path fill="#FFFFFF" d="M216.2,34c0,0,1.7,1,4.3,2.5c1.3,0.7,2.8,1.7,4.3,2.6c1.6,1,3.2,2,4.9,3.1c0.8,0.5,1.7,1.1,2.5,1.6
		c0.8,0.6,1.6,1.1,2.3,1.6c0.7,0.5,1.5,1,2.2,1.5c0.7,0.5,1.3,1,1.9,1.4c0.6,0.5,1.1,0.9,1.6,1.2c0.5,0.4,0.9,0.7,1.2,1
		c0.7,0.5,1.1,0.9,1.1,0.9s-0.3-0.4-0.9-1c-0.6-0.6-1.5-1.5-2.6-2.5c-0.5-0.5-1.2-1-1.8-1.6c-0.6-0.6-1.4-1.1-2.1-1.7
		c-0.7-0.6-1.5-1.1-2.3-1.7c-0.8-0.6-1.6-1.1-2.5-1.7c-1.7-1.1-3.4-2.1-5-3c-1.6-0.9-3.2-1.7-4.5-2.4c-1.3-0.7-2.5-1.1-3.3-1.5
		C216.7,34.2,216.2,34,216.2,34z"/>
	<path fill="#FFFFFF" d="M235.5,54.8c0,0-0.3-0.3-0.8-0.8c-0.5-0.5-1.2-1.3-2.1-2.1c-0.9-0.8-2-1.8-3.2-2.7c-1.2-1-2.6-1.9-3.9-2.8
		c-0.7-0.4-1.4-0.9-2.1-1.3c-0.7-0.4-1.4-0.8-2.1-1.1c-0.7-0.3-1.4-0.7-2-1c-0.7-0.3-1.3-0.6-1.8-0.8c-1.2-0.4-2.1-0.7-2.8-0.9
		c-0.7-0.2-1.1-0.3-1.1-0.3s0.4,0.2,1,0.4c0.3,0.1,0.7,0.3,1.2,0.5c0.4,0.2,0.9,0.5,1.5,0.7c0.6,0.3,1.1,0.6,1.7,0.9
		c0.6,0.3,1.2,0.7,1.9,1.1c0.7,0.4,1.3,0.8,2,1.2c0.7,0.4,1.4,0.9,2,1.3c0.7,0.5,1.3,0.9,2,1.3c0.6,0.5,1.3,0.9,1.9,1.3
		c1.2,0.9,2.4,1.7,3.4,2.5c1,0.7,1.8,1.4,2.4,1.8C235.2,54.5,235.5,54.8,235.5,54.8z"/>
	<path fill="#FFFFFF" d="M228,58.3c0,0-0.2-0.2-0.7-0.6c-0.4-0.4-1-0.9-1.8-1.5c-1.5-1.2-3.6-2.7-5.8-4.1c-0.6-0.3-1.1-0.7-1.7-1
		c-0.5-0.3-1.1-0.6-1.7-0.9c-1.1-0.5-2.1-1-3-1.3c-0.5-0.2-0.9-0.3-1.3-0.4c-0.4-0.1-0.7-0.2-1-0.3c-0.6-0.1-0.9-0.2-0.9-0.2
		s0.3,0.1,0.8,0.4c0.3,0.1,0.6,0.2,0.9,0.4c0.3,0.2,0.7,0.4,1.2,0.6c0.8,0.4,1.8,1,2.9,1.6c1,0.6,2.1,1.2,3.2,1.9
		c1.1,0.7,2.2,1.3,3.2,2c1,0.6,2,1.2,2.8,1.7C226.9,57.6,228,58.3,228,58.3z"/>
	<path fill="#FFFFFF" d="M218.5,61.5c0,0-0.5-0.7-1.4-1.6c-0.9-0.9-2.2-2.1-3.6-3c-0.3-0.2-0.7-0.5-1.1-0.7
		c-0.3-0.2-0.7-0.4-1.1-0.6c-0.3-0.2-0.7-0.4-1-0.5c-0.3-0.2-0.6-0.3-0.9-0.4c-0.6-0.3-1.1-0.4-1.4-0.6c-0.4-0.1-0.6-0.2-0.6-0.2
		s0.2,0.1,0.5,0.4c0.3,0.2,0.7,0.5,1.2,0.9c0.5,0.4,1.1,0.8,1.8,1.2c0.6,0.5,1.3,0.9,2,1.4c1.4,1,2.7,1.9,3.8,2.7
		C217.8,61,218.5,61.5,218.5,61.5z"/>
	<path d="M242.7,169.3c0,0-0.6,1.7-1.5,4.3c-0.5,1.3-1.1,2.8-1.7,4.3c-0.7,1.6-1.4,3.2-2.2,4.9c-0.4,0.8-0.8,1.6-1.2,2.4
		c-0.4,0.8-0.8,1.6-1.2,2.3c-0.4,0.8-0.8,1.5-1.2,2.2c-0.4,0.7-0.7,1.3-1.1,1.9c-0.4,0.6-0.7,1.1-1,1.6c-0.3,0.5-0.6,0.9-0.8,1.2
		c-0.4,0.7-0.7,1.1-0.7,1.1s0.3-0.3,0.8-0.9c0.5-0.6,1.3-1.5,2.1-2.6c0.4-0.6,0.8-1.2,1.3-1.8c0.4-0.7,0.9-1.4,1.3-2.1
		c0.9-1.5,1.7-3.1,2.5-4.8c0.4-0.8,0.8-1.7,1.1-2.5c0.4-0.8,0.7-1.7,1-2.5c0.6-1.6,1.1-3.2,1.4-4.5c0.4-1.3,0.6-2.5,0.8-3.2
		C242.7,169.7,242.7,169.3,242.7,169.3z"/>
	<path d="M238.7,171c0,0-0.1,0.5-0.4,1.2c-0.1,0.4-0.3,0.9-0.5,1.4c-0.2,0.5-0.5,1.1-0.7,1.8c-0.3,0.6-0.6,1.3-0.9,2.1
		c-0.3,0.7-0.7,1.5-1.1,2.3c-0.4,0.8-0.8,1.6-1.3,2.4c-0.4,0.8-0.9,1.6-1.4,2.4c-0.5,0.8-1,1.6-1.5,2.3c-0.5,0.8-1,1.5-1.5,2.2
		c-0.5,0.7-1,1.4-1.5,2c-0.5,0.6-1,1.2-1.4,1.8c-0.8,1.1-1.6,2-2.1,2.6c-0.5,0.6-0.8,1-0.8,1s0.3-0.3,0.9-0.9
		c0.6-0.6,1.5-1.4,2.4-2.4c1-1,2-2.3,3.1-3.7c0.5-0.7,1.1-1.4,1.6-2.2c0.5-0.8,1-1.6,1.5-2.4c0.5-0.8,0.9-1.6,1.4-2.4
		c0.4-0.8,0.9-1.6,1.2-2.4c0.4-0.8,0.7-1.6,1-2.4c0.3-0.7,0.5-1.5,0.8-2.1c0.4-1.3,0.7-2.5,0.9-3.3C238.7,171.5,238.7,171,238.7,171
		z"/>
	<path d="M235.5,170.5c0,0-0.2,0.4-0.6,1c-0.4,0.6-1,1.5-1.7,2.6c-0.7,1.1-1.5,2.3-2.4,3.6c-0.9,1.3-1.8,2.7-2.8,4.1
		c-0.9,1.4-1.9,2.8-2.8,4.1c-0.5,0.6-0.9,1.3-1.3,1.8c-0.4,0.6-0.8,1.1-1.2,1.6c-0.4,0.5-0.8,0.9-1.1,1.3c-0.3,0.4-0.6,0.7-0.8,1
		c-0.5,0.6-0.7,0.9-0.7,0.9s0.3-0.3,0.9-0.8c0.6-0.5,1.3-1.2,2.2-2.1c0.9-0.9,1.8-2,2.8-3.3c1-1.3,2-2.6,2.9-4
		c0.9-1.4,1.9-2.8,2.7-4.2c0.8-1.4,1.5-2.7,2.1-3.8C234.8,172.1,235.5,170.5,235.5,170.5z"/>
	<path d="M229,170c0,0-0.2,0.3-0.5,0.8c-0.3,0.5-0.8,1.2-1.3,2c-0.6,0.8-1.2,1.8-2,2.8c-0.8,1-1.6,2-2.4,3.1c-0.4,0.5-0.8,1-1.3,1.5
		c-0.4,0.5-0.8,1-1.3,1.5c-0.4,0.5-0.8,0.9-1.2,1.4c-0.4,0.4-0.8,0.8-1.1,1.2c-0.7,0.8-1.2,1.4-1.6,1.8c-0.4,0.4-0.6,0.7-0.6,0.7
		s0.3-0.2,0.7-0.6c0.5-0.4,1.2-0.9,1.9-1.5c1.5-1.3,3.5-3.2,5.2-5.3c0.9-1.1,1.7-2.1,2.4-3.2c0.7-1.1,1.3-2.1,1.8-3
		c0.5-0.9,0.8-1.7,1-2.2C228.9,170.3,229,170,229,170z"/>
	<path d="M223.2,168c0,0-0.6,0.9-1.5,2.3c-0.5,0.7-1,1.4-1.6,2.3c-0.6,0.8-1.2,1.7-1.9,2.5c-0.6,0.9-1.3,1.7-2,2.5
		c-0.7,0.8-1.2,1.5-1.8,2.1c-0.5,0.6-1,1.1-1.3,1.5c-0.3,0.4-0.5,0.6-0.5,0.6s0.2-0.2,0.6-0.4c0.4-0.3,0.9-0.7,1.6-1.2
		c0.6-0.5,1.3-1.2,2-1.9c0.7-0.7,1.4-1.6,2.1-2.4c0.7-0.9,1.3-1.8,1.8-2.7c0.5-0.9,1-1.7,1.4-2.5c0.4-0.7,0.6-1.4,0.8-1.8
		C223.2,168.3,223.2,168,223.2,168z"/>
	<path fill="#FFFFFF" d="M171,156.8c0,0-0.3,0.3-0.7,0.9c-0.5,0.6-1.2,1.4-2,2.4c-0.9,1-1.9,2.1-3,3.2c-0.6,0.6-1.2,1.2-1.8,1.8
		c-0.6,0.6-1.2,1.2-1.8,1.8c-1.2,1.2-2.5,2.3-3.7,3.4c-0.6,0.5-1.2,1.1-1.7,1.6c-0.6,0.5-1.1,0.9-1.6,1.4c-1,0.8-1.8,1.5-2.4,2
		c-0.6,0.5-0.9,0.8-0.9,0.8s0.4-0.2,1-0.6c0.6-0.4,1.6-1,2.6-1.8c1.1-0.8,2.3-1.7,3.6-2.7c1.3-1,2.6-2.2,3.8-3.4
		c1.3-1.2,2.5-2.5,3.6-3.7c1.1-1.2,2-2.4,2.8-3.5c0.8-1,1.4-2,1.8-2.6C170.8,157.2,171,156.8,171,156.8z"/>
	<path fill="#FFFFFF" d="M166,154.5c0,0-1.1,1.3-2.8,3.3c-0.4,0.5-0.9,1-1.4,1.5c-0.5,0.5-1,1.1-1.6,1.7c-1.1,1.2-2.3,2.4-3.6,3.6
		c-0.6,0.6-1.2,1.2-1.9,1.7c-0.6,0.6-1.2,1.1-1.9,1.6c-0.6,0.5-1.2,1-1.8,1.5c-0.6,0.5-1.1,0.9-1.6,1.3c-0.5,0.4-1,0.7-1.4,1.1
		c-0.4,0.3-0.8,0.6-1.1,0.8c-0.6,0.4-1,0.7-1,0.7s0.4-0.2,1.1-0.5c0.3-0.2,0.7-0.4,1.2-0.6c0.5-0.3,1-0.6,1.5-0.9
		c0.6-0.3,1.1-0.7,1.8-1.2c0.6-0.4,1.3-0.9,1.9-1.4c0.6-0.5,1.3-1,1.9-1.6c0.7-0.6,1.3-1.1,1.9-1.7c0.6-0.6,1.2-1.2,1.8-1.8
		c0.6-0.6,1.1-1.3,1.7-1.9c1.1-1.2,2-2.4,2.8-3.5c0.8-1,1.4-2,1.8-2.6C165.8,154.9,166,154.5,166,154.5z"/>
	<path fill="#FFFFFF" d="M160,152.8c0,0-1.1,1.2-2.8,3c-0.8,0.9-1.8,2-2.9,3.1c-1.1,1.1-2.2,2.3-3.3,3.5c-0.6,0.6-1.2,1.1-1.7,1.7
		c-0.6,0.5-1.1,1.1-1.7,1.6c-0.6,0.5-1.1,1-1.6,1.5c-0.5,0.5-1,0.9-1.5,1.3c-0.5,0.4-0.9,0.7-1.3,1.1c-0.4,0.3-0.7,0.6-1,0.8
		c-0.6,0.4-0.9,0.7-0.9,0.7s0.4-0.2,1-0.5c0.3-0.2,0.7-0.4,1.1-0.6c0.4-0.3,0.9-0.6,1.4-0.9c1-0.7,2.2-1.6,3.4-2.6
		c1.2-1,2.4-2.1,3.6-3.3c1.1-1.2,2.3-2.4,3.3-3.6c1-1.2,1.9-2.3,2.6-3.3c0.8-1,1.3-1.8,1.7-2.4C159.8,153.1,160,152.8,160,152.8z"/>
	<path fill="#FFFFFF" d="M155,151.5c0,0-0.3,0.3-0.8,0.7c-0.5,0.5-1.2,1.1-2.1,1.9c-1.7,1.6-4,3.6-6.3,5.6c-1.2,1-2.3,2-3.5,2.9
		c-1.1,0.9-2.2,1.8-3.1,2.5c-0.9,0.7-1.7,1.3-2.2,1.7c-0.5,0.4-0.8,0.7-0.8,0.7s0.3-0.2,0.9-0.5c0.6-0.3,1.4-0.8,2.4-1.4
		c0.5-0.3,1-0.6,1.6-1c0.5-0.4,1.1-0.8,1.7-1.2c0.6-0.4,1.2-0.9,1.8-1.4c0.6-0.5,1.2-1,1.8-1.5c1.2-1,2.3-2.1,3.4-3.1
		c1-1,2-2,2.7-2.9c0.8-0.9,1.4-1.6,1.8-2.2C154.8,151.8,155,151.5,155,151.5z"/>
	<path fill="#FFFFFF" d="M148.2,150c0,0-0.3,0.2-0.8,0.6c-0.5,0.4-1.2,0.9-2,1.5c-1.6,1.3-3.8,3-5.9,4.7c-4.3,3.5-8.5,7-8.5,7
		s1.2-0.6,3-1.7c1.8-1.1,4-2.7,6.2-4.5c2.1-1.7,4.2-3.6,5.7-5.1c0.7-0.7,1.3-1.4,1.8-1.8C148,150.3,148.2,150,148.2,150z"/>
	<path fill="#FFFFFF" d="M140.2,148c0,0-0.9,0.8-2.2,1.9c-1.3,1.1-3.1,2.6-5,4c-0.9,0.7-1.8,1.4-2.7,2.1c-0.9,0.7-1.7,1.3-2.4,1.8
		c-0.7,0.5-1.3,1-1.7,1.3c-0.4,0.3-0.6,0.5-0.6,0.5s0.3-0.1,0.7-0.3c0.5-0.2,1.1-0.5,1.9-1c1.5-0.8,3.5-2.1,5.4-3.5
		c0.9-0.7,1.8-1.5,2.6-2.2c0.8-0.7,1.5-1.5,2.1-2.1c0.6-0.7,1-1.2,1.3-1.6C140.1,148.3,140.2,148,140.2,148z"/>
	<path fill="#FFFFFF" d="M131.7,145.3c0,0-0.6,0.7-1.6,1.6c-1,1-2.3,2.2-3.7,3.3c-0.7,0.6-1.4,1.1-2.1,1.7c-0.7,0.5-1.3,1-1.8,1.4
		c-0.5,0.4-1,0.8-1.3,1c-0.3,0.3-0.5,0.4-0.5,0.4s0.2-0.1,0.6-0.2c0.4-0.2,0.9-0.4,1.5-0.7c0.6-0.3,1.3-0.7,2.1-1.2
		c0.7-0.5,1.5-1,2.2-1.6c0.7-0.6,1.4-1.2,2-1.9c0.6-0.6,1.1-1.3,1.5-1.8C131.4,146.1,131.7,145.3,131.7,145.3z"/>
	<path fill="#FFFFFF" d="M125,143c0,0-0.7,0.4-1.6,1.1c-0.9,0.7-2.1,1.7-3.2,2.7c-1.1,1-2.1,2.1-2.9,3c-0.7,0.9-1.2,1.5-1.2,1.5
		s0.7-0.4,1.6-1.1c0.9-0.7,2.1-1.7,3.2-2.7c1.1-1,2.1-2.1,2.9-3C124.5,143.7,125,143,125,143z"/>
	<path fill="#FFFFFF" d="M118,140.8c0,0-0.5,0.2-1.2,0.6c-0.7,0.4-1.5,1-2.3,1.7c-0.8,0.7-1.5,1.4-2,2.1c-0.5,0.6-0.8,1.1-0.8,1.1
		s0.5-0.2,1.2-0.6c0.7-0.4,1.5-1,2.3-1.7c0.8-0.7,1.5-1.4,2-2.1C117.7,141.2,118,140.8,118,140.8z"/>
	<path fill="#FFFFFF" d="M58.2,84.8c0,0-2.6-2.8-6.7-6.6c-1.1-0.9-2.2-2-3.4-3c-1.2-1.1-2.5-2.2-3.9-3.2c-1.4-1.1-2.8-2.2-4.3-3.3
		c-1.5-1.1-3-2.2-4.6-3.3c-1.6-1-3.1-2.1-4.7-3c-1.6-0.9-3.1-1.9-4.7-2.8c-1.6-0.8-3-1.7-4.5-2.3c-1.5-0.7-2.8-1.4-4.2-1.9
		c-1.3-0.5-2.5-1-3.6-1.4c-1.1-0.4-2-0.7-2.8-0.9c-1.6-0.5-2.5-0.7-2.5-0.7s0.9,0.3,2.4,0.9c0.8,0.3,1.7,0.6,2.8,1.1
		c1,0.5,2.2,1,3.5,1.6c1.3,0.6,2.6,1.3,4.1,2c0.7,0.4,1.4,0.8,2.2,1.2c0.7,0.4,1.5,0.8,2.3,1.3c1.5,0.8,3.1,1.8,4.6,2.8
		c1.6,1,3.1,2,4.7,3.1c1.5,1.1,3.1,2.1,4.6,3.2c1.5,1.1,3,2.2,4.3,3.2c1.4,1.1,2.7,2.1,4,3.1c1.3,1,2.4,2,3.5,2.9
		c2.2,1.8,4,3.3,5.2,4.4C57.5,84.1,58.2,84.8,58.2,84.8z"/>
	<path fill="#FFFFFF" d="M54.7,86.8c0,0-0.6-0.6-1.6-1.5c-1-0.9-2.5-2.2-4.3-3.7c-1.8-1.5-4-3.2-6.4-5c-2.4-1.7-5-3.5-7.6-5.3
		c-1.3-0.8-2.7-1.7-4-2.5c-1.3-0.8-2.7-1.6-4-2.3c-1.3-0.7-2.6-1.4-3.8-2c-1.2-0.6-2.4-1.2-3.5-1.7c-1.1-0.5-2.1-0.9-3-1.3
		c-0.9-0.4-1.7-0.6-2.3-0.9c-1.3-0.5-2-0.7-2-0.7s0.7,0.3,2,0.9c0.6,0.3,1.4,0.6,2.3,1.1c0.9,0.4,1.8,0.9,2.9,1.5
		c1.1,0.5,2.2,1.2,3.4,1.8c1.2,0.6,2.4,1.4,3.7,2.1c1.3,0.7,2.6,1.5,3.9,2.3c1.3,0.8,2.6,1.7,4,2.5c2.7,1.7,5.3,3.4,7.7,5.1
		c2.4,1.7,4.7,3.3,6.5,4.7c1.9,1.4,3.5,2.6,4.6,3.4C54.1,86.3,54.7,86.8,54.7,86.8z"/>
	<path fill="#FFFFFF" d="M51.5,91.8c0,0-0.4-0.4-1.2-1c-0.8-0.6-1.9-1.5-3.3-2.4c-1.4-1-3-2.1-4.7-3.3c-1.8-1.2-3.7-2.4-5.6-3.5
		c-1.9-1.1-3.9-2.3-5.8-3.2c-0.9-0.5-1.8-1-2.7-1.3c-0.9-0.4-1.7-0.8-2.5-1.1c-0.8-0.3-1.5-0.6-2.2-0.8c-0.7-0.2-1.2-0.4-1.7-0.5
		c-1-0.2-1.5-0.3-1.5-0.3s0.5,0.2,1.5,0.5c0.5,0.1,1,0.4,1.6,0.7c0.6,0.2,1.3,0.6,2.1,1c0.8,0.3,1.6,0.8,2.4,1.2
		c0.9,0.4,1.7,1,2.6,1.5c0.9,0.5,1.8,1.1,2.8,1.6c0.9,0.6,1.9,1.1,2.9,1.7C43.8,87.1,51.5,91.8,51.5,91.8z"/>
	<path fill="#FFFFFF" d="M48,96.3c0,0-0.3-0.3-0.8-0.7c-0.6-0.4-1.3-1.1-2.3-1.8c-1-0.7-2.1-1.5-3.4-2.4c-1.3-0.8-2.7-1.6-4.1-2.4
		c-0.7-0.4-1.5-0.7-2.2-1.1c-0.7-0.3-1.4-0.7-2.2-0.9c-0.7-0.3-1.4-0.6-2.1-0.8c-0.7-0.2-1.3-0.4-1.9-0.6c-1.2-0.3-2.2-0.5-2.9-0.7
		c-0.7-0.1-1.1-0.2-1.1-0.2s0.4,0.1,1.1,0.4c0.3,0.1,0.7,0.2,1.2,0.4c0.5,0.2,1,0.4,1.5,0.6c0.6,0.2,1.2,0.5,1.8,0.7
		c0.6,0.3,1.3,0.6,2,0.9c0.7,0.3,1.4,0.7,2.1,1c0.7,0.3,1.4,0.7,2.1,1.1c1.4,0.7,2.8,1.5,4.1,2.3c1.3,0.7,2.5,1.4,3.6,2.1
		C46.6,95.4,48,96.3,48,96.3z"/>
	<path fill="#FFFFFF" d="M44.7,100.8c0,0-0.2-0.2-0.6-0.4c-0.4-0.2-1-0.6-1.7-1c-1.4-0.8-3.4-1.7-5.4-2.5c-2-0.8-4.1-1.5-5.7-1.8
		c-0.8-0.2-1.5-0.3-2-0.3c-0.5,0-0.8,0-0.8,0s0.3,0.1,0.7,0.2c0.2,0.1,0.5,0.2,0.8,0.3c0.3,0.1,0.7,0.3,1,0.4
		c1.5,0.6,3.5,1.4,5.5,2.2c2,0.8,4,1.6,5.6,2.1c0.8,0.3,1.4,0.5,1.9,0.6C44.5,100.7,44.7,100.8,44.7,100.8z"/>
	<path fill="#FFFFFF" d="M45,106.5c0,0-0.2-0.1-0.7-0.3c-0.4-0.2-1-0.5-1.8-0.7c-1.5-0.6-3.5-1.2-5.5-1.8c-2-0.5-4.1-0.9-5.7-1
		c-0.8-0.1-1.5,0-1.9,0c-0.5,0.1-0.7,0.1-0.7,0.1s0.3,0,0.7,0.1c0.2,0,0.5,0.1,0.8,0.2c0.3,0.1,0.7,0.2,1,0.2
		c0.8,0.2,1.6,0.4,2.6,0.7c0.9,0.2,1.9,0.5,3,0.8c2,0.5,4,1,5.6,1.3c0.8,0.2,1.4,0.3,1.9,0.4C44.7,106.5,45,106.5,45,106.5z"/>
	<path fill="#FFFFFF" d="M46.7,114c0,0-0.3-0.1-0.8-0.3c-0.5-0.2-1.2-0.4-2.1-0.7c-1.7-0.6-4.1-1.2-6.5-1.7
		c-1.2-0.2-2.4-0.4-3.5-0.6c-1.1-0.2-2.2-0.3-3.1-0.3c-0.9,0-1.7,0-2.2,0c-0.5,0-0.8,0.1-0.8,0.1s0.3,0.1,0.8,0.1
		c0.5,0.1,1.3,0.2,2.2,0.4c1.8,0.3,4.1,0.8,6.5,1.3c1.2,0.2,2.4,0.5,3.5,0.7c1.1,0.2,2.2,0.4,3,0.6c0.9,0.1,1.6,0.3,2.2,0.4
		C46.4,114,46.7,114,46.7,114z"/>
	<path fill="#FFFFFF" d="M46.7,119.5c0,0-0.4,0-1,0c-0.7,0-1.6,0-2.8,0.1c-2.3,0.1-5.3,0.4-8.3,0.8c-3,0.5-6,1.2-8.1,1.9
		c-0.5,0.2-1,0.4-1.5,0.5c-0.4,0.2-0.8,0.3-1.1,0.5c-0.6,0.3-0.9,0.5-0.9,0.5s0.4-0.1,1-0.3c0.3-0.1,0.7-0.2,1.2-0.3
		c0.5-0.1,0.9-0.2,1.5-0.3c1.1-0.2,2.4-0.5,3.8-0.7c1.4-0.2,2.9-0.5,4.4-0.7c3-0.5,6-0.9,8.2-1.2C45.2,119.8,46.7,119.5,46.7,119.5z
		"/>
	<path fill="#FFFFFF" d="M47.2,126c0,0-0.4,0.1-1.2,0.3c-0.7,0.2-1.8,0.5-3.1,0.9c-1.3,0.4-2.7,0.9-4.3,1.5c-1.6,0.6-3.2,1.3-4.8,2
		c-1.6,0.7-3.2,1.5-4.7,2.3c-1.5,0.8-2.8,1.6-3.9,2.3c-1.1,0.7-2,1.4-2.6,1.8c-0.6,0.5-1,0.7-1,0.7s0.4-0.2,1.1-0.6
		c0.3-0.2,0.7-0.4,1.2-0.7c0.5-0.2,1-0.5,1.6-0.8c0.6-0.3,1.2-0.6,1.9-1c0.7-0.3,1.4-0.7,2.1-1c0.7-0.3,1.5-0.7,2.3-1.1
		c0.8-0.4,1.6-0.7,2.4-1.1c1.6-0.7,3.2-1.4,4.7-2.1c1.5-0.6,2.9-1.3,4.1-1.8C45.6,126.7,47.2,126,47.2,126z"/>
	<path fill="#FFFFFF" d="M49,134c0,0-0.5,0.2-1.3,0.5c-0.8,0.3-2,0.8-3.4,1.5c-1.4,0.6-3,1.4-4.7,2.3c-1.7,0.9-3.5,1.9-5.2,2.9
		c-1.7,1.1-3.4,2.2-5,3.3c-0.8,0.5-1.5,1.1-2.2,1.6c-0.7,0.5-1.4,1-1.9,1.5c-1.2,1-2.1,1.8-2.8,2.4c-0.6,0.6-1,1-1,1
		s0.4-0.3,1.1-0.8c0.4-0.3,0.8-0.6,1.3-0.9c0.5-0.3,1.1-0.7,1.7-1.2c0.6-0.5,1.3-0.9,2-1.4c0.7-0.5,1.5-1,2.3-1.5
		c0.8-0.5,1.6-1,2.5-1.6c0.8-0.5,1.7-1,2.6-1.6c1.7-1.1,3.5-2.1,5.1-3c1.6-0.9,3.2-1.8,4.5-2.6C47.2,135,49,134,49,134z"/>
	<path fill="#FFFFFF" d="M54.5,138.3c0,0-0.6,0.4-1.8,1.1c-1.1,0.7-2.7,1.7-4.6,2.9c-1.9,1.3-4.1,2.7-6.4,4.3
		c-2.3,1.6-4.8,3.4-7.2,5.1c-2.4,1.8-4.8,3.6-7,5.3c-2.2,1.7-4.2,3.4-6,4.9c-0.9,0.7-1.6,1.4-2.3,2c-0.7,0.6-1.3,1.2-1.7,1.6
		c-0.9,0.9-1.5,1.4-1.5,1.4s0.6-0.5,1.6-1.3c0.5-0.4,1.1-0.9,1.9-1.5c0.7-0.6,1.5-1.2,2.4-1.9c1.8-1.4,3.9-2.9,6.1-4.6
		c2.2-1.7,4.7-3.5,7.1-5.2c2.4-1.8,4.8-3.6,7.1-5.2c2.3-1.7,4.4-3.2,6.2-4.5c1.8-1.3,3.3-2.5,4.4-3.2
		C53.9,138.7,54.5,138.3,54.5,138.3z"/>
	<g>
		<ellipse cx="459.4" cy="115.5" rx="10.2" ry="7.1"/>
		<path fill="#FFFFFF" d="M452.2,114.7c0,4.1,3.1,7.5,7,7.5c3.8,0,7-3.4,7-7.5s-3.1-7.5-7-7.5C455.3,107.2,452.2,110.6,452.2,114.7z
			"/>
		<path d="M451.6,114.7c0-4.6,3.4-8.3,7.6-8.3c4.2,0,7.6,3.7,7.6,8.3s-3.4,8.3-7.6,8.3C455,123,451.6,119.3,451.6,114.7z
			 M452.2,114.7c0,4.1,3.1,7.5,7,7.5c3.8,0,7-3.4,7-7.5s-3.1-7.5-7-7.5C455.3,107.2,452.2,110.6,452.2,114.7z"/>
		<path d="M457.4,112.7c1,0,1.8-1,1.8-2.2c0,0,0,0,0-0.1c0,0,0,0,0,0c1.9,0,3.4,1.9,3.4,4.2c0,2.3-1.5,4.2-3.4,4.2
			c-1.9,0-3.4-1.9-3.4-4.2c0-0.9,0.2-1.7,0.6-2.4C456.7,112.6,457.1,112.7,457.4,112.7z"/>
	</g>
</g>
</svg>
