<?xml version="1.0" encoding="utf-8"?>
<!-- Generator: Adobe Illustrator 18.1.1, SVG Export Plug-In . SVG Version: 6.00 Build 0)  -->
<svg version="1.1" id="pink_salmon" xmlns="http://www.w3.org/2000/svg" xmlns:xlink="http://www.w3.org/1999/xlink" x="0px"
	 y="0px" viewBox="0 0 550 157.2" enable-background="new 0 0 550 157.2" xml:space="preserve">
<g>
	<path d="M529.5,97c0,0-0.3-1.8,0.8-2.7c1.2-0.8,9.5-9.7,11.5-10.5s3.7-2,3.7-2.8s1.7-1.8,1.8-2.7c0.2-0.8,1.5-3.2-2.5-5.5
		s-11.7-6-17.8-8.5c-6.2-2.5-23.7-6-30.7-8.7s-20.7-7.2-26.7-9.5s-16.2-5.7-20-7.5c-3.8-1.8-20.3-10.3-32-14.5
		c-11.7-4.2-29.5-8-45.2-9c-15.7-1-40.3-2.3-49.8-2.3s-18.5-0.5-20.2-0.8c-1.7-0.3-29.2-3.8-38.2-3.8s-31.5,2.7-39.3,6.3
		c0,0,4.8,0.3,8.2,1.5c0,0-9,2.7-12.7,6.2c0,0,5.3,1,5.3,1.5c0,0-10.2,1.8-12,2.7c0,0,2,0.3,2.8,1.8c0,0-9.2,2.3-11.8,4.5
		c0,0,4.7-0.8,7.2-0.5c0,0-6.5,3-9.2,3.8c-2.7,0.8-11,1.8-16.7,1.8c-5.7,0-17,1.2-23.5,2S149.2,42,145.8,42c-3.3,0-7.5,0.3-9.8-0.2
		c-2.3-0.5-6-2.2-8.7-2.2c-2.7,0-4.7,0.8-4.7,0.8s-0.3,1.7-1,2.5c-0.7,0.8-5.2,5.7-3.5,7.8c0,0,2.7,0.8,3.3,1.7l-32.7,1
		c0,0-1.3-2.3-3.8-3.8S68,37.3,61.5,30.5S34.5,0.7,25.3,0c0,0,8.7,9.8,7.3,23.2c-1.3,13.3-7.2,24.3-7.8,33.3
		c-0.7,9,5.7,20.8,5.7,20.8s-8.8,11.8-9.7,17c-0.8,5.2,0.2,8.5-1.7,11.7c-1.8,3.2-14.5,23.8-19.2,27.8c0,0,1.5,3.2,7.3,3.2
		c5.8,0,29.5-4,51.3-20.2s26.3-23,26.3-23s29.2,2.7,41.8,11c0,0,1.2,2.8,4.5,5.2l-3.5-0.8c0,0,1.7,2.2,3,3.2c1.3,1,3,2.2,2.8,2.8
		c-0.2,0.7-0.8,0.5-2.5-0.7c0,0,1.5,4.5,3.7,6c2.2,1.5,2.2,1.5,2.2,1.5l-0.7,0.3c0,0,6.2,4.3,1.2,3.7c0,0-0.2,2.7,8.5,7.2
		c0,0-2.5-0.2-5.5-0.3c0,0,5.5,4.8,13.7,5.5c8.2,0.7,15.8,0.3,20.5-0.2c4.7-0.5,7.8-0.3,10.7,0.2c2.8,0.5,31.2,5.2,33,5.8
		c1.8,0.7,16.8,3.5,29.3,5c12.5,1.5,20.5,3.7,23.3,4.2c2.8,0.5,16.8,3.8,35.8,3.8s91.5-0.5,124-6.8c32.5-6.3,78.7-25.5,81.8-27.3
		s15.8-7.2,18.5-8.3c2.7-1.2,11.2-9.5,12.5-10.7s6.8-7.7,6.3-8.2s-7.8-0.3-9.8-0.2C538.2,95.8,529.5,97,529.5,97z"/>
	<path fill="#FFFFFF" d="M520.2,92.8c0,0-14.2,5-15.5,6.5s-3.2,6.7-2.2,7.2s8.8,2.2,12,1.2c3.2-1,12.7-9.3,12.7-9.3
		s10.3,1.2,14.7,0.2s5.2-1.2,5.2-1.2s-2.3,2.3-2.8,3.8s-11,10.7-12.7,11.5c-1.7,0.8-30.5,9.2-40.5,13.8c-10,4.7-35.5,18-56.3,21.8
		c-20.8,3.8-61,5-79.7,5.8c-18.7,0.8-55.3,2-64.7,1s-23.8-6.3-32.2-7.7c-8.3-1.3-17.2-2.5-17.2-3.5s1-1.8,14.3-3.7
		c0,0-8.7-0.5-19.2,0.3c-10.5,0.8-19.2,1.2-18.5,2.3c0,0-20.8-3.5-29.3-5.5S160,128,140,115.7c0,0,2.8,3.5,4.7,4.5l-4.3-1.7
		c0,0,1,2.2,1.8,2.5c0.8,0.3,1.8,2.5,5.3,3.3c3.5,0.8,15.7,7.5,15.7,7.5s-18.8-5.2-20-6c0,0,9.2,4.5,17.5,7.2
		c8.3,2.7,10.5,3.8,10.5,3.8s-11.7,1-15.2,0.7s-9.2-1.8-12.7-3.8l4.2-0.5c0,0-5.8-3.7-8.5-6.3c0,0,2.2-0.8,1.5-1.7
		c-0.7-0.8-2.5-2.5-2.5-2.5l2,0.7c0,0-5.3-3.5-7-7.2c0,0,5.2,0.2-2.7-5.5h2.5c0,0-2-1.8-3.5-4.2c-1.5-2.3-2.5-2.8-4.5-4
		s-13.5-6.8-22.8-8s-28.2-4-33.8-6.2c-5.7-2.2-13.5-7.3-14.2-10c-0.7-2.7-0.3-7.7-0.2-9.7c0,0,4.3-8,8.8-10.2s3.3-2.2,5.3-2.2
		s11.5,2.2,15.5,2.3s18-1.8,23.3-2c5.3-0.2,16-2.2,22.3-3.2c6.3-1,43.7-9.7,52.8-9.5s52.5-0.5,76.7-2c24.2-1.5,63.3-3.8,74.7-3.3
		c11.3,0.5,45.3,1,74,5.2c0,0-1.7-3.5-3.7-4.5s-5.5-2.3-7.2-2.7c-1.7-0.3-3.5-2.3-3.8-2.8c-0.3-0.5-0.3-1.7-0.3-1.7
		s13.2,1.7,18.3,4.2c5.2,2.5,20.8,10.5,26.2,13.7c5.3,3.2,12,6.7,12.5,7s11.2,2.7,10.2,7c0,0,2.3-0.5,4.3-0.8s4-1.7,5-1.7
		s11,3.2,10.5,5.2c0,0-0.2,0.5,1.7,0c1.8-0.5,3-1.7,3.8-1.7s12,2.7,14.3,3.8c2.3,1.2,7.2,2.7,8,5c0.8,2.3,2,8,1.8,10
		c-0.2,2-1.8,4-1.8,4s2.7,2.5,4.8,2.7c2.2,0.2,5.8,1.3,9.5,0c3.7-1.3,9.8-8.7,11.5-10c1.7-1.3,5.8-2,6-0.7c0.2,1.3-0.5,4.8-2.2,6.7
		c-1.7,1.8-10.8,10.7-14,13.7c-3.2,3-7.2,5.8-11.2,6.2c-4,0.3-8.7,0-8.7-1s2-5,2.8-5.7S520.2,92.8,520.2,92.8z"/>
	<path fill="#FFFFFF" d="M536.7,70.5c0,0-11.2-3.7-13.7-4s-14.8-0.2-17.2-1S471.3,48,471.3,48s25.8,9.2,28.2,9.8
		c2.3,0.7,24.5,6.2,26.7,7.3C528.3,66.3,536.7,70.5,536.7,70.5z"/>
	<path fill="#FFFFFF" d="M278.7,11.3c0,0,13.8,2.7,12,5.2c-1.8,2.5-27.3,5.3-29.8,6.2c0,0,4.8,0.7,5.7,1.7l-20,2.7l10.2,0.5L237,29
		l8.2,2.2l-17,1.3l6.3,0.7l-15.8,1.2l13.8,1.7l-35,2.3c0,0,10.7-2.5,12.8-3.8c2.2-1.3,3.3-2.7,3.3-2.7S211,31,210.2,31l7.8-2.3
		c0,0-0.7-2-1.8-2.5l11-2c0,0-1.3-2.3-4.7-2.7c0,0,10.7-5.3,14-5.2c0,0-4.5-2.3-8.3-2.3C228.2,14,251.8,7,278.7,11.3z"/>
	<path fill="#FFFFFF" d="M82.7,93.7c0,0-14-3.3-18.2-5.2c-4.2-1.8-11.7-8-11.8-9.3c-0.2-1.3-0.7-10.3-0.3-11.5
		c0.3-1.2,5.7-9.3,10.7-10.8c0,0-19.2-22.5-28.2-26.2l-1.5-0.3c0,0-5.2,16.2-6.3,21.8c-1.2,5.7-0.5,13,4.5,25.2
		c0,0-8.8,13.5-9.3,16.2s-0.2,8.8-0.8,10.8c-0.7,2-14.2,24.8-20,29.3c0,0,2.3,2.5,8.3,1.8S51,128.8,82.7,93.7z"/>
	<path d="M77.2,94.5c0,0-0.7,0.8-1.9,2.1c-0.6,0.6-1.4,1.4-2.3,2.3c-0.9,0.9-2,1.8-3.1,2.9c-1.1,1-2.4,2.1-3.8,3.3
		c-1.4,1.1-2.8,2.3-4.3,3.5c-0.8,0.6-1.5,1.2-2.3,1.8c-0.8,0.6-1.6,1.2-2.4,1.8c-1.6,1.2-3.4,2.3-5.1,3.5c-1.7,1.2-3.5,2.2-5.2,3.3
		c-1.7,1.1-3.5,2-5.2,3c-1.7,0.9-3.4,1.8-4.9,2.6c-1.6,0.9-3.1,1.5-4.5,2.2c-1.4,0.6-2.7,1.3-3.8,1.8c-1.2,0.5-2.2,0.9-3,1.3
		c-1.7,0.7-2.6,1.1-2.6,1.1s1-0.3,2.7-0.9c0.9-0.3,1.9-0.7,3.1-1.1c1.2-0.4,2.5-1,3.9-1.6c1.4-0.6,3-1.2,4.6-2.1
		c1.6-0.8,3.3-1.6,5-2.5c1.7-1,3.5-1.9,5.2-2.9c1.7-1.1,3.5-2.1,5.3-3.3c1.7-1.2,3.4-2.3,5.1-3.6c0.8-0.6,1.6-1.2,2.4-1.8
		c0.8-0.6,1.6-1.2,2.3-1.8c1.5-1.2,2.9-2.5,4.3-3.6c1.3-1.2,2.6-2.3,3.7-3.4c1.1-1.1,2.1-2.1,3-3c0.9-0.9,1.6-1.7,2.2-2.4
		C76.5,95.3,77.2,94.5,77.2,94.5z"/>
	<path d="M69.8,95c0,0-0.8,0.6-2.3,1.8c-1.5,1.1-3.6,2.7-6.1,4.6c-1.3,0.9-2.7,1.9-4.2,3c-1.5,1.1-3.1,2.1-4.7,3.2
		c-1.6,1.1-3.3,2.2-5.1,3.4c-1.8,1.1-3.5,2.2-5.3,3.3c-1.8,1.1-3.6,2.2-5.4,3.2c-1.8,1-3.6,2.1-5.3,2.9c-1.8,0.9-3.4,1.8-5.1,2.6
		c-1.6,0.8-3.1,1.6-4.6,2.2c-1.4,0.6-2.8,1.2-3.9,1.8c-1.2,0.5-2.2,0.9-3.1,1.2c-1.7,0.7-2.7,1.1-2.7,1.1s1-0.3,2.8-0.9
		c0.9-0.3,2-0.6,3.2-1.1c1.2-0.5,2.6-1,4-1.6c1.5-0.6,3-1.3,4.7-2.1c1.7-0.7,3.4-1.6,5.1-2.5c1.8-0.9,3.6-1.9,5.4-2.9
		c1.8-1,3.6-2.1,5.5-3.2c1.8-1.1,3.6-2.3,5.3-3.4c1.7-1.2,3.4-2.3,5.1-3.4c3.3-2.3,6.2-4.5,8.7-6.5c2.5-2,4.5-3.7,5.9-4.9
		C69.1,95.7,69.8,95,69.8,95z"/>
	<path d="M66.5,92.3c0,0-0.7,0.5-2.1,1.3c-1.3,0.9-3.2,2-5.5,3.5c-2.3,1.4-4.9,3-7.8,4.7c-2.9,1.7-5.9,3.5-9.1,5.2
		c-1.6,0.8-3.1,1.7-4.7,2.5c-1.6,0.8-3.1,1.6-4.6,2.3c-1.5,0.7-2.9,1.5-4.3,2.1c-1.4,0.6-2.7,1.3-3.9,1.8c-1.2,0.5-2.3,1-3.3,1.5
		c-1,0.4-1.9,0.8-2.6,1.1c-1.4,0.6-2.3,0.9-2.3,0.9s0.8-0.3,2.3-0.7c0.7-0.2,1.6-0.5,2.7-0.9c1-0.4,2.2-0.8,3.4-1.3
		c1.3-0.5,2.6-1.1,4-1.7c1.4-0.6,2.9-1.3,4.4-2c1.5-0.7,3-1.5,4.6-2.3c1.6-0.8,3.1-1.7,4.7-2.5c3.1-1.8,6.2-3.6,9-5.3
		c2.8-1.8,5.4-3.5,7.6-5c2.2-1.5,4-2.8,5.3-3.8C65.8,92.9,66.5,92.3,66.5,92.3z"/>
	<path d="M61,90c0,0-0.6,0.3-1.8,0.9c-1.1,0.6-2.7,1.4-4.6,2.4c-3.8,2-8.9,4.7-14,7.5c-2.5,1.4-5.1,2.7-7.5,4
		c-2.4,1.2-4.6,2.4-6.6,3.4c-1,0.5-1.9,0.9-2.6,1.3c-0.8,0.4-1.5,0.7-2.1,1c-1.1,0.5-1.8,0.9-1.8,0.9s0.7-0.2,1.9-0.7
		c0.6-0.2,1.3-0.5,2.1-0.8c0.8-0.3,1.7-0.7,2.7-1.1c1-0.4,2.1-0.9,3.2-1.4c1.1-0.5,2.3-1.1,3.5-1.7c2.4-1.2,5-2.5,7.6-3.9
		c2.5-1.4,5.1-2.8,7.4-4.1c2.4-1.3,4.5-2.6,6.4-3.7c1.9-1.1,3.4-2.1,4.5-2.8C60.4,90.4,61,90,61,90z"/>
	<path d="M56.3,87.7c0,0-0.5,0.2-1.4,0.5c-0.9,0.4-2.1,0.8-3.6,1.4c-1.5,0.6-3.3,1.3-5.1,2c-1.9,0.8-3.9,1.6-5.9,2.4
		c-4,1.6-8,3.3-11,4.5c-3,1.2-5,2-5,2s2.1-0.5,5.2-1.5c1.5-0.5,3.3-1.1,5.2-1.8c1.9-0.7,3.9-1.5,5.9-2.3c2-0.8,4-1.7,5.8-2.5
		c1.9-0.8,3.5-1.6,5-2.3c1.5-0.7,2.7-1.3,3.5-1.8C55.9,87.9,56.3,87.7,56.3,87.7z"/>
	<path d="M52.7,83.8c0,0-0.4,0.1-1.1,0.3c-0.7,0.2-1.8,0.4-3,0.8c-1.2,0.3-2.7,0.7-4.2,1.2c-1.5,0.4-3.2,0.9-4.8,1.4
		c-1.6,0.5-3.2,1-4.8,1.5c-1.5,0.5-2.9,1-4.1,1.4c-2.4,0.8-4,1.3-4,1.3s0.4-0.1,1.2-0.2c0.7-0.1,1.8-0.3,3-0.6
		c1.2-0.3,2.7-0.6,4.2-1.1c1.5-0.4,3.2-0.9,4.8-1.4c1.6-0.5,3.2-1,4.7-1.5c1.5-0.5,2.9-1,4.1-1.5c1.2-0.4,2.2-0.9,2.9-1.1
		C52.3,84,52.7,83.8,52.7,83.8z"/>
	<path d="M50.3,79.7c0,0-0.3,0-0.9,0.1c-0.5,0.1-1.3,0.1-2.3,0.3c-1.9,0.2-4.4,0.6-6.8,1.1c-2.5,0.5-4.9,1-6.8,1.4
		c-0.9,0.2-1.7,0.4-2.2,0.5c-0.5,0.1-0.9,0.2-0.9,0.2s0.1,0,0.2,0c0.1,0,0.4,0,0.6,0c0.6,0,1.4,0,2.3-0.1c1.9-0.2,4.4-0.5,6.9-1
		c2.5-0.5,4.9-1,6.8-1.5c0.9-0.2,1.7-0.5,2.2-0.6C50,79.8,50.3,79.7,50.3,79.7z"/>
	<path d="M49.3,74c0,0-0.3-0.1-0.8-0.2c-0.5-0.1-1.2-0.3-2-0.4c-1.7-0.3-3.9-0.7-6.2-0.9c-2.3-0.2-4.5-0.2-6.2-0.1
		c-0.4,0-0.8,0.1-1.2,0.1c-0.3,0.1-0.6,0.1-0.9,0.1c-0.5,0.1-0.8,0.2-0.8,0.2s0.3,0,0.8,0c0.5,0,1.2,0.1,2,0.1
		c1.7,0.1,3.9,0.3,6.2,0.5c2.2,0.2,4.5,0.3,6.2,0.4c0.8,0,1.6,0,2.1,0.1C49,74,49.3,74,49.3,74z"/>
	<path d="M50.5,67.5c0,0-0.3-0.2-0.9-0.4c-0.6-0.2-1.4-0.6-2.4-0.9c-1-0.4-2.2-0.8-3.4-1.1c-1.3-0.4-2.6-0.7-4-1
		c-1.4-0.3-2.8-0.5-4.1-0.7c-1.3-0.2-2.5-0.3-3.6-0.3c-1.1,0-1.9,0-2.6,0.1c-0.6,0.1-1,0.1-1,0.1s0.4,0,1,0.1c0.6,0,1.5,0.2,2.5,0.3
		c0.5,0.1,1.1,0.2,1.7,0.3c0.6,0.1,1.2,0.2,1.8,0.3c1.3,0.3,2.6,0.5,4,0.8c1.4,0.3,2.7,0.6,4,0.9c1.3,0.3,2.5,0.6,3.5,0.8
		C49.1,67.2,50.5,67.5,50.5,67.5z"/>
	<path d="M53.2,61.5c0,0-0.3-0.2-0.9-0.6c-0.6-0.4-1.4-0.9-2.4-1.5c-1-0.6-2.2-1.2-3.6-1.9c-1.3-0.7-2.8-1.3-4.2-1.9
		c-0.7-0.3-1.5-0.6-2.2-0.9c-0.7-0.3-1.4-0.5-2.1-0.8c-0.7-0.3-1.4-0.5-2-0.7c-0.6-0.2-1.3-0.4-1.8-0.5c-1.1-0.3-2.1-0.5-2.8-0.7
		c-0.7-0.2-1.1-0.2-1.1-0.2s0.4,0.2,1,0.4c0.6,0.3,1.6,0.6,2.7,1c1.1,0.4,2.4,1,3.7,1.5c1.4,0.6,2.8,1.1,4.3,1.7
		c1.5,0.6,2.9,1.2,4.2,1.8c1.3,0.6,2.6,1.1,3.7,1.6C51.7,60.9,53.2,61.5,53.2,61.5z"/>
	<path d="M56,58.2c0,0-0.3-0.3-0.9-0.8c-0.6-0.5-1.5-1.2-2.5-1.9c-1.1-0.8-2.3-1.7-3.6-2.6c-1.3-0.9-2.8-1.9-4.2-2.9
		c-1.5-0.9-2.9-1.9-4.3-2.7c-1.4-0.8-2.7-1.6-3.9-2.2c-2.3-1.2-4-1.9-4-1.9s0.4,0.2,1,0.6c0.7,0.4,1.6,1,2.6,1.7
		c2.2,1.4,5.1,3.4,8,5.3c1.5,0.9,2.9,1.9,4.3,2.8c1.4,0.9,2.7,1.7,3.8,2.4c1.1,0.7,2.1,1.2,2.7,1.6C55.6,57.9,56,58.2,56,58.2z"/>
	<path d="M514,111c0,0.1-0.1,0.2-0.2,0.3c-0.1,0.1-0.1,0.2-0.1,0.3l0,0c-0.6,0.3-1.2,0.5-1.8,0.6c-0.6,0.1-1.3,0.1-1.9,0.1
		c-1.3,0-2.6-0.2-4,0c-0.2,0-0.3,0.1-0.5,0.1l-0.1,0c-0.1,0-0.1,0-0.1,0c-0.1,0-0.1,0-0.2,0.1c-0.4,0.2-0.6,0.3-0.9,0.5
		c-0.6,0.3-1.1,0.6-1.7,0.9c-0.3,0.1-0.6,0.2-0.8,0.3c-0.3,0.1-0.6,0.1-0.7,0.1c-0.1,0-0.1-0.1-0.2-0.1c0-0.1-0.1-0.1-0.1-0.2
		c-0.1-0.2-0.1-0.5-0.1-0.8l0-0.4l-0.4-0.1c-0.6-0.1-1.1,0-1.5,0.1c-0.5,0.1-0.9,0.3-1.3,0.4c-0.9,0.3-1.7,0.7-2.5,1
		c-0.2,0.1-0.4,0.1-0.7,0.2c-0.1,0-0.2,0.1-0.3,0.2c-0.1,0.1-0.1,0.1-0.1,0.2l-0.2,0.3c-0.3,0.3-0.6,0.7-0.9,1.1
		c-0.3,0.4-0.5,0.7-0.8,1c-0.3,0.3-0.6,0.6-1,0.8c-0.7,0.5-1.4,1-2.2,1.3c-0.4,0.1-0.8,0.2-1.2,0.2c-0.4,0-0.8-0.2-1.2-0.4
		c-0.4-0.2-0.8-0.4-1.2-0.6c-0.5-0.2-0.9-0.2-1.4-0.2c-0.9-0.1-1.8,0-2.7,0.1c0.9,0.1,1.8,0.1,2.7,0.2c0.4,0.1,0.9,0.2,1.3,0.3
		c0.4,0.2,0.7,0.4,1.1,0.7c0.2,0.1,0.4,0.2,0.6,0.3c0.2,0.1,0.5,0.2,0.7,0.2c0.5,0.1,1,0,1.5-0.1c0.9-0.3,1.8-0.8,2.5-1.3
		c0.4-0.3,0.7-0.5,1.1-0.9c0.3-0.3,0.6-0.7,0.9-1.1c0.3-0.4,0.5-0.6,0.9-1c0.1-0.2,0.4-0.4,0.3-0.4c0.1,0,0.4-0.1,0.6-0.2
		c0.9-0.3,1.7-0.7,2.5-1c0.8-0.3,1.7-0.6,2.4-0.5l-0.4-0.5c0,0.4,0,0.7,0.2,1.2c0.1,0.2,0.2,0.4,0.4,0.6c0.2,0.1,0.4,0.3,0.7,0.3
		c0.5,0.1,0.8,0,1.2-0.1c0.3-0.1,0.7-0.3,1-0.4c0.6-0.3,1.2-0.7,1.7-1c0.3-0.2,0.6-0.4,0.8-0.5c0.1,0,0.1-0.1,0.2-0.1
		c0,0,0.1,0,0.1,0l0.1,0c0.1,0,0.3-0.1,0.4-0.1c1.2-0.3,2.5-0.1,3.8-0.2c0.7,0,1.3-0.1,2-0.3c0.3-0.1,0.6-0.2,0.9-0.3
		c0.3-0.1,0.6-0.3,0.9-0.5l0,0l0,0c0-0.1,0-0.2,0-0.3C513.9,111.2,514,111.1,514,111z"/>
	<path d="M483,121.5c0,0-0.2,0-0.5-0.1c-0.3-0.1-0.8-0.3-1.4-0.6c-0.6-0.3-1.3-0.7-2-1.2c-0.8-0.5-1.6-1.1-2.6-1.7
		c-0.9-0.6-1.9-1.3-2.7-2.2c-0.4-0.4-0.8-0.9-1.1-1.5c-0.4-0.6-0.7-1.1-1.1-1.7c-0.7-1.2-1.4-2.5-2-3.8c-0.6-1.3-1.2-2.7-1.6-4.1
		c-0.5-1.4-0.9-2.8-1.2-4.2c-0.3-1.4-0.6-2.8-0.8-4.2c-0.2-1.4-0.3-2.7-0.3-3.9c0-1.3,0.1-2.4,0.3-3.5c0.2-1,0.7-1.9,1.2-2.6
		c0.5-0.7,1.1-1.3,1.5-1.7c0.9-0.9,1.5-1.4,1.5-1.4s-0.2,0.1-0.5,0.3c-0.3,0.2-0.8,0.4-1.3,0.8c-0.5,0.4-1.2,0.9-1.9,1.6
		c-0.7,0.7-1.3,1.6-1.7,2.8c-0.4,1.1-0.6,2.4-0.7,3.7c-0.1,1.3-0.1,2.7,0,4.2c0.1,1.4,0.3,2.9,0.7,4.4c0.3,1.5,0.7,3,1.2,4.4
		c0.5,1.5,1.1,2.9,1.8,4.3c0.7,1.4,1.4,2.7,2.2,3.9c0.4,0.6,0.8,1.2,1.2,1.7c0.4,0.6,0.9,1.1,1.4,1.6c1,1,2.1,1.6,3.2,2.1
		c1,0.5,1.9,0.9,2.8,1.3c0.8,0.4,1.6,0.7,2.2,0.9c0.6,0.2,1.2,0.3,1.5,0.3C482.8,121.5,483,121.5,483,121.5z"/>
	<path d="M454.8,69c0,0-0.4,0.2-1.2,0.5c-0.8,0.3-1.9,0.7-3.3,1.2c-1.4,0.4-3,0.8-4.7,1.3c-0.9,0.3-2.1,0.6-2.9,1.8
		c-0.4,0.6-0.5,1.2-0.6,1.8c-0.1,0.6-0.1,1.1-0.1,1.6c0,1,0.1,2,0.2,2.9c0.1,0.9,0.2,1.9,0.2,2.7c0,0.9,0,1.8,0.1,2.6
		c0,0.8,0,1.6,0.1,2.3c0,1.4,0,2.6-0.2,3.4c-0.1,0.4-0.2,0.7-0.3,0.9c-0.1,0.2-0.1,0.3-0.1,0.3s0.1-0.1,0.2-0.3
		c0.1-0.2,0.4-0.5,0.5-0.9c0.4-0.8,0.8-2,1-3.5c0.1-0.7,0.2-1.5,0.3-2.4c0.1-0.8,0.2-1.7,0.2-2.6c0-0.9,0-1.9-0.1-2.9
		c-0.1-1-0.1-1.9-0.2-2.8c0-0.9,0-1.8,0.3-2.2c0.2-0.2,0.4-0.5,0.7-0.7c0.2-0.1,0.3-0.2,0.5-0.3c0.2-0.1,0.4-0.2,0.6-0.2
		c1.7-0.6,3.3-1.2,4.6-1.9c1.3-0.7,2.4-1.4,3-1.9C454.5,69.3,454.8,69,454.8,69z"/>
	<path d="M467.2,130.8c0,0-0.1-0.1-0.4-0.3c-0.3-0.2-0.7-0.4-1.2-0.6c-0.5-0.2-1.2-0.4-2-0.7c-0.4-0.1-0.8-0.3-1.2-0.4
		c-0.4-0.2-0.8-0.4-1.2-0.6c-0.8-0.5-1.7-1-2.6-1.6c-0.9-0.6-1.8-1.3-2.6-2.1c-0.9-0.8-1.7-1.7-2.6-2.6c-0.9-0.9-1.8-1.8-2.6-2.8
		l-1.3-1.4c-0.4-0.5-0.9-1-1.3-1.5c-0.9-0.9-1.7-1.8-2.4-2.7c-0.7-0.9-1.3-1.8-1.7-2.8c-0.1-0.2-0.2-0.5-0.3-0.7
		c-0.1-0.2-0.1-0.5-0.2-0.7c-0.1-0.5-0.2-1-0.3-1.4c-0.3-1.9-0.3-3.5-0.4-4.7c-0.1-1.1-0.2-1.8-0.2-1.8s-0.1,0.6-0.2,1.8
		c-0.1,1.1-0.4,2.8-0.3,4.8c0,0.5,0,1,0.1,1.6c0,0.3,0.1,0.6,0.2,0.9c0.1,0.3,0.1,0.5,0.2,0.8c0.4,1.2,0.9,2.3,1.7,3.3
		c0.7,1,1.6,2,2.4,3c0.4,0.5,0.8,0.9,1.3,1.4l1.3,1.5c0.9,1,1.8,1.9,2.7,2.8c0.9,0.9,1.9,1.8,2.8,2.6c0.9,0.8,2,1.5,3,2.1
		c1,0.6,2,1,2.9,1.4c0.4,0.2,0.9,0.4,1.4,0.5c0.5,0.1,0.9,0.2,1.3,0.3c0.8,0.1,1.5,0.2,2,0.3c0.6,0.1,1,0.2,1.3,0.3
		C467,130.8,467.2,130.8,467.2,130.8z"/>
	<path d="M433.3,83c0,0-0.3,0.6-0.9,1.5c-0.3,0.5-0.7,1-1.2,1.6c-0.4,0.6-0.9,1.4-1.3,2.3c-0.8,1.8-1.3,4-2,6.2
		c-0.3,1.1-0.8,2.3-1,3.6c-0.3,1.3-0.4,2.7-0.2,4.1c0.2,1.4,0.7,2.6,1.2,3.8c0.5,1.2,1.2,2.3,1.8,3.3c0.7,1,1.4,1.9,2.2,2.8
		c0.8,0.8,1.4,1.5,2.1,2.2c1.3,1.4,2.4,2.6,3.3,3.2c0.4,0.3,0.8,0.6,1.1,0.7c0.3,0.1,0.4,0.2,0.4,0.2s-0.5-0.4-1.2-1.2
		c-0.7-0.8-1.6-2.1-2.7-3.6c-0.5-0.8-1.1-1.7-1.8-2.5c-0.6-0.8-1.2-1.8-1.8-2.7c-0.6-1-1.1-2-1.6-3.1c-0.4-1.1-0.8-2.2-1-3.4
		c-0.2-1.1-0.2-2.2,0.1-3.4c0.2-1.1,0.5-2.3,0.8-3.5c0.3-1.2,0.5-2.3,0.7-3.4c0.2-1,0.4-2,0.7-2.9c0.3-0.9,0.6-1.6,0.9-2.3
		c0.3-0.7,0.6-1.3,0.8-1.8C433.2,83.6,433.3,83,433.3,83z"/>
	<path d="M433.3,70.3c0,0-0.3,0-0.9-0.1c-0.6-0.1-1.5-0.2-2.7-0.5c-1.1-0.3-2.5-0.9-4.1-1.6c-1.6-0.7-3.3-1.6-5.5-2.4
		c-2.1-0.7-4.6-1.2-7.2-1.4c-2.7-0.3-5.6-0.3-8.7-0.3c-3.1,0.1-6.4,0.2-9.9,0.2c-3.5,0-7.1,0-11,0.1c-7.6,0.1-15.9,0.4-24.6,0.6
		c-8.7,0.3-18,0.5-27.5,0.5c-4.8,0-9.6-0.1-14.5-0.3c-4.9-0.2-9.9-0.6-14.9-0.9c-10-0.6-20.2-1.3-30.3-2.2
		c-10.1-0.8-20.2-1.9-30.2-3.1c-10-1.1-19.9-1.5-29.4-1.7c-9.5-0.2-18.8,0-27.5,0.1c-8.7,0.2-17,0.4-24.6,0.4
		c-2-0.1-3.8,0.5-5.6,0.8c-1.8,0.3-3.6,0.4-5.3,0.4c-1.7,0-3.4-0.1-5.1-0.1c-1.7,0-3.3,0-4.8,0c-6.2,0-11.6-0.2-16.1-0.1
		c-2.2,0.1-4.2,0.2-5.9,0.4c-1.7,0.2-3.2,0.4-4.4,0.6c-1.2,0.1-2.1,0.2-2.7,0.2c-0.6,0-0.9,0-0.9,0s0.3,0,0.9,0
		c0.6,0,1.5-0.1,2.7-0.2c1.2-0.1,2.6-0.3,4.4-0.5c1.7-0.2,3.7-0.3,5.9-0.3c4.5-0.1,9.9,0.1,16.1,0.3c1.6,0,3.2,0,4.8,0.1
		c1.6,0.1,3.3,0.1,5.1,0.2c1.7,0,3.5,0,5.4-0.4c1.8-0.4,3.6-0.9,5.5-0.8c7.6,0,15.9-0.1,24.7-0.3c8.7-0.2,18-0.2,27.5,0
		c9.5,0.2,19.4,0.7,29.3,1.8c9.9,1.2,20.1,2.4,30.2,3.2c10.2,0.8,20.3,1.5,30.3,2.1c5,0.3,10,0.6,14.9,0.8c4.9,0.2,9.8,0.3,14.5,0.3
		c9.6,0,18.8-0.3,27.5-0.6c8.7-0.3,17-0.6,24.6-0.7c3.8,0,7.5-0.1,11-0.1c3.5-0.1,6.8-0.2,9.9-0.4c3.1-0.1,6-0.1,8.7,0.2
		c2.7,0.2,5.1,0.7,7.2,1.3c2.1,0.7,3.9,1.6,5.5,2.3c1.6,0.7,3,1.2,4.1,1.6c1.2,0.3,2.1,0.4,2.7,0.5C433,70.3,433.3,70.3,433.3,70.3z
		"/>
	<path d="M417.6,74.8c0,0-0.3,0-1,0c-0.6,0-1.6,0-2.8,0c-2.4,0.1-6,0.3-10.5,0.8c-4.5,0.5-10,1.3-16.2,2.1c-3.1,0.4-6.5,0.8-10,1.2
		c-3.5,0.4-7.2,0.9-11.1,1.4c-3.8,0.5-7.9,0.9-12,0.9c-4.2,0-8.5,0-12.9-0.1c-4.4-0.1-9-0.3-13.6-0.7c-4.6-0.5-9.5-0.6-14.3-0.5
		c-4.9,0.1-9.8,0.3-14.8,0.1c-2.5-0.1-5-0.2-7.5-0.5c-2.5-0.3-5-0.7-7.5-1.1c-5-0.7-10.1-1.5-15.3-1.9c-5.2-0.5-10.4-0.3-15.5-0.4
		c-10.4,0-20.7,0-30.9,0c-10.2,0-20.2,0-29.9-0.1c-9.7-0.2-19-0.9-27.9-1.7c-4.4-0.4-8.7-0.8-12.9-1.1c-4.2-0.3-8.2-0.7-12.1-1
		c-7.7-0.7-14.8-1.6-20.9-3.3c-3-0.8-5.8-1.8-8.4-2.7c-2.6-0.9-5-1.7-7.1-2.4c-2.1-0.7-4.1-1.4-5.7-1.9c-1.7-0.6-3.1-1.1-4.3-1.3
		c-1.2-0.2-2.1-0.3-2.8-0.3c-0.6,0-0.9,0-0.9,0s0.3,0,0.9,0c0.6,0,1.6,0.1,2.7,0.3c1.2,0.2,2.6,0.7,4.3,1.3c1.7,0.6,3.6,1.2,5.7,2
		c2.1,0.7,4.5,1.6,7.1,2.5c2.6,0.9,5.3,1.9,8.4,2.8c6.1,1.7,13.2,2.8,20.9,3.5c3.9,0.3,7.9,0.7,12.1,1c4.2,0.4,8.5,0.8,12.9,1.2
		c8.9,0.8,18.2,1.6,27.9,1.8c9.7,0.1,19.7,0.1,29.9,0.2c10.2,0.1,20.5,0.1,30.9,0.2c5.2,0,10.4-0.1,15.5,0.3
		c5.1,0.4,10.2,1.1,15.2,1.8c2.5,0.4,5,0.7,7.5,1c2.5,0.3,5,0.5,7.6,0.5c5,0.1,9.9-0.1,14.8-0.2c4.9-0.1,9.6,0,14.2,0.4
		c4.7,0.4,9.2,0.5,13.7,0.6c4.5,0.1,8.8,0.1,13,0c4.2,0,8.2-0.5,12.1-1c3.9-0.5,7.5-1.1,11-1.5c3.5-0.4,6.8-0.9,10-1.3
		c6.2-0.9,11.7-1.8,16.2-2.3c4.5-0.5,8-0.8,10.5-0.9c1.2-0.1,2.1-0.1,2.8-0.1C417.3,74.8,417.6,74.8,417.6,74.8z"/>
	<path d="M418.8,96.8c0,0-0.4,0-1,0c-0.7,0-1.7-0.1-3-0.1c-2.7,0-6.6,0-11.5,0.3c-5,0.2-11,0.7-17.9,0.9c-3.5,0.1-7.1,0.2-11,0.1
		c-3.9,0-8,0.1-12.2,0.1c-8.5,0.1-17.7,0.4-27.5,0.4c-4.9,0-9.9,0-15-0.2c-5.1-0.2-10.3-0.7-15.6-1.3c-5.3-0.6-10.7-1.3-16.1-1.7
		c-5.5-0.4-11-0.4-16.6-0.5c-11.2,0-22.5,0.1-33.8-0.9c-5.7-0.4-11.3-0.8-17-1.2c-1.4-0.1-2.8-0.2-4.2-0.3c-1.4-0.2-2.8-0.4-4.2-0.6
		c-2.8-0.5-5.5-1-8.3-1.4c-5.6-0.8-11.2-0.4-16.6-0.7c-5.4-0.3-10.7-1.7-15.9-2.7c-10.5-2.1-20.7-3.4-30.3-4.7
		c-2.4-0.3-4.8-0.7-7.2-0.9c-2.4-0.3-4.7-0.5-7-0.6c-4.6-0.3-9-0.6-13.2-1c-8.5-0.7-16-2.8-22.7-4.5c-3.3-0.9-6.5-1.7-9.4-2.3
		c-2.9-0.6-5.6-1.1-8.1-1.5c-2.5-0.4-4.6-0.8-6.5-1.3c-1.9-0.5-3.4-1.1-4.7-1.5c-1.3-0.4-2.3-0.6-3-0.6c-0.7,0-1,0.1-1,0.1
		s0.4-0.1,1-0.1c0.7,0,1.7,0.2,3,0.6c1.3,0.4,2.8,1,4.7,1.5c1.9,0.5,4,0.9,6.5,1.3c2.5,0.4,5.2,0.9,8.1,1.6c2.9,0.7,6,1.5,9.4,2.4
		c3.3,0.9,6.9,1.9,10.7,2.8c3.8,0.9,7.8,1.5,12.1,1.9c4.2,0.4,8.7,0.7,13.3,1c2.3,0.2,4.6,0.4,7,0.7c2.3,0.3,4.7,0.6,7.1,1
		c9.7,1.3,19.9,2.7,30.3,4.8c5.2,1,10.5,2.4,16,2.8c5.5,0.3,11.1-0.1,16.5,0.7c2.7,0.4,5.5,1,8.3,1.5c1.4,0.2,2.8,0.5,4.2,0.6
		c1.4,0.2,2.8,0.2,4.2,0.3c5.6,0.4,11.3,0.8,17,1.2c11.3,1,22.7,0.8,33.9,0.7c5.6,0,11.1,0,16.6,0.4c5.5,0.4,10.8,1,16.1,1.6
		c5.3,0.6,10.5,1.1,15.7,1.3c5.1,0.1,10.1,0.2,15,0.1c9.8-0.1,19-0.3,27.5-0.5c4.3-0.1,8.3-0.1,12.2-0.2c3.9,0,7.6-0.1,11-0.3
		c6.9-0.3,12.9-0.8,17.9-1.1c5-0.3,8.9-0.4,11.5-0.4c1.3,0,2.4,0,3,0C418.5,96.8,418.8,96.8,418.8,96.8z"/>
	<path d="M440,119.3c0,0-10.7,0.5-14,1.5c-3.3,1-26.8,8.5-26.8,8.5l3.8,0.7l-11.8,2.7l18.5-0.7l-15.8,3.3c0,0,16.5-0.2,22.5-1.3
		c0,0-10.2,4.2-22.5,4.2c0,0,11.5,1.8,31.8-2.8c20.3-4.7,25.7-4.7,25.7-4.7s-12.7,3.5-15.5,4.3c-2.8,0.8-19.2,9.2-37.2,7.2
		s-28.3-8-24.2-9.8c4.2-1.8,20.2-4.3,24.3-5.3C403,126,425.3,117.3,440,119.3z"/>
	<g>
		<ellipse cx="517.2" cy="82.8" rx="7.3" ry="7.1"/>
		<path fill="#FFFFFF" d="M512,82c0,4.1,2.2,7.5,5,7.5c2.8,0,5-3.4,5-7.5s-2.2-7.5-5-7.5C514.3,74.5,512,77.9,512,82z"/>
		<path d="M511.6,82c0-4.6,2.4-8.3,5.4-8.3c3,0,5.4,3.7,5.4,8.3c0,4.6-2.4,8.3-5.4,8.3C514,90.3,511.6,86.6,511.6,82z M512,82
			c0,4.1,2.2,7.5,5,7.5c2.8,0,5-3.4,5-7.5s-2.2-7.5-5-7.5C514.3,74.5,512,77.9,512,82z"/>
		<path d="M515.8,80.1c0.7,0,1.3-1,1.3-2.2c0,0,0,0,0-0.1c0,0,0,0,0,0c1.4,0,2.5,1.9,2.5,4.2c0,2.3-1.1,4.2-2.5,4.2
			c-1.4,0-2.5-1.9-2.5-4.2c0-0.9,0.2-1.7,0.4-2.4C515.3,79.9,515.5,80.1,515.8,80.1z"/>
	</g>
</g>
</svg>
