<?xml version="1.0" encoding="utf-8"?>
<!-- Generator: Adobe Illustrator 18.1.1, SVG Export Plug-In . SVG Version: 6.00 Build 0)  -->
<svg version="1.1" id="rainbow_trout" xmlns="http://www.w3.org/2000/svg" xmlns:xlink="http://www.w3.org/1999/xlink" x="0px"
	 y="0px" viewBox="0 0 567.9 200.4" enable-background="new 0 0 567.9 200.4" xml:space="preserve">
<path d="M553.8,110.5c0,0,3.2-1.2,4.8-0.9s6.5,1.4,7.5-0.1c1-1.4,3.6-15.2-39.6-30.2s-93.5-30-181.5-31.8c0,0-23.6-33.8-50.1-47.6
	c0,0-22.1,19.6-64,50.1c0,0,1.4,5,9.1,10.6c0,0-58.1,10.8-73.5,13.1s-26.1,0.9-30.6-1s-12.5-5-17.8-3.6s-8.1,5-7.5,5.6
	s8.6,3.4,8.9,5.4s-3.9,10.1-29.8,0.1S27.2,48.5,3.2,40.8c0,0-3.9,29.9,13.2,55.8c0,0-16.5,30.9-16.5,50.9c0,0,6.8,5.5,28.2,1.9
	s52.2-14.4,72.2-14.6s25.5,0.9,43,6.6c0,0-15.4,3.9-22,3.6c0,0-0.1,12,9.8,26c0,0,12.6,3.1,37.4-1.5s27.2-13.6,52.2-14.1
	s51.5,2.5,51.5,2.5s0.2,12.4-1,17.5s-6.4,22.8-4.8,24.6s21.1,0.4,51.8-32.9c0,0,13.5,6.4,45.8,4.4s43.8-3.5,56.1-11
	c0,0,2,7,0.8,12.1s-3.4,8-2.2,8s12-2.4,29.6-23.8c0,0,30.6-5.9,33.2-6.6c0,0,9.4,0.9,12.5,0.2s40.5-13.9,44.9-16.5
	s29-15.1,28.9-16.5S555.2,113.6,553.8,110.5z"/>
<path fill="#FFFFFF" d="M552.8,105c0,0-18.2-16.1-60.5-25.8s-90.5-17-144.2-16.6s-93.2,9-130.5,15.2S129.6,95.8,124,95.1
	s-58.4-13.6-61.6-12s-6.1,7.9,0.9,22.5c0,0-7.8,18.2,8.1,29c0,0,30.1-5.4,44.1-2.9s46.1,13.6,55.4,18.2s27.1,5.6,38.2,3.8
	s48.9-0.5,63.6,3.1c0,0,4.1-2.5,5.2-2.4s9.8,2.9,17.2,4.1s21.6,1.6,23.5,2.1s3,1.1,1,4.6c0,0,4.8,3.5,31.5,3s49,0.4,68.6-9.8
	c0,0-2.2-10.6,2.5-19.1c0,0,13.1-3.4,20.9-9c0,0,0.5-7.5,3.1-11.1c0,0-2.6,8-0.1,12s8,9.2,18.6,13.9l-7.4-1.5l-7,10.9l25.4-5.5
	c0,0-25.2-16.5-24.1-29.1s13.8-30.2,15.6-32.1s6.6-3.8,6.6-3.8s-5.4,3.6-6.1,4.9s-15.4,24.2-14,31.8s12.2,23.4,27.1,27.1
	s54.8-13.6,54.8-13.6s-9.4,2.1-13.6,0.9s-7.9-1.2-9.2-1.2s-18.1,5.9-38-18.9c0,0,21.5,17.4,30.8,17.2s9.2-0.9,11.2-0.5s6.8,1,9,1
	s30-7.6,39-14.9c0,0-7-0.9-12.6-5.9c0,0-14.4,8.1-18.2,8.5s-10-0.4-9.2-2.8s22.8-10.1,22.8-10.1s-21.5,9.2-21.4,10.2s6.1,1.8,8,1.2
	s13.1-6.9,15.8-8.1S556.4,107.7,552.8,105z"/>
<path d="M503.4,88.8c0,0-3.6,1.2-5.1,2.4s-10.4,12.9-9,17.5s3.5,11.8,20.9,17.2c0,0-18-8.2-19.5-17.6c-0.7-4.2,5.9-14.4,8.1-16
	S503.4,88.8,503.4,88.8z"/>
<g>
	<path d="M453.8,118.7l-0.7-1.7h1c5.7,5.2,19.9,9.4,19.9,9.4l0,0c-3.3-3.6-4.9-6.6-6.2-7.4c-3.2-2-11.1-9.4-11.1-9.4l0.4-0.9
		c2,2.9,11.2,9.5,12.2,10.5s7.8,7.9,11.8,12.1s18.6,8.8,18.6,8.8c-2.2-0.5-4.2-1.1-6.1-1.7l0.5,0.2c-5,8.4-10,9.7-10,9.7
		c7.8-5.7,8.9-10.1,8.9-10.1l0.3,0.1c-2.5-0.8-4.7-1.8-6.8-2.7l0.1,0c-11.3,6.6-16.8,6.8-16.8,6.8c4.7-1.4,15.9-7.3,15.9-7.3
		l0.6,0.3c-0.9-0.4-1.7-0.9-2.5-1.4l0.3,0.2c-14.9,1.1-24.6-2.2-24.6-2.2l-1.2-0.7v-1c9.7,3.6,24.9,3.5,24.9,3.5l0.1,0.1
		c-3.4-2-6-4.2-8-6.2v0C462.2,124.7,453.8,118.7,453.8,118.7z"/>
	<path d="M490.7,137.5c-8.3,7.3-14.8,8.6-14.8,8.6c6.5-3.1,13.9-9,13.9-9L490.7,137.5z"/>
	<path d="M498.3,139.8c-3.9,7.2-6.1,8.1-6.1,8.1c3.8-4.3,5.4-8.3,5.4-8.3L498.3,139.8z"/>
</g>
<path d="M456.7,92.5c0,0-4,0.5-8.3,0s-32.2-5.5-33.8-5.2s-9.2,2.2-13,2.7c-3.8,0.5-12-4.7-15.5-5s-39,0-61.8,1.5s-77,9.8-87.8,11
	s-49.2,5.8-57.8,7.2s-53.2,5.8-90,4c0,0,42.8,7.5,81.2,8.2c38.5,0.8,85.5-2,111.8-1.5s53.5-2.8,70.5,3.2c0,0,28.9-4.5,86.2,0
	c0,0-51.7-7-86-1.8c0,0-9.5-3.7-17.8-3.7s-107,2-122,2.3s-66.2-0.8-100.2-4.8c0,0,23.5-0.1,57.2-3.4s134.2-16.8,156.8-18.6
	s57.5-2.8,60-2s10.2,4.8,12.8,4.8s13.2-3,15.8-2.8S452.9,97,456.7,92.5z"/>
<path d="M413.9,147.9c0,0-10,3.1-16.8,2.8s-70.5-3.2-96.8-5.8s-49.2-4.1-60-2.6c-10.8,1.6-32,6.7-62.5,0c-30.5-6.7-42-9.6-47.2-10
	c0,0,38.2,9.6,47.2,11.3c9,1.7,19.2,4.6,31.5,4.2s33.2-4.9,38-4.6c4.8,0.2,76.5,6.2,103.5,7.5C377.9,152,400.1,156.5,413.9,147.9z"
	/>
<path fill="#FFFFFF" d="M119,84.9c0,0,16.7-1.7,15.3-4.5c-1.3-2.8-13.2-8.8-15.3-8.7c-2.2,0.2-7.5,1.7-6.7,2.2
	C113.2,74.4,124.9,76.9,119,84.9z"/>
<path fill="#FFFFFF" d="M294.7,1.6c28.7,18.5,46.7,46,46.7,46c-1.9,0-3.8,0-5.7,0c-3.9-5.2-23-29.9-41.8-41.6
	c0,0,21.5,15.6,38.9,41.7c-1.4,0-2.8,0.1-4.3,0.1c-7-8.9-23.1-28-38.9-37.9c0,0,19.5,14.1,36.3,38c-1.6,0.1-3.3,0.2-4.9,0.3
	c-8-9.7-22-25.4-35.8-34c0,0,17.4,12.6,33.5,34.2c-1.6,0.1-3.2,0.2-4.8,0.4c-8.2-9.7-20.7-23.1-33.1-30.8c0,0,15.7,11.4,31.1,31
	c-1.5,0.1-3,0.3-4.6,0.5c-8.2-9.4-19.6-21.2-30.9-28.3c0,0,14.3,10.4,29.1,28.5c-1.8,0.2-3.6,0.4-5.4,0.6c-7.9-8.7-18-18.7-28-25
	c0,0,12.6,9.2,26.4,25.2c-1.7,0.2-3.4,0.4-5,0.7c-7.5-8.1-16.6-16.8-25.7-22.4c0,0,11.3,8.2,24.1,22.6c-1.7,0.2-3.4,0.5-5,0.7
	c-7-7.3-15.2-14.9-23.4-20c0,0,10,7.3,21.9,20.2c-2,0.3-4,0.6-6,0.9c-6.3-6.3-13.3-12.5-20.3-16.9c0,0,8.4,6.1,19,17.1
	c-1.7,0.3-3.3,0.5-4.9,0.8c-5.8-5.6-12.1-11-18.4-14.9c0,0,7.4,5.4,17.1,15.2c-1.6,0.3-3.2,0.5-4.7,0.8c-5.3-5.1-11.1-9.8-16.8-13.4
	c0,0,6.7,4.8,15.5,13.6c-1.7,0.3-3.3,0.6-4.8,0.9c-4.8-4.5-10-8.6-15.1-11.8c0,0,5.9,4.3,13.9,12c-1.8,0.3-3.4,0.7-5,1
	c-4.3-3.8-8.8-7.4-13.3-10.2c0,0,5,3.7,12.2,10.4c-1.9,0.4-3.6,0.7-5.1,1c-3.7-3.2-7.6-6.2-11.4-8.6c0,0,4.2,3.1,10.5,8.8
	c-4.1,0.8-6.4,1.4-6.4,1.4c-8.2-6.5-9.3-9.8-9.3-9.8C260.2,33.6,294.7,1.6,294.7,1.6z"/>
<path fill="#FFFFFF" d="M144.4,141.9c0,0,0.8,0.4,2.2,1c-13.3,4.7-22.7,6.4-22.7,6.4c7.7-0.8,16.1-3.1,24.1-5.7
	c1.4,0.6,3,1.4,4.9,2.2c-15.8,6.1-27.5,8.2-27.5,8.2c9.3-1,19.7-4.1,29.1-7.5c1.2,0.5,2.5,1.1,3.8,1.6c-17.7,7.2-31.2,9.7-31.2,9.7
	c10.6-1.1,22.6-5,32.9-9c1.3,0.5,2.6,1,3.9,1.6c-19.1,8.2-34.2,10.9-34.2,10.9c11.7-1.3,25.2-5.8,36.1-10.2c2.3,0.9,4.6,1.7,6.7,2.3
	c-20.8,9.5-37.9,12.6-37.9,12.6c13.3-1.4,28.7-7,40.2-11.9c0.3,0.1,0.5,0.1,0.8,0.2c1.1,0.3,2.2,0.6,3.4,0.8
	c-21.7,10.3-39.8,13.5-39.8,13.5c14.2-1.5,30.9-7.9,42.5-12.9c2.2,0.4,4.3,0.7,6.3,0.9c-20.3,9.1-36.7,12-36.7,12
	c13.1-1.4,28.4-6.9,39.8-11.8c5,0.4,8.4,0.3,8.4,0.3s-22.3,8.8-29.8,10.5c-7.5,1.7-31.5,3-37.3,2c0,0-7.7-10.4-9.3-23.5
	C122.7,146.1,135.5,144.8,144.4,141.9z"/>
<path fill="#FFFFFF" d="M271,182.1c1.8-7,3.7-13,2.8-24.3l4.2-2.6c0,0,4.1,1.6,10.2,3.2c-7.3,3.3-12,4.8-12,4.8
	c4.3-1.1,8.8-2.6,13.3-4.5c1.6,0.4,3.3,0.8,5.1,1.1c0.5,0.1,1.1,0.2,1.6,0.3c-12.8,6.7-22.1,9.7-22.1,9.7c7.8-1.9,16.2-5.5,23.9-9.4
	c1.9,0.2,3.8,0.4,5.7,0.5c-15.5,8.7-27.5,12.6-27.5,12.6C286,171,296.7,166,306,161c0.6,0,1.3,0.1,1.9,0.1
	c-18.7,14.6-35.5,21.6-35.5,21.6c13.2-4.5,27.7-14.1,37.9-21.5c2.4,0.1,4.4,0.2,5.9,0.4c-22.6,20.8-46.4,30.8-46.4,30.8
	c19.1-6.5,40.9-23.5,48.4-29.6c-0.8,3.1-9.9,15.2-24.2,24.7c-15.6,10.4-25.3,12.2-25.7,11C268,197.4,269.2,189.1,271,182.1z"/>
<path fill="#FFFFFF" d="M423.5,169.9c0.2-3.2-1.7-10.5-1.8-15.9c-0.2-5.4,1.5-13.9,1.5-13.9c6.3,0.2,20.7-8,20.7-8
	c0.1,0.9,0.6,1.9,1.5,2.9c-12.8,7.6-22.3,11.2-22.3,11.2c7.6-2.3,15.6-6.2,23.1-10.4c0.4,0.5,0.9,0.9,1.5,1.4
	c-13.5,12.5-24.7,19.2-24.7,19.2c8.8-4.5,17.9-11.5,25.6-18.4c0.7,0.6,1.5,1.1,2.2,1.7c-13.6,15.9-26,25-26,25
	c9.6-6.1,19.4-15.6,27.1-24.2c0.4,0.3,0.7,0.5,1.1,0.7c-14,18-27.6,28.5-27.6,28.5c10.5-7,21.1-18.3,28.9-27.7
	c1.3,0.8,2.2,1.3,2.2,1.3c-13.3,22.3-35.4,35-35.4,35S423.2,173.1,423.5,169.9z"/>
<path fill="#FFFFFF" d="M18.4,96.6c0,0-11.5-11.5-13.5-53.2c0,0,35.3,13.3,58.7,27.7c0,0-0.4,0.6-1,1.7c-6.4-3.9-32.5-19.1-53.7-23
	c0,0,26.3,6.7,52.4,25.1l0.1,0c-0.4,0.7-0.8,1.5-1.2,2.3C49.6,72.2,27.5,62.4,9.5,60.4c0,0,24,4.3,49.8,18.7
	c-0.2,0.4-0.3,0.8-0.5,1.2C47.1,75.9,26.6,69.2,9.9,68.6c0,0,22.6,2.3,48.3,13.5c-0.4,1.3-0.8,2.7-1,4.1c-12.1-3.9-30.5-8.9-45.5-9
	c0,0,20.7,1.4,45.3,10.7c0,0.6-0.1,1.1,0,1.6c0,0.6,0.1,1.1,0.1,1.7c-12-3.5-28.3-7.4-41.8-7.3c0,0,18.9,1.1,42,9
	c0.2,1.4,0.5,2.7,0.8,4c-11.9-3.6-28-7.4-41.4-7.3c0,0,18.8,1.2,41.9,9.1c0.7,2.5,1.5,4.5,2,5.6c-11.8-3.7-27.5-7.6-40.6-7.7
	c0,0,18.3,1.4,40.9,9.4c-0.1,0.6-0.3,1.6-0.5,2.8c-12.5-1.9-30.3-3.6-44.4-1.4c0,0,19.5-1.7,44.1,3c-0.1,0.9-0.3,2-0.4,3
	c-12.6-0.5-33.4-0.4-49,4.1c0,0,21.5-4.7,48.8-2.3c0,0.9-0.1,1.8-0.1,2.7c-12.4-0.1-34.5,0.7-50.6,6.1c0,0,22.4-5.9,50.7-4.1
	c0.1,1.2,0.3,2.3,0.6,3.3c-12.2,0.4-35,1.9-51.2,8c0,0,22.9-6.9,52.1-6c0.6,1.2,1.4,2.4,2.3,3.6c-9.9,0.6-37.1,2.8-55.4,10.7
	c0,0,25.5-9,57.3-8.4c0.4,0.5,0.9,1,1.3,1.4c-8.9,1-37.2,4.8-55.7,14.2c0,0,25-10.6,56.9-11.9l0.8-0.3c1.5,1.5,2.7,2.4,2.7,2.4
	s-41.5,11.3-50.7,11.5c-9.2,0.2-19.2-2.2-19.2-2.2S3.5,126.4,18.4,96.6z"/>
<g>
	<ellipse cx="522" cy="94.5" rx="13.8" ry="7.9"/>
	<path fill="#FFFFFF" d="M512.3,93.6c0,4.6,4.2,8.3,9.4,8.3c5.2,0,9.4-3.7,9.4-8.3c0-4.6-4.2-8.3-9.4-8.3
		C516.5,85.4,512.3,89.1,512.3,93.6z"/>
	<path d="M511.4,93.6c0-5,4.6-9.1,10.3-9.1c5.7,0,10.3,4.1,10.3,9.1c0,5-4.6,9.1-10.3,9.1C516,102.8,511.4,98.7,511.4,93.6z
		 M512.3,93.6c0,4.6,4.2,8.3,9.4,8.3c5.2,0,9.4-3.7,9.4-8.3c0-4.6-4.2-8.3-9.4-8.3C516.5,85.4,512.3,89.1,512.3,93.6z"/>
	<path d="M519.4,91.5c1.3,0,2.4-1.1,2.4-2.4c0,0,0-0.1,0-0.1c0,0,0,0,0,0c2.6,0,4.7,2.1,4.7,4.7s-2.1,4.7-4.7,4.7
		c-2.6,0-4.7-2.1-4.7-4.7c0-1,0.3-1.9,0.8-2.6C518.4,91.3,518.9,91.5,519.4,91.5z"/>
</g>
<ellipse transform="matrix(-0.941 0.3385 -0.3385 -0.941 1098.0248 5.2974)" cx="548.6" cy="98.4" rx="1.6" ry="2.1"/>
<ellipse transform="matrix(-0.941 0.3385 -0.3385 -0.941 1084.0995 5.7257)" cx="541.6" cy="97.4" rx="1.6" ry="2.1"/>
<ellipse transform="matrix(-0.941 0.3385 -0.3385 -0.941 1011.0883 -11.5427)" cx="506.6" cy="82.4" rx="1.6" ry="2.1"/>
<ellipse transform="matrix(-0.941 0.3385 -0.3385 -0.941 983.2376 -10.6861)" cx="492.6" cy="80.4" rx="1.6" ry="2.1"/>
<ellipse transform="matrix(-0.941 0.3385 -0.3385 -0.941 965.7688 -7.6399)" cx="483.6" cy="80.4" rx="1.6" ry="2.1"/>
<ellipse transform="matrix(-0.941 0.3385 -0.3385 -0.941 995.8091 -18.8783)" cx="499.6" cy="77.4" rx="1.6" ry="2.1"/>
<ellipse transform="matrix(-0.941 0.3385 -0.3385 -0.941 959.5176 -20.5498)" cx="481.6" cy="73.4" rx="1.6" ry="2.1"/>
<ellipse transform="matrix(-0.941 0.3385 -0.3385 -0.941 947.9615 -6.5347)" cx="474.6" cy="79.4" rx="1.6" ry="2.1"/>
<ellipse transform="matrix(-0.941 0.3385 -0.3385 -0.941 940.2874 6.8035)" cx="469.6" cy="85.4" rx="1.6" ry="2.1"/>
<ellipse transform="matrix(-0.941 0.3385 -0.3385 -0.941 931.7568 -7.7089)" cx="466.6" cy="77.4" rx="1.6" ry="2.1"/>
<ellipse transform="matrix(-0.941 0.3385 -0.3385 -0.941 914.1982 -16.6471)" cx="458.6" cy="71.4" rx="1.6" ry="2.1"/>
<ellipse transform="matrix(-0.941 0.3385 -0.3385 -0.941 905.8471 -7.1909)" cx="453.6" cy="75.4" rx="1.6" ry="2.1"/>
<ellipse transform="matrix(-0.941 0.3385 -0.3385 -0.941 890.9962 -0.6012)" cx="445.6" cy="77.4" rx="1.6" ry="2.1"/>
<ellipse transform="matrix(-0.941 0.3385 -0.3385 -0.941 896.909 10.3678)" cx="447.6" cy="83.4" rx="1.6" ry="2.1"/>
<ellipse transform="matrix(-0.941 0.3385 -0.3385 -0.941 904.3344 7.0729)" cx="451.6" cy="82.4" rx="1.6" ry="2.1"/>
<ellipse transform="matrix(-0.941 0.3385 -0.3385 -0.941 896.7294 -13.6009)" cx="449.6" cy="71.4" rx="1.6" ry="2.1"/>
<ellipse transform="matrix(-0.941 0.3385 -0.3385 -0.941 905.4188 -21.1162)" cx="454.6" cy="68.4" rx="1.6" ry="2.1"/>
<ellipse transform="matrix(-0.941 0.3385 -0.3385 -0.941 888.9655 -12.247)" cx="445.6" cy="71.4" rx="1.6" ry="2.1"/>
<ellipse transform="matrix(-0.941 0.3385 -0.3385 -0.941 876.3041 -16.0392)" cx="439.6" cy="68.4" rx="1.6" ry="2.1"/>
<ellipse transform="matrix(-0.941 0.3385 -0.3385 -0.941 882.9836 10.796)" cx="440.6" cy="82.4" rx="1.6" ry="2.1"/>
<ellipse transform="matrix(-0.941 0.3385 -0.3385 -0.941 880.2759 -4.7318)" cx="440.6" cy="74.4" rx="1.6" ry="2.1"/>
<ellipse transform="matrix(-0.941 0.3385 -0.3385 -0.941 867.6147 -8.5239)" cx="434.6" cy="71.4" rx="1.6" ry="2.1"/>
<ellipse transform="matrix(-0.941 0.3385 -0.3385 -0.941 861.7019 -19.4929)" cx="432.6" cy="65.4" rx="1.6" ry="2.1"/>
<ellipse transform="matrix(-0.941 0.3385 -0.3385 -0.941 856.3073 -4.5522)" cx="428.6" cy="72.4" rx="1.6" ry="2.1"/>
<ellipse transform="matrix(-0.941 0.3385 -0.3385 -0.941 836.4692 -15.0928)" cx="419.6" cy="65.4" rx="1.6" ry="2.1"/>
<ellipse transform="matrix(-0.941 0.3385 -0.3385 -0.941 844.3229 -4.4623)" cx="422.6" cy="71.4" rx="1.6" ry="2.1"/>
<ellipse transform="matrix(-0.941 0.3385 -0.3385 -0.941 830.0591 -5.975)" cx="415.6" cy="69.4" rx="1.6" ry="2.1"/>
<ellipse transform="matrix(-0.941 0.3385 -0.3385 -0.941 819.0004 -12.0466)" cx="410.6" cy="65.4" rx="1.6" ry="2.1"/>
<ellipse transform="matrix(-0.941 0.3385 -0.3385 -0.941 809.2955 -10.3543)" cx="405.6" cy="65.4" rx="1.6" ry="2.1"/>
<ellipse transform="matrix(-0.941 0.3385 -0.3385 -0.941 788.8703 -12.7926)" cx="395.6" cy="62.4" rx="1.6" ry="2.1"/>
<ellipse transform="matrix(-0.941 0.3385 -0.3385 -0.941 796.3856 -4.1031)" cx="398.6" cy="67.4" rx="1.6" ry="2.1"/>
<ellipse transform="matrix(-0.941 0.3385 -0.3385 -0.941 807.4443 1.9685)" cx="403.6" cy="71.4" rx="1.6" ry="2.1"/>
<ellipse transform="matrix(-0.941 0.3385 -0.3385 -0.941 819.4286 1.8787)" cx="409.6" cy="72.4" rx="1.6" ry="2.1"/>
<ellipse transform="matrix(-0.941 0.3385 -0.3385 -0.941 785.7551 3.7506)" cx="392.6" cy="70.4" rx="1.6" ry="2.1"/>
<ellipse transform="matrix(-0.941 0.3385 -0.3385 -0.941 778.5783 -2.9979)" cx="389.6" cy="66.4" rx="1.6" ry="2.1"/>
<ellipse transform="matrix(-0.941 0.3385 -0.3385 -0.941 773.004 -12.0258)" cx="387.6" cy="61.4" rx="1.6" ry="2.1"/>
<ellipse transform="matrix(-0.941 0.3385 -0.3385 -0.941 761.3582 -9.995)" cx="381.6" cy="61.4" rx="1.6" ry="2.1"/>
<ellipse transform="matrix(-0.941 0.3385 -0.3385 -0.941 765.3299 1.3124)" cx="382.6" cy="67.4" rx="1.6" ry="2.1"/>
<ellipse transform="matrix(-0.941 0.3385 -0.3385 -0.941 767.3607 12.9582)" cx="382.6" cy="73.4" rx="1.6" ry="2.1"/>
<ellipse transform="matrix(-0.941 0.3385 -0.3385 -0.941 755.0379 11.1071)" cx="376.6" cy="71.4" rx="1.6" ry="2.1"/>
<ellipse transform="matrix(-0.941 0.3385 -0.3385 -0.941 745.2432 0.8151)" cx="372.6" cy="65.4" rx="1.6" ry="2.1"/>
<ellipse transform="matrix(-0.941 0.3385 -0.3385 -0.941 751.3148 -10.2437)" cx="376.6" cy="60.4" rx="1.6" ry="2.1"/>
<ellipse transform="matrix(-0.941 0.3385 -0.3385 -0.941 725.7436 -7.7846)" cx="363.6" cy="59.4" rx="1.6" ry="2.1"/>
<ellipse transform="matrix(-0.941 0.3385 -0.3385 -0.941 716.0387 -6.0923)" cx="358.6" cy="59.4" rx="1.6" ry="2.1"/>
<ellipse transform="matrix(-0.941 0.3385 -0.3385 -0.941 730.0538 5.4638)" cx="364.6" cy="66.4" rx="1.6" ry="2.1"/>
<ellipse transform="matrix(-0.941 0.3385 -0.3385 -0.941 722.0413 16.861)" cx="359.6" cy="71.4" rx="1.6" ry="2.1"/>
<ellipse transform="matrix(-0.941 0.3385 -0.3385 -0.941 730.5719 31.3734)" cx="362.6" cy="79.4" rx="1.6" ry="2.1"/>
<ellipse transform="matrix(-0.941 0.3385 -0.3385 -0.941 781.963 16.4119)" cx="389.6" cy="76.4" rx="1.6" ry="2.1"/>
<ellipse transform="matrix(-0.941 0.3385 -0.3385 -0.941 795.8882 15.9836)" cx="396.6" cy="77.4" rx="1.6" ry="2.1"/>
<ellipse transform="matrix(-0.941 0.3385 -0.3385 -0.941 807.8726 15.8938)" cx="402.6" cy="78.4" rx="1.6" ry="2.1"/>
<ellipse transform="matrix(-0.941 0.3385 -0.3385 -0.941 708.3646 7.2459)" cx="353.6" cy="65.4" rx="1.6" ry="2.1"/>
<ellipse transform="matrix(-0.941 0.3385 -0.3385 -0.941 709.1313 23.1122)" cx="352.6" cy="73.4" rx="1.6" ry="2.1"/>
<ellipse transform="matrix(-0.941 0.3385 -0.3385 -0.941 695.4547 13.4971)" cx="346.6" cy="67.4" rx="1.6" ry="2.1"/>
<ellipse transform="matrix(-0.941 0.3385 -0.3385 -0.941 684.7344 9.3665)" cx="341.6" cy="64.4" rx="1.6" ry="2.1"/>
<ellipse transform="matrix(-0.941 0.3385 -0.3385 -0.941 669.7936 3.9718)" cx="334.6" cy="60.4" rx="1.6" ry="2.1"/>
<ellipse transform="matrix(-0.941 0.3385 -0.3385 -0.941 656.2068 6.3411)" cx="327.6" cy="60.4" rx="1.6" ry="2.1"/>
<ellipse transform="matrix(-0.941 0.3385 -0.3385 -0.941 714.7954 44.1245)" cx="353.6" cy="84.4" rx="1.6" ry="2.1"/>
<ellipse transform="matrix(-0.941 0.3385 -0.3385 -0.941 696.6497 43.2887)" cx="344.6" cy="82.4" rx="1.6" ry="2.1"/>
<ellipse transform="matrix(-0.941 0.3385 -0.3385 -0.941 738.5845 19.9762)" cx="367.6" cy="74.4" rx="1.6" ry="2.1"/>
<ellipse transform="matrix(-0.941 0.3385 -0.3385 -0.941 698.1624 29.0249)" cx="346.6" cy="75.4" rx="1.6" ry="2.1"/>
<ellipse transform="matrix(-0.941 0.3385 -0.3385 -0.941 683.8986 27.5122)" cx="339.6" cy="73.4" rx="1.6" ry="2.1"/>
<ellipse transform="matrix(-0.941 0.3385 -0.3385 -0.941 673.7654 15.2793)" cx="335.6" cy="66.4" rx="1.6" ry="2.1"/>
<ellipse transform="matrix(-0.941 0.3385 -0.3385 -0.941 675.5475 36.9685)" cx="334.6" cy="77.4" rx="1.6" ry="2.1"/>
<ellipse transform="matrix(-0.941 0.3385 -0.3385 -0.941 683.4013 47.599)" cx="337.6" cy="83.4" rx="1.6" ry="2.1"/>
<ellipse transform="matrix(-0.941 0.3385 -0.3385 -0.941 660.0198 39.6762)" cx="326.6" cy="77.4" rx="1.6" ry="2.1"/>
<ellipse transform="matrix(-0.941 0.3385 -0.3385 -0.941 648.8021 55.6323)" cx="319.6" cy="84.4" rx="1.6" ry="2.1"/>
<ellipse transform="matrix(-0.941 0.3385 -0.3385 -0.941 637.3151 35.6354)" cx="315.6" cy="73.4" rx="1.6" ry="2.1"/>
<ellipse transform="matrix(-0.941 0.3385 -0.3385 -0.941 625.0822 45.7686)" cx="308.6" cy="77.4" rx="1.6" ry="2.1"/>
<ellipse transform="matrix(-0.941 0.3385 -0.3385 -0.941 616.89 33.1971)" cx="305.6" cy="70.4" rx="1.6" ry="2.1"/>
<ellipse transform="matrix(-0.941 0.3385 -0.3385 -0.941 618.7411 20.8743)" cx="307.6" cy="64.4" rx="1.6" ry="2.1"/>
<ellipse transform="matrix(-0.941 0.3384 -0.3384 -0.941 600.598 20.0541)" cx="298.6" cy="62.4" rx="1.6" ry="2.1"/>
<ellipse transform="matrix(-0.941 0.3384 -0.3384 -0.941 592.2467 29.5102)" cx="293.6" cy="66.4" rx="1.6" ry="2.1"/>
<ellipse transform="matrix(-0.941 0.3384 -0.3384 -0.941 601.7028 37.8615)" cx="297.6" cy="71.4" rx="1.6" ry="2.1"/>
<ellipse transform="matrix(-0.941 0.3384 -0.3384 -0.941 607.9537 50.7716)" cx="299.6" cy="78.4" rx="1.6" ry="2.1"/>
<ellipse transform="matrix(-0.941 0.3384 -0.3384 -0.941 612.2636 64.0202)" cx="300.6" cy="85.4" rx="1.6" ry="2.1"/>
<ellipse transform="matrix(-0.941 0.3384 -0.3384 -0.941 594.4562 65.1249)" cx="291.6" cy="84.4" rx="1.6" ry="2.1"/>
<ellipse transform="matrix(-0.941 0.3384 -0.3384 -0.941 578.8387 55.8479)" cx="284.6" cy="78.4" rx="1.6" ry="2.1"/>
<ellipse transform="matrix(-0.941 0.3384 -0.3384 -0.941 584.5722 42.8482)" cx="288.6" cy="72.4" rx="1.6" ry="2.1"/>
<ellipse transform="matrix(-0.941 0.3384 -0.3384 -0.941 574.7777 32.5559)" cx="284.6" cy="66.4" rx="1.6" ry="2.1"/>
<ellipse transform="matrix(-0.941 0.3384 -0.3384 -0.941 554.6909 32.0581)" cx="274.6" cy="64.4" rx="1.6" ry="2.1"/>
<ellipse transform="matrix(-0.941 0.3384 -0.3384 -0.941 566.7648 43.953)" cx="279.6" cy="71.4" rx="1.6" ry="2.1"/>
<ellipse transform="matrix(-0.941 0.3384 -0.3384 -0.941 563.6492 60.4962)" cx="276.6" cy="79.4" rx="1.6" ry="2.1"/>
<ellipse transform="matrix(-0.941 0.3384 -0.3384 -0.941 571.8411 73.0679)" cx="279.6" cy="86.4" rx="1.6" ry="2.1"/>
<ellipse transform="matrix(-0.941 0.3384 -0.3384 -0.941 550.4901 76.7905)" cx="268.6" cy="86.4" rx="1.6" ry="2.1"/>
<ellipse transform="matrix(-0.941 0.3384 -0.3384 -0.941 542.5471 54.1754)" cx="266.6" cy="74.4" rx="1.6" ry="2.1"/>
<ellipse transform="matrix(-0.941 0.3384 -0.3384 -0.941 553.8547 50.2039)" cx="272.6" cy="73.4" rx="1.6" ry="2.1"/>
<ellipse transform="matrix(-0.941 0.3384 -0.3384 -0.941 535.9578 39.3243)" cx="264.6" cy="66.4" rx="1.6" ry="2.1"/>
<ellipse transform="matrix(-0.941 0.3384 -0.3384 -0.941 528.9602 56.5443)" cx="259.6" cy="74.4" rx="1.6" ry="2.1"/>
<ellipse transform="matrix(-0.941 0.3384 -0.3384 -0.941 520.9473 67.9414)" cx="254.6" cy="79.4" rx="1.6" ry="2.1"/>
<ellipse transform="matrix(-0.941 0.3384 -0.3384 -0.941 524.9188 79.2489)" cx="255.6" cy="85.4" rx="1.6" ry="2.1"/>
<ellipse transform="matrix(-0.941 0.3384 -0.3384 -0.941 514.9453 44.9878)" cx="253.6" cy="67.4" rx="1.6" ry="2.1"/>
<ellipse transform="matrix(-0.941 0.3384 -0.3384 -0.941 499.1685 57.7386)" cx="244.6" cy="72.4" rx="1.6" ry="2.1"/>
<ellipse transform="matrix(-0.941 0.3384 -0.3384 -0.941 484.9046 56.2255)" cx="237.6" cy="70.4" rx="1.6" ry="2.1"/>
<ellipse transform="matrix(-0.941 0.3384 -0.3384 -0.941 473.2587 58.256)" cx="231.6" cy="70.4" rx="1.6" ry="2.1"/>
<ellipse transform="matrix(-0.941 0.3384 -0.3384 -0.941 465.9226 73.535)" cx="226.6" cy="77.4" rx="1.6" ry="2.1"/>
<ellipse transform="matrix(-0.941 0.3384 -0.3384 -0.941 474.1145 86.1068)" cx="229.6" cy="84.4" rx="1.6" ry="2.1"/>
<ellipse transform="matrix(-0.941 0.3384 -0.3384 -0.941 495.4655 82.3842)" cx="240.6" cy="84.4" rx="1.6" ry="2.1"/>
<ellipse transform="matrix(-0.941 0.3384 -0.3384 -0.941 507.1115 80.3537)" cx="246.6" cy="84.4" rx="1.6" ry="2.1"/>
<ellipse transform="matrix(-0.941 0.3384 -0.3384 -0.941 450.733 78.1834)" cx="218.6" cy="78.4" rx="1.6" ry="2.1"/>
<ellipse transform="matrix(-0.941 0.3384 -0.3384 -0.941 454.1871 63.5811)" cx="221.6" cy="71.4" rx="1.6" ry="2.1"/>
<ellipse transform="matrix(-0.941 0.3384 -0.3384 -0.941 424.2359 86.8032)" cx="204.6" cy="80.4" rx="1.6" ry="2.1"/>
<ellipse transform="matrix(-0.941 0.3384 -0.3384 -0.941 402.885 90.5258)" cx="193.6" cy="80.4" rx="1.6" ry="2.1"/>
<ellipse transform="matrix(-0.941 0.3384 -0.3384 -0.941 418.8409 101.7438)" cx="200.6" cy="87.4" rx="1.6" ry="2.1"/>
<ellipse transform="matrix(-0.941 0.3384 -0.3384 -0.941 436.9867 102.5801)" cx="209.6" cy="89.4" rx="1.6" ry="2.1"/>
<ellipse transform="matrix(-0.941 0.3384 -0.3384 -0.941 454.1172 97.5933)" cx="218.6" cy="88.4" rx="1.6" ry="2.1"/>
<ellipse transform="matrix(-0.941 0.3384 -0.3384 -0.941 395.5489 105.8048)" cx="188.6" cy="87.4" rx="1.6" ry="2.1"/>
<ellipse transform="matrix(-0.941 0.3384 -0.3384 -0.941 372.257 109.8658)" cx="176.6" cy="87.4" rx="1.6" ry="2.1"/>
<ellipse transform="matrix(-0.941 0.3384 -0.3384 -0.941 384.4008 87.7485)" cx="184.6" cy="77.4" rx="1.6" ry="2.1"/>
<ellipse transform="matrix(-0.941 0.3384 -0.3384 -0.941 349.2139 103.8834)" cx="165.6" cy="82.4" rx="1.6" ry="2.1"/>
<ellipse transform="matrix(-0.941 0.3384 -0.3384 -0.941 322.4679 122.5467)" cx="150.6" cy="89.4" rx="1.6" ry="2.1"/>
<ellipse transform="matrix(-0.941 0.3384 -0.3384 -0.941 318.6754 135.2079)" cx="147.6" cy="95.4" rx="1.6" ry="2.1"/>
<ellipse transform="matrix(-0.941 0.3384 -0.3384 -0.941 335.2186 138.3235)" cx="155.6" cy="98.4" rx="1.6" ry="2.1"/>
<ellipse transform="matrix(-0.941 0.3384 -0.3384 -0.941 338.3343 121.7803)" cx="158.6" cy="90.4" rx="1.6" ry="2.1"/>
<ellipse transform="matrix(-0.941 0.3384 -0.3384 -0.941 355.8032 118.7346)" cx="167.6" cy="90.4" rx="1.6" ry="2.1"/>
<ellipse transform="matrix(-0.941 0.3384 -0.3384 -0.941 352.3492 133.3368)" cx="164.6" cy="97.4" rx="1.6" ry="2.1"/>
<ellipse transform="matrix(-0.941 0.3384 -0.3384 -0.941 363.3183 127.4243)" cx="170.6" cy="95.4" rx="1.6" ry="2.1"/>
<ellipse transform="matrix(-0.941 0.3384 -0.3384 -0.941 374.2874 121.5118)" cx="176.6" cy="93.4" rx="1.6" ry="2.1"/>
<ellipse transform="matrix(-0.941 0.3384 -0.3384 -0.941 387.8744 119.1429)" cx="183.6" cy="93.4" rx="1.6" ry="2.1"/>
<ellipse transform="matrix(-0.941 0.3384 -0.3384 -0.941 413.7842 118.6255)" cx="196.6" cy="95.4" rx="1.6" ry="2.1"/>
<ellipse transform="matrix(-0.941 0.3384 -0.3384 -0.941 476.4834 99.6937)" cx="229.6" cy="91.4" rx="1.6" ry="2.1"/>
<ellipse transform="matrix(-0.941 0.3384 -0.3384 -0.941 307.2783 127.195)" cx="142.6" cy="90.4" rx="1.6" ry="2.1"/>
<ellipse transform="matrix(-0.941 0.3384 -0.3384 -0.941 304.1627 143.7382)" cx="139.6" cy="98.4" rx="1.6" ry="2.1"/>
<ellipse transform="matrix(-0.941 0.3384 -0.3384 -0.941 288.9731 148.3865)" cx="131.6" cy="99.4" rx="1.6" ry="2.1"/>
<ellipse transform="matrix(-0.941 0.3384 -0.3384 -0.941 276.9887 148.476)" cx="125.6" cy="98.4" rx="1.6" ry="2.1"/>
<ellipse transform="matrix(-0.941 0.3384 -0.3384 -0.941 258.594 157.6832)" cx="115.6" cy="101.4" rx="1.6" ry="2.1"/>
<ellipse transform="matrix(-0.941 0.3384 -0.3384 -0.941 244.9175 148.0677)" cx="109.6" cy="95.4" rx="1.6" ry="2.1"/>
<ellipse transform="matrix(-0.941 0.3384 -0.3384 -0.941 269.4736 139.7863)" cx="122.6" cy="93.4" rx="1.6" ry="2.1"/>
<ellipse transform="matrix(-0.941 0.3384 -0.3384 -0.941 254.533 134.3913)" cx="115.6" cy="89.4" rx="1.6" ry="2.1"/>
<ellipse transform="matrix(-0.941 0.3384 -0.3384 -0.941 290.4862 134.1227)" cx="133.6" cy="92.4" rx="1.6" ry="2.1"/>
<ellipse transform="matrix(-0.941 0.3384 -0.3384 -0.941 227.6975 141.0701)" cx="101.6" cy="90.4" rx="1.6" ry="2.1"/>
<ellipse transform="matrix(-0.941 0.3384 -0.3384 -0.941 208.6259 146.3952)" cx="91.6" cy="91.4" rx="1.6" ry="2.1"/>
<ellipse transform="matrix(-0.941 0.3385 -0.3385 -0.941 651.8276 27.1048)" cx="323.6" cy="70.4" rx="1.6" ry="2.1"/>
<ellipse transform="matrix(-0.941 0.3385 -0.3385 -0.941 661.4426 13.4281)" cx="329.6" cy="64.4" rx="1.6" ry="2.1"/>
<ellipse transform="matrix(-0.941 0.3385 -0.3385 -0.941 634.6074 20.1076)" cx="315.6" cy="65.4" rx="1.6" ry="2.1"/>
<ellipse transform="matrix(-0.941 0.3385 -0.3385 -0.941 931.3285 -21.6343)" cx="467.6" cy="70.4" rx="1.6" ry="2.1"/>
<ellipse transform="matrix(-0.941 0.3385 -0.3385 -0.941 998.8553 -1.4095)" cx="499.6" cy="86.4" rx="1.6" ry="2.1"/>
</svg>
