<?xml version="1.0" encoding="utf-8"?>
<!-- Generator: Adobe Illustrator 18.1.1, SVG Export Plug-In . SVG Version: 6.00 Build 0)  -->
<svg version="1.1" id="silver_salmon" xmlns="http://www.w3.org/2000/svg" xmlns:xlink="http://www.w3.org/1999/xlink" x="0px"
	 y="0px" viewBox="0 110.6 359.9 138.8" enable-background="new 0 110.6 359.9 138.8" xml:space="preserve">
<path fill="#504E3C" d="M330.8,190.3c0,0,12.9-9.4,15-9.2s6.4,1.6,9,0.9s4-5.2-0.7-7.6c-4.7-2.4-19.6-8.9-28.9-11
	c-9.4-2.1-33.9-10.1-44.7-12.5c-10.8-2.4-44.8-10.3-58.9-9.8c-14.1,0.5-23.3,1.9-24.2,0.9c-0.9-1-9-14.3-10.1-16
	c-1.1-1.7-5.6-8.3-8-10.8c-2.3-2.6-7.3-4.9-8.5-4.7c-1.2,0.2-2.3,3.5-5.9,8c-3.5,4.4-10.8,12.2-12.7,15c-1.9,2.8-4.2,4.9-3,6.6
	s6.8,4.7,7.1,6.8s-8.5,3.3-14.3,4s-38.1,6.1-40.9,6.6c-2.8,0.4-4,0.9-4.7,0.5c-0.7-0.4-6.6-4.2-10.1-4.2s-11.5,0.5-10.1,3
	c1.4,2.6,5.9,4,7.1,4.2s-5.9,2.3-9,2.8c-3.1,0.5-15.3,2.1-17.9,1.4S34.6,155,26.6,151.5c-8-3.5-21.7-12-24.5-11
	c-2.8,1-2.3,3.3-1.4,4.4s7.3,6.4,7.6,21c0.2,14.5-0.9,42.8-1.6,47.7s-1.2,11.5,0.7,11.3s9.7-3.7,20.7-9.7
	c11.1-5.9,19.1-12.9,25.9-14.3c6.8-1.4,23.3-3.7,26.6-2.3c3.3,1.4,5.6,2.1,4.2,2.6s-5.6,1.2-5.6,2.3c0,1.2,5.4,5.4,10.6,10.6
	c5.2,5.2,11.5,14.6,12.7,16.4c1.2,1.8-0.7,2.1,1.2,1.9c1.9-0.2,18.6-11.3,21.4-18.8c0,0,21.4,7.8,40.4,5.9c0,0-0.7,1.4-2.6,2.6
	s-3.5,2.3-3.7,3c-0.2,0.7,7.6,23.3,10.8,24.2c3.3,1,15.7-20.2,17.9-28c0,0,17.6,0,41.9-1.6c24.2-1.6,68.7-4,72.9-10.1
	c0,0,3.5,0.2,7.1,0.2c3.5,0,18.8-5.4,22.4-6.4s16.2-6.6,19.8-7.6s9.4-6.4,8-7.8c-1.4-1.4-4.9-0.2-15.7,4.7
	C344,193,335.1,191.5,330.8,190.3z"/>
<path fill="#FFFFFF" d="M329.6,190.3c0,0,9.4-6.7,12.2-8.1c2.8-1.4,3.3-1.9,4.7-1.8c1.4,0.1,4.7,0.9,6.4,0.8
	c1.6-0.1,2.3,0.1,2.3-0.7c0-0.8,0-1.9-1.6-3c-1.6-1.1-14.3-7.1-19.3-8.7c-5.1-1.6-33.2-8.7-48.5-12.5c-15.3-3.8-48.8-9.9-67.8-10.1
	c-19-0.3-78.7,8.2-93,10.3s-37.6,6.7-44.1,7.8c-6.6,1.1-22.6,2.8-24.5,2.5c-1.9-0.4-35.5-17.1-38.2-18.1s-4.7-2.3-6.4-2.1
	c-1.6,0.2-3.2,2.8-3.2,4.6s3,6.6,3.9,10.4c0.9,3.7,1.9,11.5,1.1,20.1c-0.8,8.6-4.2,24-3.5,28.4c0.7,4.4,2.6,9,4,9.3
	s9.7-3.4,14.3-5.8s16.8-10.4,20.5-11.9c3.7-1.4,13.1-4.1,21.7-4.4s9-0.5,10,0c1.1,0.5,18.8,7.9,27.9,9.4c0,0-15.2-1.8-22.4-5.1
	c0,0-5.2,2.1-4.7,2.8c0.4,0.7,2.1,2.5,7.6,7.3c5.4,4.8,11.5,13.6,13.2,16.2c1.6,2.7,1.9,3,2.7,2.7c0.8-0.4,10-5.5,19.6-17.4
	l-2.6-1.4c0,0,6.1,2.3,10.7,3.3c4.6,1.1,15,4.2,35.3,3.4c0,0-3.4,3.2-4.4,4.1c-1.1,0.9-3,2.1-3,2.8c0,0.7,7.9,22.8,9.9,22.8
	c2,0,14-18,16.9-28c0,0,29.2-0.9,41.2-1.8c12-0.8,39.3-2.6,50.7-4.1c11.4-1.6,19.6-2.6,22.6-5.5c0,0-5.5-1.6-8.1-5.2
	c0,0,8.3,6.5,17.1,4.8c8.8-1.7,20.5-6.4,20.3-6.7c-0.1-0.4-9.3-3-11.6-3c-2.3,0-14.5,1.6-14.5,1.6s13.6-2.1,15.9-3
	c2.3-0.8,7.6-4,9-4.1c1.3-0.1,10.6,2.1,12,2.1s15.7-6.4,15.3-6.7s-4.1,0.7-12.7,4.4C344.1,193.5,331.7,192.1,329.6,190.3z"/>
<path fill="#504E3C" d="M164.4,237.4c-2.1-5.4-4.2-11.3-4.2-11.7c0-0.5,0.9-1.2,1.9-2c0.4-0.3,0.8-0.6,1.2-0.9
	c0.9-0.8,3.6-3.3,4.3-4c-2.1,0.1-4.2,0.1-6.3,0.1c-14.3,0-22.8-2-27.3-3.2c-0.6-0.1-1.1-0.3-1.5-0.4c-3.4-0.8-7.7-2.3-9.7-2.9
	l1.7,0.9l-0.1,0.1c-10.2,12.6-19.6,17.4-19.7,17.4c-0.2,0.1-0.4,0.1-0.5,0.1c-0.6,0-1.1-0.7-2.3-2.9c-1.6-2.6-7.7-11.3-13.1-16.2
	c-4.4-4-6.9-6.4-7.6-7.3c-0.1-0.1-0.1-0.1,0-0.2c0.3-0.8,4.3-2.5,4.8-2.7l0,0l0,0c5.4,2.5,15.2,4.1,19.8,4.7
	c-9.1-2.1-23.5-8-25.5-8.9c-0.4-0.2-0.8-0.3-1.6-0.3c-0.6,0-1.3,0-2.6,0.1c-1.3,0.1-3.2,0.1-5.8,0.2c-9.2,0.3-18.7,3.2-21.6,4.4
	c-2.2,0.8-7.5,4.1-12.2,7c-3.3,2-6.4,4-8.3,4.9c-4.3,2.3-12.4,5.8-14.1,5.8c-0.1,0-0.1,0-0.1,0c-1.6-0.3-3.4-5.2-4.1-9.4
	c-0.4-2.8,0.7-9.7,1.8-16.4c0.7-4.3,1.4-8.7,1.8-12c0.8-7.9,0-15.8-1.1-20.1c-0.5-1.8-1.4-4-2.3-5.9c-0.8-2-1.6-3.6-1.6-4.5
	c0-1.8,1.6-4.4,3.2-4.7c0.1,0,0.3,0,0.4,0c1.1,0,2.3,0.6,3.8,1.2c0.7,0.3,1.4,0.6,2.2,0.9c1.1,0.4,7.2,3.4,14.3,6.8
	c10.2,4.9,22.9,11.1,24,11.3c0.1,0,0.4,0.1,0.8,0.1c3.7,0,17.4-1.6,23.6-2.5c2.3-0.4,6.7-1.2,12.3-2.2c9.6-1.8,22.7-4.2,31.8-5.6
	c0.7-0.1,69.9-10.4,92.2-10.4c0.3,0,0.6,0,0.8,0c19.8,0.2,53.9,6.7,67.8,10.1c16.1,4,43.5,10.9,48.5,12.5c4.9,1.6,17.6,7.5,19.3,8.8
	c1.7,1.2,1.7,2.3,1.7,3.1c0,0.7-0.5,0.7-1.4,0.8c-0.3,0-0.6,0-1,0.1c-1.1,0.1-2.8-0.2-4.2-0.5c-0.8-0.1-1.6-0.3-2.1-0.4
	c-0.1,0-0.3,0-0.4,0c-0.8,0-1.4,0.3-2.8,1c-0.4,0.2-0.9,0.5-1.5,0.8c-2.6,1.3-11.2,7.3-12.1,8c2.3,1.6,13.8,3,14.4,3.1
	c6.5-2.8,11.2-4.5,12.4-4.5c0.1,0,0.3,0,0.4,0.1c0,0,0.1,0.1,0,0.1c-0.3,0.7-14.1,6.7-15.4,6.7c-0.6,0-3-0.5-5.5-1
	c-2.7-0.6-5.5-1.1-6.4-1.1c-0.1,0-0.1,0-0.1,0c-0.7,0.1-2.8,1.1-4.8,2.2c-1.6,0.8-3.1,1.6-4.1,2c-1.3,0.5-6.2,1.3-10.3,2
	c3.5-0.4,7.6-0.9,8.8-0.9c2.2,0,11.6,2.5,11.7,3v0.1c-0.4,0.6-11.6,5.1-20.4,6.7c-1,0.2-2,0.3-3,0.3c-6.4,0-12-3.6-13.7-4.7
	c2.7,3.2,7.6,4.7,7.7,4.7l0.1,0.1l-0.1,0.1c-3,2.9-11.1,4-22.2,5.5l-0.4,0.1c-10.2,1.3-33,2.9-46.6,3.8c-1.5,0.1-2.9,0.2-4.1,0.3
	c-11.6,0.8-39.6,1.7-41.2,1.8c-2.9,9.9-14.9,28-17,28C169.3,248.6,167.3,244.8,164.4,237.4z M293.4,204l-0.4-0.5l0.5,0.4
	c0.1,0.1,6.6,5.1,14,5.1c1,0,2-0.1,3-0.3c8.7-1.6,19.5-6,20.3-6.6c-0.7-0.4-9.2-2.9-11.5-2.9s-14.3,1.6-14.5,1.6v-0.1l0,0l0,0l0,0
	c0.2,0,13.7-2.1,15.9-3c1-0.4,2.5-1.2,4.1-2c2.1-1.1,4.1-2.1,4.9-2.2c0.7-0.1,3.7,0.6,6.6,1.1c2.5,0.5,4.8,1,5.5,1
	c0.6,0,3.8-1.3,8-3.1c4.2-1.8,6.8-3.2,7.2-3.5c0,0-0.1,0-0.1,0c-1,0-4.8,1.2-12.4,4.5l0,0l0,0c-0.5-0.1-12.5-1.4-14.6-3.2l-0.1-0.1
	l0.1-0.1c0.1-0.1,9.5-6.7,12.3-8.1c0.6-0.3,1.1-0.6,1.5-0.8c1.4-0.7,2-1.1,2.9-1.1c0.1,0,0.3,0,0.4,0c0.5,0.1,1.3,0.2,2.1,0.4
	c1.5,0.3,3.2,0.6,4.2,0.5c0.4,0,0.7-0.1,1-0.1c1,0,1.3-0.1,1.3-0.6c0-0.8,0-1.8-1.6-3c-1.7-1.2-14.3-7.1-19.3-8.7
	c-4.9-1.6-32.3-8.5-48.5-12.5c-13.8-3.4-47.9-9.9-67.8-10.1c-0.3,0-0.5,0-0.8,0c-22.2,0-91.4,10.2-92.1,10.4
	c-9.2,1.3-22.2,3.8-31.8,5.6c-5.6,1.1-10,1.8-12.3,2.2c-6.2,1-20,2.5-23.6,2.5c-0.4,0-0.6,0-0.8-0.1c-1.1-0.2-13.3-6.1-24-11.3
	c-7.1-3.4-13.1-6.4-14.2-6.8c-0.8-0.3-1.5-0.6-2.2-0.9c-1.4-0.6-2.7-1.2-3.7-1.2c-0.1,0-0.3,0-0.4,0c-1.6,0.2-3.1,2.8-3.1,4.5
	c0,0.8,0.8,2.5,1.6,4.4c0.8,1.9,1.8,4,2.3,5.9c1.1,4.3,1.8,12.2,1.1,20.1c-0.4,3.3-1.1,7.8-1.8,12c-1.1,6.7-2.3,13.7-1.8,16.4
	c0.7,4.6,2.6,9,4,9.2c0.1,0,0.1,0,0.1,0c1.8,0,9.7-3.5,14-5.8c1.8-1,4.9-2.8,8.2-4.9c4.9-3,10.1-6.1,12.3-7
	c2.9-1.1,12.5-4.1,21.7-4.4c2.6-0.1,4.4-0.1,5.8-0.2c1.2-0.1,2-0.1,2.6-0.1c0.9,0,1.2,0.1,1.7,0.3c2.1,0.9,19.2,8,27.9,9.4v0.1
	c-0.1,0-15.2-1.8-22.4-5.1c-1.3,0.5-4.4,2-4.7,2.6c0,0.1,0,0.1,0,0.1c0.6,0.9,3.2,3.4,7.5,7.3c5.5,4.9,11.6,13.6,13.2,16.2
	c1.3,2.2,1.7,2.8,2.2,2.8c0.1,0,0.2,0,0.4-0.1c0.1-0.1,9.4-4.9,19.6-17.3l-2.5-1.3l0.1-0.1c0.1,0,6.1,2.3,10.7,3.3
	c0.4,0.1,1,0.2,1.5,0.4c4.5,1.1,12.9,3.2,27.2,3.2c2.1,0,4.3-0.1,6.5-0.1h0.2l-0.1,0.1c0,0-3.5,3.2-4.4,4.1
	c-0.4,0.3-0.8,0.6-1.2,0.9c-0.8,0.6-1.8,1.4-1.8,1.8c0,0.4,2,6.1,4.2,11.6c2.8,7.1,4.8,11.1,5.6,11.1c0.9,0,4.4-4.4,8-10.2
	c4.2-6.7,7.6-13.3,8.8-17.7v-0.1h0.1c0.3,0,29.3-0.9,41.2-1.8c1.2-0.1,2.6-0.1,4.1-0.3c13.6-0.9,36.4-2.5,46.6-3.8l0.4-0.1
	c11-1.5,18.9-2.5,22-5.4C300.5,208.8,295.7,207.2,293.4,204z"/>
<path fill="#504E3C" d="M297,165.6c0,0-0.6,0.4-1.6,1.1c-1,0.8-2.5,1.8-4.2,3.1c-0.8,0.7-1.8,1.4-2.8,2.2c-0.9,0.8-2,1.7-2.9,2.7
	c-0.2,0.2-0.5,0.5-0.7,0.8c-0.3,0.4-0.4,0.6-0.6,0.8c-0.4,0.6-0.8,1.3-1.1,2c-0.6,1.3-1.1,2.8-1.3,4.2c-0.3,1.5-0.4,3-0.5,4.4
	c-0.1,1.5,0.1,2.9,0.4,4.3c0.3,1.3,0.8,2.7,1.5,3.7c0.6,1.1,1.4,2,2.1,2.9c1.4,1.7,2.8,2.8,3.8,3.7c0.5,0.4,0.9,0.7,1.2,0.9
	c0.3,0.2,0.4,0.3,0.4,0.3s-0.6-0.5-1.4-1.4c-0.9-0.9-2.1-2.3-3.3-4c-0.6-0.8-1.3-1.8-1.8-2.9c-0.6-1.1-1-2.3-1.2-3.5
	c-0.3-1.3-0.3-2.6-0.3-4c0.1-1.4,0.2-2.8,0.5-4.2c0.3-1.4,0.6-2.8,1.2-4c0.3-0.6,0.6-1.2,0.9-1.8c0.1-0.3,0.4-0.6,0.6-0.8
	c0.2-0.3,0.4-0.5,0.6-0.8c1.8-1.9,3.7-3.7,5.3-5.1C294.8,167.5,297,165.6,297,165.6z"/>
<path fill="#504E3C" d="M302.3,193.5c0,0-0.3-0.4-0.8-1.1c-0.5-0.6-1.2-1.6-1.9-2.8c-0.4-0.6-0.7-1.3-1-2c-0.3-0.7-0.5-1.5-0.4-2.2
	c0.1-0.8,0.1-1.8,0.2-2.7c0.1-0.9,0.2-1.8,0.3-2.8c0.1-0.9,0.2-1.9,0.3-2.8c0.1-0.9,0.2-1.8,0.4-2.6c0-0.1,0-0.1,0-0.1l0,0
	c0,0.1-0.1,0.1-0.1,0.1c0,0-0.1,0.1-0.1,0l0,0l0,0l0,0c0,0,0.1-0.1,0.2-0.1c0.2-0.1,0.4-0.1,0.7-0.3s0.6-0.4,0.7-0.8
	c0.1-0.1,0.1-0.3,0.2-0.4c0.4-0.6,0.8-1.3,1.3-1.9c0.8-1.1,1.6-2,2.1-2.7c0.3-0.3,0.5-0.5,0.7-0.6c0.1-0.1,0.3-0.2,0.3-0.2
	s-0.1,0.1-0.3,0.1c-0.2,0.1-0.5,0.3-0.8,0.5c-0.7,0.5-1.6,1.3-2.5,2.3c-0.5,0.6-1,1.1-1.5,1.8c-0.1,0.1-0.3,0.4-0.4,0.6
	c0,0.1-0.1,0.1-0.2,0.1c-0.1,0.1-0.3,0.1-0.5,0.1c-0.1,0.1-0.2,0.1-0.4,0.1h-0.1l0,0l0,0l-0.1,0.1c-0.1,0.1-0.1,0.1-0.2,0.2
	c-0.1,0.1-0.1,0.1-0.1,0.1c-0.1,0.1-0.1,0.1-0.1,0.2c-0.1,0.5-0.2,0.9-0.3,1.4c-0.1,0.4-0.1,0.9-0.2,1.4c-0.1,0.9-0.2,1.9-0.4,2.8
	c-0.1,0.9-0.1,1.9-0.2,2.8s-0.1,1.8-0.1,2.8c0,1.1,0.4,2,0.7,2.7c0.4,0.8,0.8,1.4,1.3,2c0.9,1.1,1.8,2,2.4,2.5
	C301.9,193.2,302.3,193.5,302.3,193.5z"/>
<path fill="#504E3C" d="M331,183.6c0,0-1.4,0.1-3.5,0.6c-1.1,0.2-2.3,0.5-3.6,0.8c-0.6,0.2-1.3,0.4-2,0.6c-0.6,0.2-1.3,0.5-2,0.8
	c-0.6,0.3-1.3,0.6-2,0.9c-0.6,0.4-1.3,0.7-1.8,1.3c-0.3,0.3-0.6,0.6-0.7,1.1c0,0.1-0.1,0.3-0.1,0.5c0,0.1-0.1,0.4-0.1,0.5
	c-0.1,0.6-0.1,1.3-0.1,1.8c0.1,1.1,0.2,2,0.4,2.6c0.1,0.6,0.3,1,0.3,1s0-0.4,0-1s0.1-1.5,0.2-2.5c0.1-0.5,0.1-1.1,0.3-1.6
	c0.1-0.1,0.1-0.3,0.1-0.4s0.1-0.3,0.1-0.4c0.1-0.1,0.2-0.3,0.4-0.5c0.4-0.4,1.1-0.6,1.6-1c0.6-0.3,1.3-0.6,1.9-0.8
	c0.6-0.3,1.3-0.5,2-0.8c0.6-0.2,1.3-0.5,1.9-0.7c1.3-0.5,2.4-0.9,3.4-1.3C329.6,184.2,331,183.6,331,183.6z"/>
<path fill="#504E3C" d="M277.3,198.7c0,0-6.9-4-18.1-3.2c-11.2,0.8-22.2,2.1-20.5,6.6c1.8,4.4,11.6,9.2,21.2,12.6
	c0,0-18.8-10.4-17.5-13.3C243.7,198.6,265,195.6,277.3,198.7z"/>
<path fill="#504E3C" d="M44.8,167.7c0,0-0.6,0.1-1.7,0.4c-1.1,0.3-2.6,0.8-4.4,1.7c-0.8,0.4-1.8,1-2.6,1.8c-0.4,0.4-0.8,0.8-1.1,1.4
	c-0.4,0.6-0.6,1.2-0.6,1.9c-0.1,1.2-0.4,2.4-0.6,3.6c-0.2,1.3-0.4,2.5-0.6,3.7c-0.2,1.3-0.4,2.5-0.4,3.9c-0.1,0.6-0.1,1.3,0,2
	c0.1,0.6,0.1,1.3,0.4,2c0.1,0.4,0.3,0.6,0.6,0.9c0.1,0.1,0.1,0.1,0.2,0.2l0.1,0.1l0.4,0.3c0.5,0.4,1,0.6,1.5,0.9
	c1,0.6,1.9,1.1,2.8,1.5c1.7,0.8,3.2,1.5,4.2,1.9c1.1,0.4,1.6,0.6,1.6,0.6s-2.2-1.3-5.4-3.3c-0.8-0.5-1.7-1.1-2.6-1.7
	c-0.4-0.3-0.9-0.6-1.3-1l-0.4-0.3l-0.1-0.1l-0.1-0.1c-0.1-0.1-0.2-0.4-0.3-0.6c-0.4-1-0.3-2.2-0.2-3.4c0.1-1.2,0.3-2.5,0.4-3.7
	c0.4-2.5,0.8-5,1.1-7.5c0.1-1.1,0.6-2,1.3-2.8c0.7-0.8,1.5-1.3,2.3-1.9c1.6-1,3-1.7,4.1-2.1C44.3,167.9,44.8,167.7,44.8,167.7z"/>
<g>
	<path fill="#FFFFFF" d="M95.1,159.3c0,0-6-4.1-7.4-4.4c-1.4-0.3-10.4,0-10.6,1.3s5.1,3,6.4,3.4c1.3,0.4,2.1,1.6,2.1,1.6L95.1,159.3
		z"/>
	<path d="M85.5,161.3c0,0-0.8-1.1-2-1.5c-0.1-0.1-0.3-0.1-0.6-0.2c-3-1.1-6-2.3-5.9-3.3c0.1-1.2,6.4-1.5,8.8-1.5
		c0.8,0,1.6,0,1.9,0.1c1.4,0.2,7.2,4.2,7.4,4.4l0.1,0.1L85.5,161.3L85.5,161.3L85.5,161.3z M87.7,155c-0.3-0.1-1-0.1-1.8-0.1
		c-3.6,0-8.5,0.4-8.6,1.3c-0.1,1.1,4.2,2.5,5.8,3.1c0.2,0.1,0.4,0.1,0.6,0.2c1.2,0.4,2,1.3,2.1,1.5l9.2-1.8
		C93.9,158.6,88.9,155.3,87.7,155z"/>
</g>
<g>
	<path fill="#FFFFFF" d="M195,143.7l-38.6,5c0,0,1.3-1.2,0.5-2.5c-0.8-1.3-6.9-5.8-7.1-6.9c-0.1-1.2,7.6-11.3,10.7-14.6
		c3.2-3.3,7.9-9.4,8.6-10.8c0.7-1.4,0.9-2.3,1.9-2.3c0.9,0,4.8,1.4,6.6,3.4C179.4,116.9,197.3,141.4,195,143.7z"/>
	<path d="M156.4,148.6c0,0,1.2-1.1,0.4-2.3c-0.4-0.6-1.6-1.7-3-2.8c-2-1.7-4-3.4-4-4.1c-0.1-1.3,7.6-11.4,10.7-14.7
		c3.2-3.3,7.9-9.4,8.5-10.8c0.1-0.3,0.2-0.5,0.4-0.7c0.5-1,0.8-1.7,1.6-1.7c0.9,0,4.9,1.4,6.6,3.5c1.6,1.9,19.8,26.5,17.4,28.8l0,0
		l-38.6,5.1l-0.3,0.1L156.4,148.6z M177.5,115c-1.8-2-5.6-3.4-6.5-3.4c-0.7,0-1,0.6-1.5,1.6c-0.1,0.2-0.2,0.4-0.4,0.7
		c-0.7,1.4-5.4,7.5-8.6,10.9c-3.3,3.4-10.8,13.4-10.7,14.5c0.1,0.6,2.1,2.4,4,4c1.4,1.2,2.7,2.3,3,2.9c0.6,1.1,0,2-0.3,2.4l38.3-5
		C197,141.4,179.8,117.6,177.5,115z"/>
</g>
<path fill="#504E3C" d="M315.5,201.4c0,0-0.3,0-0.8,0.1c-0.5,0.1-1.2,0.1-2,0.3c-0.8,0.1-1.8,0.3-2.9,0.4s-2.2,0.4-3.3,0.6
	s-2.3,0.4-3.2,0.6c-1.1,0.2-2,0.4-2.8,0.6c-0.8,0.1-1.6,0.4-2,0.4c-0.5,0.1-0.8,0.1-0.8,0.1s0.1,0,0.2,0c0.1,0,0.4,0,0.6,0
	c0.5,0,1.2-0.1,2-0.1c0.8-0.1,1.8-0.2,2.9-0.4c1.1-0.1,2.2-0.4,3.3-0.6c1.1-0.2,2.3-0.4,3.2-0.6c1.1-0.2,2-0.5,2.8-0.6
	c0.8-0.2,1.5-0.4,2-0.5C315.3,201.5,315.5,201.4,315.5,201.4z"/>
<path fill="#504E3C" d="M317.4,202.5c0,0-0.3,0.1-0.8,0.1c-0.5,0.1-1.1,0.2-2,0.4c-0.8,0.2-1.8,0.4-2.8,0.6c-1,0.2-2,0.5-3.2,0.8
	c-4.3,1.1-8.5,2.2-8.5,2.2s0.3,0,0.8-0.1c0.5-0.1,1.2-0.1,2-0.2c0.8-0.1,1.8-0.3,2.8-0.5c1-0.2,2.1-0.4,3.2-0.7s2.1-0.6,3.1-0.8
	c1-0.3,1.9-0.6,2.7-0.8c0.8-0.3,1.4-0.5,1.9-0.6C317.2,202.6,317.4,202.5,317.4,202.5z"/>
<path fill="#504E3C" d="M320.8,203.9c0,0-0.2,0.1-0.7,0.1c-0.4,0.1-1.1,0.2-1.8,0.4c-1.5,0.3-3.4,0.8-5.3,1.3
	c-1.9,0.5-3.8,1.1-5.2,1.4c-0.7,0.2-1.3,0.4-1.7,0.5c-0.4,0.1-0.6,0.2-0.6,0.2s1-0.1,2.5-0.3c1.5-0.2,3.4-0.6,5.3-1.1
	c1.9-0.5,3.8-1.1,5.2-1.6c0.7-0.2,1.3-0.5,1.7-0.6C320.5,204,320.8,203.9,320.8,203.9z"/>
<path fill="#504E3C" d="M279.2,200.6c0,0-0.5-0.1-1.4-0.1s-2.2-0.1-3.7-0.2c-1.6-0.1-3.4-0.1-5.4-0.2c-2,0-4-0.1-6.1-0.1
	s-4.2,0.1-6.1,0.2c-1,0-1.9,0.1-2.8,0.2c-0.9,0.1-1.8,0.1-2.5,0.2s-1.5,0.2-2.1,0.3c-0.6,0.1-1.2,0.1-1.6,0.3
	c-0.9,0.1-1.4,0.3-1.4,0.3s0.5-0.1,1.4-0.1c0.4-0.1,1-0.1,1.6-0.1c0.6,0,1.3-0.1,2.1-0.1c0.8,0,1.6-0.1,2.5-0.1
	c0.9,0,1.8-0.1,2.8-0.1c2-0.1,4-0.1,6.1-0.1c2-0.1,4.2-0.1,6.1-0.1c2,0,3.7,0,5.4,0c1.6,0,2.9,0,3.8,0
	C278.7,200.6,279.2,200.6,279.2,200.6z"/>
<path fill="#504E3C" d="M279.7,203.9c0,0-0.5-0.1-1.3-0.1c-0.8-0.1-2-0.1-3.4-0.2c-1.4,0-3-0.1-4.8-0.1c-1.8,0-3.6,0.1-5.5,0.1
	c-1.8,0.1-3.7,0.2-5.5,0.4c-1.8,0.2-3.4,0.4-4.7,0.6c-0.7,0.1-1.3,0.2-1.9,0.4c-0.6,0.1-1.1,0.2-1.4,0.4c-0.8,0.2-1.3,0.3-1.3,0.3
	s0.5-0.1,1.3-0.1c0.4-0.1,0.9-0.1,1.5-0.2c0.6-0.1,1.2-0.1,1.9-0.2s1.5-0.1,2.3-0.2c0.8-0.1,1.6-0.1,2.5-0.2
	c0.8-0.1,1.8-0.1,2.7-0.2s1.8-0.1,2.8-0.1c1.8-0.1,3.7-0.1,5.5-0.2c1.8-0.1,3.4-0.1,4.8-0.1C277.8,204,279.7,203.9,279.7,203.9z"/>
<path fill="#504E3C" d="M279.7,206.2c0,0-1.6-0.1-4-0.1c-1.2,0.1-2.6,0.1-4.1,0.1c-1.5,0.1-3.1,0.2-4.7,0.4
	c-1.6,0.2-3.2,0.4-4.7,0.7s-2.9,0.6-4,0.8c-0.6,0.1-1.1,0.3-1.6,0.4s-0.8,0.3-1.2,0.4c-0.6,0.2-1.1,0.4-1.1,0.4s0.4-0.1,1.1-0.2
	c0.4-0.1,0.8-0.2,1.3-0.3s1-0.2,1.6-0.3c0.6-0.1,1.2-0.2,1.9-0.4c0.7-0.1,1.4-0.2,2.1-0.4c0.8-0.1,1.5-0.2,2.3-0.3
	c0.8-0.1,1.6-0.2,2.4-0.3c1.6-0.2,3.2-0.4,4.7-0.5c1.5-0.1,2.9-0.3,4.1-0.4C278,206.3,279.7,206.2,279.7,206.2z"/>
<path fill="#504E3C" d="M280.6,208.5c0,0-0.4,0-0.9,0s-1.5,0-2.5,0.1c-1,0.1-2.2,0.1-3.5,0.2c-1.3,0.1-2.6,0.3-4,0.5
	c-0.7,0.1-1.3,0.2-2,0.4c-0.6,0.1-1.3,0.3-1.9,0.4c-1.3,0.3-2.4,0.6-3.4,0.8c-0.5,0.1-0.9,0.3-1.3,0.4c-0.4,0.1-0.7,0.3-1,0.4
	c-0.6,0.2-0.8,0.4-0.8,0.4s0.4-0.1,0.9-0.2c0.3-0.1,0.6-0.2,1.1-0.3c0.4-0.1,0.8-0.2,1.3-0.3c1-0.2,2.2-0.4,3.4-0.6
	c1.3-0.2,2.6-0.4,4-0.6c1.3-0.2,2.7-0.4,4-0.6c1.3-0.1,2.5-0.4,3.5-0.5s1.8-0.3,2.5-0.4C280.3,208.6,280.6,208.5,280.6,208.5z"/>
<path fill="#504E3C" d="M183.9,221.3c0,0-0.1,0.4-0.4,1.1c-0.3,0.7-0.7,1.7-1.3,2.9c-0.5,1.2-1.2,2.6-1.9,4
	c-0.4,0.7-0.8,1.5-1.1,2.3c-0.4,0.8-0.8,1.6-1.3,2.3c-0.4,0.8-0.8,1.5-1.3,2.3c-0.5,0.7-0.9,1.5-1.4,2.1c-0.5,0.6-0.9,1.3-1.3,1.9
	c-0.5,0.6-0.8,1.2-1.3,1.7c-0.4,0.5-0.8,1-1.1,1.3c-0.4,0.4-0.7,0.7-0.9,1c-0.5,0.6-0.8,0.8-0.8,0.8s0.4-0.3,0.9-0.8
	c0.3-0.3,0.6-0.6,1.1-0.9c0.4-0.4,0.8-0.8,1.3-1.3c0.5-0.5,0.9-1.1,1.4-1.6c0.5-0.6,1-1.2,1.5-1.9c0.5-0.6,1-1.4,1.4-2.1
	c0.5-0.7,0.9-1.5,1.3-2.3c0.4-0.8,0.8-1.6,1.3-2.3c0.4-0.8,0.8-1.6,1.1-2.3c0.7-1.5,1.3-3,1.7-4.2
	C183.5,223,183.9,221.3,183.9,221.3z"/>
<path fill="#504E3C" d="M181.1,221.3c0,0-0.6,1.4-1.6,3.5c-0.5,1.1-1.1,2.2-1.8,3.5c-0.4,0.6-0.7,1.3-1.1,1.9
	c-0.4,0.6-0.8,1.3-1.2,1.9c-0.4,0.6-0.8,1.3-1.3,1.8c-0.4,0.6-0.8,1.2-1.3,1.8s-0.8,1.1-1.3,1.6c-0.2,0.3-0.4,0.5-0.6,0.7
	c-0.2,0.2-0.4,0.4-0.6,0.6c-0.4,0.4-0.7,0.8-1.1,1.1c-0.4,0.4-0.6,0.6-0.8,0.8c-0.5,0.5-0.7,0.8-0.7,0.8s0.3-0.2,0.8-0.6
	c0.3-0.2,0.6-0.5,0.9-0.8c0.4-0.3,0.7-0.7,1.1-1.1c0.2-0.2,0.4-0.4,0.6-0.6s0.4-0.5,0.6-0.7c0.4-0.5,0.9-1,1.3-1.6
	c0.4-0.6,0.9-1.1,1.3-1.8c0.4-0.6,0.9-1.2,1.3-1.9c0.4-0.6,0.8-1.3,1.2-2c0.4-0.6,0.7-1.3,1.1-2c0.6-1.3,1.2-2.5,1.6-3.6
	s0.7-2,0.9-2.6C181,221.7,181.1,221.3,181.1,221.3z"/>
<path fill="#504E3C" d="M177.8,220.8c0,0-0.1,0.3-0.4,0.8c-0.2,0.5-0.6,1.2-1,2c-0.2,0.4-0.5,0.8-0.8,1.3s-0.6,0.9-0.9,1.4
	c-0.4,0.5-0.7,1-1.1,1.5c-0.4,0.5-0.7,1-1.1,1.5c-0.4,0.5-0.8,1-1.2,1.4c-0.4,0.4-0.8,0.9-1.2,1.3c-0.4,0.4-0.8,0.8-1.1,1.3
	c-0.4,0.4-0.7,0.8-1.1,1.1c-0.6,0.7-1.2,1.2-1.6,1.6c-0.4,0.4-0.6,0.6-0.6,0.6s0.3-0.2,0.7-0.5c0.2-0.1,0.5-0.4,0.8-0.6
	c0.3-0.2,0.6-0.5,1-0.8c0.7-0.6,1.6-1.3,2.3-2.2c0.4-0.4,0.8-0.8,1.3-1.3c0.4-0.4,0.8-0.9,1.2-1.4c0.4-0.5,0.8-1,1.1-1.5
	c0.4-0.5,0.7-1.1,1-1.5c0.3-0.5,0.6-1,0.8-1.5c0.3-0.5,0.5-0.9,0.6-1.3c0.4-0.8,0.6-1.6,0.8-2.1
	C177.7,221.1,177.8,220.8,177.8,220.8z"/>
<path fill="#504E3C" d="M173.4,220.8c0,0-0.1,0.2-0.4,0.6c-0.2,0.4-0.5,0.8-0.9,1.4c-0.4,0.6-0.8,1.3-1.3,2s-1.1,1.5-1.6,2.2
	c-0.6,0.7-1.2,1.4-1.8,2.1c-0.3,0.4-0.6,0.6-0.8,0.9c-0.3,0.3-0.6,0.6-0.8,0.8c-0.5,0.5-0.9,0.9-1.2,1.2s-0.5,0.4-0.5,0.4
	s0.2-0.1,0.6-0.4s0.8-0.6,1.4-1c0.3-0.2,0.6-0.4,0.9-0.7c0.3-0.3,0.6-0.6,0.9-0.8c0.3-0.4,0.6-0.6,0.9-1c0.3-0.4,0.6-0.7,0.9-1.1
	c0.6-0.8,1.1-1.6,1.6-2.3c0.5-0.8,0.8-1.5,1.2-2.1c0.3-0.6,0.5-1.2,0.6-1.6C173.4,221,173.4,220.8,173.4,220.8z"/>
<path fill="#504E3C" d="M169.3,220.6c0,0-0.4,0.6-0.9,1.3c-0.3,0.4-0.6,0.8-1.1,1.2c-0.4,0.4-0.8,0.8-1.3,1.3
	c-0.2,0.2-0.4,0.4-0.6,0.6s-0.4,0.4-0.6,0.6s-0.4,0.4-0.6,0.6c-0.2,0.1-0.4,0.4-0.6,0.5c-0.4,0.4-0.6,0.6-0.8,0.8
	c-0.2,0.2-0.3,0.3-0.3,0.3s0.1-0.1,0.4-0.2c0.2-0.1,0.6-0.3,1-0.6c0.8-0.5,1.8-1.3,2.8-2.2c0.4-0.4,0.8-0.9,1.2-1.4
	c0.4-0.5,0.6-0.9,0.9-1.3C169.2,221.3,169.3,220.6,169.3,220.6z"/>
<path fill="#504E3C" d="M192.5,142c0,0-0.2-0.5-0.7-1.3c-0.4-0.8-1.1-2-1.9-3.5c-0.4-0.7-0.8-1.5-1.3-2.3c-0.5-0.8-1-1.7-1.6-2.5
	c-1.1-1.8-2.3-3.6-3.5-5.4c-0.6-0.9-1.3-1.8-1.9-2.7c-0.6-0.8-1.3-1.7-1.9-2.5c-0.6-0.8-1.3-1.6-1.9-2.3c-0.6-0.7-1.2-1.3-1.8-2
	c-0.6-0.6-1.1-1.1-1.6-1.6c-0.5-0.5-0.9-0.8-1.3-1.2c-0.7-0.6-1.1-1-1.1-1s0.4,0.4,1.1,1.1c0.4,0.4,0.8,0.8,1.2,1.3s0.9,1.1,1.5,1.7
	c0.5,0.6,1.1,1.3,1.7,2c0.6,0.8,1.2,1.6,1.8,2.3c0.6,0.8,1.3,1.7,1.8,2.5c0.6,0.8,1.3,1.8,1.8,2.7c1.3,1.8,2.5,3.6,3.6,5.4
	c1.1,1.7,2.2,3.3,3,4.7C191.4,140.2,192.5,142,192.5,142z"/>
<path fill="#504E3C" d="M188.6,142.5c0,0-0.2-0.4-0.6-1.2s-1-1.8-1.7-3.2c-0.4-0.6-0.8-1.3-1.2-2s-0.8-1.5-1.3-2.3
	c-1-1.6-2-3.2-3.2-4.9c-0.6-0.8-1.1-1.6-1.7-2.4c-0.6-0.8-1.2-1.6-1.7-2.3c-1.1-1.5-2.3-2.8-3.3-3.9c-0.5-0.6-1-1-1.4-1.5
	c-0.4-0.4-0.8-0.8-1.1-1.1c-0.6-0.6-1.1-0.9-1.1-0.9s0.4,0.4,0.9,1c0.3,0.3,0.6,0.7,1.1,1.1c0.4,0.5,0.8,1,1.3,1.6
	c0.5,0.6,1,1.2,1.5,1.8c0.5,0.7,1.1,1.4,1.6,2.1c1.1,1.5,2.3,3.1,3.3,4.7c1.1,1.6,2.2,3.2,3.2,4.8c1,1.6,2,3,2.8,4.2
	C187.6,140.8,188.6,142.5,188.6,142.5z"/>
<path fill="#504E3C" d="M184.2,144.2c0,0-0.2-0.4-0.6-1.1c-0.4-0.7-0.9-1.8-1.6-3c-0.4-0.6-0.7-1.3-1.1-2s-0.8-1.4-1.3-2.2
	c-0.9-1.5-1.9-3.1-3-4.7c-0.5-0.8-1.1-1.6-1.6-2.3c-0.6-0.8-1.1-1.5-1.6-2.2c-1.1-1.4-2.2-2.6-3.1-3.7c-0.5-0.5-0.9-1-1.3-1.3
	c-0.4-0.4-0.8-0.7-1.1-1c-0.6-0.6-1-0.8-1-0.8s0.4,0.4,0.9,0.9c0.3,0.3,0.6,0.6,1,1.1c0.4,0.4,0.8,0.9,1.3,1.5
	c0.4,0.6,0.9,1.1,1.4,1.8c0.5,0.6,1,1.3,1.6,2c1.1,1.4,2.1,2.9,3.2,4.4c1.1,1.6,2.1,3.1,3,4.6c1,1.5,1.8,2.8,2.6,4
	C183.2,142.7,184.2,144.2,184.2,144.2z"/>
<path fill="#504E3C" d="M178.4,143.9c0,0-0.6-1.4-1.8-3.4c-0.6-1-1.2-2.2-2-3.4s-1.6-2.5-2.5-3.7c-0.4-0.6-0.9-1.3-1.3-1.8
	c-0.4-0.6-0.9-1.2-1.3-1.8c-0.9-1.1-1.8-2.1-2.5-3c-0.4-0.4-0.8-0.8-1.1-1.1c-0.4-0.4-0.6-0.6-0.9-0.8c-0.5-0.4-0.8-0.7-0.8-0.7
	s0.3,0.3,0.7,0.8c0.2,0.2,0.5,0.6,0.8,0.9c0.3,0.4,0.6,0.8,1,1.2c0.4,0.4,0.8,0.9,1.1,1.4c0.4,0.5,0.8,1.1,1.2,1.6
	c0.8,1.1,1.7,2.4,2.6,3.7c0.8,1.3,1.7,2.5,2.5,3.7c0.8,1.2,1.5,2.3,2.1,3.2C177.5,142.6,178.4,143.9,178.4,143.9z"/>
<path fill="#504E3C" d="M173.1,144.7c0,0-0.1-0.3-0.4-0.8c-0.3-0.5-0.6-1.3-1.1-2.1c-0.5-0.8-1.1-1.9-1.7-3s-1.3-2.2-2.1-3.2
	c-0.4-0.6-0.8-1.1-1.1-1.6c-0.4-0.6-0.8-1.1-1.1-1.6c-0.8-1-1.6-1.8-2.3-2.5c-0.4-0.4-0.7-0.7-1-0.9c-0.3-0.3-0.6-0.5-0.8-0.7
	c-0.4-0.4-0.7-0.6-0.7-0.6s0.2,0.2,0.6,0.7c0.2,0.2,0.4,0.5,0.7,0.8s0.6,0.6,0.8,1.1c0.3,0.4,0.6,0.8,1,1.3c0.4,0.4,0.7,0.9,1.1,1.4
	c0.7,1,1.5,2,2.2,3.2c0.8,1.1,1.5,2.2,2.2,3.2c0.7,1.1,1.3,2,1.8,2.8c0.6,0.8,1,1.5,1.3,2C172.9,144.5,173.1,144.7,173.1,144.7z"/>
<path fill="#504E3C" d="M167.3,145.7c0,0-0.1-0.3-0.3-0.7c-0.2-0.4-0.5-1.1-0.8-1.8c-0.8-1.4-1.8-3.3-3-5.1
	c-0.3-0.4-0.6-0.8-0.9-1.3c-0.3-0.4-0.6-0.8-1-1.3c-0.6-0.8-1.3-1.5-1.8-2c-0.3-0.3-0.6-0.6-0.8-0.8c-0.2-0.2-0.5-0.4-0.6-0.6
	c-0.4-0.3-0.6-0.5-0.6-0.5s0.1,0.2,0.5,0.6c0.1,0.1,0.4,0.4,0.6,0.6c0.2,0.3,0.4,0.6,0.7,0.8c0.5,0.6,1.1,1.4,1.6,2.2
	c0.6,0.8,1.2,1.7,1.8,2.5s1.2,1.8,1.8,2.6s1.1,1.6,1.6,2.3C166.7,144.7,167.3,145.7,167.3,145.7z"/>
<path fill="#504E3C" d="M162.4,146.7c0,0-0.1-0.2-0.2-0.6s-0.4-0.8-0.7-1.4c-0.6-1.2-1.5-2.7-2.5-4.2c-1-1.5-2.1-2.8-3-3.7
	c-0.2-0.2-0.5-0.4-0.6-0.6c-0.2-0.2-0.4-0.4-0.6-0.4c-0.3-0.2-0.5-0.4-0.5-0.4s0.1,0.1,0.4,0.5c0.1,0.1,0.3,0.3,0.4,0.6
	c0.1,0.2,0.4,0.4,0.6,0.7c0.4,0.5,0.8,1.1,1.3,1.8c0.5,0.6,1,1.3,1.5,2.1c1,1.4,2,2.9,2.7,4C161.9,146,162.4,146.7,162.4,146.7z"/>
<path fill="#504E3C" d="M120.4,212.9c0,0-0.3,0.2-0.7,0.6c-0.4,0.4-1.1,1-1.9,1.8c-0.8,0.7-1.7,1.6-2.6,2.5c-1,0.9-2,1.9-3,2.8
	c-1.1,1-2,1.9-3,2.8c-0.5,0.4-1,0.8-1.4,1.3c-0.4,0.4-0.8,0.8-1.3,1.1c-0.4,0.4-0.8,0.6-1.1,0.9c-0.4,0.3-0.6,0.5-0.8,0.7
	c-0.5,0.4-0.8,0.6-0.8,0.6s0.3-0.1,0.8-0.4c0.3-0.1,0.6-0.4,0.9-0.6s0.8-0.5,1.2-0.8c0.4-0.3,0.8-0.7,1.3-1.1c0.5-0.4,1-0.8,1.5-1.2
	c1-0.8,2-1.8,3.1-2.8c1-1,2-2,3-2.9s1.8-1.8,2.5-2.6c0.7-0.8,1.3-1.5,1.7-1.9C120.1,213.2,120.4,212.9,120.4,212.9z"/>
<path fill="#504E3C" d="M117.1,212c0,0-0.2,0.2-0.6,0.6c-0.4,0.4-1,0.9-1.7,1.6c-0.7,0.6-1.6,1.4-2.4,2.3c-0.8,0.8-1.8,1.7-2.8,2.6
	c-0.9,0.8-1.8,1.8-2.8,2.5c-0.4,0.4-0.8,0.8-1.3,1.2c-0.4,0.4-0.8,0.7-1.1,1.1c-0.4,0.3-0.7,0.6-1,0.8c-0.3,0.2-0.6,0.5-0.8,0.6
	c-0.4,0.4-0.7,0.5-0.7,0.5s0.3-0.1,0.8-0.4c0.3-0.1,0.6-0.4,0.8-0.6c0.4-0.2,0.7-0.5,1.1-0.8c0.4-0.3,0.8-0.6,1.3-0.9
	c0.4-0.4,0.9-0.7,1.3-1.1c0.9-0.8,1.8-1.6,2.8-2.5c0.9-0.9,1.8-1.8,2.7-2.7c0.8-0.8,1.6-1.7,2.3-2.4c0.6-0.7,1.1-1.3,1.6-1.8
	C116.9,212.2,117.1,212,117.1,212z"/>
<path fill="#504E3C" d="M113.1,210.8c0,0-0.2,0.2-0.6,0.5c-0.4,0.4-0.9,0.8-1.5,1.3c-0.6,0.6-1.3,1.2-2.1,1.9s-1.6,1.5-2.3,2.3
	c-0.8,0.8-1.6,1.5-2.3,2.3c-0.8,0.7-1.5,1.3-2,1.9c-0.3,0.3-0.6,0.6-0.8,0.7c-0.3,0.2-0.5,0.4-0.7,0.6c-0.4,0.3-0.6,0.4-0.6,0.4
	s0.3-0.1,0.7-0.4c0.2-0.1,0.5-0.3,0.8-0.4c0.3-0.1,0.6-0.4,0.9-0.6c0.7-0.5,1.5-1.1,2.3-1.8c0.8-0.6,1.6-1.4,2.4-2.2
	c0.8-0.8,1.6-1.6,2.3-2.3c0.7-0.8,1.3-1.5,1.9-2.1c0.6-0.6,1-1.1,1.3-1.6C112.9,211,113.1,210.8,113.1,210.8z"/>
<path fill="#504E3C" d="M109,209.8c0,0-0.2,0.1-0.5,0.4s-0.8,0.6-1.3,1.1c-1.1,0.9-2.5,2.3-3.8,3.5c-1.3,1.3-2.8,2.6-3.7,3.5
	c-0.5,0.5-1,0.8-1.3,1.1c-0.4,0.3-0.5,0.4-0.5,0.4s0.2-0.1,0.6-0.3c0.2-0.1,0.4-0.2,0.6-0.4c0.3-0.1,0.5-0.4,0.8-0.6
	c0.6-0.4,1.3-0.9,1.9-1.5c0.7-0.6,1.4-1.2,2-1.8c1.3-1.3,2.7-2.7,3.6-3.7c0.5-0.6,0.8-1,1.1-1.3C108.8,210,109,209.8,109,209.8z"/>
<path fill="#504E3C" d="M105.1,208.5c0,0-0.1,0.1-0.4,0.4c-0.3,0.2-0.6,0.6-1.1,0.9c-0.9,0.8-2,1.8-3.2,2.9c-1.1,1.1-2.3,2.2-3.1,3
	c-0.4,0.4-0.8,0.7-1.1,1c-0.3,0.2-0.4,0.4-0.4,0.4s0.2-0.1,0.5-0.2c0.1-0.1,0.4-0.2,0.6-0.3c0.2-0.1,0.4-0.3,0.7-0.4
	c1-0.7,2.2-1.7,3.4-2.8c1.1-1.1,2.3-2.3,3-3.2c0.4-0.4,0.7-0.8,0.9-1.1C105,208.6,105.1,208.5,105.1,208.5z"/>
<path fill="#504E3C" d="M100.7,207.6c0,0-0.5,0.4-1.3,1c-0.7,0.6-1.7,1.5-2.6,2.3c-0.9,0.8-1.8,1.8-2.5,2.4
	c-0.7,0.6-1.2,1.1-1.2,1.1s0.1-0.1,0.4-0.1c0.3-0.1,0.6-0.3,1-0.6c0.8-0.6,1.8-1.3,2.8-2.2c0.9-0.8,1.8-1.8,2.4-2.5
	C100.4,208.1,100.7,207.6,100.7,207.6z"/>
<path fill="#504E3C" d="M96.6,206.2c0,0-0.4,0.3-1.1,0.8s-1.3,1.2-2.1,1.9s-1.5,1.4-2,2c-0.6,0.6-0.9,0.9-0.9,0.9s0.5-0.1,1.2-0.6
	c0.6-0.4,1.5-1.1,2.3-1.8c0.8-0.7,1.4-1.5,1.9-2.1C96.4,206.7,96.6,206.2,96.6,206.2z"/>
<path fill="#504E3C" d="M92.6,205.2c0,0-0.4,0.2-0.8,0.6s-1.1,0.9-1.7,1.5c-0.6,0.6-1.1,1.1-1.6,1.6c-0.4,0.4-0.7,0.8-0.7,0.8
	s0.4-0.1,1-0.4c0.6-0.3,1.2-0.8,1.8-1.4c0.6-0.6,1.1-1.2,1.5-1.7C92.4,205.6,92.6,205.2,92.6,205.2z"/>
<path fill="#504E3C" d="M89.2,204c0,0-0.3,0.1-0.7,0.4c-0.4,0.3-0.9,0.7-1.4,1.1c-0.5,0.4-0.9,0.9-1.3,1.3c-0.4,0.4-0.6,0.6-0.6,0.6
	s0.4-0.1,0.8-0.3c0.4-0.2,1-0.6,1.5-1.1c0.5-0.4,0.9-1,1.2-1.4C89.1,204.3,89.2,204,89.2,204z"/>
<path fill="#504E3C" d="M86.4,203c0,0-0.2,0.1-0.5,0.3c-0.3,0.1-0.6,0.4-1,0.7c-0.3,0.3-0.6,0.6-0.8,0.9c-0.2,0.3-0.4,0.5-0.4,0.5
	s0.3,0,0.6-0.1c0.4-0.1,0.7-0.4,1-0.7c0.4-0.3,0.6-0.6,0.8-1C86.3,203.3,86.4,203,86.4,203z"/>
<path fill="#504E3C" d="M39.8,164.9c0,0-0.4-0.3-1.2-0.7s-1.8-1.1-3.2-1.8c-1.3-0.7-2.9-1.6-4.6-2.5c-1.7-0.8-3.5-1.8-5.3-2.8
	s-3.7-1.8-5.4-2.6c-1.7-0.8-3.3-1.6-4.7-2.2c-1.4-0.6-2.6-1.1-3.4-1.4c-0.8-0.3-1.3-0.5-1.3-0.5s0.5,0.2,1.3,0.6s1.9,1,3.3,1.6
	c2.7,1.4,6.4,3.2,10,5.1c1.8,0.9,3.6,1.8,5.3,2.7s3.3,1.6,4.7,2.3c1.3,0.7,2.5,1.2,3.3,1.6C39.3,164.7,39.8,164.9,39.8,164.9z"/>
<path fill="#504E3C" d="M34.2,169.4c0,0-0.3-0.2-0.8-0.5s-1.3-0.7-2.1-1.2c-0.9-0.5-1.9-1-3-1.6c-1.1-0.6-2.3-1.1-3.6-1.7
	c-1.2-0.6-2.5-1.1-3.7-1.5c-1.2-0.4-2.3-0.8-3.2-1.1c-0.5-0.1-0.9-0.3-1.3-0.4c-0.4-0.1-0.8-0.2-1.1-0.2c-0.6-0.1-0.9-0.1-0.9-0.1
	s0.4,0.1,0.8,0.3c0.3,0.1,0.6,0.2,1,0.4c0.4,0.1,0.8,0.4,1.3,0.5c0.9,0.4,2,0.8,3.2,1.3c1.1,0.5,2.4,1.1,3.6,1.6
	c1.2,0.6,2.5,1.1,3.6,1.6c1.1,0.5,2.3,1,3.2,1.3c0.9,0.4,1.7,0.7,2.3,0.9C33.8,169.3,34.2,169.4,34.2,169.4z"/>
<path fill="#504E3C" d="M31.9,172.6c0,0-0.2-0.1-0.7-0.3c-0.4-0.2-1.1-0.5-1.8-0.8c-1.5-0.6-3.5-1.3-5.6-2c-2-0.6-4.2-1.2-5.7-1.5
	c-1.6-0.3-2.7-0.4-2.7-0.4s0.3,0.1,0.7,0.2c0.4,0.1,1.1,0.3,1.8,0.6c1.6,0.5,3.6,1.1,5.6,1.8c2,0.6,4.1,1.3,5.6,1.7
	c0.8,0.2,1.4,0.4,1.9,0.5C31.6,172.6,31.9,172.6,31.9,172.6z"/>
<path fill="#504E3C" d="M31.7,177.9c0,0-0.2-0.1-0.6-0.3c-0.4-0.1-1.1-0.4-1.8-0.7c-0.4-0.1-0.8-0.3-1.2-0.4
	c-0.4-0.1-0.9-0.3-1.4-0.4c-1-0.2-2-0.4-3.1-0.6c-0.5-0.1-1.1-0.1-1.6-0.2c-0.5-0.1-1.1-0.1-1.6-0.1c-0.5-0.1-1,0-1.4-0.1
	c-0.4,0-0.9,0-1.3,0c-0.8,0-1.5,0.1-1.9,0.1c-0.5,0.1-0.7,0.1-0.7,0.1s0.3,0,0.7,0.1c0.5,0,1.1,0.1,1.9,0.1c0.4,0,0.8,0.1,1.3,0.1
	c0.4,0.1,0.9,0.1,1.4,0.1c1,0.1,2,0.2,3.1,0.4c1.1,0.1,2.1,0.4,3,0.5c1,0.2,1.9,0.4,2.7,0.6C30.6,177.6,31.7,177.9,31.7,177.9z"/>
<path fill="#504E3C" d="M31.1,184.3c0,0-0.2-0.1-0.6-0.2c-0.4-0.1-1.1-0.3-1.8-0.4c-1.5-0.3-3.5-0.6-5.4-0.8s-4-0.4-5.5-0.4
	s-2.5,0.1-2.5,0.1s0.3,0.1,0.7,0.1c0.4,0.1,1.1,0.1,1.8,0.2c1.5,0.1,3.5,0.4,5.4,0.6c2,0.2,4,0.4,5.4,0.6c0.8,0.1,1.3,0.1,1.8,0.1
	C30.8,184.3,31.1,184.3,31.1,184.3z"/>
<path fill="#504E3C" d="M30.1,188.2c0,0-0.3,0-0.7,0s-1.1,0-1.9,0c-1.6,0.1-3.6,0.2-5.6,0.5c-1.1,0.1-2,0.3-3,0.5
	c-1,0.1-1.8,0.4-2.6,0.6c-0.8,0.2-1.3,0.4-1.8,0.6c-0.4,0.1-0.6,0.3-0.6,0.3s0.3-0.1,0.7-0.1s1.1-0.2,1.8-0.3
	c1.6-0.2,3.6-0.5,5.6-0.8c1-0.1,2-0.3,3-0.4c1-0.1,1.8-0.3,2.6-0.4c0.8-0.1,1.4-0.2,1.8-0.3C29.9,188.3,30.1,188.2,30.1,188.2z"/>
<path fill="#504E3C" d="M31.9,191.7c0,0-0.3,0.1-0.8,0.1s-1.3,0.2-2.2,0.4c-0.9,0.2-2,0.4-3.1,0.7c-1.1,0.3-2.3,0.6-3.5,1
	c-1.2,0.4-2.4,0.8-3.5,1.2c-0.6,0.2-1.1,0.4-1.6,0.6c-0.5,0.2-1,0.4-1.4,0.6c-0.4,0.2-0.8,0.4-1.1,0.6c-0.4,0.2-0.6,0.4-0.8,0.5
	c-0.4,0.3-0.7,0.5-0.7,0.5s0.3-0.1,0.8-0.4c0.2-0.1,0.6-0.2,0.9-0.4c0.4-0.1,0.8-0.3,1.2-0.5c0.8-0.4,1.9-0.7,3-1.1
	c0.6-0.1,1.1-0.4,1.7-0.6c0.6-0.2,1.2-0.4,1.8-0.6c2.4-0.7,4.7-1.4,6.6-2c0.9-0.3,1.6-0.5,2.2-0.6C31.6,191.8,31.9,191.7,31.9,191.7
	z"/>
<path fill="#504E3C" d="M34.7,194.2c0,0-0.4,0.1-1,0.4c-0.6,0.3-1.6,0.6-2.6,1.1c-1.1,0.5-2.3,1.1-3.7,1.7c-1.3,0.6-2.8,1.3-4.2,2
	c-1.4,0.8-2.8,1.5-4,2.3c-0.6,0.4-1.3,0.8-1.8,1.1c-0.6,0.4-1.1,0.7-1.6,1.1c-0.5,0.4-0.9,0.6-1.3,0.9c-0.4,0.3-0.7,0.6-1,0.8
	c-0.5,0.5-0.8,0.7-0.8,0.7s0.4-0.2,0.9-0.6c0.3-0.2,0.6-0.4,1.1-0.7s0.8-0.6,1.3-0.8c1-0.6,2.2-1.3,3.5-2c0.6-0.4,1.3-0.7,2-1.1
	c0.7-0.4,1.4-0.7,2-1.1c2.8-1.5,5.6-2.9,7.6-4c1.1-0.6,1.9-1,2.5-1.3C34.4,194.3,34.7,194.2,34.7,194.2z"/>
<path fill="#504E3C" d="M38.8,196.6c0,0-0.4,0.2-1.1,0.6c-0.7,0.4-1.8,1-3,1.7s-2.7,1.6-4.2,2.5s-3.1,1.9-4.7,3
	c-1.6,1.1-3.2,2-4.6,3.1c-1.5,1-2.8,2-4,2.8c-0.6,0.4-1.1,0.8-1.6,1.2c-0.4,0.4-0.8,0.7-1.1,1c-0.6,0.6-1,0.8-1,0.8s0.4-0.3,1.1-0.8
	c0.4-0.3,0.8-0.5,1.2-0.8c0.5-0.4,1-0.7,1.6-1.1c1.1-0.8,2.5-1.7,4-2.7c1.5-1,3-2,4.7-3c1.6-1.1,3.2-2,4.7-3c1.5-1,2.9-1.9,4-2.7
	c1.2-0.8,2.2-1.4,2.8-1.9C38.3,196.8,38.8,196.6,38.8,196.6z"/>
<path fill="#504E3C" d="M42.3,199.9c0,0-0.4,0.1-0.9,0.5c-0.6,0.4-1.5,0.8-2.5,1.4c-1,0.6-2.2,1.3-3.4,2.1c-0.6,0.4-1.3,0.8-1.9,1.3
	c-0.6,0.4-1.3,0.8-1.9,1.3c-1.3,0.9-2.5,1.8-3.7,2.8c-1.1,0.9-2.2,1.8-3,2.6c-0.4,0.4-0.8,0.8-1.1,1.1c-0.4,0.4-0.6,0.6-0.8,0.9
	c-0.4,0.6-0.7,0.8-0.7,0.8s0.3-0.3,0.8-0.8c0.2-0.2,0.6-0.5,0.9-0.8c0.4-0.3,0.8-0.6,1.2-1.1c0.9-0.8,2-1.6,3.1-2.5
	c0.6-0.4,1.2-0.9,1.8-1.3c0.6-0.4,1.3-0.9,1.9-1.3c1.3-0.9,2.5-1.8,3.7-2.6c1.2-0.8,2.3-1.6,3.2-2.3c1-0.7,1.8-1.2,2.3-1.6
	C41.9,200.1,42.3,199.9,42.3,199.9z"/>
<ellipse fill="#504E3C" cx="329.4" cy="175.7" rx="7.2" ry="4.4"/>
<path fill="#FFFFFF" d="M324.4,175.2c0,2.5,2.2,4.6,4.9,4.6c2.7,0,4.9-2,4.9-4.6c0-2.5-2.2-4.6-4.9-4.6S324.4,172.7,324.4,175.2z"/>
<path fill="#504E3C" d="M323.9,175.2c0-2.8,2.4-5.1,5.4-5.1s5.4,2.3,5.4,5.1c0,2.8-2.4,5.1-5.4,5.1
	C326.3,180.2,323.9,178,323.9,175.2z M324.4,175.2c0,2.5,2.2,4.6,4.9,4.6c2.7,0,4.9-2,4.9-4.6c0-2.5-2.2-4.6-4.9-4.6
	S324.4,172.7,324.4,175.2z"/>
<path fill="#504E3C" d="M328.1,174c0.7,0,1.3-0.6,1.3-1.3c0,0,0,0,0-0.1l0,0c1.3,0,2.4,1.1,2.4,2.6c0,1.4-1.1,2.6-2.4,2.6
	c-1.3,0-2.4-1.1-2.4-2.6c0-0.6,0.1-1.1,0.4-1.5C327.5,173.9,327.8,174,328.1,174z"/>
</svg>
