<?xml version="1.0" encoding="utf-8"?>
<!-- Generator: Adobe Illustrator 18.1.1, SVG Export Plug-In . SVG Version: 6.00 Build 0)  -->
<svg version="1.1" id="sockeye_salmon" xmlns="http://www.w3.org/2000/svg" xmlns:xlink="http://www.w3.org/1999/xlink" x="0px"
	 y="0px" viewBox="0 0 544.9 186.6" enable-background="new 0 0 544.9 186.6" xml:space="preserve">
<g>
	<path d="M299.8,32c0,0-10-4.9-15.5-8.9s-12.8-12.1-19.1-16c-6.4-3.9-14.9-7.5-21.2-7.1s-10.5,3.2-9.8,4.2s5.2,6.9,6.4,9.1
		s-0.9,7.9-2.1,8.9s-6.1,6.8-7.2,9.8s-3.4,7.4-0.5,9.5s12.1,6.9,12.1,6.9s-23.9,2.9-31.8,4.4s-31.5,7.6-41.6,10.5
		c-10.1,2.9-23.8,7.9-25.5,8s-16.4,0.4-22.1,1.6c0,0,4.5,1.6,4.2,3.4s-1.5,4-8.8,5.2s-30.4,0.2-49.4-2.8s-40-6.6-52-8.2
		S0.1,68.9,0,69.9s6.9,8.1,14.9,18s19.2,29.6,19.1,31.9s-2.6,8.5-5,15.9s-6.6,18.6-7.5,27.6s-1.1,21.2,0.5,22.2s2.8,2.4,8.8-1.5
		s40.1-25.8,55.5-35.2s31.1-19.2,32.8-19.9s5.2-0.5,6,0s6.4,7.2,7.6,10s7.4,16.8,7.4,19.6s0.6,5.5,1.9,7.6s5.8,2,8.8,1.2
		s41.5-12,46.4-13.1s6-0.1,7.2,0s22.6,3.4,28.4,3.2c0,0-1.6,3.8-0.9,5s4,2.6,7.9,2.6s15.9-0.1,26.7-3c0,0,2.9,3.1,18.8,5.4
		s65.1,7,92.4,5.1s84.5-12.5,103.8-22s22.4-13.1,26.5-15.5s24-11,26-11.9s3.2-7.2,1.9-7.2s-4.1,2.4-6,3s-17.4,3.5-17.8,3
		s-0.2-0.8,1-1.6s20-11.8,26.4-16.8s4.4-5.5,5-6.6s1-2,0.1-2.4s-23.1-6.9-37.4-11.8s-19.9-7.6-30.2-11.8s-25.5-10.6-44.4-15.2
		s-43.8-11.8-71.5-16.2S299.8,32,299.8,32z"/>
	<path fill="#FFFFFF" d="M519.5,113.4c0,0-1.8-0.4-1.2-0.9s1.1-2,1.9-2.8s1.2-0.5,1.4-1.2s0.1-1.8,0.2-2.4s-0.1-0.9-0.4-2
		s-0.9-2-0.9-2s-9-2-11.2,0.1s-9.2,13.1-12.5,13.8s-12.6,0.4-14.4-1s-3.6-3-4.5-3.4s-1.1-0.5-1-0.9s1.2-0.9,0.6-1.1
		s-2.8,0.4-3.1,0.8s-0.5,1-0.5,1.6s0.6,5.4,0.1,5.2s-3.4-3.5-4-5s-3.1-4.9-4.8-5s-2.5-0.1-4,1s-1.8,7.1-1.8,7.1s-0.4,7.1-0.1,7.5
		s3.6,2.9,4.8,3.5s2.1,1.1,3.1,1s4.6-3.2,6.9-5.8l-0.1-3c0,0-0.2,2.1,2.6,4.9s4.8,5.5,5.4,5.4s2-0.4,3.1-0.4s4.9-0.1,4.9-0.1
		l0.8-0.1c0,0,6.4-7.1,14.2-10.4c0,0-15.8,11.6-14.2,12.8s15.2-6.4,15.2-6.4s-5.8,4.4-14.8,8.1c0,0-3.4,2.4-4.1,3.2
		s-3.5,3.9-2.9,4.9s4.6,1.8,6.5,1.4s8-3.1,9.2-4s7-4,10.6-5.9s13.9-6.2,15.6-6.8s6.6-2.6,7.4-3.1s2-4.5,1.6-4.9s-3.8,1.8-4.2,2
		s-13.1,3.8-16.5,3.8s-4.6-0.9-4.4-1.2s8.6-7.1,8.6-7.1s-8.8,3.6-12.8,6.6C506,121.3,510.4,116.7,519.5,113.4z"/>
	<path fill="#FFFFFF" d="M457.5,113.3c0,0-0.4-5.9-1.9-5.8s-7,0.5-7.8-0.1s-0.6-1.1-1.4-1.1s-4.1,1.1-5.1,2s-2.2,2-2.4,2.8
		s-0.1,8.9,0.2,11.2s3,6.4,4.9,6.8s5,1.4,7.4-0.1s6.9-6.5,6.9-6.5L457.5,113.3z"/>
	<path fill="#FFFFFF" d="M470.1,150.7c0,0-18.4-4.5-21.5-6.6s-7.1-4-7.6-5.1s-4.9-13.4-6.8-16.6s-2.5-10.5-2.5-12.9
		s2.8-10.6,3.5-11.4s5.9-4.9,7.1-6.5s2.8-7.6,1.4-8.4s-19.2-8.2-26.1-9.5S390,67,384.3,66s-7.1-2-8.9-2.4c-1.8-0.4-5.1-1.1-16.9-1.6
		s-30.5-1.6-50.8-2.2s-52.7-0.6-68.1,3.1c-15.4,3.7-39.9,6-57.1,10s-39.8,6.8-45.9,8.2s-19.2,2.1-28.8,2.2s-27.2-1.4-50.8-5
		S6.8,70.3,5,70.2s-3.4,0.6-2,1.4s13,15,17.9,21.1s15.1,26.5,14.8,27.2s-5.5,15.2-7.4,22s-5.6,20.2-5.9,28.4s-0.5,14.1,0.9,14.4
		s1.2,2,9-3.2s35.8-22.8,50.2-32s27-16.4,29.9-18.5s5.8-3.8,6.6-3.8s6.1,0.9,6.6,1s4.1,3.6,6.2,6.9s6.4,12,7.5,16s1.5,7.5,1.8,8.9
		s1.1,6,3,6.2s6.1-0.1,26.1-6s28.1-7.5,28.1-7.5s-13.5-4-20.9-7s-14.1-7.8-15.8-8.1s-12.6-5.8-13.5-6.4s-12.6-1.6-19.1-4.5
		c0,0,7.6,1.6,11.5,2s7.6,0.8,8.4,1.4s9.6,4.6,11.8,5.6s3.1,1.9,5.2,2.9s13.6,7.9,27.1,11.2s31.1,6.4,39.9,6.5c0,0,2.1-4.9,1.8-9.8
		c0,0,3.5,2.4,17,4.6c13.5,2.2,32.2,4.9,35.1,6.1c0,0-12.6,3.8-19.2,4.8c0,0,5.1,2.2,9.6,3s22.8,4,47.5,5.1s49.9,1.9,59.4,0.9
		s33.8-5.8,33.8-5.8s-20.4,3.1-25.6,2.5s-25.8-10.8-31.2-16s-6.2-6.9-2.1-8.4s27-12.4,91,5.9c0,0-15.4-2.4-23.1-1.5l6.4,1.1
		c0,0-9-0.5-14.1,1l2.1,0.2c0,0-1.8,0.4-1.2,0.6s3.6,1.9,16.2,2.4c0,0-12.1,0-12,0.5s10.5,1.2,16.5,1c0,0-13.9,1.8-14.6,1.8
		s0.1,1.2,0.1,1.2s0.9,1.1,1.5,1.1s10.8,1,19.8-0.4s28.5-7.4,28.5-7.4L470.1,150.7z"/>
	<path fill="#FFFFFF" d="M470.1,91.8c0,0-0.4-0.1-1-0.3c-0.6-0.2-1.6-0.6-2.5-1.2c-0.5-0.3-0.9-0.7-1.3-1.2
		c-0.4-0.5-0.8-1.1-1.3-1.7c-0.5-0.6-1.1-1.2-1.8-1.6c-0.7-0.4-1.4-0.7-2.2-1c-1.5-0.6-3.1-1-4.5-1.3c-0.7-0.1-1.5-0.2-2.2-0.3
		c-0.7-0.1-1.3-0.1-1.9,0c-0.6,0-1.2,0.1-1.6,0.1c-0.5,0.1-0.9,0.1-1.2,0.2c-0.7,0.2-1.1,0.3-1.1,0.3s0.4,0,1.1-0.1
		c0.7-0.1,1.7-0.1,2.8,0c2.3,0.1,5.4,0.8,8.3,2c0.7,0.3,1.4,0.6,2.1,0.9c0.6,0.3,1.1,0.8,1.6,1.3c0.5,0.5,1,1.1,1.5,1.6
		c0.5,0.5,1,0.9,1.6,1.2c1.1,0.6,2.1,0.8,2.8,0.9C469.7,91.8,470.1,91.8,470.1,91.8z"/>
	<path fill="#FFFFFF" d="M459.3,109c0,0,0.2-0.8,0.4-2c0.2-1.2,0.5-2.8,0.7-4.3c0.2-1.6,0.4-3.2,0.5-4.3c0.2-1.2,0.3-2,0.3-2
		s-0.4,0.7-0.8,1.9c-0.2,0.6-0.4,1.3-0.5,2c-0.2,0.7-0.3,1.5-0.4,2.3c-0.2,1.6-0.3,3.2-0.2,4.4C459.1,108.2,459.3,109,459.3,109z"/>
	<path fill="#FFFFFF" d="M459.5,124.9c0,0,0,0.4,0.2,1.1c0.2,0.7,0.4,1.7,0.8,2.9c0.2,0.6,0.4,1.2,0.7,1.9c0.3,0.7,0.6,1.4,1,2
		c0.4,0.7,0.8,1.4,1.3,2.1c0.5,0.7,1.1,1.3,1.7,1.9c0.6,0.6,1.2,1.1,1.9,1.6c0.7,0.5,1.3,1,2,1.4c1.3,0.8,2.7,1.5,3.8,2
		c2.3,1,3.9,1.3,3.9,1.3s-0.4-0.2-1-0.5c-0.7-0.3-1.6-0.8-2.7-1.4c-1.1-0.6-2.3-1.3-3.6-2.2c-0.6-0.4-1.3-0.9-1.9-1.4
		c-0.6-0.5-1.3-1-1.8-1.6c-0.6-0.6-1.1-1.2-1.6-1.8c-0.5-0.6-0.9-1.3-1.3-1.9c-0.4-0.6-0.8-1.3-1.1-1.9c-0.3-0.6-0.6-1.2-0.9-1.8
		C460,126.5,459.5,124.9,459.5,124.9z"/>
	<path fill="#FFFFFF" d="M297.9,32.5c0,0-8,2.8-15,5.4s-24.4,6.9-28.2,8.4s-10.8,1.5-10.8,1.5s-13.1-6.6-13.2-8.1s-0.8-3.5,1.1-7.2
		s6.1-8.8,7.1-9.6s3.5-6.1,2.8-8.9s-4-7-5.1-8s-1.6-1.6-1.2-2.2s8.4-3.8,12.2-2.9s14.1,4,19.1,8.4s11.5,10.4,15,13.1
		S297.9,32.5,297.9,32.5z"/>
	<g>
		<path d="M291,30.9c0,0-0.7-0.4-1.9-1c-1.2-0.7-2.9-1.5-5-2.7c-2-1.1-4.5-2.4-7-3.9c-2.5-1.4-5.3-3-8-4.5c-2.7-1.6-5.4-3.2-7.9-4.6
			c-2.5-1.5-4.9-2.9-6.9-4.1c-4-2.4-6.7-4-6.7-4s0.7,0.3,1.9,0.9c1.2,0.6,3,1.5,5,2.6c2.1,1.1,4.5,2.4,7,3.8c2.6,1.4,5.3,3,8,4.5
			c2.7,1.6,5.4,3.2,7.9,4.7c2.5,1.5,4.8,2.9,6.9,4.1c2,1.2,3.6,2.3,4.8,3C290.3,30.5,291,30.9,291,30.9z"/>
	</g>
	<g>
		<path d="M287.1,32.8c0,0-0.5-0.2-1.4-0.5c-0.9-0.4-2.1-0.8-3.6-1.5c-1.5-0.6-3.2-1.4-5-2.2c-1.8-0.8-3.7-1.7-5.7-2.6
			c-1.9-0.9-3.8-1.8-5.6-2.8c-1.8-0.9-3.4-1.8-4.8-2.5c-1.4-0.7-2.6-1.4-3.4-1.9c-0.8-0.5-1.3-0.8-1.3-0.8s1.9,0.9,4.9,2.1
			c1.5,0.7,3.2,1.4,5,2.2c1.8,0.8,3.7,1.7,5.7,2.6c1.9,0.9,3.8,1.8,5.6,2.7c1.8,0.9,3.4,1.8,4.8,2.5c1.4,0.7,2.6,1.4,3.4,1.8
			C286.7,32.5,287.1,32.8,287.1,32.8z"/>
	</g>
	<g>
		<path d="M280.1,35.2c0,0-0.4-0.2-1.2-0.5c-0.7-0.3-1.8-0.7-3.1-1.3c-1.3-0.6-2.7-1.2-4.3-1.9c-1.6-0.7-3.2-1.5-4.9-2.3
			c-1.7-0.8-3.3-1.6-4.8-2.4c-1.5-0.8-3-1.5-4.2-2.2c-1.2-0.6-2.2-1.2-2.9-1.6c-0.7-0.4-1.1-0.6-1.1-0.6s0.4,0.2,1.2,0.5
			c0.7,0.3,1.8,0.7,3.1,1.3c1.3,0.6,2.7,1.2,4.3,1.9c1.6,0.7,3.2,1.5,4.9,2.3c1.7,0.8,3.3,1.6,4.8,2.4c1.5,0.8,3,1.5,4.2,2.2
			c1.2,0.6,2.2,1.2,2.9,1.6C279.7,34.9,280.1,35.2,280.1,35.2z"/>
	</g>
	<g>
		<path d="M275.9,37.7c0,0-0.4-0.2-1.2-0.5c-0.7-0.3-1.8-0.7-3.1-1.3c-1.3-0.6-2.7-1.2-4.3-1.9c-1.6-0.7-3.2-1.5-4.9-2.3
			c-1.7-0.8-3.3-1.6-4.8-2.4c-1.5-0.8-3-1.5-4.2-2.2c-1.2-0.6-2.2-1.2-2.9-1.6c-0.7-0.4-1.1-0.6-1.1-0.6s0.4,0.2,1.2,0.5
			c0.7,0.3,1.8,0.7,3.1,1.3c1.3,0.6,2.7,1.2,4.3,1.9c1.6,0.7,3.2,1.5,4.9,2.3c1.7,0.8,3.3,1.6,4.8,2.4c1.5,0.8,3,1.5,4.2,2.2
			c1.2,0.6,2.2,1.2,2.9,1.6C275.5,37.4,275.9,37.7,275.9,37.7z"/>
	</g>
	<g>
		<path d="M270.6,39.2c0,0-0.4-0.2-1.2-0.5c-0.7-0.3-1.8-0.7-3.1-1.3c-1.3-0.6-2.7-1.2-4.3-1.9c-1.6-0.7-3.2-1.5-4.9-2.3
			c-1.7-0.8-3.3-1.6-4.8-2.4c-1.5-0.8-3-1.5-4.2-2.2c-1.2-0.6-2.2-1.2-2.9-1.6c-0.7-0.4-1.1-0.6-1.1-0.6s0.4,0.2,1.2,0.5
			c0.7,0.3,1.8,0.7,3.1,1.3c1.3,0.6,2.7,1.2,4.3,1.9c1.6,0.7,3.2,1.5,4.9,2.3c1.7,0.8,3.3,1.6,4.8,2.4c1.5,0.8,3,1.5,4.2,2.2
			c1.2,0.6,2.2,1.2,2.9,1.6C270.2,38.9,270.6,39.2,270.6,39.2z"/>
	</g>
	<g>
		<path d="M265.8,41c0,0-0.4-0.1-1.1-0.4c-0.7-0.3-1.7-0.6-2.8-1.2c-1.2-0.5-2.5-1.1-4-1.7c-1.4-0.6-3-1.4-4.5-2.1
			c-1.5-0.7-3-1.5-4.5-2.2c-1.4-0.7-2.7-1.4-3.8-2c-1.1-0.6-2-1.1-2.7-1.5c-0.6-0.4-1-0.6-1-0.6s0.4,0.1,1.1,0.4
			c0.7,0.3,1.7,0.6,2.8,1.2c1.2,0.5,2.5,1.1,4,1.7c1.4,0.6,3,1.4,4.5,2.1c1.5,0.7,3,1.5,4.5,2.2c1.4,0.7,2.7,1.4,3.8,2
			c1.1,0.6,2,1.1,2.7,1.5C265.4,40.8,265.8,41,265.8,41z"/>
	</g>
	<g>
		<path d="M261.3,42.7c0,0-0.4-0.1-1-0.4c-0.6-0.2-1.5-0.6-2.6-1c-2.1-0.9-4.9-2.1-7.6-3.4c-2.7-1.3-5.4-2.7-7.5-3.8
			c-1-0.5-1.8-1-2.4-1.4c-0.6-0.3-0.9-0.5-0.9-0.5s0.4,0.1,1,0.4c0.6,0.2,1.5,0.6,2.6,1c2.1,0.9,4.9,2.1,7.6,3.4
			c2.7,1.3,5.4,2.7,7.4,3.8c1,0.5,1.8,1,2.4,1.4C260.9,42.4,261.3,42.7,261.3,42.7z"/>
	</g>
	<g>
		<path d="M257.1,44c0,0-0.3-0.1-0.9-0.3c-0.6-0.2-1.4-0.5-2.4-0.9c-2-0.8-4.6-2-7.2-3.2c-2.6-1.2-5.1-2.5-7-3.6
			c-0.9-0.5-1.7-1-2.3-1.3c-0.5-0.3-0.8-0.5-0.8-0.5s0.3,0.1,0.9,0.3c0.6,0.2,1.4,0.5,2.4,0.9c2,0.8,4.6,2,7.2,3.2
			c2.6,1.2,5.1,2.5,7,3.6c0.9,0.5,1.7,1,2.3,1.3C256.8,43.8,257.1,44,257.1,44z"/>
	</g>
	<g>
		<path d="M251.9,45.5c0,0-0.3-0.1-0.8-0.3c-0.5-0.2-1.2-0.4-2-0.8c-1.7-0.7-3.8-1.6-6-2.6c-2.1-1-4.2-2.1-5.8-3
			c-0.8-0.4-1.4-0.8-1.9-1.1c-0.4-0.3-0.7-0.4-0.7-0.4s0.3,0.1,0.8,0.3c0.5,0.2,1.2,0.4,2,0.8c1.7,0.6,3.8,1.6,6,2.6
			c2.1,1,4.2,2.1,5.8,3c0.8,0.4,1.4,0.8,1.9,1.1C251.6,45.4,251.9,45.5,251.9,45.5z"/>
	</g>
	<path fill="#FFFFFF" d="M141.8,72.7c0,0-7.8-0.9-16.8,0.6c0,0,4.2,2.1,2.2,5l6.6-1l-1.1-1.5c0,0,6,1.4,2.5-1.1c0,0,5.1,0,1-1.5
		C136.3,73.2,139.5,73.7,141.8,72.7z"/>
	<g>
		<ellipse cx="504" cy="104.8" rx="9" ry="6.6"/>
		<path fill="#FFFFFF" d="M497.7,104.1c0,3.9,2.8,7,6.2,7c3.4,0,6.2-3.1,6.2-7c0-3.9-2.8-7-6.2-7
			C500.4,97.1,497.7,100.2,497.7,104.1z"/>
		<path d="M497.1,104.1c0-4.3,3-7.7,6.7-7.7c3.7,0,6.7,3.5,6.7,7.7c0,4.3-3,7.7-6.7,7.7C500.1,111.8,497.1,108.3,497.1,104.1z
			 M497.7,104.1c0,3.9,2.8,7,6.2,7c3.4,0,6.2-3.1,6.2-7c0-3.9-2.8-7-6.2-7C500.4,97.1,497.7,100.2,497.7,104.1z"/>
		<path d="M502.3,102.2c0.9,0,1.6-0.9,1.6-2c0,0,0,0,0-0.1c0,0,0,0,0,0c1.7,0,3,1.8,3,3.9c0,2.2-1.4,3.9-3,3.9c-1.7,0-3-1.8-3-3.9
			c0-0.8,0.2-1.6,0.5-2.2C501.7,102.1,502,102.2,502.3,102.2z"/>
	</g>
</g>
</svg>
