<?xml version="1.0" encoding="utf-8"?>
<!-- Generator: Adobe Illustrator 18.1.1, SVG Export Plug-In . SVG Version: 6.00 Build 0)  -->
<svg version="1.1" id="sockeye_salmon" xmlns="http://www.w3.org/2000/svg" xmlns:xlink="http://www.w3.org/1999/xlink" x="0px"
	 y="0px" viewBox="0 118.3 360.2 123.3" enable-background="new 0 118.3 360.2 123.3" xml:space="preserve">
<path fill="#504E3C" d="M198.1,139.5c0,0-6.6-3.2-10.2-5.9c-3.6-2.6-8.5-8-12.6-10.6c-4.2-2.6-9.8-5-14-4.7
	c-4.2,0.3-6.9,2.1-6.5,2.8c0.5,0.7,3.4,4.6,4.2,6c0.8,1.5-0.6,5.2-1.4,5.9c-0.8,0.7-4,4.5-4.8,6.5s-2.2,4.9-0.3,6.3s8,4.6,8,4.6
	s-15.8,1.9-21,2.9s-20.8,5-27.5,6.9c-6.7,1.9-15.7,5.2-16.8,5.3s-10.8,0.3-14.6,1.1c0,0,3,1.1,2.8,2.2s-1,2.6-5.8,3.4
	c-4.8,0.8-20.1,0.1-32.6-1.8s-26.4-4.4-34.4-5.4c-7.9-1.1-10.4-1.1-10.5-0.4s4.6,5.4,9.8,11.9s12.7,19.6,12.6,21.1
	c-0.1,1.5-1.7,5.6-3.3,10.5c-1.6,4.9-4.4,12.3-5,18.2c-0.6,5.9-0.7,14,0.3,14.7s1.8,1.6,5.8-1s26.5-17,36.7-23.3
	c10.2-6.2,20.5-12.7,21.7-13.1s3.4-0.3,4,0c0.5,0.3,4.2,4.8,5,6.6s4.9,11.1,4.9,12.9c0,1.8,0.4,3.6,1.3,5s3.8,1.3,5.8,0.8
	s27.4-7.9,30.7-8.7c3.2-0.7,4-0.1,4.8,0s14.9,2.2,18.8,2.1c0,0-1.1,2.5-0.6,3.3c0.5,0.8,2.6,1.7,5.2,1.7s10.5-0.1,17.6-2
	c0,0,1.9,2,12.4,3.6c10.5,1.5,43,4.6,61,3.4c18-1.3,55.8-8.3,68.6-14.5s14.8-8.7,17.5-10.2c2.7-1.6,15.9-7.3,17.2-7.9
	c1.3-0.6,2.1-4.8,1.3-4.8s-2.7,1.6-4,2c-1.3,0.4-11.5,2.3-11.8,2c-0.3-0.3-0.1-0.5,0.7-1.1s13.2-7.8,17.4-11.1
	c4.2-3.3,2.9-3.6,3.3-4.4c0.4-0.7,0.7-1.3,0.1-1.6c-0.6-0.3-15.3-4.6-24.7-7.8c-9.4-3.2-13.1-5-20-7.8s-16.8-7-29.3-10
	s-28.9-7.8-47.2-10.7C220.3,141.5,198.1,139.5,198.1,139.5z"/>
<path fill="#FFFFFF" d="M343.2,193.3c0,0-1.2-0.3-0.8-0.6s0.7-1.3,1.3-1.8c0.5-0.5,0.8-0.3,0.9-0.8s0.1-1.2,0.1-1.6
	c0.1-0.4-0.1-0.6-0.3-1.3c-0.2-0.7-0.6-1.3-0.6-1.3s-5.9-1.3-7.4,0.1s-6.1,8.7-8.3,9.1c-2.2,0.5-8.3,0.3-9.5-0.7
	c-1.2-0.9-2.4-2-3-2.2s-0.7-0.3-0.7-0.6s0.8-0.6,0.4-0.7c-0.4-0.1-1.8,0.3-2,0.5s-0.3,0.7-0.3,1.1c0,0.4,0.4,3.6,0.1,3.4
	c-0.3-0.1-2.2-2.3-2.6-3.3c-0.4-1-2-3.2-3.2-3.3c-1.1-0.1-1.7-0.1-2.6,0.7c-1,0.7-1.2,4.7-1.2,4.7s-0.3,4.7-0.1,5s2.4,1.9,3.2,2.3
	c0.8,0.4,1.4,0.7,2,0.7s3-2.1,4.6-3.8l-0.1-2c0,0-0.1,1.4,1.7,3.2c1.8,1.8,3.2,3.6,3.6,3.6c0.4-0.1,1.3-0.3,2-0.3s3.2-0.1,3.2-0.1
	l0.5-0.1c0,0,4.2-4.7,9.4-6.9c0,0-10.4,7.7-9.4,8.5c1.1,0.8,10-4.2,10-4.2s-3.8,2.9-9.8,5.4c0,0-2.2,1.6-2.7,2.1
	c-0.5,0.5-2.3,2.6-1.9,3.2c0.4,0.7,3,1.2,4.3,0.9c1.3-0.3,5.3-2,6.1-2.6s4.6-2.6,7-3.9c2.4-1.3,9.2-4.1,10.3-4.5s4.4-1.7,4.9-2
	c0.5-0.3,1.3-3,1.1-3.2s-2.5,1.2-2.8,1.3c-0.3,0.1-8.7,2.5-10.9,2.5s-3-0.6-2.9-0.8s5.7-4.7,5.7-4.7s-5.8,2.4-8.5,4.4
	C334.3,198.5,337.2,195.5,343.2,193.3z"/>
<path fill="#FFFFFF" d="M302.3,193.2c0,0-0.3-3.9-1.3-3.8c-1,0.1-4.6,0.3-5.2-0.1c-0.5-0.4-0.4-0.7-0.9-0.7c-0.5,0-2.7,0.7-3.4,1.3
	s-1.5,1.3-1.6,1.8c-0.1,0.5-0.1,5.9,0.1,7.4c0.2,1.5,2,4.2,3.2,4.5c1.3,0.3,3.3,0.9,4.9-0.1c1.6-1,4.6-4.3,4.6-4.3L302.3,193.2z"/>
<path fill="#FFFFFF" d="M310.6,217.9c0,0-12.2-3-14.2-4.4c-2-1.4-4.7-2.6-5-3.4c-0.3-0.7-3.2-8.9-4.5-11c-1.3-2.1-1.7-6.9-1.7-8.5
	s1.8-7,2.3-7.5c0.5-0.5,3.9-3.2,4.7-4.3c0.8-1.1,1.8-5,0.9-5.5c-0.9-0.5-12.7-5.4-17.2-6.3c-4.6-0.9-18.2-4.4-22-5.1
	c-3.8-0.7-4.7-1.3-5.9-1.6c-1.2-0.3-3.4-0.7-11.2-1.1s-20.2-1.1-33.6-1.5c-13.4-0.4-34.8-0.4-45,2c-10.2,2.4-26.4,4-37.7,6.6
	s-26.3,4.5-30.3,5.4c-4,0.9-12.7,1.4-19,1.5c-6.3,0.1-18-0.9-33.6-3.3s-33.2-5.3-34.4-5.4s-2.2,0.4-1.3,0.9s8.6,9.9,11.8,13.9
	s10,17.5,9.8,18c-0.2,0.5-3.6,10-4.9,14.5c-1.3,4.5-3.7,13.3-3.9,18.8c-0.2,5.4-0.3,9.3,0.6,9.5s0.8,1.3,5.9-2.1
	s23.7-15.1,33.2-21.1c9.5-6.1,17.8-10.8,19.8-12.2c1.9-1.4,3.8-2.5,4.4-2.5s4,0.6,4.4,0.7c0.3,0.1,2.7,2.4,4.1,4.6
	c1.4,2.2,4.2,7.9,5,10.6s1,5,1.2,5.9c0.2,0.9,0.7,4,2,4.1c1.3,0.1,4-0.1,17.2-4c13.2-3.9,18.6-5,18.6-5s-8.9-2.6-13.8-4.6
	c-4.9-2-9.3-5.2-10.4-5.4c-1.1-0.2-8.3-3.8-8.9-4.2c-0.6-0.4-8.3-1.1-12.6-3c0,0,5,1.1,7.6,1.3s5,0.5,5.5,0.9c0.5,0.4,6.3,3,7.8,3.7
	s2,1.3,3.4,1.9c1.4,0.7,9,5.2,17.9,7.4c8.9,2.2,20.5,4.2,26.4,4.3c0,0,1.4-3.2,1.2-6.5c0,0,2.3,1.6,11.2,3c8.9,1.5,21.3,3.2,23.2,4
	c0,0-8.3,2.5-12.7,3.2c0,0,3.4,1.5,6.3,2s15.1,2.6,31.4,3.4s33,1.3,39.2,0.6s22.3-3.8,22.3-3.8s-13.5,2-16.9,1.7
	c-3.4-0.4-17-7.1-20.6-10.6c-3.6-3.4-4.1-4.6-1.4-5.5c2.7-1,17.8-8.2,60.1,3.9c0,0-10.2-1.6-15.3-1l4.2,0.7c0,0-5.9-0.3-9.3,0.7
	l1.4,0.1c0,0-1.2,0.3-0.8,0.4s2.4,1.3,10.7,1.6c0,0-8,0-7.9,0.3s6.9,0.8,10.9,0.7c0,0-9.2,1.2-9.6,1.2c-0.5,0,0.1,0.8,0.1,0.8
	s0.6,0.7,1,0.7c0.4,0,7.1,0.7,13.1-0.3c5.9-0.9,18.8-4.9,18.8-4.9L310.6,217.9z"/>
<path fill="#FFFFFF" d="M310.6,179c0,0-0.3-0.1-0.7-0.2c-0.4-0.1-1.1-0.4-1.7-0.8c-0.3-0.2-0.6-0.5-0.9-0.8
	c-0.3-0.3-0.5-0.7-0.9-1.1c-0.3-0.4-0.7-0.8-1.2-1.1s-0.9-0.5-1.5-0.7c-1-0.4-2-0.7-3-0.9c-0.5-0.1-1-0.1-1.5-0.2
	c-0.5-0.1-0.9-0.1-1.3,0c-0.4,0-0.8,0.1-1.1,0.1c-0.3,0.1-0.6,0.1-0.8,0.1c-0.5,0.1-0.7,0.2-0.7,0.2s0.3,0,0.7-0.1
	c0.5-0.1,1.1-0.1,1.8,0c1.5,0.1,3.6,0.5,5.5,1.3c0.5,0.2,0.9,0.4,1.4,0.6c0.4,0.2,0.7,0.5,1.1,0.9c0.3,0.3,0.7,0.7,1,1.1
	c0.3,0.3,0.7,0.6,1.1,0.8c0.7,0.4,1.4,0.5,1.8,0.6C310.3,179,310.6,179,310.6,179z"/>
<path fill="#FFFFFF" d="M303.4,190.4c0,0,0.1-0.5,0.3-1.3c0.1-0.8,0.3-1.8,0.5-2.8c0.1-1.1,0.3-2.1,0.3-2.8c0.1-0.8,0.2-1.3,0.2-1.3
	s-0.3,0.5-0.5,1.3c-0.1,0.4-0.3,0.9-0.3,1.3c-0.1,0.5-0.2,1-0.3,1.5c-0.1,1.1-0.2,2.1-0.1,2.9C303.3,189.8,303.4,190.4,303.4,190.4z
	"/>
<path fill="#FFFFFF" d="M303.6,200.9c0,0,0,0.3,0.1,0.7s0.3,1.1,0.5,1.9c0.1,0.4,0.3,0.8,0.5,1.3c0.2,0.5,0.4,0.9,0.7,1.3
	c0.3,0.5,0.5,0.9,0.9,1.4c0.3,0.5,0.7,0.9,1.1,1.3c0.4,0.4,0.8,0.7,1.3,1.1c0.5,0.3,0.9,0.7,1.3,0.9c0.9,0.5,1.8,1,2.5,1.3
	c1.5,0.7,2.6,0.9,2.6,0.9s-0.3-0.1-0.7-0.3c-0.5-0.2-1.1-0.5-1.8-0.9c-0.7-0.4-1.5-0.9-2.4-1.5c-0.4-0.3-0.9-0.6-1.3-0.9
	c-0.4-0.3-0.9-0.7-1.2-1.1c-0.4-0.4-0.7-0.8-1.1-1.2c-0.3-0.4-0.6-0.9-0.9-1.3c-0.3-0.4-0.5-0.9-0.7-1.3c-0.2-0.4-0.4-0.8-0.6-1.2
	C303.9,201.9,303.6,200.9,303.6,200.9z"/>
<path fill="#FFFFFF" d="M196.8,139.8c0,0-5.3,1.8-9.9,3.6s-16.1,4.6-18.6,5.5c-2.5,1-7.1,1-7.1,1s-8.7-4.4-8.7-5.4s-0.5-2.3,0.7-4.8
	s4-5.8,4.7-6.3c0.7-0.5,2.3-4,1.8-5.9c-0.5-1.8-2.6-4.6-3.4-5.3c-0.7-0.7-1.1-1.1-0.8-1.5c0.3-0.4,5.5-2.5,8.1-1.9s9.3,2.6,12.6,5.5
	c3.3,2.9,7.6,6.9,9.9,8.7C188.4,134.9,196.8,139.8,196.8,139.8z"/>
<g>
	<path fill="#504E3C" d="M192.3,138.8c0,0-0.5-0.3-1.3-0.7c-0.8-0.5-1.9-1-3.3-1.8c-1.3-0.7-3-1.6-4.6-2.6c-1.7-0.9-3.5-2-5.3-3
		c-1.8-1.1-3.6-2.1-5.2-3c-1.7-1-3.2-1.9-4.6-2.7c-2.6-1.6-4.4-2.6-4.4-2.6s0.5,0.2,1.3,0.6s2,1,3.3,1.7c1.4,0.7,3,1.6,4.6,2.5
		c1.7,0.9,3.5,2,5.3,3c1.8,1.1,3.6,2.1,5.2,3.1c1.7,1,3.2,1.9,4.6,2.7c1.3,0.8,2.4,1.5,3.2,2C191.8,138.5,192.3,138.8,192.3,138.8z"
		/>
</g>
<g>
	<path fill="#504E3C" d="M189.7,140c0,0-0.3-0.1-0.9-0.3c-0.6-0.3-1.4-0.5-2.4-1c-1-0.4-2.1-0.9-3.3-1.5c-1.2-0.5-2.4-1.1-3.8-1.7
		c-1.3-0.6-2.5-1.2-3.7-1.8c-1.2-0.6-2.2-1.2-3.2-1.7c-0.9-0.5-1.7-0.9-2.2-1.3c-0.5-0.3-0.9-0.5-0.9-0.5s1.3,0.6,3.2,1.4
		c1,0.5,2.1,0.9,3.3,1.5c1.2,0.5,2.4,1.1,3.8,1.7c1.3,0.6,2.5,1.2,3.7,1.8c1.2,0.6,2.2,1.2,3.2,1.7c0.9,0.5,1.7,0.9,2.2,1.2
		C189.4,139.8,189.7,140,189.7,140z"/>
</g>
<g>
	<path fill="#504E3C" d="M185.1,141.6c0,0-0.3-0.1-0.8-0.3c-0.5-0.2-1.2-0.5-2-0.9c-0.9-0.4-1.8-0.8-2.8-1.3c-1.1-0.5-2.1-1-3.2-1.5
		c-1.1-0.5-2.2-1.1-3.2-1.6s-2-1-2.8-1.5c-0.8-0.4-1.5-0.8-1.9-1.1c-0.5-0.3-0.7-0.4-0.7-0.4s0.3,0.1,0.8,0.3c0.5,0.2,1.2,0.5,2,0.9
		c0.9,0.4,1.8,0.8,2.8,1.3c1.1,0.5,2.1,1,3.2,1.5c1.1,0.5,2.2,1.1,3.2,1.6c1,0.5,2,1,2.8,1.5c0.8,0.4,1.5,0.8,1.9,1.1
		C184.8,141.4,185.1,141.6,185.1,141.6z"/>
</g>
<g>
	<path fill="#504E3C" d="M182.3,143.3c0,0-0.3-0.1-0.8-0.3c-0.5-0.2-1.2-0.5-2-0.9c-0.9-0.4-1.8-0.8-2.8-1.3c-1.1-0.5-2.1-1-3.2-1.5
		c-1.1-0.5-2.2-1.1-3.2-1.6c-1-0.5-2-1-2.8-1.5c-0.8-0.4-1.5-0.8-1.9-1.1c-0.5-0.3-0.7-0.4-0.7-0.4s0.3,0.1,0.8,0.3
		c0.5,0.2,1.2,0.5,2,0.9c0.9,0.4,1.8,0.8,2.8,1.3c1.1,0.5,2.1,1,3.2,1.5c1.1,0.5,2.2,1.1,3.2,1.6c1,0.5,2,1,2.8,1.5
		c0.8,0.4,1.5,0.8,1.9,1.1C182,143.1,182.3,143.3,182.3,143.3z"/>
</g>
<g>
	<path fill="#504E3C" d="M178.8,144.3c0,0-0.3-0.1-0.8-0.3c-0.5-0.2-1.2-0.5-2-0.9c-0.9-0.4-1.8-0.8-2.8-1.3c-1.1-0.5-2.1-1-3.2-1.5
		c-1.1-0.5-2.2-1.1-3.2-1.6c-1-0.5-2-1-2.8-1.5c-0.8-0.4-1.5-0.8-1.9-1.1c-0.5-0.3-0.7-0.4-0.7-0.4s0.3,0.1,0.8,0.3
		c0.5,0.2,1.2,0.5,2,0.9c0.9,0.4,1.8,0.8,2.8,1.3c1.1,0.5,2.1,1,3.2,1.5s2.2,1.1,3.2,1.6c1,0.5,2,1,2.8,1.5c0.8,0.4,1.5,0.8,1.9,1.1
		C178.5,144.1,178.8,144.3,178.8,144.3z"/>
</g>
<g>
	<path fill="#504E3C" d="M175.6,145.4c0,0-0.3-0.1-0.7-0.3s-1.1-0.4-1.8-0.8c-0.8-0.3-1.7-0.7-2.6-1.1c-0.9-0.4-2-0.9-3-1.4
		c-1-0.5-2-1-3-1.5c-0.9-0.5-1.8-0.9-2.5-1.3c-0.7-0.4-1.3-0.7-1.8-1c-0.4-0.3-0.7-0.4-0.7-0.4s0.3,0.1,0.7,0.3
		c0.5,0.2,1.1,0.4,1.8,0.8c0.8,0.3,1.7,0.7,2.6,1.1c0.9,0.4,2,0.9,3,1.4s2,1,3,1.5c0.9,0.5,1.8,0.9,2.5,1.3c0.7,0.4,1.3,0.7,1.8,1
		C175.3,145.3,175.6,145.4,175.6,145.4z"/>
</g>
<g>
	<path fill="#504E3C" d="M172.6,146.6c0,0-0.3-0.1-0.7-0.3c-0.4-0.1-1-0.4-1.7-0.7c-1.4-0.6-3.2-1.4-5-2.2c-1.8-0.9-3.6-1.8-5-2.5
		c-0.7-0.3-1.2-0.7-1.6-0.9c-0.4-0.2-0.6-0.3-0.6-0.3s0.3,0.1,0.7,0.3c0.4,0.1,1,0.4,1.7,0.7c1.4,0.6,3.2,1.4,5,2.2s3.6,1.8,4.9,2.5
		c0.7,0.3,1.2,0.7,1.6,0.9C172.4,146.4,172.6,146.6,172.6,146.6z"/>
</g>
<g>
	<path fill="#504E3C" d="M169.9,147.4c0,0-0.2-0.1-0.6-0.2s-0.9-0.3-1.6-0.6c-1.3-0.5-3-1.3-4.8-2.1c-1.7-0.8-3.4-1.7-4.6-2.4
		c-0.6-0.3-1.1-0.7-1.5-0.9c-0.3-0.2-0.5-0.3-0.5-0.3s0.2,0.1,0.6,0.2c0.4,0.1,0.9,0.3,1.6,0.6c1.3,0.5,3,1.3,4.8,2.1
		c1.7,0.8,3.4,1.7,4.6,2.4c0.6,0.3,1.1,0.7,1.5,0.9C169.7,147.3,169.9,147.4,169.9,147.4z"/>
</g>
<g>
	<path fill="#504E3C" d="M166.4,148.4c0,0-0.2-0.1-0.5-0.2c-0.3-0.1-0.8-0.3-1.3-0.5c-1.1-0.5-2.5-1.1-4-1.7c-1.4-0.7-2.8-1.4-3.8-2
		c-0.5-0.3-0.9-0.5-1.3-0.7c-0.3-0.2-0.5-0.3-0.5-0.3s0.2,0.1,0.5,0.2c0.3,0.1,0.8,0.3,1.3,0.5c1.1,0.4,2.5,1.1,4,1.7
		c1.4,0.7,2.8,1.4,3.8,2c0.5,0.3,0.9,0.5,1.3,0.7C166.2,148.4,166.4,148.4,166.4,148.4z"/>
</g>
<path fill="#FFFFFF" d="M93.7,166.4c0,0-5.2-0.6-11.1,0.4c0,0,2.8,1.4,1.5,3.3l4.4-0.7l-0.7-1c0,0,4,0.9,1.7-0.7c0,0,3.4,0,0.7-1
	C90,166.7,92.2,167.1,93.7,166.4z"/>
<ellipse fill="#504E3C" cx="333" cy="187.6" rx="5.9" ry="4.4"/>
<path fill="#FFFFFF" d="M328.8,187.1c0,2.6,1.8,4.6,4.1,4.6c2.2,0,4.1-2,4.1-4.6c0-2.6-1.8-4.6-4.1-4.6
	C330.6,182.5,328.8,184.6,328.8,187.1z"/>
<path fill="#504E3C" d="M328.4,187.1c0-2.8,2-5.1,4.4-5.1c2.4,0,4.4,2.3,4.4,5.1c0,2.8-2,5.1-4.4,5.1
	C330.4,192.2,328.4,189.9,328.4,187.1z M328.8,187.1c0,2.6,1.8,4.6,4.1,4.6c2.2,0,4.1-2,4.1-4.6c0-2.6-1.8-4.6-4.1-4.6
	C330.6,182.5,328.8,184.6,328.8,187.1z"/>
<path fill="#504E3C" d="M331.9,185.9c0.6,0,1.1-0.6,1.1-1.3c0,0,0,0,0-0.1l0,0c1.1,0,2,1.2,2,2.6c0,1.5-0.9,2.6-2,2.6
	c-1.1,0-2-1.2-2-2.6c0-0.5,0.1-1.1,0.3-1.5C331.5,185.8,331.7,185.9,331.9,185.9z"/>
</svg>
