<?xml version="1.0" encoding="utf-8"?>
<!-- Generator: Adobe Illustrator 18.1.1, SVG Export Plug-In . SVG Version: 6.00 Build 0)  -->
<svg version="1.1" id="silver_salmon" xmlns="http://www.w3.org/2000/svg" xmlns:xlink="http://www.w3.org/1999/xlink" x="0px"
	 y="0px" viewBox="0 0 510 196.7" enable-background="new 0 0 510 196.7" xml:space="preserve">
<g>
	<path d="M468.7,113c0,0,18.3-13.3,21.3-13s9,2.3,12.7,1.3s5.7-7.3-1-10.7S474,78,460.7,75s-48-14.3-63.3-17.7S334,42.7,314,43.4
		s-33,2.7-34.3,1.3S267,24.4,265.4,22s-8-11.7-11.3-15.3c-3.3-3.7-10.3-7-12-6.7c-1.7,0.3-3.3,5-8.3,11.3s-15.3,17.3-18,21.3
		c-2.7,4-6,7-4.3,9.3c1.7,2.3,9.7,6.7,10,9.7c0.3,3-12,4.7-20.3,5.7s-54,8.7-58,9.3s-5.7,1.3-6.7,0.7s-9.3-6-14.3-6
		s-16.3,0.7-14.3,4.3c2,3.7,8.3,5.7,10,6s-8.3,3.3-12.7,4s-21.7,3-25.3,2S49,63,37.7,58S7,41,3,42.4s-3.3,4.7-2,6.3
		s10.3,9,10.7,29.7C12,99,10.4,139,9.4,146s-1.7,16.3,1,16s13.7-5.3,29.3-13.7c15.7-8.3,27-18.3,36.7-20.3s33-5.3,37.7-3.3
		s8,3,6,3.7c-2,0.7-8,1.7-8,3.3c0,1.7,7.7,7.7,15,15s16.3,20.7,18,23.3s-1,3,1.7,2.7c2.7-0.3,26.3-16,30.3-26.7
		c0,0,30.3,11,57.3,8.3c0,0-1,2-3.7,3.7s-5,3.3-5.3,4.3c-0.3,1,10.7,33,15.3,34.3C245.4,198,263,168,266,157c0,0,25,0,59.3-2.3
		c34.3-2.3,97.3-5.7,103.3-14.3c0,0,5,0.3,10,0.3s26.7-7.7,31.7-9c5-1.3,23-9.3,28-10.7s13.3-9,11.3-11s-7-0.3-22.3,6.7
		C487.4,116.7,474.7,114.7,468.7,113z"/>
	<g>
		<path fill="#FFFFFF" d="M466.9,113c0,0,13.3-9.5,17.3-11.5s4.7-2.7,6.7-2.5s6.7,1.3,9,1.2s3.3,0.2,3.3-1s0-2.7-2.3-4.3
			s-20.2-10-27.3-12.3c-7.2-2.3-47-12.3-68.7-17.7s-69.2-14-96-14.3C282,50.2,197.4,62.2,177.2,65.2s-53.2,9.5-62.5,11
			s-32,4-34.7,3.5S29.7,55.5,25.9,54s-6.7-3.3-9-3c-2.3,0.3-4.5,4-4.5,6.5s4.2,9.3,5.5,14.7c1.3,5.3,2.7,16.3,1.5,28.5
			c-1.2,12.2-6,34-5,40.3c1,6.3,3.7,12.8,5.7,13.2s13.8-4.8,20.2-8.2s23.8-14.8,29-16.8s18.5-5.8,30.7-6.2s12.7-0.7,14.2,0
			s26.7,11.2,39.5,13.3c0,0-21.5-2.5-31.7-7.2c0,0-7.3,3-6.7,4s3,3.5,10.7,10.3c7.7,6.8,16.3,19.2,18.7,23c2.3,3.8,2.7,4.3,3.8,3.8
			s14.2-7.8,27.8-24.7l-3.7-2c0,0,8.7,3.2,15.2,4.7s21.2,6,50,4.8c0,0-4.8,4.5-6.3,5.8c-1.5,1.3-4.3,3-4.3,4s11.2,32.3,14,32.3
			s19.8-25.5,24-39.7c0,0,41.3-1.3,58.3-2.5s55.7-3.7,71.8-5.8c16.2-2.2,27.7-3.7,32-7.8c0,0-7.8-2.2-11.5-7.3
			c0,0,11.7,9.2,24.2,6.8s29-9,28.8-9.5s-13.2-4.2-16.5-4.2s-20.5,2.3-20.5,2.3s19.3-3,22.5-4.2s10.8-5.7,12.7-5.8s15,3,17,3
			s22.2-9,21.7-9.5s-5.8,1-18,6.3C487.5,117.5,469.9,115.5,466.9,113z"/>
		<path d="M232.9,179.6c-3-7.6-5.9-16-5.9-16.6c0-0.7,1.3-1.7,2.7-2.8c0.6-0.4,1.2-0.9,1.7-1.3c1.3-1.1,5.1-4.7,6.1-5.6
			c-3,0.1-6,0.2-8.9,0.2c-20.3,0-32.3-2.9-38.7-4.5c-0.8-0.2-1.5-0.4-2.1-0.5c-4.8-1.1-10.9-3.2-13.7-4.1l2.4,1.3l-0.1,0.1
			c-14.4,17.8-27.8,24.7-27.9,24.7c-0.3,0.1-0.5,0.2-0.7,0.2c-0.8,0-1.5-1-3.3-4.1c-2.3-3.7-10.9-16-18.6-23
			c-6.3-5.6-9.8-9-10.7-10.4c-0.1-0.1-0.1-0.2,0-0.3c0.4-1.2,6.1-3.6,6.8-3.8l0,0l0,0c7.6,3.5,21.6,5.8,28.1,6.7
			c-12.9-3-33.3-11.4-36.1-12.6c-0.6-0.3-1.1-0.4-2.3-0.4c-0.8,0-1.9,0-3.7,0.1c-1.9,0.1-4.5,0.2-8.2,0.3c-13,0.4-26.5,4.6-30.6,6.2
			c-3.1,1.2-10.6,5.8-17.3,9.9c-4.7,2.9-9.1,5.6-11.7,6.9c-6.1,3.2-17.5,8.2-20,8.2c-0.1,0-0.2,0-0.2,0c-2.2-0.4-4.8-7.3-5.8-13.3
			c-0.6-3.9,1-13.8,2.5-23.3c1-6.1,2-12.3,2.5-17c1.1-11.2,0-22.4-1.5-28.5c-0.7-2.6-2-5.6-3.2-8.3c-1.2-2.8-2.3-5.1-2.3-6.4
			c0-2.6,2.2-6.3,4.6-6.6c0.2,0,0.4,0,0.6,0c1.6,0,3.3,0.8,5.4,1.7c1,0.4,2,0.9,3.1,1.3c1.5,0.6,10.2,4.8,20.2,9.6
			c14.4,7,32.4,15.7,34,16c0.2,0,0.6,0.1,1.1,0.1c5.2,0,24.7-2.2,33.5-3.6c3.3-0.5,9.5-1.7,17.4-3.1c13.6-2.5,32.1-5.9,45.1-7.9
			c1-0.1,99-14.7,130.6-14.7c0.4,0,0.8,0,1.1,0c28.1,0.3,76.4,9.5,96,14.3c22.8,5.6,61.6,15.4,68.7,17.7c7,2.3,25,10.6,27.4,12.4
			c2.4,1.7,2.4,3.3,2.4,4.4c0,1-0.7,1-2,1.1c-0.4,0-0.9,0-1.4,0.1c-1.5,0.1-3.9-0.3-6-0.7c-1.2-0.2-2.3-0.4-3-0.5
			c-0.2,0-0.4,0-0.5,0c-1.2,0-2,0.4-3.9,1.4c-0.6,0.3-1.3,0.7-2.1,1.1c-3.7,1.9-15.8,10.4-17.2,11.4c3.2,2.3,19.6,4.3,20.4,4.4
			c9.2-4,15.8-6.4,17.6-6.4c0.2,0,0.4,0,0.5,0.1c0,0,0.1,0.1,0,0.2c-0.4,1-20,9.5-21.8,9.5c-0.9,0-4.3-0.7-7.8-1.4
			c-3.8-0.8-7.8-1.6-9-1.6c-0.1,0-0.1,0-0.2,0c-1,0.1-4,1.6-6.8,3.1c-2.2,1.1-4.4,2.3-5.8,2.8c-1.8,0.7-8.8,1.9-14.6,2.9
			c5-0.6,10.7-1.3,12.5-1.3c3.1,0,16.4,3.6,16.6,4.3c0,0,0,0.1,0,0.1c-0.5,0.8-16.5,7.2-28.9,9.5c-1.4,0.3-2.8,0.4-4.2,0.4
			c-9,0-17-5.1-19.4-6.7c3.8,4.6,10.8,6.6,10.9,6.6l0.2,0.1l-0.2,0.2c-4.3,4.1-15.7,5.7-31.5,7.8l-0.6,0.1
			c-14.5,1.9-46.8,4.1-66,5.4c-2.1,0.1-4.1,0.3-5.8,0.4c-16.4,1.1-56.1,2.4-58.3,2.5c-4.1,14-21.1,39.7-24.1,39.7
			C239.8,195.5,237,190.1,232.9,179.6z M415.6,132.3l-0.5-0.7l0.7,0.5c0.1,0.1,9.3,7.2,19.9,7.2c1.4,0,2.8-0.1,4.2-0.4
			c12.3-2.3,27.6-8.5,28.7-9.4c-1-0.6-13-4.1-16.3-4.1c-3.3,0-20.3,2.3-20.5,2.3l0-0.2c0,0,0,0,0,0l0,0l0,0c0.3,0,19.4-3,22.5-4.2
			c1.4-0.5,3.6-1.7,5.8-2.8c3-1.5,5.8-3,6.9-3.1c1-0.1,5.2,0.8,9.3,1.6c3.5,0.7,6.8,1.4,7.8,1.4c0.8,0,5.4-1.8,11.3-4.4
			c5.9-2.6,9.6-4.5,10.2-4.9c0,0-0.1,0-0.2,0c-1.4,0-6.8,1.7-17.6,6.4l0,0l0,0c-0.7-0.1-17.7-2-20.7-4.5l-0.1-0.1l0.1-0.1
			c0.1-0.1,13.4-9.5,17.4-11.5c0.8-0.4,1.5-0.8,2.1-1.1c2-1,2.8-1.5,4.1-1.5c0.2,0,0.4,0,0.6,0c0.7,0.1,1.8,0.3,3,0.5
			c2.1,0.4,4.5,0.8,6,0.7c0.6,0,1-0.1,1.4-0.1c1.4,0,1.8-0.1,1.8-0.8c0-1.2,0-2.6-2.3-4.2c-2.4-1.7-20.3-10-27.3-12.3
			c-7-2.3-45.8-12-68.7-17.7c-19.6-4.8-67.9-14-96-14.3c-0.4,0-0.7,0-1.1,0c-31.5,0-129.5,14.5-130.5,14.7
			c-13,1.9-31.5,5.4-45.1,7.9c-7.9,1.5-14.1,2.6-17.4,3.1c-8.8,1.4-28.3,3.6-33.5,3.6c-0.6,0-0.9,0-1.2-0.1c-1.6-0.3-18.8-8.7-34-16
			c-10-4.8-18.6-9-20.1-9.6c-1.1-0.4-2.1-0.9-3.1-1.3c-2-0.9-3.8-1.7-5.3-1.7c-0.2,0-0.4,0-0.6,0c-2.2,0.3-4.4,3.9-4.4,6.4
			c0,1.2,1.1,3.6,2.3,6.3c1.2,2.7,2.5,5.7,3.2,8.3c1.5,6.1,2.6,17.3,1.5,28.5c-0.5,4.7-1.5,11-2.5,17c-1.6,9.5-3.2,19.4-2.5,23.3
			c1,6.5,3.7,12.7,5.6,13.1c0.1,0,0.1,0,0.2,0c2.5,0,13.8-5,19.9-8.2c2.6-1.4,7-4,11.6-6.9c7-4.3,14.3-8.7,17.4-9.9
			c4.1-1.6,17.7-5.8,30.7-6.2c3.7-0.1,6.3-0.2,8.2-0.3c1.7-0.1,2.9-0.1,3.7-0.1c1.3,0,1.7,0.1,2.4,0.4c3,1.3,27.2,11.3,39.5,13.3
			l0,0.2c-0.2,0-21.6-2.5-31.7-7.2c-1.8,0.7-6.3,2.8-6.6,3.7c0,0.1,0,0.1,0,0.1c0.9,1.3,4.5,4.8,10.6,10.3
			c7.8,6.9,16.4,19.3,18.7,23c1.9,3.1,2.4,3.9,3.1,3.9c0.2,0,0.3,0,0.6-0.2c0.1-0.1,13.3-6.9,27.7-24.5l-3.5-1.9l0.1-0.2
			c0.1,0,8.7,3.2,15.2,4.7c0.6,0.1,1.4,0.3,2.1,0.5c6.4,1.6,18.3,4.5,38.6,4.5c3,0,6.1-0.1,9.2-0.2l0.3,0l-0.2,0.2
			c0,0-4.9,4.5-6.3,5.8c-0.5,0.4-1.1,0.9-1.7,1.3c-1.2,0.9-2.6,2-2.6,2.6c0,0.5,2.8,8.6,5.9,16.5c3.9,10,6.8,15.7,7.9,15.7
			c1.3,0,6.2-6.2,11.4-14.5c6-9.5,10.7-18.9,12.5-25.1l0-0.1l0.1,0c0.4,0,41.5-1.3,58.3-2.5c1.7-0.1,3.7-0.2,5.8-0.4
			c19.3-1.3,51.5-3.5,66-5.4l0.6-0.1c15.6-2.1,26.8-3.6,31.2-7.6C425.7,139.2,418.9,136.9,415.6,132.3z"/>
	</g>
	<path d="M420.7,77.9c0,0-0.9,0.6-2.3,1.6c-1.4,1.1-3.5,2.5-6,4.4c-1.2,1-2.5,2-3.9,3.1c-1.3,1.1-2.8,2.4-4.1,3.8
		c-0.3,0.3-0.7,0.7-1,1.1c-0.4,0.5-0.6,0.8-0.9,1.2c-0.6,0.9-1.1,1.8-1.5,2.8c-0.8,1.9-1.5,3.9-1.9,6c-0.4,2.1-0.6,4.2-0.7,6.2
		c-0.1,2.1,0.1,4.1,0.6,6.1c0.4,1.9,1.2,3.8,2.1,5.3c0.9,1.6,2,2.9,3,4.1c2,2.4,4,4,5.4,5.2c0.7,0.6,1.3,1,1.7,1.3
		c0.4,0.3,0.6,0.4,0.6,0.4s-0.8-0.7-2-2c-1.3-1.3-3-3.2-4.7-5.6c-0.9-1.2-1.8-2.6-2.5-4.1c-0.8-1.6-1.4-3.2-1.7-5
		c-0.4-1.8-0.4-3.7-0.4-5.7c0.1-2,0.3-3.9,0.7-5.9c0.4-2,0.9-3.9,1.7-5.6c0.4-0.9,0.8-1.7,1.3-2.5c0.2-0.4,0.6-0.8,0.8-1.1
		c0.3-0.4,0.6-0.7,0.9-1.1c2.6-2.7,5.2-5.2,7.5-7.2C417.7,80.6,420.7,77.9,420.7,77.9z"/>
	<path d="M428.2,117.5c0,0-0.4-0.5-1.1-1.5c-0.7-0.9-1.7-2.3-2.7-4c-0.5-0.8-1-1.8-1.4-2.8c-0.4-1-0.7-2.1-0.6-3.1
		c0.1-1.2,0.2-2.5,0.3-3.8c0.1-1.3,0.3-2.6,0.4-4c0.1-1.3,0.3-2.7,0.4-4c0.2-1.3,0.3-2.6,0.5-3.7c0-0.1,0-0.1,0-0.1c0,0,0,0,0,0
		c0,0.1-0.1,0.1-0.2,0.2c0,0-0.1,0.1-0.1,0l0,0l0,0l0,0c0,0,0.1-0.1,0.3-0.1c0.3-0.1,0.6-0.2,1-0.4c0.4-0.2,0.8-0.6,1-1.1
		c0.1-0.2,0.2-0.4,0.3-0.6c0.6-0.9,1.2-1.8,1.8-2.7c1.2-1.6,2.2-2.9,3-3.8c0.4-0.4,0.7-0.7,1-0.9c0.2-0.2,0.4-0.3,0.4-0.3
		s-0.2,0.1-0.4,0.2c-0.3,0.1-0.7,0.4-1.2,0.7c-1,0.7-2.2,1.8-3.6,3.3c-0.7,0.8-1.4,1.6-2.1,2.5c-0.2,0.2-0.4,0.6-0.6,0.9
		c0,0.1-0.1,0.1-0.3,0.2c-0.2,0.1-0.4,0.1-0.7,0.2c-0.2,0.1-0.3,0.1-0.6,0.2l-0.1,0l0,0l0,0c0,0-0.1,0.1-0.1,0.1
		c-0.1,0.1-0.2,0.2-0.3,0.3c-0.1,0.1-0.1,0.1-0.1,0.1c-0.1,0.2-0.1,0.2-0.1,0.3c-0.2,0.7-0.3,1.3-0.4,2c-0.1,0.6-0.2,1.3-0.3,2
		c-0.2,1.3-0.3,2.7-0.5,4c-0.1,1.3-0.2,2.7-0.3,4c-0.1,1.3-0.1,2.6-0.2,3.9c0,1.5,0.5,2.8,1,3.8c0.6,1.1,1.2,2,1.9,2.8
		c1.3,1.6,2.5,2.8,3.4,3.6C427.7,117.1,428.2,117.5,428.2,117.5z"/>
	<path d="M468.9,103.5c0,0-2,0.2-5,0.8c-1.5,0.3-3.2,0.7-5.1,1.2c-0.9,0.3-1.9,0.5-2.8,0.9c-0.9,0.3-1.9,0.7-2.9,1.1
		c-0.9,0.4-1.9,0.8-2.8,1.3c-0.9,0.5-1.8,1-2.6,1.8c-0.4,0.4-0.8,0.9-1,1.6c0,0.2-0.1,0.4-0.1,0.7c0,0.2-0.1,0.5-0.1,0.7
		c-0.1,0.9-0.1,1.8-0.1,2.5c0.1,1.6,0.3,2.8,0.5,3.7c0.2,0.9,0.4,1.4,0.4,1.4s0-0.5,0-1.4c0-0.9,0.1-2.1,0.3-3.6
		c0.1-0.7,0.2-1.5,0.4-2.3c0.1-0.2,0.1-0.4,0.2-0.6c0.1-0.2,0.1-0.4,0.2-0.6c0.1-0.2,0.3-0.4,0.6-0.7c0.6-0.5,1.5-0.9,2.3-1.4
		c0.9-0.4,1.8-0.8,2.7-1.2c0.9-0.4,1.8-0.7,2.8-1.1c0.9-0.3,1.8-0.7,2.7-1c1.8-0.7,3.4-1.3,4.8-1.8
		C467,104.3,468.9,103.5,468.9,103.5z"/>
	<path d="M392.9,124.9c0,0-9.8-5.7-25.7-4.5s-31.5,3-29,9.3c2.5,6.3,16.5,13,30,17.8c0,0-26.7-14.8-24.8-18.8
		C345.2,124.7,375.4,120.4,392.9,124.9z"/>
	<path d="M63.5,80.9c0,0-0.9,0.1-2.4,0.5c-1.5,0.4-3.7,1.1-6.2,2.4c-1.2,0.6-2.5,1.4-3.7,2.6c-0.6,0.6-1.2,1.2-1.6,2
		c-0.5,0.8-0.8,1.7-0.9,2.7c-0.2,1.7-0.5,3.4-0.8,5.1c-0.3,1.8-0.6,3.5-0.9,5.3c-0.3,1.8-0.5,3.6-0.6,5.5c-0.1,0.9-0.1,1.8,0,2.8
		c0.1,0.9,0.2,1.9,0.6,2.8c0.2,0.5,0.4,0.9,0.8,1.3c0.1,0.1,0.2,0.2,0.3,0.3l0.2,0.2l0.5,0.4c0.7,0.5,1.4,0.9,2.1,1.3
		c1.4,0.8,2.7,1.5,3.9,2.1c2.4,1.2,4.5,2.1,6,2.7c1.5,0.6,2.3,0.9,2.3,0.9s-3.1-1.9-7.7-4.7c-1.1-0.7-2.4-1.5-3.7-2.4
		c-0.6-0.4-1.3-0.9-1.9-1.4l-0.5-0.4l-0.2-0.2c0,0-0.1-0.1-0.1-0.1c-0.2-0.2-0.3-0.5-0.4-0.8c-0.5-1.4-0.4-3.1-0.3-4.8
		c0.1-1.7,0.4-3.5,0.6-5.3c0.5-3.6,1.2-7.1,1.5-10.6c0.1-1.5,0.8-2.8,1.8-3.9c1-1.1,2.1-1.9,3.2-2.7c2.2-1.4,4.3-2.4,5.8-3
		C62.7,81.2,63.5,80.9,63.5,80.9z"/>
	<g>
		<path fill="#FFFFFF" d="M134.7,69c0,0-8.5-5.8-10.5-6.2s-14.8,0-15,1.8c-0.2,1.8,7.2,4.2,9,4.8s3,2.2,3,2.2L134.7,69z"/>
		<path d="M121.1,71.8c0,0-1.2-1.5-2.9-2.1c-0.2-0.1-0.4-0.2-0.8-0.3c-4.2-1.5-8.5-3.2-8.3-4.7c0.2-1.7,9.1-2.1,12.5-2.1
			c1.2,0,2.2,0,2.7,0.1c2,0.3,10.2,5.9,10.5,6.2l0.2,0.2l-13.8,2.7L121.1,71.8L121.1,71.8z M124.2,63c-0.4-0.1-1.4-0.1-2.6-0.1
			c-5.1,0-12.1,0.6-12.2,1.8c-0.1,1.5,5.9,3.6,8.2,4.4c0.3,0.1,0.6,0.2,0.8,0.3c1.7,0.6,2.8,1.9,3,2.1l13.1-2.6
			C133,68,125.9,63.3,124.2,63z"/>
	</g>
	<g>
		<path fill="#FFFFFF" d="M276.2,46.9L221.5,54c0,0,1.8-1.7,0.7-3.5c-1.2-1.8-9.8-8.2-10-9.8c-0.2-1.7,10.7-16,15.2-20.7
			s11.2-13.3,12.2-15.3s1.3-3.3,2.7-3.3c1.3,0,6.8,2,9.3,4.8S279.5,43.7,276.2,46.9z"/>
		<path d="M221.5,53.9c0,0,1.7-1.6,0.6-3.3c-0.5-0.8-2.3-2.4-4.3-4c-2.8-2.4-5.6-4.8-5.7-5.8c-0.2-1.8,10.8-16.2,15.2-20.8
			c4.5-4.7,11.2-13.3,12.1-15.3c0.2-0.4,0.3-0.7,0.5-1c0.7-1.4,1.1-2.4,2.3-2.4c1.3,0,6.9,2,9.4,4.9c2.3,2.7,28.1,37.6,24.7,40.8
			l0,0l-54.7,7.2l-0.4,0.1L221.5,53.9z M251.4,6.3c-2.5-2.9-8-4.8-9.2-4.8c-1,0-1.4,0.8-2.1,2.3c-0.1,0.3-0.3,0.6-0.5,1
			c-1,2-7.6,10.6-12.2,15.4c-4.7,4.8-15.3,19-15.1,20.6c0.1,0.9,3,3.4,5.6,5.7c2,1.7,3.8,3.3,4.3,4.1c0.9,1.5,0,2.8-0.4,3.4
			l54.3-7.1C279.1,43.6,254.7,10,251.4,6.3z"/>
	</g>
	<path d="M447,128.7c0,0-0.4,0-1.1,0.1c-0.7,0.1-1.7,0.2-2.9,0.4c-1.2,0.2-2.6,0.4-4.1,0.6c-1.5,0.2-3.1,0.5-4.7,0.8
		c-1.6,0.3-3.2,0.6-4.6,0.9c-1.5,0.3-2.9,0.6-4,0.8c-1.2,0.2-2.2,0.5-2.9,0.6c-0.7,0.1-1.1,0.2-1.1,0.2s0.1,0,0.3,0
		c0.2,0,0.5,0,0.8,0c0.7,0,1.7-0.1,2.9-0.2c1.2-0.1,2.6-0.3,4.1-0.5c1.5-0.2,3.1-0.5,4.7-0.8c1.6-0.3,3.2-0.6,4.6-0.9
		c1.5-0.3,2.8-0.7,4-0.9c1.2-0.3,2.1-0.6,2.8-0.7C446.7,128.8,447,128.7,447,128.7z"/>
	<path d="M449.7,130.2c0,0-0.4,0.1-1.1,0.2c-0.7,0.1-1.6,0.3-2.8,0.6c-1.1,0.3-2.5,0.5-3.9,0.9c-1.4,0.3-2.9,0.7-4.5,1.1
		c-6.1,1.6-12.1,3.1-12.1,3.1s0.4,0,1.1-0.1c0.7-0.1,1.7-0.2,2.8-0.3c1.2-0.2,2.5-0.4,4-0.7c1.4-0.3,3-0.6,4.5-1
		c1.5-0.4,3-0.8,4.4-1.2c1.4-0.4,2.7-0.8,3.8-1.2c1.1-0.4,2-0.7,2.7-0.9C449.3,130.3,449.7,130.2,449.7,130.2z"/>
	<path d="M454.4,132.2c0,0-0.3,0.1-1,0.2c-0.6,0.1-1.5,0.3-2.5,0.5c-2.1,0.4-4.8,1.1-7.5,1.8c-2.7,0.7-5.4,1.5-7.4,2
		c-1,0.3-1.8,0.5-2.4,0.7c-0.6,0.2-0.9,0.3-0.9,0.3s1.4-0.1,3.5-0.4c2.1-0.3,4.8-0.9,7.5-1.6c2.7-0.7,5.4-1.5,7.4-2.2
		c1-0.3,1.8-0.7,2.4-0.9C454.1,132.3,454.4,132.2,454.4,132.2z"/>
	<path d="M395.5,127.5c0,0-0.7-0.1-2-0.2c-1.3-0.1-3.1-0.2-5.3-0.3c-2.2-0.1-4.8-0.2-7.6-0.3c-2.8,0-5.7-0.1-8.7-0.1
		c-3,0-5.9,0.2-8.7,0.3c-1.4,0-2.7,0.2-4,0.3c-1.3,0.1-2.5,0.2-3.6,0.3c-1.1,0.1-2.1,0.3-3,0.4c-0.9,0.1-1.7,0.2-2.3,0.4
		c-1.3,0.2-2,0.4-2,0.4s0.7-0.1,2-0.2c0.6-0.1,1.4-0.1,2.3-0.2c0.9,0,1.9-0.1,3-0.2c1.1,0,2.3-0.1,3.6-0.2c1.3,0,2.6-0.1,4-0.1
		c2.8-0.1,5.7-0.1,8.7-0.2c2.9-0.1,5.9-0.1,8.7-0.1c2.8,0,5.3,0,7.6,0c2.2,0,4.1,0,5.4,0C394.8,127.5,395.5,127.5,395.5,127.5z"/>
	<path d="M396.2,132.2c0,0-0.7-0.1-1.8-0.2c-1.2-0.1-2.8-0.2-4.8-0.3c-2,0-4.3-0.1-6.8-0.1c-2.5,0-5.1,0.1-7.8,0.2
		c-2.6,0.2-5.3,0.3-7.8,0.6c-2.5,0.3-4.8,0.6-6.7,0.9c-1,0.2-1.9,0.3-2.7,0.5c-0.8,0.2-1.5,0.3-2,0.5c-1.1,0.3-1.8,0.4-1.8,0.4
		s0.7-0.1,1.8-0.2c0.6-0.1,1.3-0.2,2.1-0.3c0.8-0.1,1.7-0.2,2.7-0.3c1-0.1,2.1-0.2,3.2-0.3c1.1-0.1,2.3-0.2,3.6-0.3
		c1.2-0.1,2.5-0.2,3.8-0.3c1.3-0.1,2.6-0.2,3.9-0.2c2.6-0.1,5.3-0.2,7.8-0.3c2.5-0.1,4.8-0.2,6.8-0.2
		C393.6,132.3,396.2,132.2,396.2,132.2z"/>
	<path d="M396.2,135.4c0,0-2.3-0.1-5.7-0.1c-1.7,0.1-3.7,0.1-5.8,0.2c-2.1,0.1-4.4,0.3-6.7,0.6c-2.3,0.3-4.5,0.6-6.6,1
		c-2.1,0.4-4.1,0.8-5.7,1.2c-0.8,0.2-1.6,0.4-2.3,0.6c-0.7,0.2-1.2,0.4-1.7,0.6c-0.9,0.3-1.5,0.5-1.5,0.5s0.6-0.1,1.5-0.3
		c0.5-0.1,1.1-0.3,1.8-0.4c0.7-0.1,1.4-0.3,2.3-0.4c0.8-0.1,1.7-0.3,2.7-0.5c1-0.1,2-0.3,3-0.5c1.1-0.1,2.1-0.3,3.2-0.4
		c1.1-0.1,2.2-0.3,3.4-0.4c2.3-0.3,4.5-0.5,6.6-0.7c2.1-0.2,4.1-0.4,5.8-0.6C393.9,135.6,396.2,135.4,396.2,135.4z"/>
	<path d="M397.5,138.7c0,0-0.5,0-1.3,0c-0.8,0-2.1,0-3.5,0.1c-1.4,0.1-3.1,0.2-4.9,0.3c-1.8,0.2-3.7,0.4-5.6,0.7
		c-1,0.1-1.9,0.3-2.8,0.5c-0.9,0.1-1.9,0.4-2.7,0.5c-1.8,0.4-3.4,0.8-4.8,1.2c-0.7,0.2-1.3,0.4-1.9,0.6c-0.6,0.2-1,0.4-1.4,0.5
		c-0.8,0.3-1.2,0.5-1.2,0.5s0.5-0.1,1.3-0.3c0.4-0.1,0.9-0.3,1.5-0.4c0.6-0.1,1.2-0.3,1.9-0.4c1.4-0.3,3.1-0.6,4.8-0.9
		c1.8-0.3,3.7-0.6,5.6-0.9c1.9-0.3,3.8-0.5,5.6-0.8c1.8-0.2,3.5-0.5,4.9-0.7c1.4-0.2,2.6-0.4,3.5-0.5
		C397.1,138.8,397.5,138.7,397.5,138.7z"/>
	<path d="M260.5,156.9c0,0-0.2,0.6-0.6,1.6c-0.4,1-1,2.4-1.8,4.1c-0.7,1.7-1.7,3.7-2.7,5.7c-0.5,1-1.1,2.1-1.6,3.2
		c-0.6,1.1-1.2,2.2-1.8,3.2c-0.6,1.1-1.2,2.1-1.9,3.2c-0.7,1-1.3,2.1-2,3c-0.7,0.9-1.3,1.9-1.9,2.7c-0.7,0.8-1.2,1.7-1.8,2.4
		c-0.6,0.7-1.2,1.4-1.6,1.9c-0.5,0.6-1,1-1.3,1.4c-0.7,0.8-1.2,1.2-1.2,1.2s0.5-0.4,1.3-1.1c0.4-0.4,0.9-0.8,1.5-1.3
		c0.5-0.5,1.1-1.1,1.8-1.8c0.7-0.7,1.3-1.5,2-2.3c0.7-0.8,1.4-1.7,2.1-2.7c0.7-0.9,1.4-2,2-3c0.7-1,1.3-2.1,1.9-3.2
		c0.6-1.1,1.2-2.2,1.8-3.3c0.5-1.1,1.1-2.2,1.6-3.2c1-2.1,1.8-4.2,2.4-5.9C259.9,159.3,260.5,156.9,260.5,156.9z"/>
	<path d="M256.5,156.9c0,0-0.8,2-2.3,4.9c-0.7,1.5-1.6,3.1-2.6,4.9c-0.5,0.9-1,1.8-1.6,2.7c-0.5,0.9-1.1,1.8-1.7,2.7
		c-0.6,0.9-1.2,1.8-1.8,2.6c-0.6,0.9-1.2,1.7-1.8,2.5c-0.6,0.8-1.2,1.6-1.8,2.3c-0.3,0.4-0.6,0.7-0.9,1c-0.3,0.3-0.6,0.6-0.8,0.9
		c-0.5,0.6-1,1.2-1.5,1.6c-0.5,0.5-0.9,0.9-1.2,1.2c-0.7,0.7-1,1.1-1,1.1s0.4-0.3,1.2-0.9c0.4-0.3,0.8-0.7,1.3-1.1
		c0.5-0.4,1-1,1.6-1.5c0.3-0.3,0.6-0.6,0.9-0.9c0.3-0.3,0.6-0.7,0.9-1c0.6-0.7,1.3-1.4,1.9-2.2c0.6-0.8,1.3-1.6,1.9-2.5
		c0.6-0.9,1.3-1.7,1.9-2.7c0.6-0.9,1.2-1.8,1.7-2.8c0.6-0.9,1-1.9,1.5-2.8c0.9-1.8,1.7-3.6,2.3-5.1c0.6-1.5,1-2.8,1.3-3.7
		C256.4,157.4,256.5,156.9,256.5,156.9z"/>
	<path d="M251.9,156.2c0,0-0.1,0.4-0.5,1.1c-0.3,0.7-0.8,1.7-1.4,2.9c-0.3,0.6-0.7,1.2-1.1,1.8c-0.4,0.6-0.9,1.3-1.3,2
		c-0.5,0.7-1,1.4-1.5,2.1c-0.5,0.7-1,1.4-1.6,2.1c-0.6,0.7-1.1,1.4-1.7,2c-0.6,0.6-1.1,1.3-1.7,1.9c-0.6,0.6-1.1,1.2-1.6,1.8
		c-0.5,0.5-1,1.1-1.5,1.5c-0.9,1-1.7,1.7-2.2,2.3c-0.5,0.6-0.8,0.9-0.8,0.9s0.4-0.3,1-0.7c0.3-0.2,0.7-0.5,1.1-0.9
		c0.4-0.3,0.9-0.7,1.4-1.2c1-0.9,2.2-1.9,3.3-3.1c0.6-0.6,1.2-1.2,1.8-1.9c0.6-0.6,1.2-1.3,1.7-2c0.6-0.7,1.1-1.4,1.6-2.1
		c0.5-0.7,1-1.5,1.4-2.1c0.4-0.7,0.8-1.4,1.2-2.1c0.4-0.7,0.7-1.3,0.9-1.9c0.6-1.2,0.9-2.3,1.1-3
		C251.8,156.6,251.9,156.2,251.9,156.2z"/>
	<path d="M245.7,156.2c0,0-0.2,0.3-0.5,0.8c-0.3,0.5-0.7,1.2-1.3,2c-0.5,0.8-1.2,1.8-1.9,2.8c-0.7,1-1.5,2.1-2.3,3.1
		c-0.8,1-1.7,2-2.5,3c-0.4,0.5-0.8,0.9-1.2,1.3c-0.4,0.4-0.8,0.8-1.1,1.1c-0.7,0.7-1.3,1.3-1.7,1.7c-0.4,0.4-0.7,0.6-0.7,0.6
		s0.3-0.2,0.8-0.5c0.5-0.3,1.2-0.8,2-1.4c0.4-0.3,0.8-0.6,1.3-1c0.4-0.4,0.9-0.8,1.3-1.2c0.4-0.5,0.9-0.9,1.3-1.4
		c0.4-0.5,0.9-1,1.3-1.5c0.8-1.1,1.6-2.2,2.3-3.2c0.7-1.1,1.2-2.1,1.7-3c0.4-0.9,0.7-1.7,0.9-2.2
		C245.6,156.5,245.7,156.2,245.7,156.2z"/>
	<path d="M239.9,155.9c0,0-0.5,0.8-1.3,1.8c-0.4,0.5-0.9,1.1-1.5,1.7c-0.6,0.6-1.1,1.2-1.8,1.8c-0.3,0.3-0.6,0.6-0.9,0.9
		c-0.3,0.3-0.6,0.6-0.9,0.9c-0.3,0.3-0.6,0.6-0.9,0.8c-0.3,0.2-0.5,0.5-0.8,0.7c-0.5,0.5-0.9,0.8-1.2,1.1c-0.3,0.3-0.4,0.4-0.4,0.4
		s0.2-0.1,0.6-0.3c0.3-0.2,0.9-0.4,1.4-0.8c1.2-0.7,2.6-1.8,3.9-3.1c0.6-0.6,1.2-1.3,1.7-2c0.5-0.7,0.9-1.3,1.3-1.9
		C239.7,156.8,239.9,155.9,239.9,155.9z"/>
	<path d="M272.7,44.5c0,0-0.3-0.7-1-1.9c-0.6-1.2-1.5-2.9-2.7-4.9c-0.6-1-1.2-2.1-1.9-3.3c-0.7-1.1-1.4-2.4-2.2-3.6
		c-1.5-2.5-3.2-5.1-5-7.7c-0.9-1.3-1.8-2.5-2.7-3.8c-0.9-1.2-1.8-2.4-2.7-3.6c-0.9-1.2-1.8-2.2-2.7-3.3c-0.9-1-1.7-1.9-2.5-2.8
		c-0.8-0.9-1.6-1.6-2.2-2.3c-0.7-0.7-1.3-1.2-1.8-1.7c-1-0.9-1.6-1.4-1.6-1.4s0.5,0.6,1.5,1.5c0.5,0.5,1.1,1.1,1.7,1.8
		c0.6,0.7,1.3,1.5,2.1,2.4c0.7,0.9,1.5,1.9,2.4,2.9c0.8,1.1,1.7,2.2,2.5,3.3c0.9,1.2,1.8,2.4,2.6,3.6c0.9,1.2,1.8,2.5,2.6,3.8
		c1.8,2.5,3.5,5.1,5.1,7.6c1.6,2.4,3.1,4.7,4.3,6.7C271.1,41.9,272.7,44.5,272.7,44.5z"/>
	<path d="M267.2,45.2c0,0-0.3-0.6-0.9-1.7c-0.6-1.1-1.4-2.6-2.4-4.5c-0.5-0.9-1.1-1.9-1.7-2.9c-0.6-1-1.2-2.1-1.9-3.2
		c-1.4-2.2-2.9-4.6-4.5-6.9c-0.8-1.2-1.6-2.3-2.4-3.4c-0.8-1.1-1.7-2.2-2.4-3.2c-1.6-2.1-3.2-3.9-4.7-5.5c-0.7-0.8-1.4-1.4-2-2.1
		c-0.6-0.6-1.2-1.1-1.6-1.5c-0.9-0.8-1.5-1.3-1.5-1.3s0.5,0.5,1.3,1.4c0.4,0.4,0.9,1,1.5,1.6c0.5,0.7,1.2,1.4,1.9,2.2
		c0.7,0.8,1.4,1.7,2.1,2.6c0.7,1,1.5,2,2.3,3c1.5,2.1,3.2,4.4,4.7,6.7c1.6,2.3,3.1,4.6,4.6,6.8c1.4,2.2,2.8,4.2,3.9,6
		C265.7,42.8,267.2,45.2,267.2,45.2z"/>
	<path d="M261,47.7c0,0-0.3-0.6-0.8-1.6c-0.5-1-1.3-2.5-2.3-4.2c-0.5-0.9-1-1.8-1.6-2.8c-0.6-1-1.2-2-1.8-3.1
		c-1.3-2.1-2.7-4.4-4.2-6.6c-0.7-1.1-1.5-2.2-2.3-3.2c-0.8-1.1-1.6-2.1-2.3-3.1c-1.5-2-3.1-3.7-4.4-5.2c-0.7-0.7-1.3-1.4-1.9-1.9
		c-0.6-0.6-1.1-1-1.5-1.4c-0.9-0.8-1.4-1.2-1.4-1.2s0.5,0.5,1.3,1.3c0.4,0.4,0.9,0.9,1.4,1.5c0.5,0.6,1.1,1.3,1.8,2.1
		c0.6,0.8,1.3,1.6,2,2.5c0.7,0.9,1.4,1.9,2.2,2.9c1.5,2,3,4.1,4.5,6.3c1.5,2.2,3,4.4,4.3,6.5c1.4,2.1,2.6,4,3.7,5.7
		C259.6,45.5,261,47.7,261,47.7z"/>
	<path d="M252.7,47.2c0,0-0.9-2-2.5-4.8c-0.8-1.4-1.7-3.1-2.8-4.8c-1.1-1.7-2.2-3.6-3.5-5.3c-0.6-0.9-1.3-1.8-1.9-2.6
		c-0.6-0.9-1.3-1.7-1.9-2.5c-1.3-1.6-2.5-3-3.6-4.2c-0.5-0.6-1.1-1.1-1.6-1.6c-0.5-0.5-0.9-0.8-1.3-1.2c-0.7-0.6-1.1-1-1.1-1
		s0.4,0.4,1,1.1c0.3,0.3,0.7,0.8,1.1,1.3c0.4,0.5,0.9,1.1,1.4,1.7c0.5,0.6,1.1,1.3,1.6,2c0.6,0.7,1.1,1.5,1.7,2.3
		c1.2,1.6,2.4,3.4,3.7,5.2c1.2,1.8,2.4,3.6,3.5,5.3c1.1,1.7,2.1,3.3,3,4.6C251.5,45.4,252.7,47.2,252.7,47.2z"/>
	<path d="M245.2,48.4c0,0-0.2-0.4-0.5-1.2c-0.4-0.7-0.9-1.8-1.6-3c-0.7-1.2-1.5-2.7-2.4-4.2c-0.9-1.5-1.9-3.1-3-4.6
		c-0.5-0.8-1.1-1.5-1.6-2.3c-0.5-0.8-1.1-1.5-1.6-2.2c-1.1-1.4-2.2-2.6-3.2-3.6c-0.5-0.5-1-1-1.4-1.3c-0.4-0.4-0.8-0.7-1.1-1
		c-0.6-0.5-1-0.8-1-0.8s0.3,0.3,0.9,1c0.3,0.3,0.6,0.7,1,1.1c0.4,0.4,0.8,0.9,1.2,1.5c0.4,0.5,0.9,1.1,1.4,1.8c0.5,0.6,1,1.3,1.5,2
		c1,1.4,2.1,2.9,3.1,4.5c1.1,1.5,2.1,3.1,3.1,4.5c1,1.5,1.9,2.8,2.6,4c0.8,1.2,1.4,2.1,1.9,2.8C244.9,48,245.2,48.4,245.2,48.4z"/>
	<path d="M237,49.7c0,0-0.1-0.4-0.4-1c-0.3-0.6-0.7-1.5-1.2-2.5c-1.1-2-2.6-4.7-4.3-7.2c-0.4-0.6-0.9-1.2-1.3-1.9
		c-0.4-0.6-0.9-1.2-1.4-1.8c-0.9-1.1-1.8-2.1-2.6-2.9c-0.4-0.4-0.8-0.8-1.1-1.1c-0.3-0.3-0.7-0.6-0.9-0.8c-0.5-0.4-0.8-0.7-0.8-0.7
		s0.2,0.3,0.7,0.8c0.2,0.2,0.5,0.5,0.8,0.9c0.3,0.4,0.6,0.8,1,1.2c0.7,0.9,1.5,2,2.3,3.1c0.8,1.2,1.7,2.4,2.6,3.6
		c0.9,1.2,1.7,2.5,2.5,3.7c0.8,1.2,1.5,2.3,2.2,3.2C236.2,48.4,237,49.7,237,49.7z"/>
	<path d="M230,51.2c0,0-0.1-0.3-0.3-0.8c-0.2-0.5-0.5-1.2-1-2c-0.8-1.7-2.1-3.8-3.5-5.9c-1.4-2.1-3-4-4.3-5.3
		c-0.3-0.3-0.7-0.6-0.9-0.9c-0.3-0.3-0.5-0.5-0.8-0.6c-0.4-0.3-0.7-0.5-0.7-0.5s0.2,0.2,0.5,0.7c0.2,0.2,0.4,0.4,0.6,0.8
		c0.2,0.3,0.5,0.6,0.8,1c0.6,0.7,1.2,1.6,1.9,2.5c0.7,0.9,1.4,1.9,2.1,3c1.4,2,2.8,4.1,3.8,5.6C229.3,50.2,230,51.2,230,51.2z"/>
	<path d="M170.5,145c0,0-0.4,0.3-1,0.9c-0.6,0.6-1.6,1.4-2.7,2.5c-1.1,1-2.4,2.2-3.7,3.5c-1.4,1.3-2.8,2.7-4.3,4
		c-1.5,1.4-2.9,2.7-4.3,4c-0.7,0.6-1.4,1.2-2,1.8c-0.6,0.6-1.2,1.1-1.8,1.6c-0.6,0.5-1.1,0.9-1.6,1.3c-0.5,0.4-0.9,0.7-1.2,1
		c-0.7,0.5-1.1,0.8-1.1,0.8s0.4-0.2,1.2-0.6c0.4-0.2,0.8-0.5,1.3-0.8c0.5-0.3,1.1-0.7,1.7-1.2c0.6-0.4,1.2-1,1.9-1.5
		c0.7-0.5,1.4-1.1,2.1-1.7c1.4-1.2,2.9-2.6,4.4-3.9c1.4-1.4,2.9-2.8,4.2-4.1c1.3-1.3,2.5-2.6,3.5-3.7c1-1.1,1.8-2.1,2.4-2.7
		C170.2,145.4,170.5,145,170.5,145z"/>
	<path d="M165.9,143.7c0,0-0.3,0.3-0.9,0.8c-0.6,0.5-1.4,1.3-2.4,2.2c-1,0.9-2.2,2-3.4,3.2c-1.2,1.2-2.6,2.4-3.9,3.7
		c-1.3,1.2-2.6,2.5-3.9,3.6c-0.6,0.6-1.2,1.1-1.8,1.7c-0.6,0.5-1.1,1-1.6,1.5c-0.5,0.4-1,0.9-1.4,1.2c-0.4,0.3-0.8,0.7-1.1,0.9
		c-0.6,0.5-1,0.7-1,0.7s0.4-0.2,1.1-0.6c0.4-0.2,0.8-0.5,1.2-0.8c0.5-0.3,1-0.7,1.5-1.1c0.6-0.4,1.1-0.9,1.8-1.3
		c0.6-0.5,1.3-1,1.9-1.6c1.3-1.1,2.6-2.3,4-3.6c1.3-1.3,2.6-2.5,3.8-3.8c1.2-1.2,2.3-2.4,3.2-3.4c0.9-1,1.6-1.9,2.2-2.5
		C165.6,144,165.9,143.7,165.9,143.7z"/>
	<path d="M160.2,142c0,0-0.3,0.3-0.8,0.7c-0.5,0.5-1.3,1.1-2.1,1.9c-0.9,0.8-1.9,1.7-3,2.7c-1.1,1-2.2,2.1-3.3,3.2
		c-1.1,1.1-2.3,2.1-3.3,3.2c-1.1,1-2.1,1.9-2.9,2.7c-0.4,0.4-0.8,0.8-1.2,1c-0.4,0.3-0.7,0.6-1,0.8c-0.5,0.4-0.9,0.6-0.9,0.6
		s0.4-0.2,1-0.5c0.3-0.2,0.7-0.4,1.1-0.6c0.4-0.2,0.9-0.6,1.3-0.9c1-0.7,2.1-1.5,3.2-2.5c1.1-0.9,2.3-2,3.4-3.1
		c1.1-1.1,2.3-2.2,3.3-3.3c1-1.1,1.9-2.1,2.7-3c0.8-0.9,1.4-1.6,1.9-2.2C160,142.3,160.2,142,160.2,142z"/>
	<path d="M154.4,140.5c0,0-0.3,0.2-0.7,0.6c-0.4,0.4-1.1,0.9-1.8,1.6c-1.5,1.3-3.5,3.2-5.4,5c-1.9,1.8-3.9,3.7-5.3,5
		c-0.7,0.7-1.4,1.2-1.8,1.6c-0.5,0.4-0.7,0.6-0.7,0.6s0.3-0.1,0.8-0.4c0.3-0.1,0.6-0.3,0.9-0.5c0.4-0.2,0.7-0.5,1.2-0.8
		c0.8-0.6,1.8-1.3,2.7-2.1c1-0.8,2-1.7,2.9-2.6c1.9-1.9,3.8-3.8,5.1-5.3c0.7-0.8,1.2-1.4,1.6-1.9
		C154.2,140.8,154.4,140.5,154.4,140.5z"/>
	<path d="M148.9,138.7c0,0-0.2,0.2-0.6,0.5c-0.4,0.3-0.9,0.8-1.6,1.3c-1.3,1.1-2.9,2.6-4.5,4.1c-1.6,1.5-3.2,3.1-4.4,4.2
		c-0.6,0.6-1.1,1-1.5,1.4c-0.4,0.3-0.6,0.5-0.6,0.5s0.3-0.1,0.7-0.3c0.2-0.1,0.5-0.3,0.8-0.4c0.3-0.2,0.6-0.4,1-0.6
		c1.4-1,3.1-2.4,4.8-3.9c1.6-1.5,3.2-3.2,4.2-4.5c0.6-0.6,1-1.2,1.3-1.6C148.7,138.9,148.9,138.7,148.9,138.7z"/>
	<path d="M142.7,137.4c0,0-0.7,0.5-1.8,1.4c-1,0.9-2.4,2.1-3.7,3.3c-1.3,1.2-2.6,2.5-3.5,3.4c-1,0.9-1.7,1.5-1.7,1.5
		s0.2-0.1,0.6-0.2c0.4-0.2,0.9-0.4,1.4-0.8c1.1-0.8,2.6-1.9,3.9-3.1c1.3-1.2,2.5-2.6,3.4-3.6C142.2,138.1,142.7,137.4,142.7,137.4z"
		/>
	<path d="M136.9,135.5c0,0-0.6,0.4-1.5,1.1c-0.9,0.7-1.9,1.7-3,2.7c-1.1,1-2.1,2-2.8,2.8c-0.8,0.8-1.3,1.3-1.3,1.3s0.7-0.2,1.7-0.8
		c0.9-0.6,2.1-1.5,3.2-2.5c1.1-1,2-2.1,2.7-3C136.5,136.2,136.9,135.5,136.9,135.5z"/>
	<path d="M131.2,134c0,0-0.5,0.3-1.2,0.8c-0.7,0.5-1.6,1.3-2.4,2.1c-0.8,0.8-1.6,1.6-2.2,2.2c-0.6,0.6-1,1.1-1,1.1s0.6-0.1,1.4-0.6
		c0.8-0.4,1.7-1.2,2.5-2c0.8-0.8,1.6-1.7,2.1-2.4C130.9,134.6,131.2,134,131.2,134z"/>
	<path d="M126.4,132.4c0,0-0.4,0.2-1,0.6c-0.6,0.4-1.3,1-2,1.6c-0.7,0.6-1.3,1.3-1.8,1.8c-0.5,0.5-0.8,0.9-0.8,0.9s0.5-0.1,1.1-0.4
		c0.6-0.3,1.4-0.9,2.1-1.6c0.7-0.6,1.3-1.4,1.7-2C126.2,132.8,126.4,132.4,126.4,132.4z"/>
	<path d="M122.4,131c0,0-0.3,0.1-0.7,0.4c-0.4,0.2-0.9,0.6-1.4,1c-0.4,0.4-0.8,0.9-1.1,1.3c-0.3,0.4-0.5,0.7-0.5,0.7s0.4,0,0.8-0.2
		c0.5-0.2,1-0.6,1.4-1c0.5-0.4,0.8-0.9,1.1-1.4C122.3,131.4,122.4,131,122.4,131z"/>
	<path d="M56.4,77c0,0-0.6-0.4-1.7-1c-1.1-0.6-2.6-1.5-4.5-2.6c-1.9-1-4.1-2.3-6.5-3.5c-2.4-1.2-4.9-2.6-7.5-3.9
		c-2.6-1.3-5.2-2.5-7.6-3.7c-2.4-1.2-4.7-2.2-6.7-3.1c-2-0.9-3.7-1.5-4.8-2c-1.2-0.4-1.9-0.7-1.9-0.7s0.7,0.3,1.8,0.8
		c1.1,0.5,2.7,1.4,4.7,2.3c3.8,2,9,4.6,14.1,7.2c2.6,1.3,5.1,2.6,7.5,3.8c2.4,1.2,4.7,2.3,6.6,3.3c1.9,1,3.6,1.7,4.7,2.3
		C55.7,76.7,56.4,77,56.4,77z"/>
	<path d="M48.4,83.4c0,0-0.4-0.3-1.1-0.7c-0.7-0.4-1.8-1-3-1.7c-1.3-0.7-2.7-1.4-4.3-2.2c-1.6-0.8-3.3-1.6-5.1-2.4
		c-1.7-0.8-3.5-1.5-5.2-2.1c-1.7-0.6-3.3-1.2-4.6-1.6c-0.7-0.2-1.3-0.4-1.9-0.5c-0.6-0.1-1.1-0.3-1.5-0.3c-0.8-0.1-1.3-0.2-1.3-0.2
		s0.5,0.1,1.2,0.4c0.4,0.1,0.9,0.3,1.4,0.5c0.5,0.2,1.1,0.5,1.8,0.7c1.3,0.5,2.8,1.2,4.5,1.9c1.6,0.7,3.4,1.5,5.1,2.2
		c1.7,0.8,3.5,1.5,5.1,2.2c1.6,0.7,3.2,1.4,4.5,1.9c1.3,0.6,2.4,1,3.2,1.3C47.9,83.2,48.4,83.4,48.4,83.4z"/>
	<path d="M45.2,87.9c0,0-0.3-0.2-1-0.4c-0.6-0.3-1.5-0.7-2.5-1.1c-2.1-0.8-5-1.9-7.9-2.8c-2.9-0.9-5.9-1.7-8.1-2.1
		c-2.3-0.4-3.8-0.5-3.8-0.5s0.4,0.1,1,0.3c0.6,0.2,1.6,0.4,2.6,0.8c2.2,0.7,5.1,1.6,8,2.5c2.9,0.9,5.8,1.8,8,2.4
		c1.1,0.3,2,0.5,2.7,0.7C44.8,87.8,45.2,87.9,45.2,87.9z"/>
	<path d="M44.9,95.4c0,0-0.3-0.2-0.9-0.4c-0.6-0.2-1.5-0.6-2.6-1c-0.5-0.2-1.1-0.4-1.7-0.5c-0.6-0.2-1.3-0.4-2-0.5
		c-1.4-0.3-2.9-0.6-4.4-0.8c-0.7-0.1-1.5-0.2-2.2-0.3c-0.7-0.1-1.5-0.1-2.2-0.2c-0.7-0.1-1.4,0-2-0.1c-0.6,0-1.3,0-1.8,0
		c-1.1,0-2.1,0.1-2.7,0.2c-0.7,0.1-1,0.1-1,0.1s0.4,0,1,0.1c0.7,0,1.6,0.1,2.7,0.2c0.6,0,1.2,0.1,1.8,0.2c0.6,0.1,1.3,0.1,2,0.2
		c1.4,0.2,2.9,0.3,4.4,0.6c1.5,0.2,3,0.5,4.3,0.7c1.4,0.3,2.7,0.5,3.8,0.8C43.4,95,44.9,95.4,44.9,95.4z"/>
	<path d="M44,104.5c0,0-0.3-0.1-0.9-0.3c-0.6-0.1-1.5-0.4-2.5-0.6c-2.1-0.4-4.9-0.9-7.7-1.2c-2.8-0.3-5.7-0.5-7.8-0.5
		c-2.1,0-3.6,0.1-3.6,0.1s0.4,0.1,1,0.1c0.6,0.1,1.5,0.2,2.5,0.3c2.1,0.2,4.9,0.6,7.7,0.9c2.8,0.3,5.6,0.6,7.7,0.8
		c1.1,0.1,1.9,0.1,2.6,0.2C43.7,104.5,44,104.5,44,104.5z"/>
	<path d="M42.7,110c0,0-0.4,0-1,0c-0.6,0-1.6,0-2.7,0c-2.2,0.1-5.1,0.3-8,0.7c-1.5,0.2-2.9,0.4-4.3,0.7c-1.4,0.2-2.6,0.5-3.7,0.8
		c-1.1,0.3-1.9,0.6-2.6,0.8c-0.6,0.2-0.9,0.4-0.9,0.4s0.4-0.1,1-0.2c0.6-0.1,1.5-0.3,2.6-0.4c2.2-0.3,5.1-0.7,8-1.1
		c1.4-0.2,2.9-0.4,4.3-0.6c1.4-0.2,2.6-0.4,3.7-0.5c1.1-0.2,2-0.3,2.6-0.4C42.3,110.1,42.7,110,42.7,110z"/>
	<path d="M45.2,114.9c0,0-0.4,0.1-1.2,0.2c-0.8,0.1-1.9,0.3-3.1,0.6c-1.3,0.3-2.8,0.6-4.4,1c-1.6,0.4-3.3,0.9-5,1.4
		c-1.7,0.5-3.4,1.1-4.9,1.7c-0.8,0.3-1.5,0.6-2.2,0.9c-0.7,0.3-1.4,0.6-2,0.9c-0.6,0.3-1.1,0.6-1.6,0.8c-0.5,0.3-0.9,0.5-1.2,0.7
		c-0.6,0.4-1,0.7-1,0.7s0.4-0.2,1.1-0.5c0.3-0.2,0.8-0.3,1.3-0.6c0.5-0.2,1.1-0.4,1.7-0.7c1.2-0.5,2.7-1,4.2-1.5
		c0.8-0.2,1.6-0.5,2.4-0.8c0.8-0.3,1.7-0.5,2.5-0.8c3.4-1,6.7-2,9.3-2.8c1.3-0.4,2.3-0.7,3.1-0.9C44.8,115,45.2,114.9,45.2,114.9z"
		/>
	<path d="M49.2,118.4c0,0-0.5,0.2-1.4,0.6c-0.9,0.4-2.2,0.9-3.7,1.6c-1.5,0.7-3.3,1.5-5.2,2.4c-1.9,0.9-3.9,1.9-5.9,2.9
		c-2,1.1-3.9,2.1-5.7,3.2c-0.9,0.5-1.8,1.1-2.6,1.6c-0.8,0.5-1.6,1-2.3,1.5c-0.7,0.5-1.3,0.9-1.9,1.3c-0.5,0.4-1,0.8-1.4,1.1
		c-0.7,0.7-1.1,1-1.1,1s0.5-0.3,1.3-0.9c0.4-0.3,0.9-0.6,1.5-1c0.6-0.4,1.2-0.8,1.9-1.2c1.4-0.9,3.1-1.8,5-2.8
		c0.9-0.5,1.9-1,2.8-1.5c1-0.5,2-1,2.9-1.6c3.9-2.1,7.9-4.1,10.8-5.7c1.5-0.8,2.7-1.4,3.6-1.9C48.7,118.6,49.2,118.4,49.2,118.4z"/>
	<path d="M54.9,121.9c0,0-0.6,0.3-1.6,0.9c-1,0.6-2.5,1.4-4.2,2.4c-1.7,1-3.8,2.2-5.9,3.5c-2.1,1.3-4.4,2.7-6.7,4.2
		c-2.2,1.5-4.5,2.9-6.5,4.4c-2.1,1.4-4,2.8-5.6,4c-0.8,0.6-1.5,1.2-2.2,1.7c-0.6,0.5-1.2,1-1.6,1.4c-0.9,0.8-1.4,1.2-1.4,1.2
		s0.5-0.4,1.5-1.1c0.5-0.4,1.1-0.7,1.7-1.2c0.7-0.5,1.4-1,2.3-1.5c1.6-1.1,3.6-2.4,5.7-3.8c2.1-1.4,4.3-2.8,6.6-4.3
		c2.2-1.5,4.5-2.9,6.6-4.3c2.1-1.4,4.1-2.7,5.7-3.8c1.7-1.1,3.1-2,4-2.7C54.3,122.2,54.9,121.9,54.9,121.9z"/>
	<path d="M59.9,126.5c0,0-0.5,0.2-1.3,0.7c-0.8,0.5-2.1,1.1-3.5,2c-1.4,0.9-3.1,1.9-4.8,3c-0.9,0.6-1.8,1.1-2.7,1.8
		c-0.9,0.6-1.8,1.2-2.7,1.9c-1.8,1.3-3.6,2.6-5.2,3.9c-1.6,1.3-3.1,2.6-4.3,3.7c-0.6,0.6-1.1,1.1-1.6,1.6c-0.5,0.5-0.9,0.9-1.2,1.3
		c-0.6,0.8-1,1.2-1,1.2s0.4-0.4,1.1-1.1c0.3-0.3,0.8-0.7,1.3-1.2c0.5-0.4,1.1-0.9,1.7-1.5c1.3-1.1,2.8-2.2,4.4-3.5
		c0.8-0.6,1.7-1.3,2.6-1.9c0.9-0.6,1.8-1.3,2.7-1.9c1.8-1.3,3.6-2.6,5.3-3.7c1.7-1.2,3.3-2.3,4.6-3.2c1.4-1,2.5-1.7,3.3-2.3
		C59.4,126.8,59.9,126.5,59.9,126.5z"/>
	<g>
		<ellipse cx="466.7" cy="92.3" rx="10.2" ry="6.2"/>
		<path fill="#FFFFFF" d="M459.5,91.6c0,3.6,3.1,6.5,7,6.5c3.8,0,7-2.9,7-6.5c0-3.6-3.1-6.5-7-6.5C462.6,85.1,459.5,88,459.5,91.6z"
			/>
		<path d="M458.9,91.6c0-3.9,3.4-7.2,7.6-7.2c4.2,0,7.6,3.2,7.6,7.2c0,3.9-3.4,7.2-7.6,7.2C462.3,98.7,458.9,95.5,458.9,91.6z
			 M459.5,91.6c0,3.6,3.1,6.5,7,6.5c3.8,0,7-2.9,7-6.5c0-3.6-3.1-6.5-7-6.5C462.6,85.1,459.5,88,459.5,91.6z"/>
		<path d="M464.8,89.9c1,0,1.8-0.8,1.8-1.9c0,0,0,0,0-0.1c0,0,0,0,0,0c1.9,0,3.4,1.6,3.4,3.7c0,2-1.5,3.7-3.4,3.7
			c-1.9,0-3.4-1.6-3.4-3.7c0-0.8,0.2-1.5,0.6-2.1C464,89.7,464.4,89.9,464.8,89.9z"/>
	</g>
</g>
</svg>
