<?xml version="1.0" encoding="utf-8"?>
<!-- Generator: Adobe Illustrator 18.1.1, SVG Export Plug-In . SVG Version: 6.00 Build 0)  -->
<svg version="1.1" id="halibut" xmlns="http://www.w3.org/2000/svg" xmlns:xlink="http://www.w3.org/1999/xlink" x="0px" y="0px"
	 viewBox="0 0 546.6 235.2" enable-background="new 0 0 546.6 235.2" xml:space="preserve">
<path d="M498.5,68.5c0,0-19.5-14.8-39-25.8S414.9,19,379.9,10S328.7-1.2,302,0.5s-44.2,6.8-58.8,12.8c-14.7,6-30,18.8-45.8,30.2
	S136.9,80.7,125.5,87c-11.3,6.3-16.5,7-22.5,5.7c-6-1.3-23.3-9-29.2-16.3C68,69,61.5,60.5,49.2,52S23.4,37.7,22.7,38.7
	c-0.7,1,4,20.2,0,29.3s-18.2,27.5-20,34.7s3.2,22.3,2.8,35.8S0.2,167.7,0,172.3c-0.2,4.7,0.2,6.8,1.8,6.8s19.2-6.3,44-19.2
	s30.3-16.7,46.7-16.2s30.7,5.3,35.7,10.8s19.2,25.5,56.7,45s57.8,34.8,101.2,35.5c43.3,0.7,100.2-12.8,112.7-20.2
	c12.5-7.3,23-30.3,25.8-31.7c2.8-1.3,11-3.3,10.8-1.7c-0.2,1.7-1.8,5,1,9.2c2.8,4.2,6.2,4.3,9.3,3.5c3.2-0.8,7.8-5.8,6.3-11.2
	c-1.5-5.3-2.3-7-2.3-7s0.8-2.7,2.2-3.2s18.5-9.2,28.3-16s23.3-14.2,29.5-17s18.5-10.3,22-12.3s5.8-4.2,7.2-4.2s7-2.2,7.5-4.2
	c0.5-2,0-11.2-1.8-11.3c-1.8-0.2-4.3,0.5-5.5,2s-2.5,3.5-3.5,3.7c-1,0.2-4.3,0.2-5.8,0.2s-2.2,0.8-2.8,0.2c-0.7-0.7-4.5-2.7-4.8-4.7
	s2.5-16.7,3.3-20.3c0.8-3.7,1.8-6.5,1.3-7.2c-0.5-0.7-4.3-2.3-5.7-2.5C519.7,79.2,498.5,68.5,498.5,68.5z"/>
<path fill="#FFFFFF" d="M496.4,68.5c0,0-37-15-55.3-22.5c-18.3-7.5-42.3-16-81.7-19.2c-39.3-3.2-52.7-5-85.3,3.5
	c-32.7,8.5-53.8,15.5-86.8,32.2s-62.3,30.3-74.5,31c0,0,8.3-0.7,56.2-30.7s61-44.8,85.8-52.5S313-0.2,329.4,1.8
	c16.3,2,50.2,8.2,74.5,17.3c24.3,9.2,31.3,12.7,40.7,17.5C453.9,41.5,482.5,58.7,496.4,68.5z"/>
<path fill="#FFFFFF" d="M24.7,40.8c0,0,23.5,11.8,31.5,19.2C63.1,66.3,70,76,73,79.2c3,3.2,21.3,15.5,31.3,16.3
	c10,0.8,21.5-0.8,46.7-12.8s70.7-35,90.7-40.5s54.2-15.2,68.2-15.7s51.8,1.5,62.7,3.7c10.8,2.2,38.5,5.7,66.3,17
	c27.8,11.3,53.5,21.2,59.5,23.7s20.8,9.2,20.8,9.2s-1.7,3.5-2,4c0,0,2-3.5,3.8-3.2c1.8,0.3,3.8,0.8,4,2c0.2,1.2-5,24.3-4,27
	c1,2.7,5.2,5.3,6.5,5.3s7.5-0.3,8-0.3s3-2.7,4.3-3.5c1.3-0.8,2.3-2.2,3.5-2c1.2,0.2,2.5,7.7,2.2,9.2s-2.8,2.8-4,3.2
	c-1.2,0.3-3,0.5-4.7,1.3c-1.7,0.8-18.8,11.2-22.7,13.2s-12.8,6.5-17.5,9s-21.7,13-26.2,15.8c-4.5,2.8-20.5,10.8-20.8,11.5
	c-0.3,0.7-0.8,2-3.8,3.8c-3,1.8-15.2,3.5-21.8,5.5s-26.5,10.5-57,13.3c-30.5,2.8-51.3,2.2-77.2,0.5c-25.8-1.7-64.8-7.7-74-11.5
	c-9.2-3.8-40.2-17.3-52.8-23.3c-12.7-6-36.8-14-40-15.2c-3.2-1.2-17.3-3.5-19.3-4.3c-2-0.8-10-8.3-13.5-9.2c-3.5-0.8-7.2-1.5-8,0.2
	c-0.8,1.7,0.2,2.2-1.3,4.5c-1.5,2.3-4.7,6-5.7,6.3c-1,0.3-18.5,8-25.7,12.3c-7.2,4.3-43.3,21.2-45.7,21.7S1,176,1,175.5
	s3.7-19,5-25.8c1.3-6.8,2-15.7,0.8-21.8c-1.2-6.2-2.7-20.7-2-24.2s10.5-20.3,13.5-24.5c3-4.2,7.8-12.7,7.8-17.5S24.7,40.8,24.7,40.8
	z"/>
<path d="M415.4,115.8c0,0,3.3-6,2.3-8.5s-10.7-20.8-13.3-21c-2.7-0.2-11.8,6.7-15,15.7s-6.3,18,3.5,23.8c0,0-4.2-4.2-4-9
	c0.2-4.8,2-9.2,3.2-9.2s14,12.8,14,12.8s-4.3-6.7-4.3-8.2s-0.8-7.3-1.2-8.5c-0.3-1.2-0.8-2-0.8-2.7c0-0.7,7-4.5,8.5-3.8
	c1.5,0.7,7.7,12,7.7,13.8C415.9,113,415.4,115.8,415.4,115.8z"/>
<ellipse transform="matrix(-0.5655 0.8247 -0.8247 -0.5655 777.9669 -274.4823)" cx="461.3" cy="67.7" rx="2.8" ry="7"/>
<ellipse transform="matrix(-0.6026 0.798 -0.798 -0.6026 727.0294 -246.2062)" cx="424.8" cy="57.9" rx="6.5" ry="14"/>
<ellipse transform="matrix(-0.6026 0.7981 -0.7981 -0.6026 599.1024 -193.5093)" cx="347.7" cy="52.4" rx="5.3" ry="12.9"/>
<ellipse transform="matrix(-0.6026 0.7981 -0.7981 -0.6026 512.8355 -153.8829)" cx="294.7" cy="50.7" rx="5.3" ry="12.9"/>
<ellipse transform="matrix(-0.6026 0.7981 -0.7981 -0.6026 579.4671 -140.8991)" cx="324.8" cy="73.8" rx="3.6" ry="11.2"/>
<ellipse transform="matrix(-0.6026 0.798 -0.798 -0.6026 497.3596 -109.6619)" cx="276" cy="69" rx="4.1" ry="6.1"/>
<ellipse transform="matrix(-0.6026 0.798 -0.798 -0.6026 482.3877 -52.494)" cx="254.3" cy="93.9" rx="7.7" ry="12.1"/>
<ellipse transform="matrix(-0.6026 0.7981 -0.7981 -0.6026 440.4986 80.6055)" cx="200.2" cy="150" rx="6.2" ry="12.1"/>
<ellipse transform="matrix(-0.6026 0.7981 -0.7981 -0.6026 406.5096 -44.8833)" cx="214.4" cy="78.8" rx="8.3" ry="14.2"/>
<ellipse transform="matrix(-0.6025 0.7981 -0.7981 -0.6025 565.4884 -3.1138)" cx="283.5" cy="139.3" rx="5.1" ry="12.1"/>
<path d="M360.8,170c6,4.5,12.7,5.7,15,2.7c2.3-3-0.7-9.2-6.7-13.7c-6-4.5-12.7-5.7-15-2.7C351.8,159.4,354.8,165.5,360.8,170z"/>
<ellipse transform="matrix(-0.6026 0.798 -0.798 -0.6026 677.7409 -199.4816)" cx="388.5" cy="69" rx="6.5" ry="10.9"/>
<path fill="#FFFFFF" d="M420.2,185c0,0-19.8,8.5-53.2,11.8s-32.2,4-56.5,3s-69-5-87.8-10.2s-53.2-22.8-62.2-26.8s-31-12.5-36.2-14.2
	c0,0,4,4,7.8,7.5s14,17,28.2,25.8s36,21.8,51.2,29.5s33.2,15.8,48.8,18.8s50.2,3.2,76.8-2s54-11.8,60-15.2S408.7,203.3,420.2,185z"
	/>
<g>
	<ellipse cx="499.7" cy="95.2" rx="7.5" ry="6.2"/>
	<path fill="#FFFFFF" d="M494.4,94.6c0,3.6,2.3,6.5,5.1,6.5c2.8,0,5.1-2.9,5.1-6.5c0-3.6-2.3-6.5-5.1-6.5
		C496.7,88.1,494.4,91,494.4,94.6z"/>
	<path d="M493.9,94.6c0-3.9,2.5-7.2,5.6-7.2c3.1,0,5.6,3.2,5.6,7.2c0,3.9-2.5,7.2-5.6,7.2C496.4,101.7,493.9,98.5,493.9,94.6z
		 M494.4,94.6c0,3.6,2.3,6.5,5.1,6.5c2.8,0,5.1-2.9,5.1-6.5c0-3.6-2.3-6.5-5.1-6.5C496.7,88.1,494.4,91,494.4,94.6z"/>
	<path d="M498.3,92.9c0.7,0,1.3-0.8,1.3-1.9c0,0,0,0,0-0.1c0,0,0,0,0,0c1.4,0,2.5,1.6,2.5,3.7c0,2-1.1,3.7-2.5,3.7
		c-1.4,0-2.5-1.6-2.5-3.7c0-0.8,0.2-1.5,0.4-2.1C497.7,92.7,498,92.9,498.3,92.9z"/>
</g>
<path d="M521.5,118.7c0,0-0.5,0.2-1.3,0.5c-0.8,0.3-1.9,0.7-3.3,1.1c-0.7,0.2-1.4,0.5-2.2,0.6c-0.8,0.2-1.4,0-2.2-0.5
	c-0.7-0.5-1.3-1.1-1.8-1.8c-0.5-0.7-0.7-1.5-0.8-2.5c-0.1-0.9-0.1-1.9-0.1-2.8c0-0.9,0-1.9,0-2.8c0.1-1.8,0.3-3.4,1-4.7
	c0.6-1.3,1.1-2.4,1.4-3.2c0.3-0.8,0.5-1.2,0.5-1.2s-0.2,0.4-0.7,1.1c-0.4,0.7-1,1.8-1.7,3.1c-0.4,0.6-0.7,1.4-0.9,2.2
	c-0.2,0.8-0.4,1.7-0.4,2.6c-0.1,0.9-0.1,1.9-0.1,2.8c0,1,0,1.9,0.1,2.9c0.1,0.5,0.1,1,0.3,1.5c0,0.1,0.1,0.3,0.1,0.4l0,0.1l0.1,0.1
	l0.1,0.2c0.1,0.2,0.3,0.5,0.4,0.7c0.6,0.8,1.3,1.5,2.2,2c0.4,0.2,0.8,0.5,1.4,0.6c0.2,0,0.5,0.1,0.7,0c0.2,0,0.5-0.1,0.7-0.1
	c0.8-0.2,1.6-0.5,2.3-0.8c1.4-0.5,2.4-1.1,3.2-1.5C521.1,118.9,521.5,118.7,521.5,118.7z"/>
<path d="M512.9,95.2c0,0,0.5-1,1.2-2.9c0.3-0.9,0.8-2,1.2-3.3c0.2-0.7,0.4-1.4,0.6-2.1c0-0.2,0.1-0.4,0.1-0.6c0-0.1,0-0.2,0-0.3
	c0-0.1-0.1-0.3-0.3-0.4l-0.1,0c0,0,0,0-0.1,0l0,0l-0.1,0c-0.1,0-0.1,0-0.2,0c-0.1,0-0.3,0.1-0.4,0.2c-0.2,0.1-0.4,0.3-0.5,0.5
	c-0.6,0.7-1,1.5-1.5,2.2c-0.5,0.8-0.8,1.6-1.4,2.3c-1.2,1.6-2.3,3.2-3.5,4.9c-0.6,0.9-1.2,1.7-1.8,2.6c-0.3,0.4-0.6,0.9-0.9,1.3
	c-0.3,0.4-0.6,0.9-1,1.2c-1.6,1.4-3.5,2.7-5.1,4.4c-0.4,0.4-0.8,0.9-1.1,1.4c-0.2,0.3-0.3,0.5-0.4,0.8c-0.1,0.3-0.2,0.5-0.3,0.8
	c-0.4,1-0.8,2.2-0.9,3.3c-0.1,1.1,0,2.2,0,3.3c0,1.1-0.1,2.1,0,3.2c0.1,1.1,0.5,2.2,1,3.1c0.5,0.9,1,1.7,1.5,2.6
	c1,1.7,1.9,3.2,3.1,4.5c0.6,0.6,1.2,1.2,1.8,1.7c0.7,0.4,1.4,0.7,2.1,0.9c1.3,0.4,2.5,0.6,3.5,0.8c1.9,0.3,3.1,0.4,3.1,0.4
	s-1.1-0.2-3-0.6c-1-0.2-2.1-0.5-3.4-0.9c-0.6-0.2-1.3-0.5-1.9-0.9c-0.6-0.4-1.2-1-1.7-1.6c-1-1.3-1.9-2.8-2.9-4.5
	c-0.9-1.7-2.1-3.4-2.2-5.4c-0.1-1,0-2,0-3.1c0-1.1,0-2.2,0.1-3.2c0.1-1,0.4-2,0.8-3.1c0.2-0.5,0.4-1,0.7-1.4c0.3-0.4,0.6-0.9,1-1.3
	c1.4-1.6,3.3-2.9,5-4.4c0.5-0.4,0.8-0.9,1.1-1.3c0.3-0.4,0.6-0.9,0.9-1.3c0.6-0.9,1.2-1.8,1.8-2.6c1.2-1.7,2.3-3.4,3.4-5
	c0.6-0.8,1-1.7,1.4-2.5c0.4-0.8,0.8-1.6,1.3-2.2c0.1-0.1,0.3-0.3,0.4-0.4c0.1-0.1,0.1,0,0.1-0.1c0,0,0.1,0,0.1,0l0.1,0l0,0
	c-0.1,0,0,0-0.1,0c0,0,0,0,0,0c0-0.1,0.1,0.1,0,0.3c0,0.2,0,0.4,0,0.5c-0.1,0.7-0.3,1.4-0.4,2.1c-0.3,1.3-0.7,2.4-1,3.4
	C513.2,94.1,512.9,95.2,512.9,95.2z"/>
<path d="M497.7,139.2c0,0-1.1-0.4-3.1-1c-2-0.6-4.8-1.5-8.1-2.6c-1.7-0.6-3.5-1.2-5.3-1.9c-0.9-0.4-1.8-0.7-2.8-1.2
	c-1-0.5-1.9-0.9-2.9-1.4c-2-0.9-4-1.9-6-3c-0.5-0.3-1-0.5-1.4-0.8c-0.2-0.1-0.4-0.3-0.5-0.4c-0.2-0.2-0.3-0.4-0.4-0.6
	c-0.6-0.9-1.2-2-1.7-3c-1.1-2-2.3-4.1-3.3-6.1c-1-2-2.1-4.1-2.8-6c-0.7-2-1.4-4.1-2-6c-0.6-1.9-1.2-3.7-1.7-5.4
	c-0.1-0.4-0.2-0.8-0.3-1.2c-0.1-0.4-0.2-0.8-0.3-1.2c-0.2-0.8-0.4-1.5-0.5-2.2c-0.1-0.7,0-1.3,0.3-1.7c0.1-0.1,0.1-0.2,0.3-0.3
	c0.1-0.1,0.2-0.2,0.3-0.3c0.2-0.2,0.4-0.3,0.6-0.4c0.9-0.5,1.6-0.8,2.1-1c0.5-0.2,0.8-0.2,0.8-0.2s-0.3,0-0.8,0.1
	c-0.5,0.1-1.3,0.3-2.3,0.7c-0.5,0.2-1,0.5-1.5,1.1c-0.4,0.6-0.6,1.3-0.6,2.1c0,0.8,0.1,1.5,0.3,2.3c0.1,0.4,0.2,0.8,0.2,1.2
	c0.1,0.4,0.2,0.9,0.2,1.3c0.4,1.7,0.8,3.6,1.4,5.6c0.5,2,1.1,4,1.8,6.2c0.8,2.2,1.7,4.2,2.8,6.3c1,2.1,2.1,4.2,3.3,6.3
	c0.6,1,1.2,2,1.9,3.1c0.2,0.3,0.4,0.6,0.6,0.8c0.3,0.3,0.6,0.5,0.9,0.7c0.5,0.4,1.1,0.7,1.6,0.9c2.1,1.1,4.2,2,6.2,2.9
	c1,0.4,2,0.9,3,1.3c1,0.4,2,0.8,3,1.1c1.9,0.6,3.8,1.1,5.5,1.6c3.4,0.9,6.3,1.4,8.3,1.9C496.5,139,497.7,139.2,497.7,139.2z"/>
<path d="M468,153.5c0,0-0.3-0.1-0.7-0.2c-0.5-0.1-1.2-0.3-2.1-0.5c-1.8-0.4-4.4-1.1-7.4-2c-1.5-0.5-3.1-1.1-4.7-1.7
	c-1.6-0.7-3.3-1.5-4.9-2.6c-0.4-0.3-0.7-0.6-1.1-0.9c-0.3-0.3-0.6-0.6-0.9-1c-0.3-0.4-0.6-0.8-0.9-1.2c-0.3-0.4-0.5-0.8-0.8-1.2
	c-1.1-1.7-2.1-3.5-3.1-5.4c-1-1.8-1.9-3.7-2.8-5.6c-0.9-1.9-1.7-3.7-2.5-5.5c-0.8-1.8-1.5-3.6-2.1-5.2c-0.6-1.7-1.2-3.3-1.6-4.8
	c-0.4-1.5-0.6-2.8-0.6-4.2c-0.1-1.3-0.1-2.4,0-3.3c0.1-0.9,0.2-1.6,0.3-2.1c0.1-0.5,0.3-0.7,0.3-0.7s-0.2,0.2-0.4,0.7
	c-0.2,0.5-0.4,1.2-0.6,2.1c-0.2,0.9-0.3,2-0.4,3.3c-0.1,1.3-0.1,2.8,0.3,4.4c0.3,1.6,0.7,3.3,1.3,5c0.5,1.8,1.2,3.6,1.9,5.4
	c0.7,1.9,1.5,3.8,2.4,5.7c0.9,1.9,1.8,3.8,2.8,5.7c1,1.9,2.1,3.7,3.2,5.5c0.3,0.4,0.6,0.9,0.9,1.3c0.3,0.4,0.6,0.8,1,1.2
	c0.4,0.5,0.8,0.8,1.2,1.2c0.4,0.3,0.9,0.6,1.3,0.9c1.8,1.1,3.6,1.9,5.3,2.5c1.7,0.6,3.4,1.1,5,1.4c1.6,0.4,3,0.6,4.3,0.8
	c1.3,0.2,2.4,0.3,3.3,0.5C467,153.5,468,153.5,468,153.5z"/>
<path d="M457.9,163.3c0,0-0.9-0.1-2.5-0.3c-0.8-0.1-1.7-0.3-2.8-0.5c-1.1-0.2-2.3-0.5-3.5-1c-0.6-0.2-1.2-0.5-1.8-0.9l-0.4-0.3
	l-0.4-0.4c-0.3-0.3-0.6-0.5-0.9-0.8c-1.2-1-2.5-2.1-3.7-3.2c-1.2-1.1-2.5-2.4-3.2-3.7c-0.1-0.2-0.1-0.2-0.2-0.5l-0.2-0.7l-0.4-1.3
	c-0.3-0.9-0.5-1.8-0.8-2.6c-0.6-1.8-1.2-3.5-1.8-5.2c-0.6-1.7-1.3-3.4-2.2-5c-0.1-0.2-0.2-0.4-0.4-0.6l-0.3-0.5
	c-0.2-0.4-0.3-0.7-0.5-1c-0.3-0.7-0.6-1.5-0.9-2.2c-0.5-1.5-0.9-2.9-1.3-4.2c-0.7-2.6-1.1-4.9-1.3-6.5c-0.2-1.6-0.2-2.5-0.2-2.5
	s0,0.2-0.1,0.7c0,0.4-0.1,1.1-0.1,1.9c0,1.6,0.2,3.9,0.6,6.7c0.2,1.4,0.5,2.8,1,4.4c0.2,0.8,0.5,1.6,0.8,2.4
	c0.2,0.4,0.4,0.9,0.6,1.2l0.3,0.6c0.1,0.2,0.2,0.3,0.3,0.5c0.7,1.5,1.3,3.1,1.9,4.8c0.6,1.7,1.2,3.4,1.7,5.1
	c0.3,0.9,0.6,1.7,0.8,2.6l0.4,1.3l0.2,0.6c0.1,0.2,0.2,0.5,0.3,0.8c0.5,1,1.1,1.7,1.8,2.4c0.7,0.7,1.3,1.3,2,1.8
	c1.3,1.1,2.7,2.1,3.9,3.1c0.3,0.2,0.6,0.5,0.9,0.7l0.5,0.3l0.5,0.3c0.7,0.4,1.4,0.7,2.1,0.8c1.4,0.4,2.7,0.5,3.8,0.7
	c1.1,0.1,2.1,0.1,2.9,0.2C456.9,163.4,457.9,163.3,457.9,163.3z"/>
<path d="M529.7,116.8c0,0-0.4,0.3-1.2,0.9c-0.8,0.6-1.9,1.3-3.3,2.2c-0.7,0.4-1.4,0.9-2.2,1.3c-0.8,0.4-1.7,0.8-2.6,1.1
	c-0.2,0.1-0.4,0.1-0.7,0.1c-0.3,0-0.5,0-0.8,0c-0.5,0-1.1,0-1.6,0c-1.1,0-2.1-0.1-3.2-0.1c-1.1-0.1-2.1-0.1-3.2-0.3
	c-0.5-0.1-1-0.2-1.4-0.4c-0.4-0.2-0.8-0.5-1-0.8c-0.2-0.3-0.3-0.8-0.4-1.2c0-0.4-0.1-0.9-0.1-1.4c0-0.9-0.1-1.8-0.1-2.6
	c0-1.6-0.1-3-0.1-3.9c0-1-0.1-1.5-0.1-1.5s0,0.5-0.1,1.5c-0.1,1-0.2,2.3-0.2,3.9c0,0.8-0.1,1.7-0.1,2.6c0,0.5,0,0.9,0,1.5
	c0,0.3,0.1,0.5,0.1,0.8c0.1,0.3,0.2,0.6,0.4,0.8c0.4,0.5,0.8,0.9,1.3,1.1c0.5,0.3,1.1,0.4,1.6,0.6c1.1,0.2,2.2,0.3,3.3,0.4
	c1.1,0.1,2.2,0.1,3.3,0.1c0.5,0,1.1,0,1.6,0c0.3,0,0.5,0,0.8,0c0.3,0,0.6,0,0.9-0.1c1.1-0.3,1.9-0.8,2.8-1.3c0.8-0.5,1.5-1,2.2-1.5
	c1.3-1,2.4-1.9,3.1-2.5C529.3,117.2,529.7,116.8,529.7,116.8z"/>
<path fill="#FFFFFF" d="M448.2,177c0,0-6.7,3-11,3.8c0,0-1.8,5.8-1.2,7.2c0.7,1.3,4,5.2,7,5c3-0.2,8.3-3.7,7.7-8.3
	C450,180,448.2,177,448.2,177z"/>
<path d="M484.5,63.5c0,0,0-0.3,0-0.7c-0.1-0.4-0.2-1-0.4-1.5c-0.2-0.5-0.5-1-0.8-1.3c-0.3-0.3-0.5-0.5-0.5-0.5s0,0.3,0,0.7
	c0.1,0.4,0.2,1,0.4,1.5c0.2,0.5,0.5,1,0.8,1.3C484.3,63.3,484.5,63.5,484.5,63.5z"/>
<path d="M477,60.3c0,0,0.1-0.4,0.1-0.9c0-0.5-0.1-1.2-0.3-1.8c-0.2-0.6-0.5-1.3-0.7-1.7c-0.3-0.4-0.5-0.7-0.5-0.7s0,0.4,0,0.9
	c0,0.5,0.1,1.2,0.3,1.8c0.2,0.6,0.4,1.3,0.7,1.7C476.7,60,477,60.3,477,60.3z"/>
<path d="M468.5,56.6c0,0,0-0.5,0-1.2c-0.1-0.7-0.2-1.6-0.5-2.4c-0.3-0.9-0.6-1.7-1-2.3c-0.4-0.6-0.7-0.9-0.7-0.9s0.1,0.5,0.2,1.1
	c0.1,0.7,0.3,1.5,0.6,2.4c0.3,0.9,0.6,1.7,0.9,2.3C468.2,56.3,468.5,56.6,468.5,56.6z"/>
<path d="M461.5,53.7c0,0-0.1-0.7-0.3-1.6c-0.2-0.9-0.6-2.1-1.1-3.3c-0.5-1.2-1.1-2.3-1.6-3.1c-0.5-0.8-1-1.3-1-1.3s0.2,0.6,0.5,1.5
	c0.3,0.9,0.7,2.1,1.2,3.2c0.5,1.2,1,2.3,1.5,3.1C461.1,53.2,461.5,53.7,461.5,53.7z"/>
<path d="M453.2,50.2c0,0-0.2-0.8-0.5-1.9c-0.4-1.1-0.9-2.5-1.6-3.9c-0.7-1.4-1.4-2.7-2.1-3.7c-0.6-1-1.2-1.5-1.2-1.5
	s0.3,0.7,0.7,1.8c0.4,1.1,1,2.5,1.7,3.9c0.7,1.4,1.4,2.7,2,3.7C452.7,49.6,453.2,50.2,453.2,50.2z"/>
<path d="M443.9,46.4c0,0-0.1-0.2-0.2-0.6c-0.2-0.4-0.4-0.9-0.7-1.6c-0.6-1.3-1.5-3-2.5-4.6c-1-1.6-2-3.3-2.8-4.4
	c-0.4-0.6-0.8-1.1-1-1.4c-0.3-0.3-0.4-0.5-0.4-0.5s0.1,0.2,0.2,0.6c0.2,0.4,0.4,0.9,0.7,1.6c0.6,1.3,1.5,3,2.5,4.6
	c1,1.6,2,3.3,2.8,4.4c0.4,0.6,0.8,1.1,1,1.4C443.7,46.2,443.9,46.4,443.9,46.4z"/>
<path d="M433.6,42.3c0,0-0.1-0.2-0.3-0.7c-0.2-0.4-0.4-1-0.7-1.7c-0.6-1.4-1.6-3.2-2.6-5c-1-1.8-2.2-3.5-3.1-4.7
	c-1-1.2-1.7-1.9-1.7-1.9s0.1,0.2,0.3,0.6c0.2,0.4,0.5,1,0.9,1.6c0.7,1.3,1.7,3.1,2.8,4.9c1,1.8,2.1,3.5,3,4.7
	c0.4,0.6,0.8,1.1,1.1,1.5C433.5,42.1,433.6,42.3,433.6,42.3z"/>
<path d="M423.1,38.4c0,0-0.1-0.3-0.4-0.7c-0.3-0.5-0.7-1.1-1.2-1.9c-1-1.6-2.4-3.6-3.9-5.6c-1.5-2-3.1-3.9-4.4-5.3
	c-1.3-1.4-2.2-2.2-2.2-2.2s0.7,1,1.8,2.6c1.1,1.5,2.5,3.6,4,5.5c1.5,2,3.1,3.9,4.3,5.4c0.6,0.7,1.1,1.3,1.5,1.7
	C422.9,38.2,423.1,38.4,423.1,38.4z"/>
<path d="M409.8,34.2c0,0-0.2-0.3-0.5-0.9c-0.4-0.5-0.9-1.3-1.5-2.2c-1.3-1.8-3.1-4.2-5-6.4c-1-1.1-1.9-2.2-2.9-3.2
	c-0.9-1-1.9-1.9-2.7-2.7c-0.8-0.8-1.5-1.3-2-1.7c-0.5-0.4-0.8-0.6-0.8-0.6s0.2,0.3,0.7,0.7c0.4,0.5,1,1.2,1.8,2
	c1.4,1.7,3.3,3.9,5.2,6.2c1.9,2.2,3.8,4.5,5.3,6.1c0.7,0.8,1.4,1.5,1.8,2C409.5,33.9,409.8,34.2,409.8,34.2z"/>
<path d="M399.2,31.6c0,0-0.2-0.3-0.6-0.9c-0.4-0.6-0.9-1.4-1.6-2.3c-0.7-1-1.5-2-2.4-3.2c-0.9-1.2-1.9-2.4-2.9-3.5
	c-1-1.2-2.1-2.3-3.1-3.4c-1-1.1-2-2-2.9-2.8c-0.4-0.4-0.8-0.7-1.2-1c-0.4-0.3-0.7-0.6-1-0.7c-0.6-0.4-0.9-0.6-0.9-0.6
	s0.3,0.3,0.8,0.7c0.3,0.2,0.5,0.5,0.9,0.9c0.3,0.3,0.7,0.7,1.1,1.2c1.6,1.7,3.6,4.1,5.6,6.4c2,2.3,4.1,4.7,5.6,6.4
	c0.8,0.9,1.4,1.6,1.9,2.1C398.9,31.4,399.2,31.6,399.2,31.6z"/>
<path d="M386.6,29c0,0-1-1.5-2.6-3.6c-0.8-1-1.8-2.2-2.9-3.5c-1.1-1.2-2.3-2.5-3.6-3.8c-0.6-0.6-1.3-1.2-1.9-1.8
	c-0.6-0.6-1.3-1.1-1.9-1.7c-1.3-1.1-2.5-2-3.6-2.8c-0.5-0.4-1.1-0.7-1.5-1c-0.5-0.3-0.9-0.5-1.2-0.7c-0.7-0.4-1.1-0.6-1.1-0.6
	s0.4,0.3,1,0.7c0.3,0.2,0.7,0.5,1.1,0.8c0.4,0.3,0.9,0.7,1.4,1.1c0.5,0.4,1,0.9,1.6,1.4c0.6,0.5,1.1,1,1.8,1.6
	c1.2,1.1,2.5,2.3,3.7,3.6c1.3,1.2,2.5,2.5,3.6,3.7c1.2,1.2,2.2,2.3,3.1,3.2c0.9,1,1.7,1.8,2.2,2.3C386.3,28.7,386.6,29,386.6,29z"/>
<path d="M372.3,26.9c0,0-0.3-0.4-0.9-1c-0.6-0.6-1.4-1.6-2.5-2.6c-1-1.1-2.2-2.3-3.6-3.6c-1.3-1.3-2.8-2.7-4.2-4
	c-1.5-1.3-2.9-2.6-4.4-3.8c-1.4-1.2-2.8-2.3-4-3.2c-1.2-0.9-2.2-1.6-3-2c-0.8-0.4-1.2-0.7-1.2-0.7s0.4,0.3,1.1,0.8
	c0.3,0.3,0.7,0.6,1.2,1c0.5,0.4,1,0.8,1.5,1.3c1.1,1,2.4,2.1,3.8,3.4c1.4,1.3,2.8,2.6,4.3,3.9c1.5,1.3,2.9,2.7,4.3,3.9
	c1.4,1.2,2.7,2.4,3.8,3.4c1.1,1,2.1,1.8,2.7,2.4C372,26.6,372.3,26.9,372.3,26.9z"/>
<path d="M357.8,24.8c0,0-0.3-0.4-0.9-1c-0.6-0.6-1.4-1.6-2.4-2.7c-1-1.1-2.2-2.3-3.5-3.7c-1.3-1.3-2.7-2.7-4.2-4
	c-1.5-1.3-2.9-2.7-4.4-3.8c-0.7-0.6-1.4-1.2-2.1-1.7c-0.7-0.5-1.3-1-1.9-1.4c-0.6-0.4-1.2-0.8-1.7-1.1c-0.5-0.3-0.9-0.6-1.3-0.8
	c-0.8-0.4-1.2-0.7-1.2-0.7s0.4,0.3,1.1,0.8c0.7,0.5,1.6,1.3,2.8,2.2c1.1,0.9,2.4,2.1,3.8,3.3c0.7,0.6,1.4,1.3,2.1,1.9
	c0.7,0.7,1.4,1.3,2.2,2c2.9,2.7,5.8,5.3,8,7.3c1.1,1,2,1.8,2.6,2.4C357.5,24.4,357.8,24.8,357.8,24.8z"/>
<path d="M346.5,24c0,0-0.3-0.4-0.8-1.1c-0.6-0.7-1.3-1.7-2.3-2.9c-1-1.1-2.2-2.5-3.5-3.9c-1.3-1.4-2.8-2.8-4.3-4.2
	c-1.5-1.3-3.1-2.7-4.7-3.8c-0.8-0.6-1.5-1.1-2.3-1.6c-0.7-0.5-1.4-0.9-2.1-1.3c-0.7-0.4-1.3-0.7-1.8-1c-0.5-0.3-1-0.5-1.4-0.7
	c-0.8-0.4-1.3-0.6-1.3-0.6s0.4,0.3,1.2,0.8c0.4,0.2,0.8,0.5,1.3,0.9c0.5,0.4,1.1,0.8,1.7,1.2c0.6,0.4,1.3,0.9,2,1.5
	c0.7,0.5,1.4,1.1,2.1,1.7c0.8,0.6,1.5,1.2,2.3,1.9c0.8,0.6,1.5,1.3,2.3,2c0.8,0.7,1.5,1.4,2.2,2c0.7,0.7,1.5,1.3,2.1,2
	c1.4,1.3,2.7,2.5,3.7,3.6c1.1,1.1,2,2,2.6,2.6C346.1,23.7,346.5,24,346.5,24z"/>
<path d="M336.7,23c0,0-0.4-0.4-1-1c-0.6-0.6-1.5-1.6-2.7-2.6c-1.1-1.1-2.5-2.3-3.9-3.6c-0.7-0.6-1.5-1.3-2.3-2
	c-0.8-0.7-1.6-1.3-2.4-2c-1.6-1.3-3.3-2.6-4.9-3.7c-1.6-1.2-3.1-2.1-4.4-3c-0.7-0.4-1.3-0.8-1.8-1.1c-0.6-0.3-1-0.6-1.5-0.8
	c-0.8-0.4-1.3-0.6-1.3-0.6s0.4,0.3,1.2,0.8c0.4,0.2,0.8,0.5,1.4,0.9c0.5,0.4,1.1,0.8,1.7,1.2c1.3,0.9,2.7,2,4.2,3.2
	c1.5,1.2,3.2,2.5,4.8,3.8c1.6,1.3,3.2,2.6,4.7,3.8c1.5,1.2,2.9,2.4,4.1,3.4c1.2,1,2.2,1.8,2.9,2.4C336.3,22.6,336.7,23,336.7,23z"/>
<path d="M324.2,22.6c0,0-1.7-1.5-4.3-3.6c-1.3-1-2.9-2.2-4.6-3.4c-1.7-1.2-3.6-2.4-5.5-3.6c-1-0.6-1.9-1.2-2.9-1.7
	c-1-0.5-1.9-1.1-2.8-1.6c-1.9-1-3.6-1.8-5.2-2.5c-0.8-0.3-1.5-0.6-2.1-0.9c-0.6-0.3-1.2-0.4-1.7-0.6c-0.9-0.3-1.5-0.5-1.5-0.5
	s0.5,0.2,1.4,0.7c0.4,0.2,1,0.4,1.6,0.8c0.6,0.3,1.3,0.7,2,1c0.7,0.4,1.5,0.8,2.4,1.3c0.8,0.5,1.7,1,2.6,1.5
	c0.9,0.5,1.8,1.1,2.8,1.6c0.9,0.6,1.9,1.2,2.8,1.7c0.9,0.6,1.9,1.2,2.8,1.8c0.9,0.6,1.8,1.2,2.7,1.8c1.7,1.1,3.4,2.2,4.8,3.2
	C322.4,21.4,324.2,22.6,324.2,22.6z"/>
<path d="M306.3,22.7c0,0-0.4-0.3-1.2-0.8c-0.8-0.5-1.9-1.3-3.2-2.1c-1.4-0.8-2.9-1.8-4.6-2.8c-1.7-1-3.6-2-5.4-3.1
	c-1.9-1-3.8-2-5.6-2.8c-1.8-0.9-3.5-1.6-5-2.2c-0.7-0.3-1.4-0.6-2-0.8c-0.6-0.2-1.1-0.4-1.6-0.5c-0.9-0.3-1.4-0.4-1.4-0.4
	s0.5,0.2,1.3,0.6c0.9,0.4,2,0.9,3.5,1.6c1.4,0.7,3.1,1.6,4.8,2.5c1.8,0.9,3.6,1.9,5.5,2.9c3.7,2,7.5,4,10.3,5.5
	c1.4,0.8,2.6,1.3,3.4,1.8C305.9,22.5,306.3,22.7,306.3,22.7z"/>
<path d="M292.6,24.5c0,0-1.7-1.2-4.4-2.7c-1.4-0.8-2.9-1.7-4.6-2.6c-1.7-0.9-3.6-1.8-5.5-2.7c-1.9-0.9-3.8-1.7-5.6-2.4
	c-1.8-0.7-3.5-1.3-5-1.8c-1.5-0.5-2.8-0.8-3.6-1c-0.9-0.2-1.4-0.3-1.4-0.3s0.5,0.2,1.3,0.5c0.4,0.1,1,0.3,1.5,0.6
	c0.6,0.2,1.2,0.5,2,0.8c0.7,0.3,1.5,0.6,2.3,0.9c0.8,0.4,1.7,0.7,2.6,1.1c1.8,0.8,3.7,1.6,5.5,2.5c1.9,0.9,3.7,1.8,5.5,2.6
	c1.7,0.8,3.4,1.6,4.8,2.3c1.4,0.7,2.6,1.2,3.4,1.6C292.1,24.3,292.6,24.5,292.6,24.5z"/>
<path d="M275.5,27.8c0,0-0.4-0.3-1.1-0.7c-0.7-0.4-1.7-1.1-3-1.8c-1.3-0.7-2.7-1.5-4.3-2.3c-1.6-0.8-3.3-1.7-5.1-2.5
	c-1.8-0.8-3.5-1.6-5.2-2.3c-1.7-0.7-3.3-1.3-4.6-1.8c-1.4-0.5-2.5-0.9-3.3-1.1c-0.8-0.2-1.3-0.4-1.3-0.4s0.4,0.2,1.2,0.6
	c0.8,0.4,1.9,0.9,3.2,1.5c2.6,1.2,6.1,2.8,9.6,4.4c3.5,1.6,7,3.2,9.6,4.4c1.3,0.6,2.4,1.1,3.2,1.4C275.1,27.6,275.5,27.8,275.5,27.8
	z"/>
<path d="M263,30.8c0,0-0.4-0.2-1-0.6c-0.7-0.4-1.6-0.9-2.7-1.6c-1.2-0.6-2.5-1.3-3.9-2.1c-1.5-0.7-3-1.5-4.6-2.2
	c-0.8-0.3-1.6-0.7-2.4-1c-0.8-0.3-1.6-0.6-2.3-1c-1.5-0.6-3-1.1-4.2-1.5c-0.6-0.2-1.2-0.4-1.7-0.5c-0.5-0.2-1-0.3-1.3-0.4
	c-0.7-0.2-1.2-0.3-1.2-0.3s0.4,0.2,1.1,0.5c0.4,0.1,0.8,0.3,1.3,0.5c0.5,0.2,1,0.4,1.6,0.7c1.2,0.5,2.6,1.1,4.1,1.8
	c1.5,0.7,3.1,1.4,4.6,2.1c1.6,0.7,3.2,1.4,4.7,2.1c1.5,0.7,2.9,1.3,4.1,1.8c1.2,0.5,2.2,0.9,2.9,1.2C262.6,30.7,263,30.8,263,30.8z"
	/>
<path d="M247.8,34.5c0,0-0.3-0.2-0.8-0.6c-0.5-0.4-1.3-0.9-2.2-1.4c-0.9-0.5-2-1.1-3.2-1.7c-1.2-0.6-2.5-1.2-3.9-1.7
	c-2.7-1.1-5.4-2-7.5-2.5c-1-0.3-1.9-0.5-2.5-0.6c-0.6-0.1-1-0.2-1-0.2s0.3,0.1,0.9,0.4c0.6,0.2,1.4,0.6,2.4,1c1,0.4,2.2,0.8,3.4,1.3
	c1.2,0.5,2.6,1,3.9,1.6c2.6,1.1,5.3,2.2,7.2,3c1,0.4,1.8,0.8,2.4,1.1C247.5,34.3,247.8,34.5,247.8,34.5z"/>
<path d="M234.8,39.8c0,0-0.2-0.2-0.7-0.5c-0.4-0.3-1.1-0.8-1.9-1.2c-1.6-1-3.8-2.1-6.1-3.1c-0.6-0.2-1.2-0.5-1.7-0.7
	c-0.6-0.2-1.1-0.4-1.7-0.6c-0.5-0.2-1.1-0.3-1.6-0.5c-0.5-0.2-1-0.3-1.4-0.4c-0.9-0.2-1.7-0.3-2.2-0.4c-0.5-0.1-0.8-0.1-0.8-0.1
	s0.3,0.1,0.8,0.3c0.5,0.2,1.2,0.5,2.1,0.8c0.9,0.3,1.9,0.7,2.9,1.1c1.1,0.4,2.2,0.9,3.3,1.4c2.3,0.9,4.5,1.9,6.2,2.6
	C233.7,39.3,234.8,39.8,234.8,39.8z"/>
<path d="M224.2,44.1c0,0-0.2-0.1-0.6-0.4c-0.4-0.2-1-0.5-1.7-0.9c-1.4-0.7-3.4-1.5-5.3-2.3c-1-0.4-2-0.7-2.9-1
	c-0.9-0.3-1.8-0.5-2.6-0.7c-0.8-0.2-1.4-0.3-1.9-0.3c-0.5-0.1-0.7-0.1-0.7-0.1s1,0.4,2.5,1c1.5,0.6,3.4,1.3,5.4,2.1
	c2,0.7,4,1.4,5.5,1.9c0.8,0.2,1.4,0.4,1.8,0.5C223.9,44.1,224.2,44.1,224.2,44.1z"/>
<path d="M210.8,49.1c0,0-0.7-0.4-1.7-0.9c-1-0.5-2.5-1.1-3.9-1.6c-1.5-0.5-3-0.9-4.1-1.1c-1.1-0.2-1.9-0.3-1.9-0.3s0.7,0.4,1.8,0.8
	c1.1,0.5,2.5,1,3.9,1.5c1.5,0.5,2.9,0.9,4.1,1.2C210,49,210.8,49.1,210.8,49.1z"/>
<path d="M199,54.8c0,0-0.5-0.4-1.4-0.9c-0.8-0.5-2-1-3.2-1.5c-1.2-0.4-2.4-0.8-3.4-0.9c-1-0.2-1.6-0.1-1.6-0.1s0.6,0.3,1.5,0.7
	c0.9,0.4,2,0.9,3.2,1.3c1.2,0.4,2.4,0.8,3.3,1.1C198.4,54.7,199,54.8,199,54.8z"/>
<path d="M183.8,62.3c0,0-0.4-0.3-1-0.7c-0.6-0.4-1.5-0.8-2.4-1.1c-0.9-0.3-1.9-0.6-2.6-0.7c-0.7-0.1-1.2-0.1-1.2-0.1
	s0.4,0.3,1.1,0.6c0.6,0.3,1.5,0.7,2.4,1.1c0.9,0.3,1.8,0.6,2.6,0.7C183.3,62.3,183.8,62.3,183.8,62.3z"/>
<path d="M173,67.9c0,0-0.4-0.3-1-0.6c-0.6-0.3-1.5-0.6-2.3-0.8c-0.9-0.2-1.7-0.4-2.4-0.4c-0.7-0.1-1.1,0-1.1,0s0.4,0.3,1,0.6
	c0.6,0.3,1.5,0.6,2.3,0.8c0.9,0.2,1.7,0.4,2.4,0.4C172.5,67.9,173,67.9,173,67.9z"/>
<path d="M159.2,74.8c0,0-0.4-0.2-1.1-0.4c-0.7-0.2-1.5-0.3-2.4-0.4c-0.9-0.1-1.8-0.1-2.4,0c-0.7,0.1-1.1,0.2-1.1,0.2
	s0.4,0.2,1.1,0.4c0.7,0.2,1.5,0.3,2.4,0.4c0.9,0.1,1.8,0.1,2.4,0C158.7,74.9,159.2,74.8,159.2,74.8z"/>
<path d="M144.9,81.4c0,0-0.4-0.2-0.9-0.3c-0.5-0.1-1.3-0.2-2-0.2c-0.7,0-1.4,0.1-2,0.2c-0.5,0.1-0.9,0.3-0.9,0.3s0.4,0.2,0.9,0.3
	c0.5,0.1,1.3,0.2,2,0.2c0.7,0,1.4-0.1,2-0.2C144.5,81.6,144.9,81.4,144.9,81.4z"/>
<path d="M411,190c0,0-0.9,1.3-2.3,3.2c-0.7,1-1.4,2.1-2.3,3.3c-0.8,1.2-1.7,2.5-2.6,3.8c-1.8,2.6-3.5,5.1-4.9,7
	c-0.7,0.9-1.3,1.7-1.7,2.2c-0.4,0.5-0.7,0.8-0.7,0.8s0.3-0.2,0.8-0.7c0.3-0.2,0.6-0.5,0.9-0.9c0.3-0.3,0.7-0.7,1.1-1.2
	c0.8-0.9,1.7-1.9,2.6-3.1c0.9-1.2,1.8-2.4,2.7-3.7c1.8-2.6,3.4-5.2,4.5-7.3c0.6-1,1-1.9,1.3-2.5C410.8,190.4,411,190,411,190z"/>
<path d="M401.2,193c0,0-0.2,0.3-0.6,0.8c-0.4,0.5-0.9,1.2-1.5,2.1c-1.2,1.8-2.8,4.2-4.2,6.7c-1.5,2.5-2.9,5-3.9,6.9
	c-0.5,1-0.9,1.8-1.2,2.3c-0.3,0.6-0.4,0.9-0.4,0.9s0.2-0.3,0.6-0.8c0.4-0.5,0.9-1.2,1.5-2.1c1.2-1.8,2.7-4.2,4.2-6.7
	c1.5-2.5,2.9-5,3.9-6.9c0.5-1,0.9-1.8,1.2-2.3C401.1,193.3,401.2,193,401.2,193z"/>
<path d="M389.7,196c0,0-0.2,0.3-0.5,0.9c-0.3,0.6-0.8,1.4-1.4,2.3c-1.1,2-2.6,4.6-4.1,7.2c-0.7,1.3-1.5,2.6-2.2,3.8
	c-0.7,1.2-1.4,2.3-1.9,3.3c-1.2,1.9-1.9,3.2-1.9,3.2s1-1.1,2.4-2.9c0.7-0.9,1.4-2,2.2-3.2c0.8-1.2,1.5-2.5,2.3-3.8
	c0.7-1.3,1.4-2.6,2.1-3.9c0.6-1.3,1.2-2.5,1.6-3.5c0.5-1,0.8-1.9,1-2.5C389.6,196.4,389.7,196,389.7,196z"/>
<path d="M374.2,198.5c0,0-0.2,0.4-0.5,1c-0.3,0.6-0.9,1.5-1.5,2.5c-0.6,1-1.4,2.2-2.2,3.5c-0.8,1.3-1.7,2.6-2.6,4
	c-0.9,1.3-1.8,2.7-2.6,3.9c-0.8,1.3-1.6,2.5-2.3,3.5c-0.7,1-1.2,1.9-1.6,2.5c-0.4,0.6-0.6,1-0.6,1s0.3-0.3,0.7-0.8
	c0.5-0.5,1.1-1.3,1.9-2.3c0.7-1,1.7-2.1,2.5-3.3c0.9-1.2,1.8-2.6,2.7-3.9c0.9-1.4,1.8-2.7,2.5-4c0.8-1.3,1.4-2.6,2-3.7
	c0.6-1.1,0.9-2,1.2-2.7C374.1,198.9,374.2,198.5,374.2,198.5z"/>
<path d="M357.7,199.8c0,0-0.3,0.4-0.9,1.1c-0.5,0.7-1.4,1.6-2.3,2.8c-1.9,2.4-4.4,5.5-6.9,8.6c-1.2,1.6-2.5,3.1-3.7,4.6
	c-0.6,0.7-1.2,1.4-1.7,2.1c-0.5,0.7-1.1,1.3-1.6,1.8c-0.5,0.6-1,1.1-1.4,1.5c-0.4,0.5-0.8,0.9-1.1,1.2c-0.6,0.6-1,1-1,1
	s0.4-0.3,1.1-0.9c0.3-0.3,0.8-0.6,1.2-1c0.5-0.4,1-0.9,1.5-1.4c1.1-1.1,2.3-2.3,3.6-3.7c1.3-1.4,2.6-3,3.8-4.5
	c1.3-1.6,2.5-3.2,3.6-4.7c1.1-1.5,2.1-3,3-4.2c0.9-1.2,1.5-2.3,2-3.1C357.4,200.2,357.7,199.8,357.7,199.8z"/>
<path d="M341.7,201.8c0,0-0.3,0.4-0.9,1.1c-0.6,0.7-1.4,1.7-2.4,2.9c-1,1.2-2.1,2.6-3.4,4.1c-1.2,1.5-2.5,3.2-3.8,4.8
	c-2.6,3.3-5.2,6.5-7.1,9c-2,2.4-3.3,4.1-3.3,4.1s0.4-0.4,1-1c0.7-0.6,1.6-1.6,2.7-2.7c1.1-1.2,2.3-2.5,3.6-4
	c0.6-0.8,1.3-1.5,1.9-2.3c0.6-0.8,1.3-1.6,2-2.4c1.3-1.6,2.6-3.3,3.7-4.9c1.2-1.6,2.2-3.1,3.1-4.3c0.9-1.3,1.6-2.4,2.1-3.1
	C341.4,202.2,341.7,201.8,341.7,201.8z"/>
<path d="M324.7,203c0,0-1.3,1.6-3.2,4.1c-0.9,1.2-2.1,2.6-3.3,4.2c-1.2,1.5-2.5,3.1-3.8,4.7c-0.7,0.8-1.3,1.6-2,2.4
	c-0.7,0.8-1.3,1.5-1.9,2.3c-0.6,0.7-1.2,1.4-1.8,2.1c-0.6,0.7-1.2,1.3-1.7,1.8c-0.5,0.6-1,1.1-1.4,1.5c-0.4,0.5-0.8,0.8-1.1,1.2
	c-0.6,0.7-1,1-1,1s0.4-0.3,1.1-0.9c0.3-0.3,0.8-0.6,1.3-1c0.5-0.4,1-0.9,1.6-1.4c1.1-1.1,2.4-2.3,3.8-3.8c1.3-1.4,2.7-3,4-4.6
	c1.3-1.6,2.6-3.2,3.7-4.8c1.2-1.6,2.2-3.1,3-4.4c0.9-1.3,1.5-2.4,2-3.2C324.5,203.5,324.7,203,324.7,203z"/>
<path d="M305,202.8c0,0-0.3,0.5-0.9,1.3c-0.3,0.4-0.6,0.9-1.1,1.4c-0.4,0.5-0.9,1.1-1.5,1.8c-0.6,0.6-1.2,1.3-1.8,2
	c-0.7,0.7-1.4,1.4-2.1,2.2c-0.7,0.8-1.5,1.5-2.3,2.3c-0.8,0.8-1.6,1.5-2.5,2.3c-0.8,0.8-1.7,1.5-2.5,2.3c-0.8,0.7-1.7,1.5-2.4,2.2
	c-1.6,1.4-3.1,2.7-4.4,3.8c-1.3,1.1-2.4,2-3.1,2.7c-0.7,0.7-1.2,1-1.2,1s0.5-0.3,1.3-0.9c0.4-0.3,0.9-0.6,1.5-1
	c0.6-0.4,1.2-0.8,1.9-1.4c1.3-1,3-2.2,4.6-3.6c0.8-0.7,1.7-1.4,2.5-2.1c0.8-0.7,1.7-1.5,2.5-2.3c0.8-0.8,1.7-1.6,2.4-2.4
	c0.8-0.8,1.6-1.6,2.3-2.4c0.7-0.8,1.4-1.6,2-2.3c0.6-0.7,1.2-1.5,1.7-2.1c0.5-0.7,1-1.3,1.3-1.9c0.4-0.6,0.7-1.1,0.9-1.5
	C304.8,203.3,305,202.8,305,202.8z"/>
<path d="M285,202.5c0,0-1.5,1.8-3.8,4.3c-1.2,1.3-2.6,2.7-4.2,4.1c-0.8,0.7-1.6,1.5-2.5,2.2c-0.4,0.4-0.8,0.7-1.3,1.1l-1.3,1.1
	c-0.9,0.7-1.8,1.4-2.7,2.1c-0.9,0.7-1.8,1.3-2.7,2c-0.9,0.6-1.7,1.2-2.6,1.7c-0.8,0.6-1.6,1.1-2.3,1.5c-0.7,0.4-1.4,0.9-2,1.2
	c-0.6,0.3-1.1,0.6-1.6,0.9c-0.9,0.5-1.4,0.8-1.4,0.8s0.5-0.2,1.5-0.6c0.5-0.2,1-0.4,1.7-0.7c0.6-0.3,1.3-0.7,2.1-1.1
	c0.8-0.4,1.6-0.8,2.4-1.4c0.9-0.5,1.8-1,2.7-1.6c0.9-0.6,1.9-1.2,2.7-1.9c0.9-0.7,1.8-1.4,2.7-2.1l1.3-1.1c0.4-0.4,0.9-0.8,1.3-1.1
	c0.9-0.7,1.6-1.6,2.4-2.3c1.5-1.5,2.9-3.1,4-4.4c1.1-1.3,1.9-2.5,2.5-3.3C284.7,203,285,202.5,285,202.5z"/>
<path d="M268.5,199.8c0,0-0.4,0.3-1.1,0.9c-0.7,0.6-1.7,1.5-2.9,2.5c-1.2,1-2.6,2.2-4,3.5c-1.5,1.3-3,2.7-4.6,4
	c-1.6,1.4-3.2,2.7-4.7,4c-1.5,1.2-2.9,2.4-4.2,3.3c-0.6,0.5-1.2,0.9-1.7,1.3c-0.5,0.4-1,0.7-1.4,0.9c-0.8,0.5-1.2,0.8-1.2,0.8
	s0.5-0.2,1.3-0.6c0.4-0.2,0.9-0.5,1.5-0.8c0.6-0.3,1.2-0.7,1.8-1.1c1.3-0.9,2.8-1.9,4.4-3.1c1.6-1.2,3.2-2.5,4.8-3.9
	c0.8-0.7,1.6-1.4,2.3-2.1c0.8-0.7,1.5-1.4,2.2-2.1c1.4-1.3,2.7-2.7,3.8-3.8c1.1-1.1,2-2.1,2.6-2.8
	C268.1,200.2,268.5,199.8,268.5,199.8z"/>
<path d="M251.5,197.8c0,0-0.3,0.3-0.9,0.9c-0.6,0.6-1.5,1.3-2.5,2.2c-1.1,0.9-2.3,1.9-3.7,3c-1.4,1.1-2.8,2.2-4.3,3.3
	c-0.7,0.6-1.5,1.1-2.2,1.7c-0.7,0.5-1.5,1.1-2.2,1.6c-1.4,1-2.7,2-3.9,2.8c-1.1,0.8-2.1,1.5-2.7,2c-0.7,0.5-1,0.8-1,0.8
	s0.4-0.2,1.1-0.6c0.7-0.4,1.8-0.9,2.9-1.7c1.2-0.7,2.6-1.6,4.1-2.6c1.5-1,3-2,4.5-3.2c1.5-1.1,3-2.3,4.3-3.4
	c0.7-0.6,1.3-1.1,1.9-1.7c0.6-0.6,1.1-1.1,1.6-1.6c1-1,1.8-1.9,2.3-2.5C251.2,198.2,251.5,197.8,251.5,197.8z"/>
<path d="M236.2,195.5c0,0-4.9,3.6-9.8,7.2c-0.6,0.4-1.2,0.9-1.8,1.3c-0.6,0.4-1.2,0.8-1.8,1.3c-0.6,0.4-1.1,0.8-1.7,1.2
	c-0.5,0.4-1,0.7-1.5,1c-0.9,0.6-1.7,1.2-2.3,1.5c-0.6,0.4-0.9,0.6-0.9,0.6s0.4-0.1,1-0.4c0.6-0.3,1.5-0.7,2.5-1.2
	c1-0.5,2.2-1.2,3.4-1.9c1.2-0.7,2.5-1.6,3.7-2.5c1.2-0.9,2.4-1.8,3.5-2.7c1.1-0.9,2.1-1.8,2.9-2.6
	C235.2,196.6,236.2,195.5,236.2,195.5z"/>
<path d="M218.5,191.8c0,0-1.1,0.6-2.6,1.6c-0.8,0.5-1.7,1-2.7,1.6c-1,0.6-2,1.2-3.1,1.9c-2.1,1.3-4.2,2.5-5.8,3.4
	c-0.8,0.5-1.4,0.9-1.9,1.1c-0.5,0.3-0.7,0.4-0.7,0.4s0.3-0.1,0.8-0.3c0.5-0.2,1.2-0.4,2.1-0.8c0.9-0.3,1.8-0.8,2.9-1.3
	c1-0.5,2.1-1.1,3.2-1.8c2.1-1.3,4.1-2.7,5.5-3.9c0.7-0.6,1.3-1.1,1.7-1.5C218.2,192,218.5,191.8,218.5,191.8z"/>
<path d="M198.5,182.5c0,0-0.2,0.1-0.7,0.4c-0.4,0.2-1,0.6-1.7,1c-1.4,0.8-3.2,2-5,3.2c-1.8,1.2-3.6,2.4-4.9,3.3
	c-0.7,0.4-1.2,0.8-1.6,1.1c-0.4,0.2-0.6,0.4-0.6,0.4s0.3-0.1,0.7-0.2c0.2-0.1,0.5-0.2,0.8-0.3c0.3-0.1,0.7-0.2,1-0.4
	c0.7-0.3,1.6-0.8,2.5-1.3c0.9-0.5,1.8-1.1,2.7-1.7c1.8-1.2,3.5-2.5,4.8-3.6c0.6-0.5,1.1-1,1.5-1.3
	C198.3,182.7,198.5,182.5,198.5,182.5z"/>
<path d="M184.5,177.5c0,0-0.2,0.1-0.7,0.2c-0.4,0.2-1,0.4-1.7,0.7c-1.4,0.6-3.2,1.4-5,2.3c-1.8,0.9-3.6,1.8-4.9,2.6
	c-0.7,0.4-1.2,0.7-1.6,0.9c-0.4,0.2-0.6,0.4-0.6,0.4s1-0.2,2.4-0.7c1.4-0.5,3.3-1.3,5.1-2.2c1.8-0.9,3.6-1.9,4.9-2.7
	c0.6-0.4,1.2-0.8,1.5-1C184.3,177.7,184.5,177.5,184.5,177.5z"/>
<path d="M173.2,171.5c0,0-0.9,0.3-2.1,0.8c-1.2,0.5-2.8,1.2-4.4,2c-1.6,0.8-3.1,1.7-4.2,2.4c-1.1,0.7-1.8,1.3-1.8,1.3
	s0.9-0.3,2.1-0.8c1.2-0.5,2.8-1.2,4.4-2c1.6-0.8,3.1-1.7,4.2-2.4C172.5,172.1,173.2,171.5,173.2,171.5z"/>
<path d="M162,166c0,0-0.7,0.2-1.6,0.7c-1,0.4-2.2,1.1-3.4,1.8c-1.2,0.7-2.3,1.5-3.2,2.2c-0.8,0.6-1.3,1.1-1.3,1.1s0.7-0.2,1.6-0.7
	c1-0.4,2.2-1.1,3.4-1.8c1.2-0.7,2.3-1.5,3.2-2.2C161.4,166.5,162,166,162,166z"/>
<path d="M150.2,161.3c0,0-0.5,0.1-1.2,0.3c-0.7,0.2-1.6,0.6-2.5,1.1c-0.9,0.5-1.7,1-2.3,1.5c-0.6,0.5-1,0.8-1,0.8s0.5-0.1,1.2-0.3
	c0.7-0.2,1.6-0.6,2.5-1.1c0.9-0.5,1.7-1,2.3-1.5C149.8,161.6,150.2,161.3,150.2,161.3z"/>
<path d="M139.2,156c0,0-0.3-0.1-0.7-0.1c-0.4,0-0.9,0.1-1.4,0.2c-0.5,0.2-0.9,0.4-1.2,0.6c-0.3,0.2-0.5,0.5-0.5,0.5s0.3,0.1,0.7,0.1
	c0.4,0,0.9-0.1,1.4-0.2c0.5-0.2,0.9-0.4,1.2-0.6C139,156.3,139.2,156,139.2,156z"/>
<path d="M67.7,78.3c0,0-0.6-0.4-1.6-1.2c-1-0.7-2.4-1.8-4.2-3.1c-1.8-1.2-3.8-2.7-6-4.2c-2.2-1.5-4.6-3.1-7-4.6
	c-2.4-1.5-4.9-3-7.2-4.4c-1.2-0.7-2.3-1.3-3.4-1.9c-1.1-0.6-2.1-1.1-3.1-1.6c-0.9-0.5-1.8-0.9-2.6-1.3c-0.8-0.4-1.5-0.7-2.1-0.9
	c-1.2-0.5-1.8-0.7-1.8-0.7s0.6,0.3,1.7,0.9c1.1,0.6,2.7,1.5,4.5,2.5c1.9,1.1,4,2.4,6.3,3.8c2.3,1.4,4.7,2.9,7.1,4.5
	c2.4,1.5,4.8,3.1,7.1,4.5c2.3,1.4,4.4,2.8,6.2,4c1.8,1.1,3.3,2.1,4.4,2.8C67.1,77.9,67.7,78.3,67.7,78.3z"/>
<path d="M65.2,80.3c0,0-0.5-0.3-1.5-1c-1-0.6-2.3-1.5-4-2.4c-1.7-1-3.6-2.1-5.8-3.3c-2.1-1.2-4.4-2.4-6.7-3.7
	c-2.3-1.2-4.6-2.4-6.8-3.5c-2.2-1.1-4.2-2.1-6-2.9c-1.8-0.8-3.3-1.4-4.3-1.9c-1.1-0.4-1.7-0.6-1.7-0.6s0.6,0.3,1.6,0.8
	c1,0.5,2.4,1.3,4.2,2.2c3.4,1.8,8,4.3,12.5,6.8c2.3,1.2,4.6,2.4,6.7,3.6c2.2,1.1,4.2,2.2,5.9,3.1c1.7,0.9,3.2,1.6,4.2,2.1
	C64.6,80,65.2,80.3,65.2,80.3z"/>
<path d="M64.7,83.5c0,0-0.6-0.2-1.6-0.6c-1-0.4-2.5-1-4.3-1.6c-1.8-0.6-3.8-1.4-6.1-2.2c-2.2-0.8-4.6-1.6-7-2.4
	c-2.4-0.8-4.8-1.5-7-2.2c-2.3-0.7-4.4-1.3-6.2-1.9c-1.8-0.5-3.3-0.9-4.4-1.2c-1.1-0.3-1.7-0.4-1.7-0.4s0.6,0.2,1.6,0.6
	c1,0.4,2.5,1,4.3,1.6c1.8,0.6,3.8,1.4,6.1,2.2c2.2,0.8,4.6,1.6,7,2.4c2.4,0.8,4.8,1.5,7,2.2c2.3,0.7,4.4,1.3,6.2,1.9
	c1.8,0.5,3.3,0.9,4.4,1.2C64.1,83.4,64.7,83.5,64.7,83.5z"/>
<path d="M60,89.8c0,0-0.6-0.1-1.7-0.4c-1.1-0.2-2.6-0.6-4.5-0.9c-1.9-0.4-4-0.8-6.4-1.2c-2.3-0.4-4.8-0.9-7.3-1.3
	c-2.5-0.4-5-0.8-7.4-1.2c-2.3-0.4-4.6-0.7-6.4-0.9c-1.9-0.3-3.5-0.4-4.6-0.6C20.6,83.1,20,83,20,83s0.6,0.1,1.7,0.4
	c1.1,0.2,2.6,0.6,4.5,0.9c1.9,0.4,4,0.8,6.4,1.2c2.3,0.4,4.8,0.9,7.3,1.3c2.5,0.4,5,0.8,7.4,1.2c2.3,0.4,4.6,0.7,6.4,0.9
	c1.9,0.3,3.5,0.4,4.6,0.6C59.3,89.7,60,89.8,60,89.8z"/>
<path d="M59.2,96.3c0,0-0.7-0.1-1.9-0.4c-1.2-0.2-2.9-0.6-4.9-1c-2-0.4-4.4-0.8-6.9-1.3c-2.5-0.5-5.3-0.9-8-1.3
	c-2.7-0.4-5.4-0.9-8-1.2c-2.6-0.4-4.9-0.7-7-1c-2-0.3-3.8-0.5-5-0.6c-1.2-0.1-1.9-0.2-1.9-0.2s0.7,0.1,1.9,0.4
	c1.2,0.2,2.9,0.6,4.9,1c2,0.4,4.4,0.8,6.9,1.3c2.5,0.5,5.3,0.9,8,1.3c2.7,0.4,5.4,0.9,8,1.2c2.6,0.4,4.9,0.7,7,1
	c2,0.3,3.8,0.5,5,0.6C58.5,96.2,59.2,96.3,59.2,96.3z"/>
<path d="M56.2,105.5c0,0-0.7-0.2-2-0.4c-1.2-0.3-3-0.7-5.2-1.1c-2.1-0.4-4.6-0.9-7.3-1.4c-2.7-0.5-5.6-0.9-8.4-1.4
	c-2.9-0.4-5.8-0.8-8.5-1.2c-2.7-0.4-5.2-0.6-7.4-0.9c-1.1-0.1-2.1-0.2-3-0.3c-0.9-0.1-1.7-0.1-2.3-0.2c-1.3-0.1-2-0.1-2-0.1
	s0.7,0.1,2,0.3c1.3,0.2,3.1,0.5,5.2,0.8c4.3,0.7,10,1.6,15.8,2.6c2.9,0.4,5.7,0.9,8.4,1.3c2.7,0.4,5.2,0.8,7.4,1.1
	c2.2,0.3,4,0.5,5.2,0.7C55.5,105.4,56.2,105.5,56.2,105.5z"/>
<path d="M55.7,115.3c0,0-0.7,0-2,0c-1.3,0-3.1,0-5.4,0c-2.2,0-4.8,0.1-7.6,0.2c-2.8,0.1-5.7,0.2-8.7,0.3c-3,0.2-5.9,0.4-8.7,0.6
	c-2.8,0.2-5.3,0.5-7.6,0.7c-4.4,0.4-7.3,1-7.3,1s0.7-0.1,2-0.1c1.3-0.1,3.1-0.2,5.4-0.3c4.4-0.2,10.3-0.5,16.2-0.8
	c3-0.2,5.9-0.3,8.7-0.5c2.8-0.1,5.4-0.3,7.6-0.5c2.2-0.1,4.1-0.3,5.4-0.4C55,115.3,55.7,115.3,55.7,115.3z"/>
<path d="M55.7,124.8c0,0-0.7,0-2,0c-1.3,0-3.1,0-5.4,0c-2.2,0.1-4.8,0.1-7.6,0.2c-2.8,0.1-5.7,0.3-8.7,0.5c-3,0.2-5.9,0.5-8.7,0.8
	c-1.4,0.2-2.7,0.3-4,0.5c-1.3,0.2-2.5,0.4-3.5,0.6c-1.1,0.2-2.1,0.4-3,0.6c-0.9,0.2-1.6,0.4-2.3,0.6c-1.2,0.4-1.9,0.7-1.9,0.7
	s0.7-0.2,2-0.5c0.6-0.1,1.4-0.2,2.3-0.4c0.9-0.2,1.9-0.3,3-0.4c1.1-0.2,2.3-0.3,3.5-0.4c1.3-0.1,2.6-0.3,4-0.4
	c2.8-0.3,5.7-0.5,8.6-0.7c2.9-0.2,5.9-0.5,8.7-0.6c2.8-0.2,5.3-0.4,7.6-0.5C52.8,125,55.7,124.8,55.7,124.8z"/>
<path d="M58,132c0,0-0.8,0.1-2.1,0.2c-1.3,0.1-3.2,0.3-5.5,0.6c-2.3,0.3-4.9,0.7-7.7,1.2c-2.8,0.5-5.8,1-8.8,1.6c-3,0.6-6,1.3-8.8,2
	c-1.4,0.3-2.7,0.7-4,1c-1.3,0.4-2.5,0.7-3.6,1c-2.2,0.6-4,1.3-5.3,1.7c-1.3,0.4-2,0.7-2,0.7s0.7-0.2,2-0.5c0.6-0.2,1.4-0.4,2.3-0.6
	c0.9-0.2,1.9-0.5,3-0.7c1.1-0.3,2.3-0.5,3.6-0.8c1.3-0.3,2.6-0.6,4-0.9c1.4-0.3,2.8-0.6,4.3-0.9c1.5-0.3,3-0.6,4.5-0.9
	c3-0.6,6-1.2,8.8-1.7c2.8-0.5,5.4-1,7.7-1.5C55,132.6,58,132,58,132z"/>
<path d="M63,138.3c0,0-0.9,0.2-2.4,0.6c-1.5,0.4-3.6,0.9-6.2,1.6c-2.6,0.7-5.5,1.5-8.7,2.4c-3.2,0.9-6.6,1.9-9.9,2.9
	c-3.4,1.1-6.7,2.1-9.9,3.2c-3.1,1-6.1,2.1-8.5,3c-1.2,0.4-2.4,0.9-3.4,1.3c-1,0.4-1.9,0.8-2.6,1.1c-0.7,0.3-1.2,0.6-1.6,0.8
	c-0.4,0.2-0.6,0.3-0.6,0.3s0.2-0.1,0.6-0.2c0.4-0.1,0.9-0.4,1.7-0.7c0.7-0.3,1.6-0.6,2.6-0.9c1-0.3,2.2-0.7,3.4-1.1
	c2.5-0.8,5.5-1.7,8.6-2.7c3.2-1,6.5-2,9.9-3c3.4-1,6.7-2.1,9.9-3.1c3.2-1,6.1-1.9,8.6-2.7c2.5-0.8,4.6-1.5,6.1-2
	C62.1,138.5,63,138.3,63,138.3z"/>
<path d="M63.7,143.3c0,0-0.9,0.3-2.5,0.9c-1.6,0.6-3.8,1.4-6.5,2.4c-2.7,1-5.8,2.2-9.1,3.5c-3.3,1.3-6.9,2.8-10.4,4.2
	c-3.5,1.5-7.1,3-10.4,4.4c-3.3,1.4-6.4,2.8-9,4c-2.6,1.2-4.8,2.2-6.3,2.9c-1.5,0.8-2.3,1.2-2.3,1.2s0.9-0.4,2.4-1
	c1.6-0.6,3.8-1.5,6.4-2.6c2.7-1.1,5.8-2.3,9.1-3.7c3.3-1.4,6.9-2.8,10.4-4.2c3.5-1.5,7.1-2.9,10.4-4.3c3.3-1.4,6.4-2.7,9-3.8
	c2.6-1.1,4.8-2.1,6.4-2.8C62.8,143.7,63.7,143.3,63.7,143.3z"/>
</svg>
